<svg xmlns="http://www.w3.org/2000/svg" xmlns:xlink="http://www.w3.org/1999/xlink" width="500" zoomAndPan="magnify" viewBox="0 0 375 374.999991" height="500" preserveAspectRatio="xMidYMid meet" version="1.0"><defs><clipPath id="77111d613e"><path d="M 70.359375 73 L 250 73 L 250 292 L 70.359375 292 Z M 70.359375 73 " clip-rule="nonzero"/></clipPath></defs><g clip-path="url(#77111d613e)"><path fill="#000000" d="M 133.714844 186.601562 L 127.980469 187.175781 C 120.054688 188.195312 112.132812 188.15625 104.214844 187.0625 C 82.863281 183.390625 70.472656 169.050781 70.359375 147.382812 C 70.355469 142.867188 70.675781 138.375 71.320312 133.90625 C 71.96875 129.4375 72.929688 125.039062 74.210938 120.707031 C 75.496094 116.378906 77.082031 112.164062 78.972656 108.0625 C 80.863281 103.960938 83.039062 100.019531 85.5 96.230469 C 90.269531 88.269531 96.339844 81.460938 103.699219 75.808594 C 104.625 74.945312 105.675781 74.277344 106.847656 73.796875 C 108.019531 73.320312 109.238281 73.066406 110.503906 73.035156 C 109.453125 74.183594 108.898438 74.949219 108.289062 75.445312 C 89.476562 93.152344 78.386719 114.742188 76.09375 140.519531 C 75.691406 145.574219 75.972656 150.589844 76.933594 155.566406 C 79.476562 169.242188 89.726562 178.667969 104.0625 181.230469 C 114.136719 183.027344 124.15625 182.128906 134.171875 180.789062 C 136.457031 180.308594 138.765625 180.003906 141.09375 179.871094 C 141.832031 179.859375 142.535156 180.007812 143.207031 180.316406 C 143.875 180.625 144.445312 181.0625 144.917969 181.632812 C 145.109375 182.328125 145.144531 183.03125 145.015625 183.742188 C 144.890625 184.453125 144.613281 185.101562 144.191406 185.683594 C 142.621094 187.566406 140.929688 189.328125 139.105469 190.964844 C 134.820312 195.234375 130.828125 199.765625 127.128906 204.554688 C 123.429688 209.34375 120.054688 214.351562 117.007812 219.578125 C 113.957031 224.804688 111.257812 230.207031 108.910156 235.785156 C 106.5625 241.359375 104.582031 247.066406 102.972656 252.898438 C 101.882812 256.886719 101.285156 260.949219 101.175781 265.082031 C 100.964844 273.265625 104.3125 277.835938 111.996094 280.742188 C 118.425781 282.914062 125.035156 283.933594 131.820312 283.800781 C 144.570312 283.953125 157.222656 282.902344 169.769531 280.644531 C 192.328125 276.707031 214.792969 272.269531 237.292969 268.042969 C 240.140625 267.507812 243.027344 266.953125 245.839844 266.4375 C 247.445312 266.132812 249.070312 266.171875 249.664062 267.929688 C 249.816406 268.332031 249.886719 268.753906 249.875 269.183594 C 249.859375 269.617188 249.761719 270.03125 249.582031 270.421875 C 249.402344 270.816406 249.15625 271.160156 248.835938 271.453125 C 248.519531 271.75 248.15625 271.96875 247.75 272.117188 C 245.433594 273.292969 243.011719 274.183594 240.488281 274.792969 C 222.25 278.523438 204.046875 282.558594 185.695312 285.636719 C 171.414062 288.027344 157.019531 289.308594 142.527344 290.839844 C 133.789062 291.675781 125.125 291.203125 116.527344 289.421875 C 114.128906 288.953125 111.789062 288.269531 109.511719 287.375 C 99.148438 283.359375 93.796875 275.902344 94.21875 264.792969 C 94.523438 258.828125 95.558594 252.988281 97.316406 247.277344 C 100.539062 236.707031 104.921875 226.644531 110.464844 217.085938 C 116.007812 207.527344 122.566406 198.722656 130.140625 190.675781 C 131.171875 189.683594 132.089844 188.476562 133.714844 186.601562 Z M 133.714844 186.601562 " fill-opacity="1" fill-rule="nonzero"/></g><path fill="#000000" d="M 294.492188 263.550781 C 288.546875 261.886719 283.769531 260.53125 278.988281 259.230469 C 259.222656 253.816406 240.316406 246.015625 221.214844 238.730469 C 219.015625 237.890625 216.113281 237.296875 215.765625 233.355469 C 216.972656 233.554688 218.167969 233.824219 219.34375 234.160156 C 236.414062 239.898438 253.429688 245.765625 270.558594 251.234375 C 279.125 253.96875 287.9375 255.921875 296.636719 258.234375 C 297.675781 258.46875 298.703125 258.761719 299.714844 259.113281 C 303.824219 260.703125 304.300781 263.855469 300.859375 266.761719 C 299.769531 267.601562 298.632812 268.378906 297.457031 269.097656 L 253.488281 298.199219 C 251.976562 299.234375 250.414062 300.183594 248.804688 301.050781 C 248.480469 301.273438 248.128906 301.421875 247.742188 301.5 C 247.359375 301.578125 246.976562 301.582031 246.59375 301.503906 C 246.207031 301.425781 245.855469 301.277344 245.53125 301.054688 C 245.207031 300.832031 244.941406 300.558594 244.730469 300.226562 C 244.441406 299.5625 244.308594 298.863281 244.328125 298.140625 C 244.347656 297.414062 244.519531 296.726562 244.84375 296.078125 C 246.152344 294.378906 247.703125 292.9375 249.492188 291.757812 C 262.199219 282.449219 275.46875 274.023438 289.292969 266.476562 C 290.785156 265.671875 292.125 264.871094 294.492188 263.550781 Z M 294.492188 263.550781 " fill-opacity="1" fill-rule="nonzero"/></svg>