<svg xmlns="http://www.w3.org/2000/svg" xmlns:xlink="http://www.w3.org/1999/xlink" width="500" zoomAndPan="magnify" viewBox="0 0 375 374.999991" height="500" preserveAspectRatio="xMidYMid meet" version="1.0"><path fill="#000000" d="M 56.015625 195.824219 C 89.613281 185.882812 124.070312 178.871094 158.890625 175 C 193.605469 171.179688 228.554688 170.335938 263.367188 173.042969 C 282.914062 174.539062 302.492188 177.039062 321.695312 181.148438 C 321.761719 180.546875 321.824219 179.941406 321.929688 179.371094 C 292.941406 176.035156 263.402344 176.195312 234.285156 177.78125 C 205.199219 179.328125 176.203125 182.828125 147.542969 188.214844 C 131.273438 191.269531 115.203125 194.933594 99.214844 199.175781 C 97.597656 199.585938 97.882812 202.148438 99.582031 201.796875 C 135.976562 194.289062 172.722656 189.851562 209.890625 188.921875 C 220.597656 188.648438 231.277344 188.679688 241.953125 188.964844 C 241.945312 188.113281 241.964844 187.21875 241.917969 186.335938 C 218.554688 189.714844 195.285156 193.492188 172.109375 197.925781 C 171.492188 198.046875 171.59375 199.039062 172.25 198.945312 C 195.664062 196.1875 219.027344 192.808594 242.285156 188.957031 C 243.703125 188.722656 243.824219 186.402344 242.25 186.324219 C 204.839844 185.507812 167.625 188.226562 130.613281 193.703125 C 120.085938 195.289062 109.625 197.050781 99.183594 199.21875 C 99.304688 200.089844 99.429688 200.964844 99.550781 201.839844 C 155.765625 186.914062 213.949219 179.402344 272.101562 179.621094 C 288.621094 179.6875 305.167969 180.488281 321.664062 181.191406 C 322.789062 181.253906 323.011719 179.664062 321.898438 179.410156 C 287.148438 172.910156 252.203125 168.996094 216.828125 168.933594 C 181.6875 168.910156 146.574219 172.300781 112.019531 178.847656 C 92.675781 182.519531 73.539062 187.128906 54.640625 192.636719 C 52.453125 193.203125 53.839844 196.460938 56.015625 195.824219 Z M 56.015625 195.824219 " fill-opacity="1" fill-rule="nonzero"/></svg>