<svg xmlns="http://www.w3.org/2000/svg" xmlns:xlink="http://www.w3.org/1999/xlink" width="500" zoomAndPan="magnify" viewBox="0 0 375 374.999991" height="500" preserveAspectRatio="xMidYMid meet" version="1.0"><defs><clipPath id="c5e40b2422"><path d="M 56.25 77 L 261 77 L 261 220 L 56.25 220 Z M 56.25 77 " clip-rule="nonzero"/></clipPath><clipPath id="b2a1c8fdb6"><path d="M 242 75.226562 L 265 75.226562 L 265 95 L 242 95 Z M 242 75.226562 " clip-rule="nonzero"/></clipPath><clipPath id="abada1c03a"><path d="M 74 237 L 144 237 L 144 299.476562 L 74 299.476562 Z M 74 237 " clip-rule="nonzero"/></clipPath><clipPath id="d5bd4dcc0a"><path d="M 236 111 L 318.75 111 L 318.75 286 L 236 286 Z M 236 111 " clip-rule="nonzero"/></clipPath></defs><g clip-path="url(#c5e40b2422)"><path fill="#000000" d="M 258.246094 77.582031 C 257.535156 77.582031 256.832031 77.914062 256.386719 78.539062 C 232.9375 111.296875 206.070312 138.480469 175.789062 160.082031 C 135.261719 187.695312 96.074219 206.101562 58.21875 215.296875 C 56.992188 215.59375 56.242188 216.828125 56.539062 218.054688 C 56.792969 219.097656 57.726562 219.796875 58.757812 219.796875 C 58.933594 219.796875 59.117188 219.773438 59.296875 219.730469 C 97.707031 210.398438 137.40625 191.761719 178.402344 163.824219 L 178.441406 163.796875 C 209.140625 141.898438 236.359375 114.363281 260.105469 81.191406 C 260.835938 80.164062 260.601562 78.742188 259.574219 78.007812 C 259.171875 77.722656 258.707031 77.582031 258.246094 77.582031 Z M 258.246094 77.582031 " fill-opacity="1" fill-rule="nonzero"/></g><g clip-path="url(#b2a1c8fdb6)"><path fill="#000000" d="M 259.136719 75.210938 C 258.046875 75.210938 256.773438 75.53125 255.316406 76.171875 L 255.304688 76.175781 C 248.644531 79.140625 244.648438 81.191406 243.3125 82.328125 C 242.351562 83.144531 242.234375 84.582031 243.050781 85.542969 C 243.5 86.074219 244.144531 86.347656 244.792969 86.347656 C 245.3125 86.347656 245.839844 86.167969 246.269531 85.804688 C 247.273438 84.953125 250.898438 83.132812 257.15625 80.347656 L 257.152344 80.347656 C 258.039062 79.957031 258.671875 79.761719 259.046875 79.761719 C 259.097656 79.761719 259.148438 79.765625 259.191406 79.773438 L 259.171875 79.773438 L 259.324219 79.847656 L 259.277344 79.847656 C 259.527344 80.152344 259.734375 80.863281 259.894531 81.984375 C 260.105469 83.441406 260.074219 86.878906 259.804688 92.296875 C 259.742188 93.554688 260.710938 94.625 261.972656 94.6875 C 262.007812 94.691406 262.046875 94.691406 262.085938 94.691406 C 263.296875 94.691406 264.304688 93.742188 264.363281 92.523438 C 264.632812 87.136719 264.664062 83.515625 264.457031 81.660156 L 264.441406 81.660156 L 264.417969 81.332031 C 264.089844 79.074219 263.398438 77.449219 262.347656 76.464844 L 262.347656 76.460938 C 262.03125 76.164062 261.6875 75.925781 261.3125 75.742188 L 261.292969 75.742188 C 260.898438 75.519531 260.46875 75.367188 260 75.285156 C 259.726562 75.234375 259.4375 75.210938 259.136719 75.210938 Z M 259.136719 75.210938 " fill-opacity="1" fill-rule="nonzero"/></g><g clip-path="url(#abada1c03a)"><path fill="#000000" d="M 120.308594 237.085938 C 111.359375 237.085938 99.507812 237.894531 84.746094 239.507812 C 83.492188 239.644531 82.585938 240.773438 82.726562 242.023438 C 82.851562 243.191406 83.84375 244.058594 84.992188 244.058594 C 85.074219 244.058594 85.160156 244.050781 85.242188 244.042969 C 99.917969 242.4375 111.605469 241.636719 120.316406 241.636719 C 125.617188 241.636719 129.816406 241.933594 132.90625 242.527344 L 133.058594 242.554688 C 137.339844 243.078125 139.347656 246.878906 139.089844 253.957031 C 137.730469 274.652344 135.058594 287.460938 131.082031 292.390625 L 131.035156 292.390625 C 130.070312 293.0625 127.761719 293.480469 124.101562 293.640625 L 93.753906 294.886719 L 93.734375 294.886719 C 92.59375 294.910156 91.539062 294.921875 90.570312 294.921875 C 88.457031 294.921875 86.753906 294.867188 85.464844 294.75 L 85.261719 294.742188 C 81.566406 294.738281 79.46875 292.210938 78.972656 287.152344 L 78.941406 286.941406 C 78.144531 282.863281 78.550781 267.609375 80.148438 241.175781 C 80.226562 239.917969 79.265625 238.839844 78.007812 238.761719 C 77.960938 238.757812 77.914062 238.757812 77.867188 238.757812 C 76.667969 238.757812 75.664062 239.691406 75.589844 240.902344 C 73.964844 267.71875 73.585938 283.355469 74.457031 287.8125 L 74.445312 287.8125 C 75.257812 295.449219 78.84375 299.277344 85.203125 299.304688 L 85.15625 299.304688 C 86.5625 299.425781 88.371094 299.484375 90.585938 299.484375 C 91.601562 299.484375 92.707031 299.472656 93.894531 299.445312 L 93.941406 299.445312 L 124.296875 298.199219 L 124.304688 298.199219 C 129.394531 297.972656 132.757812 297.082031 134.390625 295.527344 L 134.582031 295.316406 C 139.203125 289.664062 142.226562 275.953125 143.648438 254.1875 L 143.652344 254.125 C 144.011719 244.34375 140.730469 238.984375 133.804688 238.050781 L 133.769531 238.050781 C 130.4375 237.40625 125.949219 237.085938 120.308594 237.085938 Z M 120.308594 237.085938 " fill-opacity="1" fill-rule="nonzero"/></g><path fill="#000000" d="M 196.460938 200.617188 C 199.214844 200.617188 201.933594 200.707031 204.613281 200.890625 L 204.726562 200.894531 C 211.460938 201.015625 215.535156 202.496094 216.953125 205.339844 L 216.949219 205.339844 C 220.222656 213.140625 221.660156 232.71875 221.257812 264.074219 C 220.480469 276.863281 218.542969 283.6875 215.445312 284.550781 L 215.113281 284.671875 C 212.125 286.027344 203.589844 286.707031 189.5 286.707031 C 187.394531 286.707031 185.164062 286.691406 182.8125 286.660156 L 182.777344 286.660156 C 175.609375 286.425781 171.539062 285.394531 170.566406 283.574219 L 170.445312 283.378906 C 169.933594 282.617188 169.65625 281.117188 169.621094 278.890625 L 169.625 278.890625 C 170.335938 256.164062 170.46875 240.984375 170.019531 233.351562 L 170.011719 233.351562 C 170.058594 231.367188 169.367188 221.445312 167.945312 203.582031 L 167.898438 203.582031 C 177.84375 201.605469 187.363281 200.617188 196.460938 200.617188 Z M 196.460938 196.054688 C 186.929688 196.054688 176.964844 197.101562 166.570312 199.195312 C 166.113281 199.285156 165.714844 199.507812 165.410156 199.8125 L 165.363281 199.8125 C 165.359375 199.8125 165.355469 199.8125 165.351562 199.8125 C 164.09375 199.914062 163.15625 201.015625 163.257812 202.269531 C 164.761719 221.035156 165.488281 231.363281 165.445312 233.25 L 165.449219 233.4375 C 165.902344 240.886719 165.769531 256.023438 165.054688 278.855469 L 165.054688 278.964844 C 165.105469 282.09375 165.640625 284.414062 166.65625 285.921875 L 166.648438 285.921875 C 168.550781 289.164062 173.878906 290.929688 182.625 291.21875 L 182.671875 291.222656 C 184.878906 291.25 186.988281 291.265625 188.992188 291.265625 C 203.722656 291.265625 212.96875 290.488281 216.738281 288.9375 L 216.691406 288.9375 C 221.878906 287.480469 224.921875 279.246094 225.824219 264.238281 L 225.828125 264.132812 C 226.238281 231.96875 224.660156 211.734375 221.097656 203.425781 L 221.042969 203.308594 C 218.808594 198.824219 213.425781 196.5 204.890625 196.335938 L 204.871094 196.335938 C 202.105469 196.148438 199.300781 196.054688 196.460938 196.054688 Z M 196.460938 196.054688 " fill-opacity="1" fill-rule="nonzero"/><g clip-path="url(#d5bd4dcc0a)"><path fill="#000000" d="M 307.890625 129.402344 C 308.199219 129.566406 308.546875 129.660156 308.910156 129.667969 L 308.863281 129.667969 C 308.453125 129.660156 308.113281 129.570312 307.84375 129.402344 Z M 308.921875 129.667969 C 308.933594 129.667969 308.949219 129.667969 308.960938 129.667969 L 308.980469 129.667969 C 308.964844 129.667969 308.949219 129.667969 308.9375 129.667969 C 308.914062 129.667969 308.894531 129.667969 308.875 129.667969 Z M 249.535156 117.222656 C 249.855469 117.394531 250.222656 117.492188 250.613281 117.492188 C 250.636719 117.492188 250.660156 117.492188 250.683594 117.488281 C 253.085938 117.414062 255.449219 117.375 257.777344 117.375 C 271.324219 117.375 283.644531 118.65625 294.738281 121.214844 L 294.851562 121.238281 C 301.632812 122.445312 305.617188 124.746094 306.804688 128.140625 C 306.941406 128.53125 307.175781 128.863281 307.472656 129.121094 L 307.425781 129.121094 C 308.328125 131.769531 309.390625 142.617188 310.613281 161.671875 L 310.609375 161.671875 C 311.597656 188.308594 312.058594 213.101562 311.992188 236.046875 L 311.996094 236.164062 L 313.5 267.75 L 313.5 267.753906 C 313.796875 273.859375 309.128906 277.425781 299.496094 278.453125 L 299.410156 278.460938 C 289.570312 279.890625 280.0625 280.601562 270.886719 280.601562 C 261.410156 280.601562 252.289062 279.839844 243.523438 278.320312 L 243.476562 278.320312 C 242.363281 277.675781 241.6875 276.292969 241.445312 274.171875 C 241.429688 274.011719 241.390625 273.855469 241.339844 273.703125 L 241.324219 273.703125 C 241.054688 272.4375 241.113281 265.890625 241.5 254.054688 C 244.023438 177.679688 246.6875 132.070312 249.488281 117.222656 Z M 247.914062 111.527344 C 246.910156 111.527344 245.988281 112.191406 245.710938 113.207031 C 242.585938 124.574219 239.660156 171.476562 236.933594 253.902344 L 236.933594 253.90625 C 236.539062 266.109375 236.511719 273.023438 236.855469 274.648438 C 236.898438 274.847656 236.953125 275.035156 237.019531 275.207031 L 236.972656 275.207031 C 237.5 278.851562 239.085938 281.300781 241.730469 282.554688 C 241.917969 282.640625 242.113281 282.703125 242.316406 282.738281 C 251.472656 284.355469 260.996094 285.164062 270.886719 285.164062 C 280.257812 285.164062 289.960938 284.4375 299.992188 282.988281 L 299.980469 282.988281 C 312.46875 281.660156 318.496094 276.507812 318.0625 267.535156 L 316.558594 235.945312 L 316.5625 235.945312 C 316.625 212.960938 316.160156 188.128906 315.175781 161.460938 L 315.171875 161.429688 L 315.171875 161.378906 C 313.847656 140.765625 312.589844 129.230469 311.394531 126.78125 C 311.261719 126.507812 311.113281 126.265625 310.945312 126.058594 L 310.898438 126.058594 C 308.953125 121.335938 303.914062 118.238281 295.785156 116.769531 L 295.765625 116.769531 C 284.332031 114.132812 271.667969 112.8125 257.773438 112.8125 C 255.398438 112.8125 252.988281 112.851562 250.539062 112.929688 C 250.371094 112.933594 250.207031 112.957031 250.050781 113 C 249.796875 112.34375 249.25 111.808594 248.519531 111.609375 C 248.316406 111.554688 248.113281 111.527344 247.914062 111.527344 Z M 247.914062 111.527344 " fill-opacity="1" fill-rule="nonzero"/></g></svg>