<svg xmlns="http://www.w3.org/2000/svg" xmlns:xlink="http://www.w3.org/1999/xlink" width="500" zoomAndPan="magnify" viewBox="0 0 375 374.999991" height="500" preserveAspectRatio="xMidYMid meet" version="1.0"><defs><clipPath id="29fd71df53"><path d="M 51 52 L 327.835938 52 L 327.835938 325.039062 L 51 325.039062 Z M 51 52 " clip-rule="nonzero"/></clipPath></defs><g clip-path="url(#29fd71df53)"><path fill="#000000" d="M 325.851562 58.511719 C 323.863281 57.773438 321.824219 57.3125 319.765625 56.984375 C 319.726562 56.902344 319.789062 56.804688 319.738281 56.730469 C 318.988281 55.3125 317.289062 54.878906 315.882812 55.542969 C 315.140625 55.894531 314.414062 56.257812 313.6875 56.597656 C 311.078125 56.621094 308.445312 56.828125 305.800781 57.300781 C 306.710938 56.453125 307.125 55.132812 306.53125 54.003906 C 305.789062 52.601562 304.066406 52.128906 302.671875 52.816406 C 291.222656 58.597656 279.855469 64.558594 268.746094 70.964844 C 264.839844 73.339844 261.117188 75.96875 257.285156 78.441406 C 256.542969 78.890625 255.851562 79.398438 255.113281 79.859375 C 232.371094 94.710938 210.730469 111.210938 190.523438 129.40625 C 150.664062 160.820312 115.4375 197.976562 86.714844 239.871094 C 75.121094 258.589844 51.613281 289.46875 52.558594 311.507812 C 52.644531 312.488281 53.128906 313.105469 53.734375 313.503906 C 51.394531 320.277344 51.042969 324.882812 54.292969 325.0625 C 54.339844 325.0625 54.390625 325.0625 54.4375 325.0625 C 55.882812 325.0625 57.277344 323.863281 57.289062 322.363281 C 57.773438 320.421875 58.503906 318.558594 59.121094 316.65625 C 59.15625 316.65625 59.207031 316.679688 59.242188 316.679688 C 62.757812 316.679688 63.851562 310.296875 65.804688 307.824219 C 72.476562 295.164062 77.875 281.835938 85.382812 269.613281 C 108.441406 232.226562 135.742188 197.300781 165.621094 165.0625 C 176.34375 153.699219 191.46875 138.253906 208.65625 122.804688 C 231.582031 106.050781 256.011719 91.453125 281.507812 78.914062 C 292.300781 73.414062 303.171875 68.023438 314.097656 62.765625 C 316.597656 62.65625 319.085938 62.558594 321.484375 62.789062 C 323.316406 63.550781 325.292969 64.519531 326.703125 62.4375 C 327.550781 61.128906 327.164062 59.347656 325.851562 58.5 Z M 86.984375 251.539062 C 84.53125 255.234375 70.582031 277.707031 61.023438 296.847656 C 68.4375 276.75 81.246094 258.625 93.035156 240.851562 C 100.96875 229.378906 109.496094 218.332031 118.386719 207.585938 C 107.335938 221.84375 96.757812 236.457031 86.984375 251.539062 Z M 256.472656 85.710938 C 258.109375 84.621094 259.699219 83.457031 261.335938 82.390625 C 271.644531 76.042969 281.957031 70.785156 291.914062 67.308594 C 279.992188 73.253906 268.152344 79.335938 256.472656 85.722656 Z M 256.472656 85.710938 " fill-opacity="1" fill-rule="nonzero"/></g><path fill="#000000" d="M 57.738281 182.132812 C 57.96875 182.132812 58.164062 181.988281 58.378906 181.925781 C 57.882812 183.175781 58.148438 184.628906 59.328125 185.378906 C 59.800781 185.695312 60.332031 185.839844 60.867188 185.839844 C 61.800781 185.839844 62.746094 185.378906 63.269531 184.53125 C 70.523438 173.144531 78.152344 162.433594 86.617188 151.820312 C 96.273438 140.058594 106.316406 128.488281 116.90625 117.476562 C 136.082031 99.945312 156.449219 83.757812 177.398438 68.3125 C 179.242188 67.308594 181.121094 66.339844 183.039062 65.527344 C 185.816406 64.375 188.652344 63.453125 191.601562 62.847656 C 193.128906 62.511719 194.101562 60.945312 193.761719 59.433594 C 193.433594 58.367188 192.839844 57.832031 192.109375 57.542969 C 192.570312 57.214844 193.019531 56.875 193.46875 56.550781 C 196.539062 54.320312 193.179688 49.8125 190.183594 51.898438 C 184.285156 56.125 178.464844 60.472656 172.617188 64.800781 C 151.886719 76.128906 131.949219 93.707031 114.164062 112.191406 C 104.632812 120.855469 95.328125 129.773438 86.507812 139.195312 C 81.304688 145.921875 55.03125 170.707031 60.550781 178.363281 C 60.527344 178.402344 60.503906 178.4375 60.480469 178.460938 C 60.359375 178.074219 60.261719 177.675781 59.910156 177.324219 C 59.144531 174.898438 60.261719 172.695312 61.085938 170.175781 C 65.402344 160.058594 72.523438 151.382812 79.363281 142.796875 C 106.488281 109.820312 139.976562 82.488281 175.445312 58.863281 C 178.527344 56.660156 175.152344 52.164062 172.144531 54.199219 C 136.894531 77.664062 103.625 104.863281 76.371094 137.429688 C 69.6875 146.574219 47.523438 170.34375 56.003906 181.417969 C 56.5625 181.914062 57.167969 182.132812 57.738281 182.132812 Z M 57.738281 182.132812 " fill-opacity="1" fill-rule="nonzero"/></svg>