<svg xmlns="http://www.w3.org/2000/svg" xmlns:xlink="http://www.w3.org/1999/xlink" width="500" zoomAndPan="magnify" viewBox="0 0 375 374.999991" height="500" preserveAspectRatio="xMidYMid meet" version="1.0"><defs><clipPath id="7019b4fb32"><path d="M 55.347656 65 L 308 65 L 308 323 L 55.347656 323 Z M 55.347656 65 " clip-rule="nonzero"/></clipPath><clipPath id="4189276bd5"><path d="M 207 51.613281 L 319.347656 51.613281 L 319.347656 155 L 207 155 Z M 207 51.613281 " clip-rule="nonzero"/></clipPath></defs><g clip-path="url(#7019b4fb32)"><path fill="#231f20" d="M 223.355469 78.03125 C 222.664062 77.253906 222.546875 77.011719 222.355469 76.917969 C 213.546875 72.609375 204.445312 69.78125 194.476562 69.257812 C 176.792969 68.328125 159.84375 71.1875 143.371094 77.410156 C 139.90625 78.71875 136.480469 80.148438 133.050781 81.554688 C 115.382812 88.804688 100.121094 99.351562 87.761719 114.058594 C 81.011719 122.097656 75.609375 130.996094 70.148438 139.878906 C 69.789062 140.460938 69.574219 141.144531 69.351562 141.804688 C 66.308594 150.796875 62.707031 159.632812 61.769531 169.21875 C 61.253906 174.523438 60.5 179.808594 59.96875 185.113281 C 59.738281 187.417969 59.726562 189.75 59.75 192.066406 C 59.820312 198.789062 59.78125 205.511719 61.078125 212.164062 C 61.742188 215.574219 62.070312 219.050781 62.582031 222.488281 C 63.398438 228.011719 64.871094 233.359375 66.660156 238.640625 C 68.835938 245.070312 72.449219 250.761719 75.683594 256.65625 C 81.285156 266.871094 87.714844 276.402344 96.363281 284.398438 C 102.671875 290.230469 109.203125 295.777344 115.902344 301.132812 C 117.519531 302.425781 119.347656 303.527344 121.21875 304.421875 C 132.152344 309.632812 143.460938 313.847656 155.492188 315.570312 C 163.511719 316.71875 171.625 317.226562 179.703125 317.953125 C 181.078125 318.078125 182.484375 317.878906 183.871094 317.796875 C 185.257812 317.71875 186.636719 317.5625 188.023438 317.496094 C 192.875 317.28125 197.734375 317.117188 202.585938 316.867188 C 203.734375 316.808594 204.894531 316.566406 206 316.242188 C 210.011719 315.082031 214.101562 314.117188 217.976562 312.589844 C 225.496094 309.632812 233.320312 307.199219 239.421875 301.4375 C 240.757812 300.175781 242.503906 299.367188 243.96875 298.234375 C 247.992188 295.109375 252.195312 292.160156 255.902344 288.691406 C 259.785156 285.054688 263.242188 280.957031 266.328125 276.574219 C 268.058594 274.113281 270.003906 271.800781 271.917969 269.472656 C 282.316406 256.824219 290.773438 243.035156 296.265625 227.570312 C 298.511719 221.238281 300.421875 214.773438 301.105469 208.03125 C 302.351562 195.777344 302.796875 183.488281 302.089844 171.195312 C 301.867188 167.296875 300.765625 163.441406 299.957031 159.585938 C 299.589844 157.859375 298.140625 156.796875 296.402344 156.875 C 294.789062 156.949219 293.183594 157.203125 291.578125 157.417969 C 289.742188 157.65625 287.917969 158.121094 286.078125 158.179688 C 275.371094 158.527344 264.90625 160.6875 254.425781 162.550781 C 248.285156 163.644531 242.023438 164.269531 236.03125 166.203125 C 234.730469 166.625 233.28125 166.597656 231.898438 166.746094 C 227.0625 167.261719 222.214844 167.660156 217.394531 168.300781 C 211.652344 169.058594 205.957031 170.121094 200.316406 171.472656 C 197.835938 172.066406 195.328125 172.5625 192.804688 172.945312 C 191.699219 173.113281 190.503906 173.035156 189.402344 172.804688 C 187.671875 172.4375 186.644531 170.671875 187.113281 169.09375 C 187.445312 167.984375 187.867188 166.898438 188.289062 165.824219 C 194.328125 150.503906 200.371094 135.1875 206.417969 119.871094 C 206.757812 119.011719 207.019531 118.085938 207.515625 117.316406 C 211.203125 111.613281 212.507812 104.886719 215.53125 98.867188 C 218.222656 93.5 220.054688 87.703125 222.210938 82.070312 C 222.699219 80.800781 222.960938 79.449219 223.355469 78.03125 Z M 192.933594 166.335938 C 193.710938 166.726562 194.316406 167.3125 194.855469 167.257812 C 197.15625 167.019531 199.550781 166.910156 201.714844 166.179688 C 208.839844 163.777344 216.316406 163.535156 223.640625 162.628906 C 238.859375 160.738281 253.785156 157.351562 268.851562 154.691406 C 271.585938 154.210938 274.347656 153.839844 277.113281 153.601562 C 283.582031 153.050781 290.054688 152.613281 296.445312 151.277344 C 302.03125 150.109375 303.628906 151.285156 304.808594 156.628906 C 306.316406 163.449219 307.046875 170.378906 307.367188 177.320312 C 307.558594 181.472656 307.011719 185.660156 306.789062 189.828125 C 306.632812 192.839844 306.34375 195.855469 306.332031 198.867188 C 306.296875 209.46875 303.914062 219.570312 300.117188 229.394531 C 298.945312 232.425781 297.910156 235.511719 296.652344 238.507812 C 295.394531 241.5 294.148438 244.527344 292.53125 247.332031 C 287.882812 255.367188 283.109375 263.402344 277.019531 270.40625 C 271.679688 276.539062 267.011719 283.175781 261.746094 289.347656 C 259.15625 292.378906 256.394531 295.15625 253.042969 297.300781 C 247.5625 300.800781 242.554688 304.941406 237.328125 308.785156 C 235.472656 310.152344 233.496094 311.449219 231.398438 312.367188 C 216.796875 318.746094 201.691406 322.949219 185.570312 322.589844 C 180.933594 322.488281 176.277344 322.84375 171.65625 322.5625 C 162.617188 322.023438 153.609375 320.929688 144.824219 318.71875 C 133.738281 315.925781 123.28125 311.484375 113.585938 305.390625 C 111.433594 304.035156 109.449219 302.386719 107.519531 300.722656 C 101.191406 295.285156 94.710938 290.03125 88.867188 284.023438 C 83.945312 278.96875 80.222656 273.144531 76.652344 267.160156 C 74.515625 263.574219 72.453125 259.945312 70.296875 256.371094 C 67.050781 250.992188 64.117188 245.46875 62.039062 239.515625 C 60.808594 236 59.9375 232.441406 59.484375 228.710938 C 58.816406 223.1875 57.710938 217.71875 56.757812 212.230469 C 55.460938 204.753906 55.355469 190.78125 56.53125 183.128906 C 56.742188 181.757812 56.894531 180.367188 56.941406 178.980469 C 57.148438 173.148438 58.335938 167.472656 59.703125 161.839844 C 60.632812 158.011719 61.496094 154.148438 62.769531 150.433594 C 65.882812 141.386719 70.34375 133.015625 76.019531 125.300781 C 79.730469 120.253906 83.363281 115.148438 87.089844 110.113281 C 89.867188 106.367188 93.148438 103.089844 96.832031 100.21875 C 97.011719 100.078125 97.207031 99.945312 97.371094 99.785156 C 107.425781 90.113281 119.636719 84.03125 132.296875 78.648438 C 141.710938 74.648438 151.257812 71.011719 161.253906 68.839844 C 167.128906 67.5625 173.152344 66.9375 179.136719 66.242188 C 182.816406 65.816406 186.546875 65.636719 190.257812 65.648438 C 199.09375 65.675781 207.871094 66.164062 216.1875 69.691406 C 218.746094 70.773438 221.449219 71.523438 224.074219 72.445312 C 228.753906 74.089844 228.933594 74.480469 227.246094 78.851562 C 225.234375 84.042969 223.320312 89.273438 221.21875 94.433594 C 217.71875 103.03125 214.054688 111.558594 210.566406 120.164062 C 208.300781 125.753906 206.257812 131.433594 204.0625 137.054688 C 201.449219 143.75 198.820312 150.445312 196.113281 157.109375 C 194.902344 160.097656 193.414062 162.980469 192.933594 166.335938 " fill-opacity="1" fill-rule="nonzero"/></g><g clip-path="url(#4189276bd5)"><path fill="#231f20" d="M 310.179688 125.472656 C 307.074219 126.410156 303.921875 127.203125 300.792969 128.074219 C 295.882812 129.441406 290.9375 130.703125 286.078125 132.246094 C 282.746094 133.300781 279.40625 134.179688 275.945312 134.664062 C 274.355469 134.886719 272.804688 135.453125 271.257812 135.929688 C 264.621094 137.992188 258.007812 140.125 251.351562 142.125 C 249.8125 142.585938 248.132812 142.535156 246.546875 142.867188 C 242.691406 143.667969 238.820312 144.457031 235.003906 145.433594 C 232.566406 146.058594 230.117188 146.609375 227.65625 147.082031 C 223.972656 148.261719 220.222656 149.300781 216.457031 150.324219 C 215.761719 150.511719 215.160156 150.441406 214.667969 150.210938 C 213.136719 150.117188 211.914062 148.605469 212.269531 146.898438 C 212.730469 144.644531 213.625 142.796875 214.636719 140.722656 C 214.761719 140.464844 214.910156 140.261719 215.070312 140.082031 C 215.652344 138.128906 216.304688 136.214844 217.253906 134.402344 C 218.835938 128.589844 221.792969 123.300781 224.515625 117.925781 C 226.5 114.003906 228.554688 110.117188 230.558594 106.207031 C 232.566406 102.292969 234.550781 98.371094 236.550781 94.453125 C 237.183594 93.21875 237.980469 92.050781 238.480469 90.765625 C 241.246094 83.691406 245.785156 77.644531 249.679688 71.226562 C 249.894531 70.753906 250.109375 70.285156 250.316406 69.8125 C 251.21875 67.761719 252.109375 65.699219 253.140625 63.714844 C 253.730469 62.582031 254.5625 61.015625 255.617188 59.796875 C 255.992188 58.796875 256.667969 57.964844 257.503906 57.1875 C 259.972656 56.609375 262.105469 57.71875 263.980469 58.992188 C 273.789062 65.636719 283.199219 72.746094 290.234375 82.519531 C 292.808594 86.09375 295.679688 89.457031 298.207031 93.0625 C 301.261719 97.429688 304.445312 101.765625 306.929688 106.460938 C 309.300781 110.941406 310.945312 115.824219 312.714844 120.601562 C 313.589844 122.960938 312.554688 124.757812 310.179688 125.472656 Z M 318.707031 123.820312 C 317.230469 118.699219 315.296875 113.742188 313.320312 108.792969 C 312.027344 105.542969 310.519531 102.449219 308.640625 99.507812 C 304.394531 92.871094 299.605469 86.636719 294.765625 80.4375 C 293.054688 78.246094 291.550781 75.863281 289.660156 73.851562 C 287.289062 71.328125 284.390625 69.289062 282.117188 66.691406 C 277.449219 61.339844 271.261719 58.074219 265.589844 54.105469 C 263.273438 52.484375 260.660156 51.761719 257.710938 51.789062 C 256.671875 52.671875 255.660156 53.582031 254.679688 54.535156 C 254.101562 55.644531 253.507812 56.757812 252.863281 57.839844 C 249.070312 64.210938 245.167969 70.511719 241.417969 76.90625 C 239.902344 79.492188 238.445312 82.160156 237.390625 84.953125 C 235.410156 90.179688 232.847656 95.101562 230.226562 100.007812 C 227.828125 104.492188 225.25 108.894531 222.984375 113.445312 C 220 119.449219 217.234375 125.5625 214.390625 131.636719 C 213.117188 134.363281 212.113281 137.25 210.578125 139.816406 C 208.46875 143.347656 208.285156 147.277344 207.605469 151.121094 C 207.371094 152.457031 208.609375 154.078125 209.9375 154.074219 C 212.9375 154.070312 216.011719 154.265625 218.917969 153.699219 C 229.367188 151.65625 239.746094 149.265625 250.175781 147.117188 C 261.542969 144.777344 272.386719 140.582031 283.617188 137.757812 C 286.761719 136.972656 289.859375 136.003906 292.976562 135.105469 C 300.539062 132.925781 308.128906 130.898438 316.027344 130.335938 C 317.960938 130.199219 319.359375 128.523438 319.214844 126.527344 C 319.15625 125.617188 318.960938 124.699219 318.707031 123.820312 " fill-opacity="1" fill-rule="nonzero"/></g></svg>