<svg xmlns="http://www.w3.org/2000/svg" xmlns:xlink="http://www.w3.org/1999/xlink" width="500" zoomAndPan="magnify" viewBox="0 0 375 374.999991" height="500" preserveAspectRatio="xMidYMid meet" version="1.0"><defs><clipPath id="8bf45a3127"><path d="M 130.484375 38 L 244.484375 38 L 244.484375 326 L 130.484375 326 Z M 130.484375 38 " clip-rule="nonzero"/></clipPath></defs><g clip-path="url(#8bf45a3127)"><path fill="#000000" d="M 202.238281 226.835938 C 202.578125 226.957031 202.703125 226.789062 202.722656 226.574219 C 202.734375 226.484375 202.542969 226.277344 202.511719 226.289062 C 202.335938 226.363281 202.183594 226.484375 202.023438 226.589844 C 202.109375 226.6875 202.199219 226.789062 202.238281 226.835938 Z M 200.410156 202.480469 C 200.300781 202.53125 200.140625 202.554688 200.089844 202.640625 C 200.050781 202.707031 200.109375 202.917969 200.183594 202.949219 C 200.390625 203.046875 200.558594 202.929688 200.613281 202.722656 C 200.628906 202.664062 200.484375 202.566406 200.410156 202.480469 Z M 181.6875 235.332031 C 181.597656 235.097656 181.398438 235.058594 181.1875 235.058594 C 181.003906 235.054688 180.890625 235.167969 180.976562 235.253906 C 181.113281 235.394531 181.304688 235.503906 181.492188 235.570312 C 181.644531 235.621094 181.722656 235.5 181.6875 235.332031 Z M 186.898438 220.542969 C 186.878906 220.5625 186.863281 220.578125 186.84375 220.597656 C 187.167969 220.597656 187.496094 220.597656 187.816406 220.597656 C 187.816406 220.578125 187.816406 220.5625 187.816406 220.542969 C 187.511719 220.542969 187.207031 220.542969 186.898438 220.542969 Z M 202.105469 222.285156 C 202.558594 222.664062 202.875 223.242188 203.398438 222.617188 C 203.503906 222.488281 203.523438 222.132812 203.425781 222.023438 C 202.972656 221.523438 202.558594 221.734375 202.105469 222.285156 Z M 188.367188 201.808594 C 189.417969 202.191406 189.417969 202.191406 190.414062 202.007812 C 189.789062 201.644531 189.175781 201.394531 188.367188 201.808594 Z M 192.089844 237.945312 C 190.253906 237.59375 190.253906 237.59375 188.742188 238.265625 C 189.847656 238.492188 190.847656 238.867188 192.089844 237.945312 Z M 161.347656 218.109375 C 161.179688 218.898438 161.074219 219.5 161.707031 219.9375 C 162.386719 219.894531 162.875 219.589844 163.320312 219.105469 C 162.792969 218.457031 162.199219 218.183594 161.347656 218.109375 Z M 171.796875 233.449219 C 172.84375 234.011719 173.648438 234.117188 174.621094 233.859375 C 173.320312 232.457031 173.320312 232.457031 171.796875 233.449219 Z M 169.410156 233.285156 C 168.050781 232.96875 167.007812 232.894531 165.875 233.285156 C 167.191406 234.726562 167.382812 234.730469 169.410156 233.285156 Z M 159.953125 103.566406 C 159.808594 105.714844 160.109375 106.347656 161.59375 107.160156 C 161.25 105.867188 160.84375 104.738281 159.953125 103.566406 Z M 177.5 196.15625 C 177.125 197.351562 176.902344 198.523438 177.035156 199.726562 C 177.054688 199.882812 177.265625 200.109375 177.425781 200.144531 C 177.730469 200.214844 177.992188 200.03125 178.015625 199.703125 C 178.089844 198.5 177.957031 197.316406 177.5 196.15625 Z M 201.585938 212.472656 C 202.429688 212.90625 203.105469 213.230469 204.023438 213.078125 C 204.117188 212.03125 204.347656 211.046875 203.871094 209.894531 C 203.046875 210.824219 202.398438 211.554688 201.585938 212.472656 Z M 172.4375 235.347656 C 174.128906 236.636719 176.128906 237.011719 179.3125 236.710938 C 176.941406 235.859375 174.902344 235.445312 172.4375 235.347656 Z M 190.214844 159.628906 C 189.589844 160.183594 189.570312 160.460938 189.570312 160.742188 C 189.570312 163.359375 189.570312 165.980469 189.570312 168.597656 C 190.308594 165.746094 190.777344 162.882812 190.214844 159.628906 Z M 184.671875 230.363281 C 188.398438 230.6875 192.402344 230.0625 194.171875 228.855469 C 190.785156 229.007812 187.691406 229.449219 184.671875 230.363281 Z M 202.859375 51.691406 C 203.828125 52.449219 209.289062 55.183594 210.277344 55.402344 C 207.03125 52.15625 206.496094 51.691406 202.859375 51.691406 Z M 199.789062 201.378906 C 197.964844 200.808594 193.746094 200.945312 192.117188 201.625 C 194.4375 202.9375 197.675781 202.832031 199.789062 201.378906 Z M 135.410156 98.527344 C 133.472656 103.328125 134.652344 107.953125 136.144531 112.566406 C 135.609375 107.902344 135.429688 103.222656 135.410156 98.527344 Z M 176.359375 243.214844 C 176.40625 241.945312 176.242188 240.792969 175.710938 239.703125 C 175.425781 239.117188 174.988281 238.617188 174.386719 238.367188 C 172.890625 237.75 171.351562 237.328125 169.640625 237.210938 C 170.609375 238.933594 174.371094 242.292969 176.359375 243.214844 Z M 196.34375 214.332031 C 197.503906 215.15625 198.46875 215.816406 199.40625 216.515625 C 200.441406 217.285156 200.980469 218.480469 201.738281 219.445312 C 203.886719 218.65625 204.441406 217.230469 203.199219 215.832031 C 202.308594 214.832031 201.078125 214.464844 199.839844 214.144531 C 198.75 213.859375 197.660156 213.742188 196.34375 214.332031 Z M 209.304688 102.664062 C 206.804688 103.585938 202.515625 108.609375 202.203125 110.992188 C 206.160156 109.515625 209.527344 105.558594 209.304688 102.664062 Z M 161.507812 192.386719 C 162.035156 186.429688 162.5 180.632812 162.4375 174.324219 C 160.453125 178.753906 159.992188 188.960938 161.507812 192.386719 Z M 241.246094 104.5625 C 238.546875 109.769531 237.921875 115.386719 237.722656 121.089844 C 239.695312 115.746094 241.199219 110.308594 241.246094 104.5625 Z M 175.996094 176.800781 C 177.003906 171.78125 176.769531 161.535156 174.8125 159.191406 C 174.257812 162.078125 175.109375 174.6875 175.996094 176.800781 Z M 192.351562 243.78125 C 192.535156 242.652344 192.101562 241.796875 191.945312 240.902344 C 191.867188 240.449219 191.578125 240.097656 191.085938 240.109375 C 189.472656 240.144531 187.933594 239.539062 186.316406 239.464844 C 185.980469 240.40625 186.101562 241.257812 186.164062 242.09375 C 186.226562 242.898438 187.003906 243.71875 187.804688 243.757812 C 189.277344 243.828125 190.753906 243.78125 192.351562 243.78125 Z M 176.734375 238.425781 C 177.261719 239.664062 177.652344 240.566406 177.890625 241.53125 C 178.511719 244.054688 178.644531 244.132812 181.222656 243.84375 C 181.839844 243.773438 182.5 243.785156 183.09375 243.125 C 182.984375 241.636719 183.378906 240.023438 182.777344 238.425781 C 180.800781 238.425781 178.902344 238.425781 176.734375 238.425781 Z M 138.292969 75.367188 C 135.140625 79.300781 132.953125 91.449219 134.035156 95.070312 C 136.726562 88.75 136.871094 81.925781 138.292969 75.367188 Z M 222.9375 147.492188 C 218.105469 150.789062 209.125 161.085938 207.714844 164.957031 C 211.339844 162.640625 221.542969 150.933594 222.9375 147.492188 Z M 182.238281 212.160156 C 178.496094 210.699219 174.6875 209.601562 170.695312 209.492188 C 168.839844 209.441406 167.019531 209.847656 165.300781 210.605469 C 164.914062 210.777344 164.527344 211.019531 164.546875 211.527344 C 164.566406 212.097656 164.917969 212.484375 165.441406 212.566406 C 166.351562 212.703125 167.28125 212.839844 168.195312 212.804688 C 172.875 212.621094 177.554688 212.382812 182.238281 212.160156 Z M 180.464844 209.824219 C 181.191406 210.519531 181.855469 210.574219 182.445312 210.742188 C 185.039062 211.464844 187.585938 212.453125 190.363281 212.136719 C 192.988281 211.839844 195.617188 211.84375 198.234375 212.144531 C 199.59375 212.300781 200.578125 211.722656 201.417969 210.785156 C 202.78125 209.265625 202.515625 207.8125 200.605469 206.585938 C 199.726562 207.605469 198.613281 208.335938 197.308594 208.769531 C 196.027344 209.191406 194.714844 209.492188 193.378906 209.710938 C 189.203125 210.402344 185.019531 210.082031 180.464844 209.824219 Z M 238.007812 104.511719 C 241.054688 97.359375 237.027344 82.3125 230.429688 76.605469 C 234.433594 85.78125 236.644531 95.023438 238.007812 104.511719 Z M 235.9375 79.5 C 236.230469 79.035156 235.902344 78.667969 235.746094 78.296875 C 233.421875 72.722656 230.308594 67.636719 226.21875 63.171875 C 223.84375 60.582031 221.203125 58.308594 218.171875 56.519531 C 217.785156 56.289062 217.421875 55.820312 216.855469 56.089844 C 216.828125 56.4375 217.046875 56.621094 217.238281 56.820312 C 220.019531 59.707031 222.433594 62.878906 224.585938 66.253906 C 225.128906 67.105469 225.816406 67.816406 226.539062 68.511719 C 229.625 71.492188 232.390625 74.742188 234.839844 78.273438 C 235.148438 78.71875 235.320312 79.3125 235.9375 79.5 Z M 176.445312 232.117188 C 177.355469 233.355469 178.300781 233.804688 179.546875 233.65625 C 180.179688 233.582031 180.824219 233.5625 181.464844 233.570312 C 183.113281 233.585938 184.570312 234.039062 185.410156 235.613281 C 185.769531 236.289062 186.296875 236.441406 186.996094 236.402344 C 190.117188 236.222656 193.238281 236.019531 196.363281 235.914062 C 197.964844 235.859375 199.011719 234.980469 199.882812 233.816406 C 200.648438 232.789062 200.535156 231.777344 199.671875 230.691406 C 198.800781 229.59375 198.308594 229.425781 196.917969 229.921875 C 195.171875 230.550781 193.378906 230.988281 191.550781 231.289062 C 187.675781 231.933594 183.761719 231.886719 179.851562 231.898438 C 178.800781 231.898438 177.734375 231.757812 176.445312 232.117188 Z M 144.460938 70.503906 C 145.253906 70.253906 145.425781 69.828125 145.679688 69.5 C 150.324219 63.503906 156.195312 59.089844 163.089844 56.023438 C 168.589844 53.578125 174.320312 51.878906 180.292969 51.058594 C 182.652344 50.738281 185.011719 50.453125 187.371094 50.148438 C 186.238281 49.789062 185.113281 49.683594 183.980469 49.589844 C 181.839844 49.414062 179.707031 49.59375 177.578125 49.800781 C 169 50.636719 161.007812 53.234375 153.644531 57.761719 C 151.21875 59.253906 149.269531 61.136719 147.835938 63.601562 C 146.59375 65.75 145.339844 67.886719 144.460938 70.503906 Z M 164.664062 207.972656 C 165.386719 207.972656 166.015625 207.992188 166.644531 207.96875 C 171.707031 207.78125 176.761719 207.839844 181.8125 208.3125 C 184.078125 208.527344 186.367188 208.507812 188.648438 208.507812 C 190.941406 208.511719 193.203125 208.210938 195.378906 207.449219 C 196.15625 207.179688 197.066406 206.988281 197.316406 205.886719 C 196.539062 204.796875 195.289062 204.746094 194.121094 204.546875 C 189.433594 203.757812 184.734375 204.195312 180.039062 204.507812 C 176.128906 204.765625 172.230469 205.140625 168.316406 205.421875 C 167.195312 205.503906 166.066406 205.433594 165.050781 205.433594 C 164.46875 206.246094 164.445312 206.933594 164.664062 207.972656 Z M 169.140625 229.121094 C 169.25 228.792969 169.019531 228.589844 168.851562 228.367188 C 168.679688 228.140625 168.46875 227.941406 168.320312 227.699219 C 167.824219 226.886719 168.085938 226.386719 169.0625 226.242188 C 169.859375 226.121094 170.609375 226.351562 171.371094 226.554688 C 174.789062 227.472656 178.199219 227.6875 181.722656 226.964844 C 186.964844 225.886719 192.265625 225.160156 197.652344 225.644531 C 197.84375 225.664062 198.046875 225.550781 198.351562 225.472656 C 198.105469 224.5625 198.074219 223.425781 196.835938 223.496094 C 194.476562 223.621094 192.132812 223.238281 189.785156 223.378906 C 185.511719 223.632812 181.25 223.84375 176.96875 223.53125 C 173.066406 223.242188 169.144531 224.109375 165.234375 223.328125 C 164.167969 223.117188 163.511719 224.011719 163.519531 225.261719 C 163.539062 228.582031 165.871094 230.183594 169.140625 229.121094 Z M 197.804688 220.109375 C 197.570312 218.730469 197.160156 218.082031 195.828125 217.121094 C 194.054688 215.847656 192.027344 215.210938 189.90625 214.8125 C 186.160156 214.109375 182.402344 214.15625 178.632812 214.578125 C 176.929688 214.765625 175.238281 215.023438 173.535156 215.136719 C 169.457031 215.414062 165.410156 215.394531 161.628906 213.484375 C 161.546875 213.445312 161.386719 213.558594 161.226562 213.609375 C 160.792969 214.886719 161.332031 215.785156 162.378906 216.488281 C 164.378906 217.832031 166.628906 218.476562 168.996094 218.6875 C 173.671875 219.117188 178.34375 219.636719 183.058594 219.140625 C 184.828125 218.953125 186.617188 218.964844 188.394531 218.921875 C 191.398438 218.855469 194.382812 218.964844 197.210938 220.160156 C 197.40625 220.242188 197.621094 220.285156 197.804688 220.109375 Z M 204.742188 166.265625 C 205.332031 166.136719 205.378906 165.636719 205.558594 165.292969 C 207.421875 161.71875 209.8125 158.527344 212.585938 155.621094 C 214.605469 153.503906 216.679688 151.441406 218.742188 149.363281 C 221.558594 146.527344 224.257812 143.582031 226.804688 140.496094 C 227.8125 139.277344 228.65625 137.96875 229.265625 136.5 C 230.996094 132.339844 232.355469 128.058594 233.246094 123.636719 C 233.324219 123.253906 233.605469 122.847656 233.25 122.441406 C 232.640625 122.660156 232.46875 123.257812 232.171875 123.71875 C 230.34375 126.535156 228.414062 129.277344 226.371094 131.941406 C 222.722656 136.695312 219.0625 141.445312 215.378906 146.175781 C 211.222656 151.503906 207.8125 157.25 205.484375 163.609375 C 205.171875 164.457031 204.796875 165.300781 204.742188 166.265625 Z M 133.515625 116 C 133.421875 116.101562 133.265625 116.183594 133.257812 116.277344 C 133.214844 116.777344 133.179688 117.277344 133.191406 117.773438 C 133.300781 121.347656 133.660156 124.902344 134.5625 128.367188 C 136.277344 134.941406 139.328125 140.726562 144.6875 145.109375 C 146.398438 146.507812 148.054688 147.972656 149.78125 149.355469 C 152.1875 151.289062 153.878906 153.695312 154.8125 156.640625 C 155.507812 158.820312 156.109375 161.019531 156.488281 163.273438 C 157.054688 166.652344 157.578125 170.039062 158.140625 173.414062 C 158.203125 173.796875 158.070312 174.296875 158.601562 174.492188 C 159.140625 174.289062 159.011719 173.785156 159.0625 173.40625 C 159.332031 171.425781 159.570312 169.441406 159.808594 167.457031 C 160.375 162.792969 159.507812 158.523438 156.449219 154.808594 C 155.359375 153.488281 154.402344 152.0625 153.367188 150.699219 C 151.726562 148.542969 150.054688 146.410156 148.421875 144.242188 C 146.101562 141.164062 143.9375 137.976562 142.132812 134.5625 C 139.164062 128.941406 136.417969 123.21875 134.214844 117.25 C 134.050781 116.808594 134.027344 116.265625 133.515625 116 Z M 155.792969 54.257812 C 155.914062 54.339844 155.976562 54.417969 156.03125 54.417969 C 156.765625 54.390625 157.355469 53.957031 157.992188 53.671875 C 168.25 49.082031 178.945312 47.332031 190.101562 48.878906 C 194.332031 49.464844 198.539062 50.203125 202.808594 50.476562 C 203.1875 50.5 203.613281 50.804688 204.011719 50.269531 C 203.597656 49.691406 202.960938 49.367188 202.390625 48.976562 C 199.269531 46.832031 195.894531 45.132812 192.578125 43.335938 C 187.269531 40.449219 181.808594 39.988281 176.078125 41.957031 C 168.757812 44.46875 162.324219 48.441406 156.492188 53.46875 C 156.230469 53.695312 156.027344 53.988281 155.792969 54.257812 Z M 171.273438 113.699219 C 173.726562 112.808594 175.417969 111.613281 177.230469 110.675781 C 178.375 110.082031 179.515625 109.5 180.75 109.132812 C 181.429688 108.929688 182.128906 108.738281 182.847656 109.476562 C 182.207031 110.355469 182.195312 111.417969 182.160156 112.476562 C 182.054688 115.613281 181.929688 118.753906 181.828125 121.890625 C 181.800781 122.761719 181.824219 123.636719 181.824219 124.507812 C 185.601562 115.148438 190.40625 106.320312 194.078125 96.445312 C 191.992188 97.484375 190.386719 98.371094 188.714844 99.101562 C 187.007812 99.84375 185.597656 101.234375 183.597656 101.613281 C 184.886719 95.242188 186.058594 89.050781 186.960938 82.773438 C 186.339844 82.792969 186.210938 83.144531 186.058594 83.457031 C 181.128906 93.335938 175.535156 102.890625 171.273438 113.699219 Z M 180.207031 200.105469 C 182.085938 200.253906 183.84375 199.984375 185.574219 199.617188 C 186.898438 199.339844 187.617188 198.433594 187.832031 197.085938 C 188.023438 195.878906 187.992188 194.671875 187.96875 193.460938 C 187.910156 189.472656 187.339844 185.5 187.488281 181.503906 C 187.585938 178.796875 187.675781 176.09375 187.75 173.386719 C 187.859375 169.613281 187.730469 165.832031 188.1875 162.070312 C 188.292969 161.199219 188.070312 160.382812 187.820312 159.554688 C 187.519531 158.546875 186.941406 158 185.863281 157.914062 C 183.453125 157.726562 181.054688 157.300781 178.625 157.390625 C 178.144531 157.40625 177.613281 157.28125 177.132812 157.921875 C 177.28125 158.613281 177.4375 159.445312 177.640625 160.261719 C 178.566406 164.03125 178.875 167.847656 178.574219 171.71875 C 178.414062 173.777344 178.199219 175.835938 178.089844 177.898438 C 177.855469 182.3125 177.601562 186.714844 178.792969 191.070312 C 179.355469 193.128906 179.535156 195.273438 179.679688 197.410156 C 179.738281 198.257812 179.703125 199.128906 180.207031 200.105469 Z M 165.519531 110.011719 C 165.328125 110.886719 165.558594 111.421875 165.703125 111.96875 C 166.28125 114.179688 166.898438 116.378906 167.4375 118.597656 C 169.226562 125.953125 171.710938 133.113281 173.363281 140.5 C 174.421875 145.238281 175.429688 149.984375 176.472656 154.722656 C 176.796875 156.199219 176.820312 156.21875 178.28125 156.25 C 180.707031 156.300781 183.125 156.464844 185.535156 156.777344 C 186.011719 156.839844 186.519531 157.003906 186.980469 156.65625 C 187.339844 156.144531 187.152344 155.554688 187.171875 154.996094 C 187.277344 152.148438 187.304688 149.289062 187.480469 146.441406 C 187.902344 139.644531 188.882812 132.964844 191.566406 126.617188 C 193.34375 122.410156 195.21875 118.25 197.296875 114.175781 C 197.582031 113.617188 198.023438 113.109375 198.027344 112.402344 C 197.503906 111.582031 196.976562 110.753906 196.445312 109.917969 C 195.601562 109.929688 194.945312 110.476562 194.179688 110.570312 C 192.472656 110.78125 191.671875 111.839844 191.011719 113.335938 C 188.738281 118.492188 186.523438 123.675781 184.417969 128.910156 C 184.074219 129.773438 183.832031 130.761719 183.074219 131.308594 C 181.609375 132.359375 181.179688 133.917969 180.699219 135.484375 C 180.53125 136.027344 180.417969 136.59375 180.234375 137.128906 C 180.050781 137.65625 179.65625 137.9375 179.082031 137.882812 C 178.464844 137.828125 178.207031 137.40625 178.226562 136.855469 C 178.253906 136.003906 178.308594 135.144531 178.4375 134.300781 C 178.777344 132.046875 179.191406 129.796875 179.519531 127.539062 C 180.246094 122.5 179.875 117.425781 179.933594 112.367188 C 179.933594 112.273438 179.769531 112.179688 179.660156 112.0625 C 178.914062 112.019531 178.339844 112.5 177.714844 112.804688 C 175.917969 113.679688 174.117188 114.53125 172.230469 115.199219 C 171.542969 115.441406 170.871094 115.632812 170.144531 115.539062 C 168.773438 115.363281 168.226562 114.632812 168.640625 113.332031 C 169.011719 112.179688 169.566406 111.089844 169.980469 109.949219 C 170.152344 109.46875 170.582031 108.96875 170.074219 108.277344 C 168.683594 109.179688 167.105469 109.59375 165.519531 110.011719 Z M 200.238281 200.023438 C 200.332031 199.613281 200.402344 199.472656 200.390625 199.339844 C 199.757812 193.289062 199.847656 187.238281 200.179688 181.164062 C 200.566406 174.023438 202.042969 167.183594 204.824219 160.601562 C 207.355469 154.628906 210.867188 149.28125 214.886719 144.230469 C 218.574219 139.597656 222.175781 134.890625 225.632812 130.074219 C 228.425781 126.191406 231.027344 122.183594 233.304688 117.960938 C 234.140625 116.414062 234.515625 114.816406 234.523438 113.046875 C 234.542969 107.007812 233.523438 101.109375 232.226562 95.246094 C 229.90625 84.75 226.035156 74.914062 219.792969 66.089844 C 219.175781 65.214844 218.613281 64.292969 217.785156 63.59375 C 213.1875 59.71875 208.382812 56.148438 202.84375 53.695312 C 198.351562 51.707031 193.75 50.289062 188.738281 51.082031 C 188.53125 51.113281 188.3125 51.101562 188.097656 51.113281 C 179.765625 51.617188 171.691406 53.242188 164.03125 56.65625 C 155.5 60.460938 148.753906 66.273438 143.988281 74.355469 C 142.730469 76.480469 141.855469 78.699219 141.546875 81.152344 C 141.183594 84.054688 140.714844 86.945312 140.421875 89.855469 C 139.699219 97.039062 139.273438 104.21875 140.199219 111.433594 C 141.242188 119.585938 143.882812 127.105469 148.511719 133.910156 C 150.359375 136.632812 152.398438 139.199219 154.460938 141.753906 C 155.804688 143.421875 157.183594 145.066406 158.433594 146.804688 C 161.1875 150.628906 163.082031 154.863281 163.609375 159.570312 C 163.972656 162.828125 164.4375 166.082031 164.667969 169.351562 C 165.097656 175.351562 164.578125 181.335938 164.023438 187.304688 C 163.671875 191.074219 163.402344 194.847656 163.230469 198.628906 C 163.207031 199.113281 163.078125 199.636719 163.609375 200.066406 C 165.839844 199.644531 168.097656 199.972656 170.347656 200.402344 C 171.410156 200.609375 172.472656 200.652344 173.542969 200.585938 C 175.121094 200.492188 175.269531 200.402344 175.355469 198.851562 C 175.554688 195.289062 175.695312 191.722656 175.847656 188.15625 C 175.890625 187.152344 175.773438 186.160156 175.480469 185.195312 C 173.433594 178.5 173.097656 171.574219 172.789062 164.65625 C 172.710938 162.871094 172.738281 161.085938 172.746094 159.300781 C 172.746094 158.4375 172.773438 157.46875 173.597656 157 C 174.59375 156.429688 174.519531 155.667969 174.324219 154.789062 C 173.726562 152.074219 173.121094 149.355469 172.519531 146.636719 C 169.90625 134.773438 165.878906 123.296875 163.03125 111.496094 C 162.722656 110.214844 161.925781 109.875 160.847656 109.53125 C 157.796875 108.554688 156.316406 106.039062 156.820312 102.890625 C 156.984375 101.863281 157.246094 100.894531 158.394531 100.5625 C 159.625 100.207031 160.648438 100.589844 161.449219 101.558594 C 161.8125 102 162.148438 102.464844 162.453125 102.945312 C 163.253906 104.226562 163.742188 105.644531 164.246094 107.058594 C 164.636719 108.148438 165.023438 108.410156 165.980469 107.996094 C 168.957031 106.703125 171.726562 105.09375 173.269531 102.042969 C 174.359375 99.875 175.414062 97.6875 176.40625 95.472656 C 178.414062 90.96875 180.660156 86.59375 183.359375 82.457031 C 184.996094 79.949219 186.835938 77.570312 188.175781 74.867188 C 188.269531 74.679688 188.386719 74.492188 188.523438 74.332031 C 189.078125 73.667969 190.410156 73.449219 191.273438 73.898438 C 192.167969 74.363281 191.757812 75.105469 191.636719 75.78125 C 191.625 75.851562 191.605469 75.917969 191.589844 75.992188 C 190.164062 82.765625 188.730469 89.539062 187.332031 96.316406 C 187.226562 96.816406 186.855469 97.386719 187.390625 97.910156 C 188.140625 97.839844 188.691406 97.34375 189.316406 97.03125 C 191.101562 96.136719 192.863281 95.191406 194.664062 94.328125 C 195.699219 93.828125 196.789062 93.429688 197.953125 94.285156 C 197.953125 95.941406 197.179688 97.425781 196.726562 98.976562 C 196.246094 100.621094 195.660156 102.230469 195.082031 103.84375 C 194.539062 105.355469 193.945312 106.84375 193.398438 108.28125 C 193.941406 108.660156 194.273438 108.476562 194.582031 108.332031 C 195.972656 107.667969 197.078125 106.703125 197.84375 105.34375 C 198.386719 104.371094 199.226562 103.933594 200.351562 104.140625 C 201.066406 104.269531 201.359375 104.75 201.011719 105.367188 C 200.695312 105.921875 200.246094 106.398438 199.898438 106.933594 C 199.238281 107.960938 199.234375 108.421875 199.789062 109.550781 C 200.425781 109.160156 200.707031 108.476562 201.109375 107.902344 C 202.769531 105.550781 204.691406 103.457031 207.039062 101.773438 C 207.738281 101.273438 208.457031 100.804688 209.304688 100.601562 C 211.210938 100.140625 212.390625 101.070312 212.359375 103.023438 C 212.335938 104.335938 212.007812 105.589844 211.300781 106.6875 C 209.070312 110.136719 206.09375 112.574219 201.894531 113.0625 C 200.726562 113.199219 200.136719 113.671875 199.652344 114.65625 C 197.507812 119.015625 195.40625 123.390625 193.714844 127.945312 C 192.667969 130.757812 191.691406 133.601562 191.230469 136.578125 C 190.214844 143.078125 189.863281 149.636719 189.746094 156.207031 C 189.734375 156.886719 189.785156 157.460938 190.472656 157.839844 C 191.894531 158.625 192.277344 159.996094 192.308594 161.476562 C 192.332031 162.617188 192.28125 163.761719 192.167969 164.898438 C 191.6875 169.65625 190.859375 174.378906 190.710938 179.167969 C 190.578125 183.371094 190.289062 187.585938 191.042969 191.769531 C 191.542969 194.546875 192.3125 197.335938 190.746094 200.304688 C 194.097656 200.207031 197.132812 200.117188 200.238281 200.023438 Z M 193.070312 240.273438 C 192.980469 241.191406 193.484375 242.085938 193.753906 243.027344 C 194.191406 244.542969 193.878906 244.980469 192.289062 244.960938 C 191.21875 244.949219 190.152344 244.824219 189.082031 244.808594 C 188.238281 244.796875 187.398438 244.878906 186.691406 244.910156 C 186.070312 245.628906 186.269531 246.292969 186.339844 246.90625 C 186.832031 251.304688 187.347656 255.699219 187.855469 260.097656 C 188.28125 263.789062 188.414062 267.496094 188.542969 271.207031 C 188.714844 276.203125 188.878906 281.195312 189.074219 286.191406 C 189.460938 296.046875 189.175781 305.890625 188.601562 315.730469 C 188.484375 317.730469 188.398438 319.730469 188.21875 321.726562 C 188.109375 322.964844 188.398438 325.933594 186.625 325.976562 C 184.375 326.03125 185.460938 321.976562 185.503906 320.597656 C 185.566406 318.28125 185.589844 315.957031 185.726562 313.640625 C 186.351562 303.007812 186.292969 292.378906 185.777344 281.746094 C 185.539062 276.894531 185.511719 272.039062 185.34375 267.183594 C 185.183594 262.472656 184.660156 257.792969 184.007812 253.125 C 183.75 251.285156 183.597656 249.4375 183.367188 247.59375 C 183.28125 246.90625 183.414062 246.152344 182.878906 245.515625 C 182.699219 245.488281 182.492188 245.410156 182.292969 245.429688 C 178.328125 245.839844 174.832031 244.789062 171.851562 242.101562 C 170.847656 241.191406 169.808594 240.316406 168.800781 239.410156 C 168.164062 238.832031 167.410156 238.238281 167.203125 237.425781 C 166.652344 235.269531 164.707031 234.40625 163.355469 232.996094 C 162.796875 232.410156 161.929688 232.375 161.203125 232.09375 C 158.550781 231.082031 157.066406 229.148438 156.617188 226.386719 C 156.28125 224.308594 156.78125 222.5 158.648438 221.367188 C 159.617188 220.78125 159.738281 220.085938 159.679688 219.066406 C 159.585938 217.398438 159.257812 215.886719 158.390625 214.40625 C 157.261719 212.472656 157.519531 211.246094 159.070312 209.628906 C 159.554688 209.125 159.769531 208.59375 159.851562 207.933594 C 159.972656 206.941406 160.144531 205.960938 160.292969 204.976562 C 160.183594 204.402344 159.617188 204.289062 159.265625 203.957031 C 158.289062 203.050781 158.332031 202.628906 159.472656 201.816406 C 159.699219 201.65625 159.949219 201.523438 160.289062 201.316406 C 157.910156 196.207031 158.089844 190.757812 157.96875 185.359375 C 157.867188 180.777344 157.339844 176.242188 156.554688 171.738281 C 155.832031 167.59375 155.410156 163.402344 154.421875 159.292969 C 153.421875 155.136719 151.382812 151.832031 147.777344 149.445312 C 145.398438 147.867188 143.289062 145.914062 141.234375 143.933594 C 136.664062 139.53125 134.0625 134.011719 132.601562 127.945312 C 131.40625 122.992188 131.011719 117.945312 131.46875 112.847656 C 131.707031 110.214844 131.722656 107.597656 131.347656 104.949219 C 130.457031 98.613281 130.605469 92.269531 131.746094 85.96875 C 133.078125 78.621094 136.578125 72.289062 141.117188 66.476562 C 142.261719 65.015625 143.375 63.539062 144.394531 61.984375 C 146.835938 58.257812 149.746094 54.925781 153.140625 52.050781 C 159.96875 46.265625 167.484375 41.683594 176.238281 39.4375 C 182.925781 37.722656 189.410156 38.371094 195.625 41.402344 C 201.480469 44.261719 207.082031 47.523438 211.972656 51.886719 C 212.679688 52.515625 213.46875 52.964844 214.347656 53.304688 C 220.765625 55.785156 226.050781 59.832031 230.292969 65.195312 C 238.160156 75.136719 242.683594 86.480469 243.867188 99.101562 C 244.429688 105.152344 243.367188 111.058594 241.566406 116.832031 C 239.9375 122.023438 237.867188 127.027344 235.101562 131.726562 C 234.59375 132.589844 234.085938 133.464844 233.722656 134.386719 C 229.796875 144.324219 223.605469 152.714844 216.125 160.222656 C 214.714844 161.640625 213.335938 163.089844 211.855469 164.433594 C 206.363281 169.414062 203.90625 175.75 203.214844 182.996094 C 202.746094 187.914062 203.34375 192.679688 204.65625 197.390625 C 205.082031 198.917969 205.378906 200.445312 205.300781 202.035156 C 205.265625 202.683594 205.34375 203.308594 205.582031 203.921875 C 206.664062 206.699219 206.894531 209.605469 206.863281 212.550781 C 206.847656 213.902344 206.757812 215.246094 207.519531 216.5 C 207.992188 217.28125 207.882812 218.210938 207.367188 218.949219 C 206.707031 219.878906 206.585938 220.902344 206.457031 221.96875 C 206.257812 223.671875 206.011719 225.367188 205.710938 227.054688 C 205.488281 228.324219 205.292969 229.53125 205.746094 230.832031 C 206.148438 231.980469 205.671875 233.078125 204.914062 234.011719 C 204.1875 234.90625 203.285156 235.609375 202.3125 236.214844 C 199.875 237.730469 197.308594 238.957031 194.488281 239.597656 C 194.078125 239.6875 193.628906 239.675781 193.292969 239.992188 C 193.238281 240.042969 193.203125 240.105469 193.070312 240.273438 " fill-opacity="1" fill-rule="nonzero"/></g></svg>