<svg xmlns="http://www.w3.org/2000/svg" xmlns:xlink="http://www.w3.org/1999/xlink" width="500" zoomAndPan="magnify" viewBox="0 0 375 374.999991" height="500" preserveAspectRatio="xMidYMid meet" version="1.0"><defs><clipPath id="6be61f665e"><path d="M 60.273438 63.171875 L 313.324219 63.171875 L 313.324219 186.949219 L 60.273438 186.949219 Z M 60.273438 63.171875 " clip-rule="nonzero"/></clipPath><clipPath id="f5a1805319"><path d="M 60.273438 188.265625 L 313.324219 188.265625 L 313.324219 311.730469 L 60.273438 311.730469 Z M 60.273438 188.265625 " clip-rule="nonzero"/></clipPath></defs><path fill="#1d1d1b" d="M 185.9375 115.21875 C 186.421875 115.46875 186.910156 115.6875 187.398438 115.957031 C 186.929688 115.769531 186.46875 115.710938 185.980469 115.75 C 185.960938 115.566406 185.9375 115.40625 185.9375 115.21875 C 186.421875 115.46875 185.9375 115.40625 185.9375 115.21875 Z M 196.359375 119.203125 C 200.476562 115.101562 185.675781 109.804688 183.082031 109.785156 C 178.214844 109.761719 179.976562 114.632812 180.039062 117.660156 C 179.183594 118.105469 178.371094 118.609375 177.582031 119.121094 C 175.898438 119.949219 174.261719 120.820312 172.695312 121.738281 C 174.136719 120.132812 180.949219 115.039062 176.085938 113.253906 C 172.898438 112.078125 169.875 117.210938 168.070312 119.121094 C 162.273438 118.390625 150.207031 136.566406 146.921875 140.769531 C 137.472656 150.710938 126.640625 161.445312 120.457031 173.863281 C 116.910156 178.105469 119.15625 182.285156 123.335938 177.761719 C 123.761719 177.820312 124.191406 177.820312 124.613281 177.777344 C 124.941406 182.972656 130.941406 177.964844 132.199219 176.785156 C 132.5625 177.007812 132.992188 177.191406 133.472656 177.335938 C 134.023438 177.554688 134.652344 177.660156 135.277344 177.617188 C 135.097656 186.300781 150.976562 170.292969 152.230469 169.074219 C 157.507812 170.273438 167.203125 155.054688 170.609375 151.402344 C 173.160156 148.699219 190.703125 133.746094 188.984375 130.742188 C 192.207031 127.113281 195.589844 123.523438 196.359375 119.203125 C 197.234375 118.328125 195.589844 123.523438 196.359375 119.203125 " fill-opacity="1" fill-rule="nonzero"/><path fill="#1d1d1b" d="M 183.992188 110.636719 C 178.371094 108.101562 163.085938 121.574219 165.09375 122.769531 C 161.28125 128.347656 166.796875 124.921875 168.722656 122.6875 C 168.902344 122.832031 169.148438 122.9375 169.390625 122.953125 C 169.105469 123.480469 169.59375 124.128906 170.265625 124.253906 C 169.226562 124.660156 168.703125 125.347656 168.683594 126.320312 C 169.695312 128.125 172.613281 124.535156 173.261719 123.96875 C 174.136719 123.296875 181.578125 119.546875 181.355469 119.015625 C 180.339844 118.40625 179.328125 118.507812 178.335938 119.339844 C 178.859375 118.816406 182.308594 115.890625 181.601562 114.839844 C 181.84375 114.550781 182.0625 114.269531 182.308594 113.984375 C 182.8125 113.84375 183.324219 113.71875 183.851562 113.601562 C 183.886719 114.65625 184.316406 115.324219 185.167969 115.605469 C 187.742188 115.488281 184.921875 111.066406 183.992188 110.636719 C 181.945312 109.707031 186.304688 111.691406 183.992188 110.636719 " fill-opacity="1" fill-rule="nonzero"/><path fill="#1d1d1b" d="M 194.25 117.839844 C 193.988281 113.4375 185.9375 120.683594 187.460938 121.675781 C 188.757812 121.816406 189.808594 121.269531 190.644531 120.050781 C 189.808594 128.25 182.167969 134.214844 176.566406 139.410156 C 168.703125 146.675781 161.808594 155.074219 154.890625 163.210938 C 153.085938 162.03125 150.835938 165.035156 149.703125 166.007812 C 150.246094 165.179688 154.792969 159.683594 154 158.90625 C 151.992188 156.960938 143.636719 170.984375 142.378906 172.789062 C 139.96875 175.34375 137.816406 178.144531 136.253906 181.289062 C 135.078125 183.746094 138.988281 181.855469 139.601562 181.007812 C 140.050781 181.574219 141.125 181.855469 141.972656 181.554688 C 142.136719 181.613281 142.273438 181.65625 142.441406 181.695312 C 143.011719 181.855469 143.65625 181.839844 144.167969 181.496094 C 144.46875 181.289062 144.730469 181.050781 144.933594 180.761719 C 146.558594 179.121094 147.957031 177.371094 149.152344 175.566406 C 157.734375 165.160156 166.046875 154.242188 175.515625 144.664062 C 182.675781 137.421875 194.980469 129.449219 194.25 117.839844 C 194.191406 116.804688 194.917969 128.695312 194.25 117.839844 " fill-opacity="1" fill-rule="nonzero"/><path fill="#1d1d1b" d="M 144.546875 181.230469 C 137.046875 176.605469 125.933594 181.773438 117.757812 181.027344 C 118.976562 179.644531 129.867188 169.542969 129.320312 168.589844 C 128 166.214844 121.753906 173.683594 120.824219 174.613281 C 117.558594 177.839844 110.117188 182.546875 118.613281 183.261719 C 123.761719 183.667969 128.832031 182.691406 133.941406 182.324219 C 135.179688 182.222656 145.785156 182 144.546875 181.230469 " fill-opacity="1" fill-rule="nonzero"/><path fill="#1d1d1b" d="M 152.132812 140.625 C 143.355469 141.5 136.683594 149.859375 130.941406 156.011719 C 128.652344 158.464844 110.335938 179.101562 113.054688 180.132812 C 113.378906 180.742188 114.398438 181.070312 115.226562 180.84375 C 116.097656 180.863281 116.808594 180.582031 117.375 179.996094 C 117.457031 180.011719 117.519531 180.050781 117.601562 180.070312 C 117.132812 180.945312 118.53125 181.675781 119.605469 181.53125 C 120.519531 183.179688 132.460938 180.175781 134.042969 179.28125 C 138.707031 178.226562 136.804688 176.398438 133.03125 176.929688 C 133.011719 176.949219 138.058594 175.28125 135.402344 174.105469 C 133.375 173.195312 127.550781 176.359375 125.320312 176.765625 C 125.644531 176.542969 130.539062 172.582031 126.277344 173.09375 C 127.046875 172.222656 131.835938 168.125 128.957031 167.109375 C 129.054688 167.007812 132.746094 164.710938 131.449219 163.433594 C 132.21875 162.605469 136.820312 158.238281 132.910156 158.140625 C 137.003906 153.613281 141.304688 149.148438 146.152344 145.398438 C 146.660156 145.007812 152.941406 140.546875 152.132812 140.625 " fill-opacity="1" fill-rule="nonzero"/><path fill="#1d1d1b" d="M 135.929688 178.105469 C 133.878906 177.820312 131.449219 177.859375 129.199219 178.285156 C 128.28125 178.105469 121.835938 174.777344 121.753906 177.007812 C 121.710938 178.183594 125.140625 178.976562 125.914062 179.242188 C 124.839844 179.300781 124.253906 179.726562 124.128906 180.539062 C 124.753906 181.773438 129.664062 180.476562 130.492188 180.3125 C 131.386719 180.394531 137.066406 180.96875 136.945312 178.996094 C 136.601562 178.691406 136.277344 178.410156 135.929688 178.105469 C 133.878906 177.820312 137.1875 178.285156 135.929688 178.105469 " fill-opacity="1" fill-rule="nonzero"/><path fill="#1d1d1b" d="M 185.9375 244.71875 C 186.421875 244.496094 186.910156 244.253906 187.398438 243.992188 C 186.929688 244.171875 186.46875 244.234375 185.980469 244.191406 C 185.960938 244.371094 185.9375 244.539062 185.9375 244.71875 C 186.421875 244.496094 185.9375 244.539062 185.9375 244.71875 Z M 196.359375 240.742188 C 200.476562 244.839844 185.675781 250.140625 183.082031 250.160156 C 178.214844 250.199219 179.976562 245.308594 180.039062 242.285156 C 179.183594 241.84375 178.371094 241.332031 177.582031 240.824219 C 175.898438 239.992188 174.261719 239.121094 172.695312 238.210938 C 174.136719 239.832031 180.949219 244.902344 176.085938 246.707031 C 172.898438 247.886719 169.875 242.730469 168.070312 240.824219 C 162.3125 241.574219 150.1875 223.335938 146.921875 219.175781 C 137.148438 208.886719 127.777344 198.296875 120.457031 186.078125 C 116.925781 181.839844 119.136719 177.660156 123.335938 182.1875 C 123.761719 182.117188 124.191406 182.117188 124.613281 182.1875 C 124.941406 176.96875 130.941406 181.980469 132.199219 183.15625 C 132.5625 182.933594 132.992188 182.730469 133.472656 182.609375 C 134.023438 182.40625 134.652344 182.285156 135.277344 182.304688 C 135.097656 173.640625 150.976562 189.648438 152.230469 190.867188 C 157.507812 189.667969 167.203125 204.890625 170.609375 208.542969 C 173.179688 211.261719 190.703125 226.152344 188.984375 229.21875 C 192.207031 232.832031 195.589844 236.421875 196.359375 240.742188 C 197.234375 241.59375 195.589844 236.421875 196.359375 240.742188 " fill-opacity="1" fill-rule="nonzero"/><path fill="#1d1d1b" d="M 183.992188 249.304688 C 178.453125 251.820312 162.980469 238.453125 165.09375 237.171875 C 161.257812 231.632812 166.796875 235.023438 168.722656 237.253906 C 168.902344 237.109375 169.148438 237.007812 169.390625 236.992188 C 169.105469 236.460938 169.59375 235.8125 170.265625 235.691406 C 169.226562 235.285156 168.703125 234.59375 168.683594 233.621094 C 169.695312 231.8125 172.613281 235.40625 173.261719 235.957031 C 174.136719 236.648438 181.578125 240.398438 181.355469 240.925781 C 180.339844 241.535156 179.328125 241.4375 178.335938 240.601562 C 178.859375 241.132812 182.308594 244.074219 181.601562 245.109375 C 181.84375 245.390625 182.0625 245.675781 182.308594 245.957031 C 182.8125 246.101562 183.324219 246.222656 183.851562 246.34375 C 183.886719 245.289062 184.316406 244.621094 185.167969 244.335938 C 187.742188 244.476562 184.921875 248.878906 183.992188 249.304688 C 181.945312 250.222656 186.304688 248.25 183.992188 249.304688 " fill-opacity="1" fill-rule="nonzero"/><path fill="#1d1d1b" d="M 194.25 242.105469 C 193.988281 246.488281 185.9375 239.261719 187.460938 238.265625 C 188.757812 238.125 189.808594 238.671875 190.644531 239.894531 C 189.808594 231.695312 182.167969 225.726562 176.566406 220.535156 C 168.703125 213.269531 161.808594 204.871094 154.890625 196.730469 C 153.085938 197.890625 150.835938 194.925781 149.703125 193.953125 C 150.246094 194.761719 154.792969 200.261719 154 201.03125 C 151.992188 202.980469 143.617188 188.941406 142.378906 187.15625 C 139.96875 184.597656 137.816406 181.800781 136.253906 178.632812 C 135.058594 176.199219 139.011719 178.105469 139.601562 178.933594 C 140.050781 178.371094 141.125 178.085938 141.972656 178.382812 C 142.136719 178.328125 142.273438 178.265625 142.441406 178.246094 C 143.011719 178.066406 143.65625 178.105469 144.167969 178.453125 C 144.46875 178.652344 144.730469 178.898438 144.933594 179.183594 C 146.558594 180.824219 147.957031 182.566406 149.152344 184.371094 C 157.710938 194.78125 166.046875 205.703125 175.515625 215.28125 C 182.675781 222.542969 194.980469 230.496094 194.25 242.105469 C 194.191406 243.136719 194.917969 231.246094 194.25 242.105469 " fill-opacity="1" fill-rule="nonzero"/><path fill="#1d1d1b" d="M 144.546875 178.714844 C 137.046875 183.339844 125.933594 178.164062 117.757812 178.914062 C 118.976562 180.292969 129.867188 190.398438 129.320312 191.355469 C 127.984375 193.726562 121.753906 186.265625 120.824219 185.347656 C 117.558594 182.105469 110.117188 177.390625 118.613281 176.683594 C 123.761719 176.261719 128.832031 177.253906 133.941406 177.617188 C 135.179688 177.714844 145.804688 177.921875 144.546875 178.714844 C 140.875 180.96875 145.179688 178.308594 144.546875 178.714844 " fill-opacity="1" fill-rule="nonzero"/><path fill="#1d1d1b" d="M 152.132812 219.316406 C 143.355469 218.421875 136.703125 210.101562 130.941406 203.933594 C 128.632812 201.460938 110.335938 180.84375 113.054688 179.808594 C 113.378906 179.199219 114.398438 178.875 115.226562 179.121094 C 116.097656 179.058594 116.808594 179.363281 117.375 179.949219 C 117.457031 179.933594 117.519531 179.890625 117.601562 179.871094 C 117.132812 178.996094 118.53125 178.265625 119.605469 178.382812 C 120.539062 176.742188 132.421875 179.789062 134.042969 180.664062 C 138.707031 181.695312 136.804688 183.5625 133.03125 183.015625 C 133.011719 182.992188 138.058594 184.660156 135.402344 185.832031 C 133.375 186.75 127.574219 183.578125 125.320312 183.179688 C 125.671875 183.421875 130.539062 187.335938 126.277344 186.851562 C 127.070312 187.742188 131.8125 191.804688 128.957031 192.839844 C 129.054688 192.9375 132.746094 195.230469 131.449219 196.511719 C 132.21875 197.34375 136.820312 201.699219 132.910156 201.804688 C 137.003906 206.332031 141.304688 210.792969 146.152344 214.550781 C 146.660156 214.929688 152.941406 219.398438 152.132812 219.316406 C 150.695312 219.175781 152.804688 219.378906 152.132812 219.316406 " fill-opacity="1" fill-rule="nonzero"/><path fill="#1d1d1b" d="M 135.929688 181.839844 C 133.878906 182.117188 131.449219 182.082031 129.199219 181.65625 C 128.28125 181.839844 121.835938 185.164062 121.753906 182.933594 C 121.710938 181.757812 125.140625 180.96875 125.914062 180.703125 C 124.839844 180.644531 124.253906 180.214844 124.128906 179.402344 C 124.753906 178.164062 129.664062 179.464844 130.492188 179.625 C 131.386719 179.527344 137.066406 178.976562 136.945312 180.945312 C 136.601562 181.230469 136.277344 181.53125 135.929688 181.839844 C 133.878906 182.117188 137.1875 181.65625 135.929688 181.839844 " fill-opacity="1" fill-rule="nonzero"/><path fill="#1d1d1b" d="M 242.738281 115.21875 C 243.246094 115.46875 243.734375 115.6875 244.21875 115.957031 C 243.753906 115.769531 243.289062 115.710938 242.800781 115.75 C 242.777344 115.566406 242.757812 115.40625 242.738281 115.21875 C 243.246094 115.46875 242.757812 115.40625 242.738281 115.21875 Z M 253.183594 119.203125 C 257.300781 115.101562 242.476562 109.804688 239.898438 109.785156 C 235.074219 109.761719 236.738281 114.632812 236.855469 117.660156 C 236.007812 118.105469 235.195312 118.609375 234.40625 119.121094 C 232.722656 119.949219 231.078125 120.820312 229.496094 121.738281 C 230.957031 120.132812 237.773438 115.039062 232.902344 113.253906 C 229.722656 112.078125 226.699219 117.210938 224.894531 119.121094 C 219.074219 118.390625 207.03125 136.566406 203.742188 140.769531 C 193.84375 151.179688 185.230469 161.933594 177.261719 173.863281 C 173.730469 178.105469 175.980469 182.285156 180.15625 177.761719 C 180.585938 177.820312 181.007812 177.820312 181.4375 177.777344 C 181.738281 182.972656 187.765625 177.964844 188.996094 176.785156 C 189.382812 177.007812 189.808594 177.191406 190.296875 177.335938 C 190.84375 177.554688 191.476562 177.660156 192.101562 177.617188 C 191.921875 186.300781 207.796875 170.292969 209.054688 169.074219 C 214.332031 170.273438 224.027344 155.03125 227.429688 151.402344 C 229.984375 148.699219 247.523438 133.746094 245.800781 130.742188 C 249.03125 127.113281 252.414062 123.523438 253.183594 119.203125 C 254.058594 118.328125 252.414062 123.523438 253.183594 119.203125 " fill-opacity="1" fill-rule="nonzero"/><path fill="#1d1d1b" d="M 240.808594 110.636719 C 235.195312 108.101562 219.882812 121.574219 221.914062 122.769531 C 218.097656 128.347656 223.613281 124.921875 225.542969 122.6875 C 225.726562 122.832031 225.96875 122.9375 226.210938 122.953125 C 225.929688 123.480469 226.417969 124.128906 227.085938 124.253906 C 226.050781 124.660156 225.523438 125.347656 225.5 126.320312 C 226.519531 128.105469 229.4375 124.535156 230.085938 123.96875 C 230.957031 123.296875 238.398438 119.546875 238.179688 119.015625 C 237.164062 118.40625 236.148438 118.507812 235.132812 119.339844 C 235.664062 118.832031 239.148438 115.875 238.398438 114.839844 C 238.644531 114.550781 238.886719 114.269531 239.128906 113.984375 C 239.636719 113.84375 240.140625 113.71875 240.671875 113.601562 C 240.710938 114.65625 241.140625 115.324219 241.992188 115.605469 C 244.5625 115.488281 241.746094 111.066406 240.808594 110.636719 C 238.765625 109.707031 243.125 111.691406 240.808594 110.636719 " fill-opacity="1" fill-rule="nonzero"/><path fill="#1d1d1b" d="M 251.074219 117.839844 C 250.789062 113.4375 242.757812 120.683594 244.28125 121.675781 C 245.558594 121.816406 246.632812 121.269531 247.46875 120.050781 C 246.632812 128.25 238.988281 134.214844 233.390625 139.410156 C 225.523438 146.675781 218.628906 155.074219 211.714844 163.210938 C 209.910156 162.054688 207.660156 165.035156 206.523438 166.007812 C 207.066406 165.179688 211.613281 159.683594 210.800781 158.90625 C 208.808594 156.960938 200.441406 170.984375 199.203125 172.789062 C 196.785156 175.34375 194.617188 178.144531 193.074219 181.289062 C 191.902344 183.746094 195.8125 181.855469 196.425781 181.007812 C 196.867188 181.574219 197.941406 181.855469 198.796875 181.554688 C 198.933594 181.613281 199.097656 181.65625 199.261719 181.695312 C 199.828125 181.855469 200.476562 181.839844 200.984375 181.496094 C 201.289062 181.289062 201.53125 181.050781 201.757812 180.761719 C 203.375 179.121094 204.757812 177.371094 205.972656 175.566406 C 214.53125 165.160156 222.871094 154.242188 232.332031 144.664062 C 239.472656 137.398438 251.804688 129.449219 251.074219 117.839844 C 251.015625 116.804688 251.742188 128.695312 251.074219 117.839844 " fill-opacity="1" fill-rule="nonzero"/><path fill="#1d1d1b" d="M 201.371094 181.230469 C 193.867188 176.605469 182.753906 181.773438 174.582031 181.027344 C 175.796875 179.644531 186.667969 169.542969 186.140625 168.589844 C 184.824219 166.214844 178.578125 173.683594 177.648438 174.613281 C 174.378906 177.839844 166.917969 182.546875 175.433594 183.261719 C 180.5625 183.667969 185.65625 182.691406 190.746094 182.324219 C 192.003906 182.222656 202.605469 182 201.371094 181.230469 C 197.722656 178.976562 201.976562 181.636719 201.371094 181.230469 " fill-opacity="1" fill-rule="nonzero"/><path fill="#1d1d1b" d="M 208.953125 140.625 C 200.171875 141.5 193.5 149.859375 187.742188 156.011719 C 185.449219 158.484375 167.160156 179.121094 169.875 180.132812 C 170.203125 180.742188 171.214844 181.070312 172.042969 180.84375 C 172.917969 180.882812 173.628906 180.582031 174.199219 179.996094 C 174.261719 180.011719 174.335938 180.050781 174.417969 180.070312 C 173.929688 180.945312 175.355469 181.675781 176.429688 181.53125 C 177.320312 183.15625 189.304688 180.195312 190.84375 179.28125 C 195.53125 178.226562 193.625 176.398438 189.851562 176.929688 C 189.832031 176.949219 194.878906 175.28125 192.226562 174.105469 C 190.195312 173.195312 184.375 176.359375 182.144531 176.765625 C 182.46875 176.542969 187.359375 172.582031 183.101562 173.09375 C 183.871094 172.222656 188.636719 168.125 185.773438 167.109375 C 185.878906 167.007812 189.570312 164.710938 188.273438 163.433594 C 189.039062 162.605469 193.644531 158.238281 189.734375 158.140625 C 193.828125 153.613281 198.128906 149.148438 202.976562 145.398438 C 203.480469 145.007812 209.765625 140.546875 208.953125 140.625 " fill-opacity="1" fill-rule="nonzero"/><path fill="#1d1d1b" d="M 192.75 178.105469 C 190.703125 177.820312 188.273438 177.859375 186.019531 178.285156 C 185.105469 178.105469 178.660156 174.777344 178.578125 177.007812 C 178.535156 178.183594 181.964844 178.976562 182.738281 179.242188 C 181.65625 179.300781 181.070312 179.726562 180.949219 180.539062 C 181.578125 181.773438 186.484375 180.476562 187.316406 180.3125 C 188.226562 180.394531 193.886719 180.96875 193.742188 178.996094 C 193.417969 178.691406 193.09375 178.410156 192.75 178.105469 C 190.703125 177.820312 194.011719 178.285156 192.75 178.105469 " fill-opacity="1" fill-rule="nonzero"/><path fill="#1d1d1b" d="M 242.738281 244.71875 C 243.246094 244.496094 243.734375 244.253906 244.21875 243.992188 C 243.753906 244.171875 243.289062 244.234375 242.800781 244.191406 C 242.777344 244.371094 242.757812 244.539062 242.738281 244.71875 C 243.246094 244.496094 242.757812 244.539062 242.738281 244.71875 Z M 253.183594 240.742188 C 257.300781 244.839844 242.496094 250.140625 239.898438 250.160156 C 235.074219 250.199219 236.738281 245.308594 236.855469 242.285156 C 236.007812 241.84375 235.195312 241.332031 234.40625 240.824219 C 232.722656 239.992188 231.078125 239.121094 229.496094 238.210938 C 230.957031 239.808594 237.773438 244.902344 232.902344 246.707031 C 229.722656 247.886719 226.699219 242.730469 224.894531 240.824219 C 219.117188 241.574219 206.984375 223.335938 203.742188 219.175781 C 193.808594 208.722656 186.179688 197.222656 177.261719 186.078125 C 173.75 181.839844 175.960938 177.660156 180.15625 182.1875 C 180.585938 182.117188 181.007812 182.117188 181.4375 182.1875 C 181.738281 176.96875 187.765625 181.980469 188.996094 183.15625 C 189.382812 182.933594 189.808594 182.730469 190.296875 182.609375 C 190.84375 182.40625 191.476562 182.285156 192.101562 182.304688 C 191.921875 173.640625 207.796875 189.648438 209.054688 190.867188 C 214.332031 189.667969 224.027344 204.890625 227.429688 208.542969 C 230.003906 211.261719 247.523438 226.152344 245.800781 229.21875 C 249.03125 232.832031 252.414062 236.421875 253.183594 240.742188 C 254.058594 241.59375 252.414062 236.421875 253.183594 240.742188 " fill-opacity="1" fill-rule="nonzero"/><path fill="#1d1d1b" d="M 240.808594 249.304688 C 235.257812 251.820312 219.804688 238.453125 221.914062 237.171875 C 218.078125 231.632812 223.613281 235.023438 225.542969 237.253906 C 225.726562 237.109375 225.96875 237.007812 226.210938 236.992188 C 225.929688 236.460938 226.417969 235.8125 227.085938 235.691406 C 226.050781 235.285156 225.523438 234.59375 225.5 233.621094 C 226.519531 231.8125 229.4375 235.40625 230.085938 235.957031 C 230.957031 236.648438 238.398438 240.398438 238.179688 240.925781 C 237.164062 241.535156 236.148438 241.4375 235.132812 240.601562 C 235.664062 241.113281 239.148438 244.09375 238.398438 245.109375 C 238.644531 245.390625 238.886719 245.675781 239.128906 245.957031 C 239.636719 246.101562 240.140625 246.222656 240.671875 246.34375 C 240.710938 245.289062 241.140625 244.621094 241.992188 244.335938 C 244.5625 244.476562 241.746094 248.878906 240.808594 249.304688 C 238.765625 250.222656 243.125 248.25 240.808594 249.304688 " fill-opacity="1" fill-rule="nonzero"/><path fill="#1d1d1b" d="M 251.074219 242.105469 C 250.789062 246.507812 242.757812 239.261719 244.28125 238.265625 C 245.558594 238.125 246.632812 238.671875 247.46875 239.894531 C 246.632812 231.695312 238.988281 225.726562 233.390625 220.535156 C 225.523438 213.269531 218.628906 204.871094 211.714844 196.730469 C 209.910156 197.890625 207.660156 194.925781 206.523438 193.953125 C 207.066406 194.761719 211.613281 200.246094 210.800781 201.03125 C 208.808594 202.980469 200.441406 188.960938 199.203125 187.15625 C 196.785156 184.597656 194.617188 181.800781 193.074219 178.632812 C 191.882812 176.199219 195.8125 178.105469 196.425781 178.933594 C 196.867188 178.371094 197.941406 178.085938 198.796875 178.382812 C 198.933594 178.328125 199.097656 178.265625 199.261719 178.246094 C 199.828125 178.066406 200.476562 178.105469 200.984375 178.453125 C 201.289062 178.652344 201.53125 178.898438 201.757812 179.183594 C 203.375 180.824219 204.757812 182.566406 205.972656 184.371094 C 214.53125 194.78125 222.871094 205.703125 232.332031 215.28125 C 239.492188 222.542969 251.804688 230.496094 251.074219 242.105469 C 251.015625 243.136719 251.742188 231.246094 251.074219 242.105469 " fill-opacity="1" fill-rule="nonzero"/><path fill="#1d1d1b" d="M 201.371094 178.714844 C 193.867188 183.339844 182.753906 178.164062 174.582031 178.914062 C 175.796875 180.292969 186.691406 190.398438 186.140625 191.355469 C 184.804688 193.726562 178.578125 186.265625 177.648438 185.347656 C 174.378906 182.105469 166.917969 177.390625 175.433594 176.683594 C 180.5625 176.261719 185.65625 177.253906 190.746094 177.617188 C 191.984375 177.714844 202.628906 177.921875 201.371094 178.714844 C 197.722656 180.96875 201.976562 178.308594 201.371094 178.714844 " fill-opacity="1" fill-rule="nonzero"/><path fill="#1d1d1b" d="M 208.953125 219.316406 C 200.152344 218.421875 193.523438 210.101562 187.742188 203.933594 C 185.449219 201.460938 167.160156 180.84375 169.875 179.808594 C 170.203125 179.199219 171.214844 178.875 172.042969 179.121094 C 172.917969 179.058594 173.628906 179.363281 174.199219 179.949219 C 174.261719 179.933594 174.335938 179.890625 174.417969 179.871094 C 173.929688 178.996094 175.355469 178.265625 176.429688 178.382812 C 177.339844 176.765625 189.265625 179.769531 190.84375 180.664062 C 195.53125 181.675781 193.625 183.5625 189.851562 183.015625 C 189.808594 182.992188 194.878906 184.660156 192.226562 185.832031 C 190.195312 186.75 184.398438 183.578125 182.144531 183.179688 C 182.488281 183.421875 187.359375 187.335938 183.101562 186.851562 C 183.886719 187.742188 188.636719 191.804688 185.773438 192.839844 C 185.878906 192.9375 189.570312 195.230469 188.273438 196.511719 C 189.039062 197.34375 193.644531 201.699219 189.734375 201.804688 C 193.828125 206.332031 198.128906 210.792969 202.976562 214.550781 C 203.480469 214.929688 209.765625 219.398438 208.953125 219.316406 C 207.515625 219.175781 209.621094 219.378906 208.953125 219.316406 " fill-opacity="1" fill-rule="nonzero"/><path fill="#1d1d1b" d="M 192.75 181.839844 C 190.703125 182.117188 188.273438 182.082031 186.019531 181.65625 C 185.105469 181.839844 178.660156 185.164062 178.578125 182.933594 C 178.535156 181.757812 181.964844 180.96875 182.738281 180.703125 C 181.65625 180.644531 181.070312 180.214844 180.949219 179.402344 C 181.578125 178.164062 186.484375 179.464844 187.316406 179.625 C 188.226562 179.527344 193.886719 178.976562 193.742188 180.945312 C 193.417969 181.230469 193.09375 181.53125 192.75 181.839844 C 190.703125 182.117188 194.011719 181.65625 192.75 181.839844 " fill-opacity="1" fill-rule="nonzero"/><g clip-path="url(#6be61f665e)"><path fill="#1d1d1b" d="M 311.28125 153.390625 C 311.6875 152.660156 311.667969 150.203125 310.980469 151.566406 C 302.21875 100.164062 263.746094 64.535156 211.128906 63.21875 C 164.949219 62.039062 118.976562 84.234375 89.898438 119.910156 C 82.675781 128.773438 76.492188 138.476562 71.648438 148.84375 C 68.992188 154.488281 66.738281 160.332031 64.894531 166.277344 C 63.859375 169.640625 58.523438 182.8125 60.859375 185.796875 C 63.976562 189.773438 65.339844 178.347656 65.625 177.171875 C 66.898438 171.933594 68.503906 166.800781 70.429688 161.75 C 74.527344 150.9375 80.023438 140.667969 86.710938 131.210938 C 113.867188 92.777344 160.75 67.925781 207.960938 68.414062 C 232.054688 68.65625 256.042969 76.082031 274.171875 92.414062 C 293.558594 109.886719 303.230469 135.167969 305.523438 160.757812 C 304.023438 164.429688 303.011719 176.726562 309.175781 177.335938 C 316.640625 178.085938 311.875 157.167969 311.28125 153.390625 C 311.527344 152.945312 312.335938 160.125 311.28125 153.390625 " fill-opacity="1" fill-rule="nonzero"/></g><g clip-path="url(#f5a1805319)"><path fill="#1d1d1b" d="M 311.28125 221.503906 C 311.667969 222.199219 311.667969 224.714844 310.980469 223.335938 C 302.21875 274.710938 263.746094 310.339844 211.128906 311.683594 C 164.949219 312.855469 118.976562 290.660156 89.898438 254.96875 C 82.675781 246.121094 76.492188 236.398438 71.648438 226.050781 C 68.992188 220.414062 66.738281 214.570312 64.894531 208.625 C 63.859375 205.253906 58.523438 192.0625 60.859375 189.105469 C 64 185.128906 65.339844 196.546875 65.625 197.703125 C 66.898438 202.941406 68.503906 208.09375 70.429688 213.125 C 74.527344 223.960938 80.023438 234.230469 86.710938 243.683594 C 113.867188 282.117188 160.75 306.957031 207.960938 306.488281 C 232.054688 306.246094 256.042969 298.8125 274.171875 282.480469 C 293.558594 265.015625 303.230469 239.726562 305.523438 214.136719 C 304.023438 210.472656 303.011719 198.171875 309.175781 197.542969 C 316.640625 196.8125 311.875 217.714844 311.28125 221.503906 C 311.527344 221.953125 312.335938 214.769531 311.28125 221.503906 " fill-opacity="1" fill-rule="nonzero"/></g><path fill="#1d1d1b" d="M 311.0625 168.53125 C 311.082031 168.199219 311.019531 167.917969 310.898438 167.675781 C 310.675781 165.015625 308.726562 164.710938 308.464844 167.550781 C 308.261719 168.0625 308.140625 168.589844 308.121094 169.136719 C 305.683594 168.53125 305.222656 184.453125 305.097656 186.527344 C 304.976562 188.617188 303.4375 206.207031 306.757812 204.378906 C 306.78125 208.09375 306.78125 211.808594 306.804688 215.523438 C 307.148438 216.492188 307.695312 216.734375 308.484375 216.273438 C 309.582031 215.441406 309.277344 209.941406 309.417969 208.6875 C 310.46875 208.785156 311.648438 208.113281 311.605469 206.714844 C 311.75 199.839844 311.710938 192.9375 311.648438 186.058594 C 311.75 183.625 314.546875 167.730469 311.0625 168.53125 C 311.082031 168.199219 312.117188 168.28125 311.0625 168.53125 " fill-opacity="1" fill-rule="nonzero"/><path fill="#1d1d1b" d="M 68.261719 200.976562 C 65.238281 195.699219 62.582031 190.257812 62.804688 184.027344 C 62.882812 182.285156 66.574219 169.660156 66.210938 169.5 C 63.632812 168.179688 61.183594 184.617188 61.203125 186.320312 C 61.222656 189.550781 61.808594 192.757812 63.109375 195.71875 C 63.777344 197.199219 64.609375 198.597656 65.625 199.894531 C 64.382812 198.316406 69.878906 203.753906 68.261719 200.976562 C 65.664062 196.46875 68.605469 201.5625 68.261719 200.976562 " fill-opacity="1" fill-rule="nonzero"/><path fill="#1d1d1b" d="M 308.464844 192.128906 C 308.320312 189.8125 306.984375 197.542969 306.964844 198.070312 C 306.683594 202.050781 306.234375 206.027344 305.566406 209.941406 C 304.246094 217.855469 302.15625 225.625 299.15625 233.050781 C 293.355469 247.398438 283.949219 259.632812 271.335938 268.644531 C 245.375 287.148438 211.714844 289.910156 181.070312 284.859375 C 151.8125 280.050781 123.09375 268.15625 101.191406 247.761719 C 90.117188 237.453125 80.933594 224.996094 75.457031 210.816406 C 72.660156 203.566406 70.792969 195.980469 69.941406 188.25 C 69.660156 185.777344 70.125 164.023438 69.679688 163.921875 C 67.449219 163.453125 67.8125 185.207031 67.992188 187.417969 C 68.722656 196.140625 70.691406 204.765625 73.894531 212.902344 C 79.699219 227.65625 89.386719 240.601562 100.96875 251.277344 C 123.578125 272.09375 153.1875 284.652344 183.425781 289.054688 C 212.546875 293.300781 244.320312 290.316406 269.75 274.46875 C 298.769531 256.386719 310.550781 225.339844 308.464844 192.128906 C 308.425781 191.296875 309.417969 207.121094 308.464844 192.128906 " fill-opacity="1" fill-rule="nonzero"/></svg>