<svg xmlns="http://www.w3.org/2000/svg" xmlns:xlink="http://www.w3.org/1999/xlink" width="500" zoomAndPan="magnify" viewBox="0 0 375 374.999991" height="500" preserveAspectRatio="xMidYMid meet" version="1.0"><defs><clipPath id="e16946ded5"><path d="M 66.328125 65.625 L 307.792969 65.625 L 307.792969 309.371094 L 66.328125 309.371094 Z M 66.328125 65.625 " clip-rule="nonzero"/></clipPath></defs><g clip-path="url(#e16946ded5)"><path fill="#000000" d="M 291.316406 210.246094 C 283.46875 250.386719 264.316406 289.847656 219.6875 295.484375 C 184.136719 300 141.800781 286.308594 114.539062 263.324219 C 81.980469 235.902344 68.164062 187.183594 82.199219 146.761719 C 94.933594 110.269531 140.386719 73.183594 180.460938 76.65625 C 181.710938 77.3125 183.027344 77.480469 184.398438 77.164062 C 187.542969 77.683594 214.210938 91.210938 209.917969 78.34375 C 237.164062 82.542969 271.574219 93.792969 284.265625 120.558594 C 297.285156 148.09375 297.023438 180.953125 291.316406 210.246094 C 287.242188 231.015625 295.734375 187.550781 291.316406 210.246094 Z M 301.414062 131.179688 C 289.382812 88.59375 233.199219 56.980469 190.039062 67.722656 C 139.082031 54.746094 81.941406 105.207031 70.003906 151.839844 C 57.148438 202.109375 78.824219 254.902344 121.917969 282.972656 C 160.253906 307.984375 216.804688 321.265625 257.921875 295.15625 C 307.191406 263.875 315.972656 182.503906 301.414062 131.179688 C 293.9375 104.78125 308.660156 156.65625 301.414062 131.179688 " fill-opacity="1" fill-rule="nonzero"/></g><path fill="#000000" d="M 288.230469 108.101562 C 274.484375 104.300781 254.683594 126.15625 246.152344 134.359375 C 229.730469 150.222656 215.199219 167.808594 199.421875 184.3125 C 201.21875 165.847656 202.960938 147.367188 204.703125 128.886719 C 205.582031 119.640625 206.433594 110.40625 207.285156 101.160156 C 207.875 94.890625 211.6875 81.992188 208.929688 76.230469 C 207.0625 72.304688 200.300781 71.785156 199.777344 76.929688 C 198.792969 86.09375 197.84375 95.273438 196.898438 104.4375 C 194.828125 124.605469 192.726562 144.773438 190.628906 164.941406 C 190.011719 170.703125 181.503906 207.71875 193.949219 204.261719 C 200.082031 202.5625 206.640625 193.011719 210.890625 188.566406 C 216.738281 182.515625 222.375 176.300781 228.054688 170.085938 C 239.304688 157.738281 250.582031 145.296875 263.234375 134.332031 C 269.007812 129.339844 275.183594 124.261719 282.070312 120.902344 C 285.117188 119.421875 298.039062 110.777344 288.230469 108.101562 C 280.328125 105.933594 291.535156 109.007812 288.230469 108.101562 " fill-opacity="1" fill-rule="nonzero"/><path fill="#000000" d="M 298.09375 143.5 C 288.792969 141.851562 276.363281 152.566406 268.226562 156.214844 C 257.167969 161.183594 245.890625 165.640625 234.804688 170.621094 C 224.1875 175.367188 213.691406 180.570312 203.910156 186.976562 C 201.808594 188.363281 185.414062 203.097656 198.695312 202.371094 C 202.277344 202.164062 206.5 197.554688 209.328125 195.714844 C 214.773438 192.1875 220.46875 189.046875 226.3125 186.140625 C 236.507812 181.050781 247.070312 176.714844 257.59375 172.335938 C 267.375 168.25 276.910156 163.832031 286.488281 159.34375 C 288.464844 158.4375 308.5625 145.378906 298.09375 143.5 C 291.054688 142.25 299.769531 143.8125 298.09375 143.5 " fill-opacity="1" fill-rule="nonzero"/><path fill="#000000" d="M 183.933594 90.292969 C 174.6875 82.199219 159.375 90.402344 150.15625 94.476562 C 142.292969 97.960938 134.773438 102.175781 127.367188 106.550781 C 123.101562 109.0625 109.585938 114.191406 107.910156 118.953125 C 105.070312 127.035156 116.582031 122.109375 118.40625 121.050781 C 126.0625 116.730469 133.59375 112.257812 141.304688 108.128906 C 149.070312 104 157.015625 100.390625 165.4375 97.824219 C 167.152344 97.304688 189.515625 95.121094 183.933594 90.292969 C 175.222656 82.652344 185.441406 91.582031 183.933594 90.292969 " fill-opacity="1" fill-rule="nonzero"/><path fill="#000000" d="M 180.078125 112.355469 C 172.160156 104.453125 156.027344 114.550781 148.617188 118.664062 C 133.046875 127.363281 118.613281 137.886719 103.136719 146.722656 C 100.242188 148.355469 100.40625 151.894531 102.671875 153.925781 C 105.976562 156.929688 109.957031 153.554688 112.808594 151.839844 C 121.960938 146.351562 130.714844 140.261719 139.769531 134.621094 C 148.070312 129.433594 156.65625 124.714844 165.90625 121.410156 C 168.074219 120.613281 185.550781 117.910156 180.078125 112.355469 C 171.996094 104.289062 181.050781 113.371094 180.078125 112.355469 " fill-opacity="1" fill-rule="nonzero"/><path fill="#000000" d="M 176.070312 141.054688 C 159.703125 135.265625 85.972656 183.132812 91.421875 191.503906 C 97.03125 200.105469 128.753906 172.199219 134.941406 168.027344 C 143.210938 162.5 152.089844 156.382812 161.609375 153.238281 C 163.078125 152.746094 186.953125 144.871094 176.070312 141.054688 C 163.804688 136.71875 178.992188 142.085938 176.070312 141.054688 " fill-opacity="1" fill-rule="nonzero"/><path fill="#000000" d="M 185.976562 167.632812 C 170.816406 160.855469 106.046875 205.183594 111.726562 213.921875 C 116.96875 222.058594 146.09375 195.398438 151.925781 191.421875 C 158.429688 187.042969 165.21875 183.09375 172.367188 179.953125 C 174.039062 179.222656 195.746094 171.953125 185.976562 167.632812 C 175.578125 162.992188 188.078125 168.550781 185.976562 167.632812 " fill-opacity="1" fill-rule="nonzero"/><path fill="#000000" d="M 179.214844 215.5 C 166.164062 209.902344 118.710938 240.566406 128.285156 249.042969 C 134.746094 254.75 148.714844 237.492188 153.832031 233.855469 C 156.453125 231.992188 183.574219 217.40625 179.214844 215.5 C 170.433594 211.738281 180.269531 215.953125 179.214844 215.5 " fill-opacity="1" fill-rule="nonzero"/><path fill="#000000" d="M 246.054688 182.078125 C 237.425781 183.667969 230.605469 191.765625 223.914062 196.855469 C 215.417969 203.289062 206.667969 209.351562 198.105469 215.675781 C 193.125 219.367188 152.089844 248.125 166.851562 252.5 C 173.054688 254.339844 182.765625 241.46875 187.117188 237.917969 C 194.757812 231.621094 202.730469 225.734375 210.769531 219.902344 C 219.5625 213.550781 228.382812 207.238281 236.933594 200.558594 C 238.714844 199.199219 257.429688 180.007812 246.054688 182.078125 C 238.976562 183.367188 248.058594 181.722656 246.054688 182.078125 " fill-opacity="1" fill-rule="nonzero"/><path fill="#000000" d="M 277.117188 181.886719 C 261.011719 180.582031 240.84375 206.003906 230.800781 216.226562 C 223.527344 223.636719 216.503906 231.277344 209.355469 238.808594 C 206.269531 242.101562 189.613281 255.121094 201.246094 258.523438 C 207.683594 260.429688 216.832031 246.546875 220.605469 242.527344 C 228.742188 233.964844 236.738281 225.296875 245.207031 217.0625 C 251.957031 210.476562 258.9375 203.742188 266.71875 198.347656 C 268.515625 197.085938 287.832031 182.738281 277.117188 181.886719 C 269.667969 181.296875 279.3125 182.0625 277.117188 181.886719 " fill-opacity="1" fill-rule="nonzero"/><path fill="#000000" d="M 262.230469 226.558594 C 250.914062 228.617188 242.542969 240.484375 234.613281 247.878906 C 230.15625 252.046875 205.515625 268.980469 212.660156 275.289062 C 220.441406 282.175781 237.6875 260.199219 242.941406 255.300781 C 248.320312 250.304688 254.261719 245.804688 259.308594 240.484375 C 260.871094 238.878906 271.246094 224.953125 262.230469 226.558594 C 252.683594 228.285156 264.164062 226.199219 262.230469 226.558594 " fill-opacity="1" fill-rule="nonzero"/><path fill="#000000" d="M 198.929688 248.332031 C 191.09375 256.097656 183.246094 263.886719 175.082031 271.3125 C 168.003906 277.746094 170.925781 287.433594 180.035156 280.722656 C 186.664062 275.839844 192.398438 268.609375 198.203125 262.820312 C 200.820312 260.199219 209.164062 254.886719 207.257812 250.167969 C 205.910156 246.847656 201.523438 245.765625 198.929688 248.332031 C 193.878906 253.324219 203.359375 243.953125 198.929688 248.332031 " fill-opacity="1" fill-rule="nonzero"/><path fill="#000000" d="M 297.214844 142.277344 L 297.214844 136.226562 C 297.214844 130.164062 288.160156 128.871094 286.0625 133.851562 C 285.707031 133.429688 285.375 133.003906 285.046875 132.550781 C 286.75 130.671875 287.050781 128.378906 286.363281 126.457031 C 292.921875 109.761719 257.828125 131.851562 255.042969 133.632812 C 249.210938 130.382812 209.066406 163.117188 214.925781 170.566406 C 211.425781 173.859375 204.074219 182.296875 213.363281 184.671875 C 221.386719 186.730469 238.179688 174.285156 244.847656 170.304688 C 252.050781 168.140625 285.019531 157.355469 282.921875 147.628906 C 286.554688 152.222656 293.800781 155.117188 295.253906 146.804688 C 296.433594 145.777344 297.214844 144.253906 297.214844 142.277344 " fill-opacity="1" fill-rule="nonzero"/></svg>