<svg xmlns="http://www.w3.org/2000/svg" xmlns:xlink="http://www.w3.org/1999/xlink" width="500" zoomAndPan="magnify" viewBox="0 0 375 374.999991" height="500" preserveAspectRatio="xMidYMid meet" version="1.0"><defs><clipPath id="fefba1f4f7"><path d="M 18.75 156 L 356.25 156 L 356.25 218.859375 L 18.75 218.859375 Z M 18.75 156 " clip-rule="nonzero"/></clipPath></defs><g clip-path="url(#fefba1f4f7)"><path fill="#000000" d="M 343.015625 161.503906 C 341.089844 160.828125 338.53125 160.578125 335.929688 160.355469 C 336.105469 160.222656 336.171875 160.015625 336.152344 159.757812 C 334.691406 159.710938 334.082031 160.210938 332.503906 160.085938 C 332.992188 159.773438 332.597656 159.519531 331.816406 159.640625 C 332.265625 159.257812 333.683594 159.492188 333.644531 159.925781 C 333.933594 159.882812 333.875 159.628906 333.640625 159.628906 C 337.359375 159.828125 341.1875 159.210938 344.371094 159.84375 C 342.503906 158.554688 336.4375 158.582031 333.628906 157.832031 C 333.804688 157.484375 335.039062 157.679688 334.773438 158.125 C 335.074219 157.972656 335.621094 157.972656 335.683594 157.667969 C 338.15625 158.15625 340.972656 158.34375 343.445312 158.210938 C 346.269531 159.285156 350.070312 159.710938 351.6875 161.589844 C 351.789062 162.804688 351.464844 163.453125 351.707031 164.433594 C 350.980469 165.699219 350.179688 166.917969 348.765625 167.742188 C 349.757812 168.972656 350.339844 169.898438 350.390625 171.171875 C 350.089844 171.414062 348.710938 171.722656 349.710938 171.925781 C 349.238281 172.113281 348.75 172.296875 348.347656 172.53125 C 348.460938 172.921875 349.609375 173.027344 349.035156 173.421875 C 348.246094 173.550781 348.160156 173.207031 347.4375 173.285156 C 347.613281 174.164062 349.289062 174.527344 349.738281 175.660156 C 350.296875 177.054688 349.257812 178.726562 349.316406 180.449219 C 347.085938 180.464844 347.878906 182.664062 344.765625 182.425781 C 347.117188 183.382812 350.546875 184.367188 353.457031 184.453125 C 353.980469 185.0625 354.730469 186.664062 353.476562 187.144531 C 353.742188 187.417969 354.074219 187.648438 354.394531 187.886719 C 353.917969 188.257812 352.066406 187.90625 352.800781 188.648438 C 350.523438 189.019531 347.574219 188.480469 345.964844 189.742188 C 345.992188 190.125 346.820312 189.976562 347.109375 190.183594 C 347.183594 190.566406 346.6875 191.058594 346.890625 191.382812 C 348.171875 191.691406 347.535156 191.945312 348.722656 191.964844 C 348.441406 192.378906 348.007812 192.695312 347.128906 192.726562 C 347.828125 193.109375 349.105469 193.109375 349.417969 193.753906 C 346.816406 194.46875 345.679688 193.980469 342.800781 194.105469 C 346.929688 194.859375 350.621094 195.910156 354.007812 197.160156 C 354.050781 197.8125 354.09375 198.46875 353.558594 198.363281 C 353.992188 198.828125 354.328125 198.484375 354.699219 198.203125 C 354.949219 199.492188 355.078125 200.28125 356.316406 201.035156 C 355.867188 202.097656 354.277344 201.679688 352.902344 201.957031 C 353.105469 202.671875 353.414062 203.316406 354.507812 203.4375 C 353.792969 204.800781 349.914062 204.613281 348.589844 205.125 C 349.113281 206.019531 350.539062 205.28125 351.785156 205.101562 C 351.472656 205.710938 352.285156 205.570312 352.246094 205.996094 C 348.1875 206.148438 347.820312 207.371094 343.578125 206.957031 C 343.46875 210.851562 340.472656 212.890625 338.855469 215.8125 C 336.871094 215.449219 335.996094 216.109375 334.980469 216.742188 C 334.878906 217.15625 336.21875 216.613281 336.121094 217.027344 C 334.339844 217.550781 331.832031 217.46875 329.277344 217.679688 C 326.894531 217.875 324.882812 217.878906 323.34375 217.277344 C 311.59375 218.761719 302.386719 217.589844 290.023438 218.269531 C 289.820312 217.789062 290.777344 218.058594 290.703125 217.667969 C 286.90625 217.648438 280.246094 218.769531 276.554688 217.917969 C 275.820312 218.058594 276.230469 217.433594 275.867188 217.324219 C 272.980469 217.414062 270.382812 218.375 268.5625 217.378906 C 264.457031 217.148438 259.90625 218.375 256.921875 217.464844 C 244.925781 217.671875 235.261719 218.210938 225.191406 217.101562 C 219.453125 216.824219 214.769531 217.222656 208.980469 216.921875 C 209.792969 216.207031 211.703125 216.195312 213.3125 215.992188 C 211.203125 215.746094 207.765625 215.699219 204.867188 215.90625 C 195.179688 216.605469 185.082031 216.375 175.195312 215.976562 C 174.738281 215.632812 175.25 215.808594 175.421875 215.527344 C 173.476562 215.046875 171.4375 215.714844 169.714844 215.867188 C 169.285156 215.585938 169.6875 215.492188 169.710938 215.117188 C 167.757812 214.925781 168.332031 215.570312 167.203125 215.734375 C 166.140625 215.875 167.515625 215.347656 166.746094 215.289062 C 166.257812 215.222656 166.3125 215.507812 166.292969 215.742188 C 163.675781 215.535156 161.582031 215.402344 158.53125 215.648438 C 157.589844 215.726562 158.707031 215.273438 158.070312 215.054688 C 154.230469 215 148.785156 215.871094 144.605469 215.453125 C 142.625 215.257812 141.367188 215.476562 139.128906 215.496094 C 137.210938 215.511719 135.335938 214.726562 133.1875 214.492188 C 131.417969 214.304688 128.785156 214.917969 126.113281 214.542969 C 126.160156 214.328125 126.792969 214.488281 126.792969 214.242188 C 119.027344 214.507812 109.5 214.546875 102.148438 215.320312 C 93.277344 214.746094 83.019531 216.195312 74.992188 216.117188 C 75.1875 215.890625 75.566406 215.789062 76.132812 215.808594 C 68.285156 215.210938 56.230469 215.105469 46.230469 215.433594 C 45.28125 215.519531 45.257812 216.195312 43.953125 216.046875 C 43.347656 216.90625 41.511719 216.964844 40.308594 217.269531 C 40.097656 217.324219 39.417969 217.71875 39.167969 217.726562 C 35.527344 217.882812 36.613281 215.117188 34.574219 213.722656 C 33.5 214.164062 32.382812 214.335938 31.378906 213.75 C 31.453125 212.804688 33.121094 212.890625 33.652344 212.238281 C 33.359375 212.027344 32.367188 211.757812 32.285156 212.246094 C 31.765625 211.945312 31.773438 211.46875 32.277344 211.199219 C 31.464844 211.125 31.722656 211.734375 30.910156 211.660156 C 30.8125 211.34375 31.0625 211.261719 31.136719 211.058594 C 30.40625 210.976562 30.429688 211.34375 29.992188 211.066406 C 29.933594 210.132812 30.046875 209.316406 30.890625 208.96875 C 26.300781 208.015625 22.582031 205.585938 18.75 203.675781 C 18.851562 202.75 20.011719 202.503906 20.105469 201.574219 C 22.902344 201.023438 24.699219 200.75 28.085938 200.617188 C 28.628906 200.320312 27.664062 199.78125 28.304688 199.417969 C 29.265625 199.558594 30.605469 199.515625 31.269531 198.796875 C 30.429688 198.585938 30.019531 198.753906 28.988281 198.515625 C 29.136719 198.167969 29.742188 198.109375 29.894531 197.761719 C 28.445312 196.90625 30.75 195.570312 29.867188 194.621094 C 30.257812 194.273438 31.15625 194.855469 31.925781 194.757812 C 30.726562 194.296875 33.148438 194.488281 33.519531 194.144531 C 33.421875 193.835938 31.613281 194.484375 32.148438 193.855469 C 29.863281 194.09375 30.535156 193.761719 28.726562 193.882812 C 29 191.609375 32.511719 190.730469 36.226562 189.640625 C 35.703125 189.1875 34.84375 188.320312 35.296875 187.703125 C 34.988281 187.417969 34.019531 187.960938 33.472656 188.015625 C 33.472656 187.566406 34.0625 187.503906 34.152344 187.113281 C 33.609375 186.753906 33.726562 187.339844 33.011719 187.269531 C 33.683594 186.390625 34.921875 186.671875 35.972656 186.203125 C 34.933594 185.636719 33.851562 186.179688 32.546875 186.230469 C 32.644531 185.992188 33.261719 186.09375 33 185.628906 C 32.351562 185.605469 32.558594 186.136719 31.632812 185.9375 C 31.519531 185.46875 32.332031 185.59375 32.085938 185.035156 C 30.910156 185.210938 29.472656 185.355469 28.433594 185.210938 C 28.429688 184.664062 29.230469 184.632812 29.570312 184.308594 C 28.8125 184.0625 28.28125 184.460938 27.289062 184.472656 C 27.195312 183.816406 27.191406 183.125 28.875 182.964844 C 28.800781 182.621094 28.910156 182.390625 29.097656 182.214844 C 28.140625 181.796875 27.722656 182.050781 25.671875 181.941406 C 25.308594 181.269531 26.617188 180.769531 26.34375 180.292969 C 25.714844 179.199219 24.441406 179.40625 22.679688 179.421875 C 23.410156 178.816406 23.066406 178.429688 23.808594 177.917969 C 22.667969 177.46875 23.507812 176.917969 23.566406 175.976562 C 23.976562 175.953125 24.046875 176.15625 24.480469 176.117188 C 25 174.519531 28.992188 175.160156 29.480469 173.542969 C 28.425781 173.242188 29.078125 171.808594 28.097656 171.457031 C 29.371094 169.5 28.222656 165.980469 32.390625 165.890625 C 32.148438 165.25 31.402344 164.945312 30.101562 165.011719 C 30.308594 164.324219 29.613281 164.234375 28.730469 164.273438 C 29.09375 163.511719 29.230469 163.457031 28.265625 163.082031 C 29.300781 161.765625 29.03125 160.4375 30.054688 158.582031 C 39.488281 159.101562 52.570312 159.078125 60.878906 159.550781 C 61.101562 159.542969 61.054688 159.367188 61.105469 159.25 C 62.914062 160.074219 65.710938 159.59375 67.492188 159.050781 C 67.375 159.171875 67.257812 159.296875 67.269531 159.503906 C 68.265625 159.601562 68.554688 159.242188 69.550781 159.339844 C 71.511719 159.652344 78.789062 158.714844 83.464844 158.636719 C 88.601562 158.550781 93.949219 157.851562 96.46875 157.195312 C 97.285156 158.476562 99.894531 157.980469 102.636719 157.894531 C 103.328125 157.835938 103.027344 158.4375 103.550781 158.488281 C 104.949219 157.820312 109.015625 158.847656 110.625 157.988281 C 110.761719 157.597656 110.53125 157.449219 109.9375 157.542969 C 111.554688 157.011719 113.585938 157.59375 115.414062 157.203125 C 115.261719 157.050781 114.886719 157.050781 114.953125 156.757812 C 118.074219 156.921875 121.390625 157.414062 123.410156 158.1875 C 124.519531 157.882812 125.207031 158.34375 126.152344 158.46875 C 128.863281 158.820312 132.960938 158.132812 136.191406 158.09375 C 146.144531 157.972656 155.921875 158.789062 165.183594 158.179688 C 165.332031 158.328125 165.707031 158.328125 165.640625 158.625 C 172.867188 158.507812 178.625 157.972656 185.71875 158.03125 C 185.789062 157.632812 185.242188 157.644531 184.804688 157.585938 C 186.621094 157.425781 188.328125 157.984375 189.828125 158.296875 C 191.410156 157.25 192.636719 158.4375 194.851562 158.410156 C 194.980469 158.738281 194.417969 158.625 194.398438 158.863281 C 201.824219 159.378906 208.460938 157.050781 216.074219 158.253906 C 216.371094 157.996094 216.824219 157.84375 217.445312 157.796875 C 217.230469 158.75 215.117188 158.476562 214.027344 158.867188 C 217.527344 158.890625 221.746094 158.398438 225.898438 159.226562 C 227.339844 157.824219 231.472656 158.675781 234.792969 158.265625 C 234.855469 158.507812 234.578125 158.523438 234.566406 158.714844 C 235.640625 158.699219 236.300781 158.96875 237.308594 158.996094 C 237.324219 158.484375 236.460938 158.558594 235.707031 158.558594 C 237.527344 157.816406 240.085938 159.089844 240.949219 157.621094 C 242.1875 157.792969 243.015625 157.792969 243.6875 157.300781 C 243.753906 157.542969 243.472656 157.558594 243.460938 157.753906 C 249.78125 158.582031 256.972656 158.480469 265.148438 158.488281 C 265.042969 157.910156 263.574219 158.238281 263.089844 157.90625 C 270.84375 157.160156 279.585938 159.371094 287.511719 157.726562 C 286.378906 157.261719 283.816406 157.351562 282.941406 157.164062 C 282.46875 157.078125 281.445312 157.359375 281.34375 157.027344 C 283.949219 157.082031 284.847656 156.640625 287.050781 156.683594 C 287.402344 156.515625 287.519531 156.195312 288.1875 156.226562 C 287.691406 156.542969 288.304688 156.65625 288.195312 157.125 C 289.179688 157.265625 289.457031 156.949219 290.019531 156.8125 C 291.273438 157.46875 292.429688 157.207031 293.898438 156.78125 C 301.820312 158.234375 311.9375 156.957031 320.835938 157.480469 C 318.6875 158.21875 315.496094 157.472656 313.539062 158.433594 C 313.933594 158.820312 315.804688 158.226562 315.371094 159.167969 C 316.347656 159.25 316.296875 158.671875 317.195312 158.707031 C 317.488281 158.898438 317.492188 159.257812 317.199219 159.453125 C 319.054688 159.089844 322.492188 159.160156 324.734375 160 C 324.050781 160.003906 323.367188 160.007812 322.679688 160.011719 C 327.425781 160.371094 334.75 161.238281 340.265625 161.078125 C 340.761719 161.84375 341.230469 161.101562 343.015625 161.503906 Z M 178.882812 158.976562 C 180.011719 158.898438 181.207031 159.074219 180.253906 159.5625 C 181.183594 159.617188 181.421875 159.226562 182.078125 159.101562 C 181.109375 159.101562 181.53125 158.765625 181.84375 158.507812 C 180.964844 159.054688 179.019531 157.992188 178.882812 158.976562 Z M 289.804688 158.007812 C 289.519531 157.976562 289.335938 157.777344 289.347656 158.15625 C 290.515625 158.132812 291.628906 157.996094 292.316406 158.136719 C 292.246094 157.5 290.339844 157.609375 289.804688 158.007812 Z M 226.832031 161.761719 C 226.617188 162.308594 228.113281 162.070312 227.976562 161.753906 C 227.410156 161.742188 227.269531 161.480469 226.832031 161.761719 Z M 228.433594 162.050781 C 229.199219 161.949219 230.554688 162.226562 230.945312 161.882812 C 229.726562 161.808594 229.21875 161.398438 228.433594 162.050781 Z M 194.476562 169.179688 C 195.128906 169.628906 196.421875 169.070312 196.535156 169.613281 C 197.214844 169.617188 197.691406 169.164062 198.132812 169.453125 C 198.132812 169.253906 198.132812 169.054688 198.128906 168.855469 C 196.996094 169.015625 195.441406 168.90625 194.476562 169.179688 Z M 301.355469 176.464844 C 302.039062 176.3125 303.015625 176.34375 303.175781 175.855469 C 302.28125 175.871094 301.171875 175.753906 301.355469 176.464844 Z M 306.382812 177.472656 C 309.542969 177.179688 305.015625 177.042969 304.558594 177.488281 C 305.316406 177.453125 305.910156 177.519531 306.382812 177.472656 Z M 99.429688 187.226562 C 99.609375 187.351562 100.828125 187.375 100.796875 186.921875 C 100.191406 186.929688 99.453125 186.847656 99.429688 187.226562 Z M 167.507812 195.398438 C 167.800781 194.84375 166.152344 194.816406 165.910156 195.113281 C 166.804688 194.964844 166.492188 195.628906 167.507812 195.398438 Z M 171.160156 195.371094 C 173.191406 195.628906 174.882812 195.367188 177.324219 195.472656 C 176.074219 195.261719 172.425781 194.796875 171.160156 195.371094 Z M 183.03125 195.4375 C 182.671875 195.421875 182.242188 195.460938 182.34375 195.140625 C 180.964844 195.457031 178.863281 195.117188 177.78125 195.171875 C 180.289062 195.667969 181.480469 195.777344 183.03125 195.4375 Z M 159.070312 196.210938 C 157.519531 196.453125 155.328125 195.824219 154.734375 196.390625 C 157.410156 196.789062 163.328125 196.949219 166.375 196.304688 C 163.960938 196.152344 162.484375 195.796875 160.210938 196.050781 C 161.984375 196.59375 158.625 195.863281 158.613281 195.914062 C 158.867188 195.945312 158.96875 196.078125 159.070312 196.210938 Z M 184.632812 196.019531 C 185.167969 196.015625 185.695312 196.011719 186.230469 196.007812 C 186.320312 195.40625 184.679688 195.773438 184.632812 196.019531 Z M 167.0625 196.296875 C 166.921875 196.308594 166.792969 196.324219 166.832031 196.449219 C 167.835938 196.523438 170.941406 196.324219 168.429688 196.289062 C 167.953125 195.964844 167.691406 196.425781 167.285156 196.148438 C 167.273438 196.054688 167.25 195.972656 167.054688 196 C 167.058594 196.101562 167.058594 196.199219 167.0625 196.296875 Z M 154.058594 197.292969 C 153.828125 197.59375 153.210938 197.640625 152.921875 197.898438 C 157.890625 198.132812 166.367188 197.929688 172.09375 197.757812 C 167.023438 196.949219 160.054688 197.804688 154.058594 197.292969 Z M 317.988281 203.257812 C 320.332031 204.207031 323.738281 204.554688 326.667969 204.390625 C 323.675781 204.257812 320.386719 202.792969 317.988281 203.257812 Z M 307.953125 204.828125 C 308.691406 205.277344 310.625 205.183594 311.378906 204.804688 C 311.316406 205.144531 311.4375 205.363281 311.839844 205.398438 C 312.230469 205.089844 311.667969 205.105469 312.0625 204.796875 C 310.800781 204.210938 309.460938 204.511719 307.953125 204.828125 Z M 303.847656 205.007812 C 304.761719 204.953125 305.117188 205.265625 306.132812 205.140625 C 306.054688 204.378906 303.863281 204.699219 303.847656 205.007812 Z M 323.714844 206.207031 C 324.460938 206.335938 325.136719 206.308594 326.453125 206.335938 C 326.429688 205.648438 324.476562 206.078125 323.714844 206.207031 Z M 120.394531 213.09375 C 119.828125 213.351562 118.175781 212.824219 117.425781 213.265625 C 117.933594 213.71875 120.058594 213.632812 120.394531 213.09375 Z M 219.6875 213.859375 C 218.851562 213.972656 218.417969 213.5 217.863281 213.871094 C 218.710938 214.546875 220.613281 214.335938 222.199219 214.285156 C 224.761719 214.207031 227.183594 213.828125 229.730469 214.082031 C 227.304688 213.261719 221.585938 213.71875 219.6875 213.859375 Z M 233.382812 213.902344 C 234.386719 214.085938 236.742188 213.917969 238.175781 213.570312 C 236.5 213.75 233.617188 213.007812 233.382812 213.902344 Z M 247.304688 213.5 C 247.257812 214.164062 245.074219 213.453125 245.027344 214.117188 C 246.167969 214.355469 246.984375 214.148438 247.996094 213.945312 C 248.105469 214.339844 248.175781 214.449219 248.6875 214.835938 C 253.433594 213.523438 258.039062 215.617188 262.605469 214.285156 C 257.574219 213.636719 252.324219 214.363281 247.304688 213.5 Z M 205.3125 214.410156 C 204.148438 214.414062 202.675781 213.773438 202.121094 214.734375 C 206.226562 214.976562 210.308594 214.859375 214.4375 214.046875 C 211.472656 214.03125 208.179688 214.402344 205.3125 214.410156 Z M 205.3125 214.410156 " fill-opacity="1" fill-rule="evenodd"/></g></svg>