<svg xmlns="http://www.w3.org/2000/svg" xmlns:xlink="http://www.w3.org/1999/xlink" width="500" zoomAndPan="magnify" viewBox="0 0 375 374.999991" height="500" preserveAspectRatio="xMidYMid meet" version="1.0"><path fill="#000000" d="M 357.496094 173.050781 C 356.125 172.160156 360.710938 171.203125 362.761719 169.425781 C 364.816406 167.578125 350.242188 168.945312 348.394531 167.167969 C 346.550781 165.320312 358.453125 166.277344 361.804688 165.800781 C 365.15625 165.320312 358.863281 159.847656 355.714844 157.109375 C 352.5 154.375 356.195312 153.484375 357.5625 150.132812 C 358.589844 147.671875 353.046875 148.695312 350.175781 149.519531 C 352.773438 148.355469 357.015625 145.960938 354.417969 145.277344 C 350.789062 144.386719 359 142.0625 361.257812 140.28125 C 363.515625 138.503906 359 138.023438 361.050781 134.808594 C 363.105469 131.59375 348.054688 135.289062 352.636719 133.921875 C 357.222656 132.550781 363.105469 125.230469 360.367188 126.601562 C 357.632812 127.96875 354.007812 126.121094 356.261719 124.34375 C 358.519531 122.496094 353.527344 118.871094 348.054688 121.605469 C 342.582031 124.34375 226.765625 137.546875 224.4375 136.179688 C 222.179688 134.808594 230.800781 128.449219 221.222656 128.449219 C 211.644531 128.449219 129.007812 141.378906 129.007812 141.378906 L 125.382812 141.378906 L 32.757812 179.6875 C 26.667969 182.21875 40.484375 181.738281 35.972656 184.476562 C 31.457031 187.210938 35.492188 192.203125 40.074219 189.949219 C 44.660156 187.691406 33.714844 198.636719 38.230469 198.15625 C 42.8125 197.679688 30.5 210.46875 32.757812 213.207031 C 35.011719 215.941406 44.179688 208.625 39.597656 222.304688 C 35.011719 235.988281 42.332031 245.5625 48.285156 239.203125 C 54.238281 232.839844 77.015625 230.105469 84.746094 228.734375 C 92.476562 227.367188 113 225.109375 94.804688 225.109375 C 76.605469 225.109375 51.019531 236.464844 80.230469 224.152344 C 109.441406 211.839844 196.050781 236.464844 196.527344 233.730469 C 197.007812 230.992188 242.15625 232.839844 250.777344 231.882812 C 259.394531 230.925781 271.777344 229.625 267.671875 227.777344 C 263.570312 225.929688 287.71875 225.042969 291.410156 223.742188 C 295.035156 222.441406 301.46875 215.257812 296.882812 217.242188 C 292.300781 219.226562 246.738281 228.1875 225.257812 220.867188 C 215.066406 217.378906 242.703125 216.011719 274.71875 215.464844 C 265.828125 216.628906 232.03125 218.40625 236.617188 219.089844 C 241.0625 219.773438 270.273438 218.269531 273.417969 217.242188 C 275.128906 216.695312 278.207031 215.804688 278.960938 215.394531 C 287.992188 215.257812 297.292969 215.191406 306.121094 215.191406 C 310.839844 215.53125 316.996094 215.941406 316.722656 217.175781 C 316.175781 219.433594 324.382812 219.160156 324.589844 217.175781 C 324.660156 216.492188 322.402344 215.738281 319.183594 215.191406 C 337.722656 215.191406 351.75 215.394531 352.570312 215.394531 C 355.304688 215.394531 357.5625 212.660156 357.152344 209.921875 C 356.671875 207.1875 359.410156 203.082031 359 199.867188 C 358.519531 196.652344 346.207031 196.242188 353.046875 195.285156 C 359.890625 194.394531 357.632812 191.65625 360.367188 190.699219 C 363.105469 189.742188 359 185.707031 361.734375 183.859375 C 364.472656 182.011719 359 181.121094 363.035156 179.550781 C 367.003906 178.113281 358.863281 174.007812 357.496094 173.050781 Z M 357.496094 173.050781 " fill-opacity="1" fill-rule="nonzero"/><path fill="#000000" d="M 57.863281 164.839844 C 57.863281 164.839844 127.160156 134.742188 148.164062 131.800781 C 169.164062 128.859375 158.21875 123.796875 142.691406 129.269531 C 127.160156 134.742188 55.605469 162.996094 50.542969 164.839844 C 45.546875 166.6875 50.679688 167.917969 57.863281 164.839844 Z M 57.863281 164.839844 " fill-opacity="1" fill-rule="nonzero"/><path fill="#000000" d="M 38.707031 174.007812 C 43.015625 173.804688 47.601562 170.109375 48.558594 169.015625 C 50.335938 166.894531 38.914062 170.109375 33.917969 171.476562 C 28.925781 172.84375 34.398438 174.214844 38.707031 174.007812 Z M 38.707031 174.007812 " fill-opacity="1" fill-rule="nonzero"/><path fill="#000000" d="M 46.027344 244.195312 C 42.878906 248.78125 42.8125 251.925781 47.191406 251.035156 C 51.5 250.148438 53.347656 240.296875 57.929688 238.519531 C 62.445312 236.671875 48.832031 240.089844 46.027344 244.195312 Z M 46.027344 244.195312 " fill-opacity="1" fill-rule="nonzero"/><path fill="#000000" d="M 33.371094 218.679688 C 31.183594 220.046875 29.816406 221.074219 30.292969 226.066406 C 30.773438 231.0625 34.398438 224.835938 36.109375 222.304688 C 37.816406 219.773438 35.289062 217.515625 33.371094 218.679688 Z M 33.371094 218.679688 " fill-opacity="1" fill-rule="nonzero"/><path fill="#000000" d="M 30.226562 207.390625 C 28.582031 208.761719 27.421875 212.726562 29.472656 210.949219 C 31.867188 208.964844 31.867188 206.023438 30.226562 207.390625 Z M 30.226562 207.390625 " fill-opacity="1" fill-rule="nonzero"/><path fill="#000000" d="M 235.042969 129.746094 C 237.300781 128.859375 241.402344 126.53125 245.097656 125.644531 C 248.722656 124.753906 241.679688 123.589844 237.914062 125.644531 C 234.152344 127.695312 230.183594 125.574219 230.730469 126.875 C 231.417969 128.515625 232.785156 130.636719 235.042969 129.746094 Z M 235.042969 129.746094 " fill-opacity="1" fill-rule="nonzero"/><path fill="#000000" d="M 311.320312 223.605469 C 306.53125 222.375 279.917969 226.820312 275.402344 228.050781 C 274.378906 228.324219 273.898438 230.445312 277.457031 229.28125 C 281.011719 228.121094 304.476562 226.410156 308.925781 227.230469 C 313.371094 228.050781 316.105469 224.835938 311.320312 223.605469 Z M 311.320312 223.605469 " fill-opacity="1" fill-rule="nonzero"/><path fill="#000000" d="M 176.6875 232.566406 C 172.378906 231.199219 134.890625 224.21875 130.101562 223.46875 C 127.914062 223.125 131.539062 225.042969 137.355469 225.863281 C 143.167969 226.683594 166.425781 231.402344 168.480469 233.183594 C 170.53125 234.960938 173.269531 235.644531 175.320312 235.78125 C 177.375 235.917969 173.269531 234.414062 173.269531 234.414062 L 168.683594 231.8125 L 177.304688 234.890625 L 179.628906 234.070312 C 179.5625 234.140625 181 233.933594 176.6875 232.566406 Z M 176.6875 232.566406 " fill-opacity="1" fill-rule="nonzero"/></svg>