<svg xmlns="http://www.w3.org/2000/svg" xmlns:xlink="http://www.w3.org/1999/xlink" width="500" zoomAndPan="magnify" viewBox="0 0 375 374.999991" height="500" preserveAspectRatio="xMidYMid meet" version="1.0"><defs><clipPath id="d593a581a1"><path d="M 22.09375 121 L 352.84375 121 L 352.84375 221 L 22.09375 221 Z M 22.09375 121 " clip-rule="nonzero"/></clipPath><clipPath id="f16fcbb376"><path d="M 346 164 L 352.84375 164 L 352.84375 165 L 346 165 Z M 346 164 " clip-rule="nonzero"/></clipPath><clipPath id="6f7b977318"><path d="M 142 223 L 146 223 L 146 224.1875 L 142 224.1875 Z M 142 223 " clip-rule="nonzero"/></clipPath><clipPath id="2267069dd2"><path d="M 307 113.9375 L 309 113.9375 L 309 115 L 307 115 Z M 307 113.9375 " clip-rule="nonzero"/></clipPath></defs><g clip-path="url(#d593a581a1)"><path fill="#000000" d="M 69.472656 137.191406 C 71.242188 135.851562 73.382812 135.851562 75.402344 135.628906 C 77.738281 135.398438 80.039062 134.980469 82.304688 134.375 C 83.1875 134.140625 84.078125 133.953125 84.980469 133.820312 C 86.851562 133.539062 87.90625 132.480469 88.035156 130.609375 C 88.074219 129.9375 88.261719 129.640625 88.882812 129.488281 C 90.109375 129.1875 91.320312 128.816406 92.546875 128.515625 C 92.914062 128.371094 93.246094 128.425781 93.542969 128.683594 C 93.484375 128.832031 93.40625 128.96875 93.316406 129.097656 C 93.140625 129.285156 92.808594 129.425781 92.765625 129.628906 C 92.707031 129.949219 93.054688 130.023438 93.308594 130.023438 C 96.285156 130.160156 99.261719 130.136719 102.238281 129.945312 C 105.023438 129.695312 107.800781 129.394531 110.59375 129.273438 C 111.761719 129.289062 112.925781 129.394531 114.078125 129.589844 L 114.078125 129.546875 C 113.640625 129.910156 113.140625 130.101562 112.574219 130.117188 C 110.757812 130.117188 109.003906 130.789062 107.171875 130.582031 C 106.808594 130.5625 106.453125 130.613281 106.105469 130.726562 C 104.46875 131.15625 102.828125 131.601562 101.195312 132.136719 C 103.527344 132.332031 105.859375 132.304688 108.1875 132.054688 C 111.535156 131.585938 114.882812 131.910156 118.230469 131.734375 C 121.710938 132.652344 125.257812 132.316406 128.773438 132.222656 C 132.566406 132.117188 136.363281 131.773438 140.152344 131.484375 C 144.3125 131.074219 148.46875 131.121094 152.621094 131.628906 C 153.246094 131.753906 153.878906 131.796875 154.515625 131.753906 C 158.21875 131.273438 161.917969 131.941406 165.621094 131.789062 C 167.886719 131.800781 170.144531 131.675781 172.394531 131.40625 C 173.292969 131.300781 174.199219 131.253906 175.105469 131.265625 C 178.808594 131.117188 182.527344 131.484375 186.214844 130.871094 C 186.398438 130.839844 186.574219 130.871094 186.734375 130.960938 C 186.894531 131.054688 187.011719 131.183594 187.078125 131.359375 C 187.152344 131.484375 187.460938 131.640625 187.5 131.601562 C 188.765625 130.539062 190.582031 131.839844 191.804688 130.585938 C 192.183594 130.285156 192.609375 130.175781 193.085938 130.265625 C 196.710938 130.332031 200.316406 130.070312 203.894531 129.480469 C 205.527344 129.328125 207.109375 128.960938 208.640625 128.382812 C 209.59375 128.074219 210.570312 127.898438 211.570312 127.851562 C 212.460938 127.71875 213.398438 127.597656 213.921875 126.703125 C 214.304688 126.066406 214.710938 126.09375 215.261719 126.523438 C 215.445312 126.675781 215.65625 126.753906 215.894531 126.757812 C 216.132812 126.765625 216.347656 126.699219 216.539062 126.558594 C 217.476562 125.886719 218.546875 125.886719 219.632812 125.632812 C 220.246094 125.492188 221.199219 125.589844 221.070312 124.429688 C 221.070312 124.296875 221.4375 124.023438 221.664062 123.980469 C 222.832031 123.773438 224.015625 122.84375 225.167969 124.101562 C 225.335938 124.289062 225.835938 124.195312 226.21875 124.175781 C 228.03125 124.1875 229.832031 124.0625 231.625 123.808594 C 232.863281 123.550781 234.144531 123.894531 235.414062 123.6875 C 236.828125 123.464844 238.3125 123.6875 239.671875 123.015625 C 239.894531 122.910156 240.214844 123.015625 240.46875 122.9375 C 241.21875 122.726562 241.472656 124.183594 242.328125 123.480469 C 242.945312 122.96875 243.527344 123.265625 244.109375 123.519531 C 244.734375 123.726562 245.355469 123.703125 245.964844 123.453125 C 248.34375 122.824219 250.761719 122.527344 253.21875 122.558594 C 255.394531 122.570312 257.5625 122.421875 259.71875 122.125 C 261.699219 121.886719 263.683594 121.761719 265.675781 121.75 C 266.765625 121.714844 267.84375 121.824219 268.863281 121.300781 C 269.125 121.203125 269.390625 121.175781 269.664062 121.226562 C 274.171875 121.683594 278.707031 121.226562 283.21875 121.855469 C 285.628906 122.183594 288.105469 122.003906 290.550781 122.058594 C 291.1875 122.058594 291.820312 122.058594 292.449219 122.132812 C 292.78125 122.105469 293.082031 122.183594 293.355469 122.371094 C 293.628906 122.558594 293.816406 122.8125 293.910156 123.128906 C 294.203125 124.269531 295.289062 124.472656 296.066406 125.066406 C 296.546875 125.421875 297.089844 125.164062 297.625 125.066406 C 299.667969 124.558594 301.753906 124.738281 303.828125 124.6875 C 304.101562 124.714844 304.355469 124.796875 304.59375 124.933594 C 304.667969 124.933594 304.761719 125.09375 304.742188 125.140625 C 304.679688 125.304688 304.601562 125.550781 304.480469 125.578125 C 303.6875 125.753906 302.878906 125.839844 302.101562 126.039062 C 301.679688 126.148438 301.65625 126.550781 301.789062 126.933594 C 301.902344 127.183594 302.078125 127.378906 302.316406 127.519531 C 302.554688 127.65625 302.8125 127.710938 303.085938 127.683594 C 304.808594 127.792969 306.488281 128.117188 308.128906 128.648438 C 308.9375 128.878906 309.585938 129.257812 309.605469 130.3125 C 309.605469 130.753906 310.167969 130.707031 310.464844 130.460938 C 310.9375 130.058594 311.261719 129.453125 311.949219 129.347656 C 312.210938 129.304688 312.617188 129.226562 312.726562 129.347656 C 313.132812 129.757812 312.585938 129.910156 312.410156 130.152344 C 312.136719 130.539062 312.21875 130.910156 312.617188 131.023438 C 313.3125 131.230469 314.019531 131.296875 314.742188 131.230469 C 315.464844 131.160156 316.144531 130.960938 316.789062 130.628906 C 316.921875 130.5625 316.976562 130.324219 317.0625 130.171875 C 318.460938 130.617188 319.886719 130.777344 321.347656 130.65625 C 322.441406 130.632812 323.535156 130.671875 324.628906 130.78125 C 324.78125 130.539062 324.980469 131.292969 324.707031 131.0625 C 324.433594 130.835938 324.800781 131.0625 324.488281 131.210938 L 323.964844 131.511719 C 324.726562 131.828125 325.457031 132.097656 326.152344 132.4375 C 326.246094 132.503906 326.324219 132.582031 326.386719 132.679688 C 326.445312 132.777344 326.484375 132.882812 326.503906 132.996094 C 326.519531 133.109375 326.515625 133.222656 326.484375 133.332031 C 326.457031 133.441406 326.40625 133.542969 326.332031 133.632812 C 325.757812 134.304688 324.820312 134.644531 324.398438 135.484375 C 324.398438 135.984375 324.765625 136.09375 325.117188 136.101562 C 326.871094 136.140625 328.289062 137.441406 330.070312 137.375 C 330.738281 138.78125 332.152344 138.519531 333.269531 138.789062 C 334.519531 139.078125 335.78125 139.144531 337.058594 138.992188 C 337.234375 138.9375 337.40625 138.941406 337.578125 139.003906 C 337.753906 139.066406 337.886719 139.175781 337.988281 139.332031 C 337.914062 139.480469 337.878906 139.679688 337.765625 139.773438 C 336.429688 140.820312 336.429688 140.808594 336.84375 142.136719 C 336.910156 142.449219 337.070312 142.707031 337.320312 142.90625 C 337.574219 143.105469 337.859375 143.203125 338.179688 143.195312 C 338.535156 143.195312 338.890625 143.269531 339.378906 143.324219 C 338.898438 143.515625 339.519531 143.363281 339.273438 143.625 C 339.210938 143.695312 339.132812 143.742188 339.039062 143.757812 C 338.222656 143.757812 337.40625 143.804688 336.59375 143.8125 C 335.429688 143.8125 334.273438 143.8125 333.085938 143.8125 C 333.007812 144.296875 333.457031 144.273438 333.757812 144.289062 C 334.933594 144.328125 336.113281 144.289062 337.292969 144.335938 C 338.367188 144.335938 339.445312 144.382812 340.378906 145.113281 C 335.351562 144.785156 330.335938 144.722656 324.695312 144.886719 C 325.832031 145.613281 327.074219 145.972656 328.421875 145.964844 C 329.960938 146 331.496094 146.117188 333.035156 146.238281 C 334.304688 146.339844 335.539062 146.5 336.433594 147.632812 C 336.921875 148.25 337.71875 148.203125 338.441406 148.070312 C 339.164062 147.9375 339.847656 147.609375 340.566406 147.984375 C 340.953125 148.199219 341.386719 148.472656 341.265625 149.003906 C 341.171875 149.417969 340.746094 149.492188 340.382812 149.472656 C 337.492188 149.316406 334.601562 149.148438 331.683594 148.988281 C 331.503906 148.960938 331.324219 148.960938 331.148438 148.988281 C 331.011719 149.035156 330.820312 149.195312 330.824219 149.296875 C 330.855469 149.476562 330.953125 149.597656 331.121094 149.667969 C 332.519531 150.035156 333.917969 150.429688 335.390625 149.976562 C 336.378906 149.667969 337.363281 149.6875 338.34375 150.027344 C 340.09375 150.675781 341.878906 150.792969 343.695312 150.371094 C 343.96875 150.335938 344.242188 150.335938 344.515625 150.371094 C 344.742188 150.371094 344.914062 150.503906 344.835938 150.671875 C 344.753906 150.839844 344.539062 150.839844 344.378906 150.90625 C 344.058594 151.046875 343.925781 151.242188 344.339844 151.382812 C 344.691406 151.464844 345.046875 151.519531 345.402344 151.550781 C 345.503906 151.566406 345.574219 151.621094 345.617188 151.707031 C 345.660156 151.796875 345.660156 151.886719 345.613281 151.972656 C 345.578125 152.0625 345.515625 152.125 345.429688 152.160156 C 345.261719 152.214844 345.085938 152.253906 344.910156 152.277344 C 344.546875 152.308594 344.140625 152.316406 344.105469 152.785156 C 344.070312 153.253906 344.421875 153.410156 344.714844 153.625 C 345.441406 154.058594 346.222656 154.234375 347.0625 154.144531 C 348.683594 154.121094 350.257812 154.367188 351.789062 154.882812 C 351.332031 155.160156 350.835938 155.253906 350.308594 155.160156 C 348.054688 155.253906 345.785156 155.238281 343.535156 155.433594 C 342.332031 155.542969 341.195312 155.144531 340.023438 155.253906 C 339.210938 155.328125 338.355469 155.285156 338.09375 156.359375 C 338.070312 156.449219 338.023438 156.53125 337.960938 156.601562 C 337.898438 156.667969 337.824219 156.71875 337.734375 156.753906 C 337.648438 156.785156 337.554688 156.796875 337.460938 156.789062 C 337.367188 156.777344 337.28125 156.746094 337.203125 156.695312 C 336.773438 156.449219 336.308594 156.328125 335.8125 156.328125 C 335.316406 156.328125 334.851562 156.449219 334.417969 156.695312 C 333.636719 157.03125 332.640625 156.875 331.742188 156.875 C 330.316406 156.824219 328.898438 156.902344 327.484375 157.105469 C 329.601562 157.453125 331.796875 157.230469 334.265625 158.445312 C 330.886719 158.351562 328.007812 158.8125 325.117188 158.3125 C 324.394531 158.238281 323.675781 158.238281 322.953125 158.3125 C 322.035156 158.34375 321.019531 157.574219 320.222656 158.632812 C 321.058594 159.378906 322.105469 159.082031 323.015625 159.046875 C 327.199219 158.894531 331.3125 159.664062 335.476562 159.785156 C 338.457031 159.875 341.433594 160.082031 344.414062 160.121094 C 346.507812 160.09375 348.5625 160.375 350.570312 160.972656 C 348.5625 161.15625 346.609375 162.160156 344.488281 161.046875 C 343.269531 160.375 341.808594 160.609375 340.472656 160.867188 C 339.59375 161.039062 338.84375 161.382812 337.941406 160.914062 C 337.5 160.683594 336.300781 161.710938 336.179688 162.316406 C 336.148438 162.496094 336.195312 162.660156 336.320312 162.796875 C 336.949219 163.300781 337.660156 164.140625 338.441406 163.742188 C 339.78125 163.132812 340.898438 163.777344 342.089844 164.078125 C 342.359375 164.144531 342.632812 164.351562 342.503906 164.636719 C 342.378906 164.917969 342.097656 164.9375 341.898438 165.089844 C 341.734375 165.234375 341.578125 165.386719 341.433594 165.546875 L 346.121094 165.769531 C 345.71875 166.359375 345.117188 166.097656 344.621094 166.105469 C 339.726562 166.164062 334.835938 166.183594 329.941406 166.222656 C 329.398438 166.222656 328.851562 166.222656 328.316406 166.285156 C 328.042969 166.320312 327.800781 166.425781 327.585938 166.601562 C 326.480469 167.5 326.09375 167.53125 324.714844 167.382812 C 323.101562 167.203125 321.414062 166.949219 319.886719 167.652344 C 318.6875 168.226562 317.460938 168.296875 316.207031 167.859375 C 315.429688 167.613281 314.625 167.351562 313.835938 167.773438 C 313.597656 167.902344 313.433594 168.09375 313.347656 168.351562 C 313.3125 168.539062 313.351562 168.710938 313.464844 168.863281 C 313.578125 169.019531 313.726562 169.109375 313.917969 169.136719 C 314.363281 169.21875 314.808594 169.230469 315.257812 169.167969 C 318.605469 168.714844 321.953125 168.746094 325.296875 169.261719 C 327.734375 169.496094 330.179688 169.570312 332.625 169.488281 C 333.578125 169.488281 334.519531 169.539062 335.625 169.5625 C 335.203125 170.085938 334.660156 170.324219 333.992188 170.289062 C 332.191406 170.328125 330.390625 170.289062 328.589844 170.289062 C 328.320312 170.289062 328.046875 170.179688 327.78125 170.207031 C 326.882812 170.296875 325.984375 170.449219 325.101562 170.507812 C 324.3125 170.5625 323.523438 170.507812 322.550781 170.507812 C 323.367188 171.429688 324.394531 170.878906 325.183594 171.246094 C 325.136719 171.917969 324.332031 171.339844 324.253906 171.878906 C 324.347656 171.929688 324.480469 172.078125 324.613281 172.085938 C 328.222656 172.238281 331.835938 172.367188 335.445312 172.542969 C 336.34375 172.613281 337.234375 172.738281 338.121094 172.910156 C 338.292969 172.96875 338.40625 173.085938 338.460938 173.257812 C 338.460938 173.4375 338.386719 173.574219 338.234375 173.667969 C 336.773438 174.21875 335.265625 174.429688 333.710938 174.304688 C 331.636719 174.226562 329.554688 174.351562 327.480469 174.414062 C 327.296875 174.449219 327.160156 174.550781 327.070312 174.714844 C 326.910156 174.996094 327.070312 175.210938 327.324219 175.386719 C 327.578125 175.558594 328.160156 175.667969 328.214844 175.894531 C 328.609375 177.550781 330.015625 177.578125 331.207031 177.664062 C 334.554688 177.914062 337.902344 178.027344 341.246094 178.15625 C 342.585938 178.203125 343.972656 178.253906 345.195312 177.449219 C 345.386719 177.308594 345.601562 177.242188 345.839844 177.253906 C 346.078125 177.261719 346.289062 177.34375 346.46875 177.496094 C 347.292969 178.273438 348.296875 178.167969 349.285156 178.214844 C 350.300781 178.160156 351.296875 178.285156 352.265625 178.589844 C 351.710938 178.664062 351.152344 178.703125 350.589844 178.710938 C 347.042969 178.558594 343.542969 179.167969 340.015625 179.289062 C 339.648438 179.28125 339.292969 179.34375 338.953125 179.476562 C 338.078125 179.863281 337.203125 179.875 336.320312 179.507812 C 335.90625 179.363281 335.355469 179.253906 335.136719 179.796875 C 334.726562 180.824219 333.851562 180.789062 333.082031 180.636719 C 331.835938 180.339844 330.601562 180.390625 329.386719 180.789062 C 328.5 180.992188 327.605469 181.011719 326.707031 180.855469 C 324.601562 180.65625 323.109375 181.566406 321.875 183.34375 C 323.175781 183.867188 324.652344 182.773438 325.84375 184.089844 C 325.015625 184.125 324.304688 184.183594 323.601562 184.171875 C 321.417969 184.140625 319.257812 184.34375 317.117188 184.785156 C 315.332031 185.222656 313.546875 185.222656 311.761719 184.785156 C 311.316406 184.699219 310.871094 184.699219 310.421875 184.785156 C 310.324219 184.785156 310.175781 185.054688 310.175781 185.203125 C 310.195312 185.382812 310.28125 185.519531 310.4375 185.613281 C 310.6875 185.714844 310.949219 185.773438 311.21875 185.785156 C 315.269531 186.15625 319.3125 186.585938 323.367188 186.859375 C 325.539062 187.007812 327.71875 186.894531 329.894531 186.914062 C 330.886719 186.875 331.847656 187.035156 332.773438 187.390625 L 327.933594 187.390625 C 326.214844 187.390625 324.492188 187.390625 322.773438 187.460938 C 321.953125 187.464844 321.15625 187.605469 320.382812 187.886719 C 318.550781 188.566406 316.679688 188.695312 314.765625 188.28125 C 313.691406 188.105469 312.652344 187.765625 311.582031 188.242188 C 311.40625 188.3125 311.226562 188.324219 311.046875 188.273438 C 308.367188 187.496094 305.859375 188.832031 303.246094 188.832031 C 303.058594 188.867188 302.933594 188.972656 302.867188 189.152344 C 302.867188 189.507812 303.160156 189.554688 303.414062 189.554688 C 305.769531 189.589844 308.101562 189.609375 310.484375 189.628906 C 311.386719 189.628906 312.296875 189.628906 313.199219 189.628906 C 313.410156 189.589844 313.605469 189.621094 313.792969 189.71875 C 313.980469 189.820312 314.117188 189.964844 314.207031 190.160156 C 313.214844 190.574219 312.183594 190.800781 311.113281 190.828125 C 309.742188 190.984375 308.382812 191.003906 307.652344 192.507812 C 307.53125 192.753906 307.054688 192.859375 306.722656 192.960938 C 306.242188 193.050781 305.898438 193.316406 305.683594 193.753906 C 305.109375 195.09375 303.945312 195.4375 302.644531 195.710938 C 301.324219 196.019531 299.984375 196.171875 298.628906 196.160156 C 297.355469 196.09375 296.09375 196.171875 294.839844 196.394531 C 294.402344 196.523438 293.953125 196.550781 293.5 196.476562 C 290.945312 195.699219 288.46875 196.738281 285.957031 196.765625 C 285.726562 196.738281 285.511719 196.785156 285.308594 196.902344 C 285.109375 197.019531 284.964844 197.1875 284.875 197.402344 C 285.109375 197.816406 285.496094 197.722656 285.835938 197.789062 C 286.398438 197.882812 287.316406 197.386719 287.417969 198.265625 C 287.476562 198.828125 286.515625 198.640625 286.078125 198.9375 C 285.945312 199.046875 285.878906 199.1875 285.882812 199.359375 C 285.941406 199.539062 286.054688 199.660156 286.234375 199.722656 C 286.859375 199.828125 287.488281 199.890625 288.121094 199.910156 C 290.382812 199.910156 292.652344 199.910156 294.914062 199.910156 C 296.367188 199.84375 297.8125 199.933594 299.246094 200.179688 C 299.78125 200.246094 300.320312 200.246094 300.859375 200.179688 C 301.125 200.179688 301.394531 200.105469 301.660156 200.070312 C 302.449219 199.984375 302.605469 201.257812 303.488281 200.9375 C 304.078125 200.726562 304.648438 200.4375 305.242188 200.265625 C 305.515625 200.183594 305.738281 200.425781 305.871094 200.679688 C 306.355469 201.640625 307.210938 201.820312 308.167969 201.808594 C 309.25 201.808594 310.335938 201.707031 311.421875 201.726562 C 311.914062 201.726562 312.503906 201.726562 312.828125 202.5 C 311.976562 202.5 311.191406 202.570312 310.402344 202.585938 C 307.777344 202.640625 305.15625 202.585938 302.53125 202.804688 C 301.011719 202.925781 299.472656 202.757812 297.953125 203.082031 C 297.109375 203.164062 296.332031 202.96875 295.628906 202.492188 C 295.160156 202.25 295.015625 202.558594 294.960938 202.988281 C 294.839844 203.617188 294.445312 204.015625 293.816406 203.691406 C 292.691406 203.121094 291.519531 203.25 290.347656 203.28125 C 290.09375 203.28125 289.828125 203.316406 290.175781 203.710938 C 290.382812 203.945312 290.175781 203.542969 290.449219 203.800781 C 290.503906 203.863281 290.546875 203.9375 290.582031 204.015625 C 290.136719 204.449219 289.566406 204.261719 289.050781 204.273438 C 287.6875 204.238281 286.335938 204.332031 284.996094 204.558594 C 284.097656 204.675781 283.203125 204.644531 282.316406 204.464844 C 281.882812 204.410156 281.304688 204.394531 281.292969 205.027344 C 281.292969 205.550781 281.78125 205.75 282.238281 205.824219 C 282.953125 205.933594 283.675781 205.992188 284.398438 206.046875 C 284.820312 206.078125 285.253906 206.046875 285.738281 206.046875 C 285.628906 206.292969 285.601562 206.535156 285.496094 206.582031 C 285.085938 206.757812 284.660156 206.890625 284.222656 206.992188 C 282.164062 207.480469 280.140625 207.855469 279.667969 204.765625 C 277.878906 206.636719 276.660156 207.050781 274.3125 206.777344 C 273.820312 206.726562 273.476562 206.46875 273.289062 206.011719 C 272.855469 205.367188 272.253906 205.007812 271.480469 204.9375 C 271.238281 204.878906 270.808594 204.898438 270.851562 205.179688 C 271.171875 206.617188 270.082031 206.386719 269.382812 206.382812 C 267.574219 206.464844 265.765625 206.402344 263.964844 206.191406 C 263.335938 206.09375 262.710938 206.09375 262.082031 206.191406 C 261.09375 206.398438 260.105469 206.398438 259.117188 206.191406 C 258.300781 206 257.496094 206.042969 256.707031 206.320312 C 256.285156 206.453125 255.574219 206.488281 255.582031 206.917969 C 255.582031 207.6875 256.371094 207.46875 256.855469 207.488281 C 258.191406 207.542969 259.570312 207.488281 260.929688 207.535156 C 261.585938 207.433594 262.199219 207.554688 262.765625 207.902344 C 263.902344 208.863281 265.066406 208.769531 266.300781 208.132812 C 266.511719 208.023438 266.839844 207.828125 266.894531 208.238281 C 266.894531 208.398438 266.585938 208.695312 266.367188 208.773438 C 265.9375 208.949219 265.488281 209.050781 265.027344 209.082031 C 262.503906 209.21875 260.035156 209.921875 257.214844 209.707031 C 258.25 210.320312 259.367188 210.570312 260.5625 210.457031 C 262.570312 210.398438 264.546875 210.304688 266.539062 210.316406 C 268.292969 210.441406 269.964844 210.132812 271.558594 209.398438 C 272.40625 208.953125 273.277344 208.902344 274.171875 209.246094 C 275.980469 209.910156 277.847656 210.148438 279.765625 209.957031 C 279.953125 209.902344 280.132812 209.929688 280.296875 210.03125 C 280.464844 210.132812 280.566406 210.28125 280.601562 210.472656 C 280.671875 210.78125 280.085938 211.390625 279.734375 211.398438 C 279.464844 211.429688 279.203125 211.402344 278.949219 211.316406 C 277.566406 210.703125 276.148438 210.605469 274.691406 211.015625 C 273.882812 211.148438 273.074219 211.136719 272.269531 210.980469 C 270.644531 210.6875 269.019531 210.710938 267.402344 211.046875 C 266.964844 211.164062 266.515625 211.203125 266.066406 211.164062 C 264.335938 211.039062 262.625 211.167969 260.929688 211.542969 C 259.59375 211.808594 258.253906 211.808594 256.914062 211.542969 C 255.933594 211.355469 254.941406 211.28125 253.941406 211.324219 C 251.042969 211.324219 248.144531 211.4375 245.242188 211.496094 C 244.582031 211.546875 243.980469 211.382812 243.433594 211.007812 C 247.269531 210.6875 250.796875 211.007812 254.71875 210.519531 C 252.839844 209.648438 251.960938 209.464844 251.039062 209.660156 C 250.597656 209.753906 250.128906 210.082031 249.738281 210.003906 C 247.464844 209.511719 245.242188 210.144531 243 210.175781 C 242.46875 210.175781 241.867188 210.175781 241.660156 209.507812 C 241.492188 208.988281 242.027344 208.359375 242.765625 208.207031 C 243.03125 208.152344 243.3125 208.164062 243.574219 208.097656 C 244.289062 207.917969 245.253906 208.371094 245.617188 207.292969 C 245.007812 206.695312 244.277344 207.019531 243.554688 206.976562 C 242.730469 206.980469 241.9375 207.140625 241.179688 207.453125 C 239.964844 207.949219 238.71875 208.046875 237.441406 207.75 C 236.90625 207.609375 236.371094 207.597656 235.828125 207.707031 C 234.128906 208.019531 232.417969 208.160156 230.6875 208.132812 C 230.503906 208.125 230.328125 208.15625 230.160156 208.230469 C 230.003906 208.308594 229.898438 208.433594 229.84375 208.601562 C 229.855469 208.777344 229.9375 208.914062 230.09375 209.003906 C 232.382812 209.820312 234.652344 210.734375 237.183594 210.34375 C 238.125 210.203125 238.414062 210.855469 238.519531 211.792969 C 233.996094 212.246094 229.460938 212.441406 224.914062 212.382812 C 226.378906 211.542969 227.703125 212.242188 228.667969 211.445312 C 228.789062 211.046875 228.511719 210.960938 228.253906 210.875 C 225.960938 210.195312 223.628906 210.03125 221.265625 210.378906 C 217.300781 210.8125 213.328125 211.003906 209.34375 210.949219 C 209.070312 210.929688 208.796875 210.929688 208.527344 210.949219 C 207.09375 211.109375 205.664062 211.28125 204.234375 211.464844 C 204.1875 211.464844 204.164062 211.597656 204.035156 211.832031 C 205.375 211.832031 206.617188 211.832031 207.863281 211.933594 C 209.109375 212.035156 210.191406 212.15625 211.378906 212.269531 C 211.378906 213.019531 210.796875 212.871094 210.433594 212.941406 C 208.035156 213.488281 205.613281 213.679688 203.15625 213.515625 C 198.878906 213.269531 194.65625 213.65625 190.492188 214.675781 C 190.039062 214.75 189.628906 214.925781 189.261719 215.199219 C 186.871094 217.332031 184.007812 217.460938 181.0625 217.210938 C 176.917969 216.792969 172.777344 216.792969 168.632812 217.210938 C 166.816406 217.460938 165.011719 217.40625 163.21875 217.042969 C 162.960938 216.949219 162.695312 216.90625 162.421875 216.910156 C 159.5625 217.359375 156.625 216.847656 153.792969 217.582031 C 153.175781 217.734375 152.585938 218.015625 151.953125 217.707031 C 150.96875 217.226562 150.011719 217.472656 149.046875 217.792969 C 147.847656 218.199219 146.644531 218.601562 145.4375 218.980469 C 144.929688 219.179688 144.40625 219.316406 143.867188 219.382812 C 141.601562 219.453125 139.347656 219.648438 137.105469 219.96875 C 136.648438 220.066406 136.203125 220.03125 135.765625 219.875 C 134.835938 219.386719 133.871094 219.320312 132.882812 219.671875 C 132.605469 219.738281 132.339844 219.710938 132.085938 219.59375 C 129.648438 218.585938 127.085938 218.921875 124.5625 218.921875 C 123.390625 218.921875 122.21875 219.070312 121.039062 219.109375 C 120.503906 219.113281 119.96875 219.082031 119.433594 219.015625 L 111.402344 218.15625 C 111.054688 218.125 110.585938 218.257812 110.59375 217.726562 C 110.59375 217.539062 110.945312 217.359375 111.121094 217.164062 C 111.296875 216.96875 111.382812 216.871094 111.375 216.730469 C 111.367188 216.585938 111.167969 216.441406 111.035156 216.433594 C 110.675781 216.390625 110.316406 216.390625 109.957031 216.433594 C 106.710938 216.835938 103.4375 216.695312 100.183594 216.871094 C 100.003906 216.871094 99.796875 216.964844 99.640625 216.902344 C 97.25 215.925781 94.820312 216.808594 92.414062 216.78125 C 89.519531 216.75 86.628906 216.78125 83.710938 217.035156 C 81.851562 217.191406 79.933594 217.273438 78.046875 217.246094 C 77.5 217.246094 77.433594 217.03125 77.828125 216.21875 C 77.996094 215.875 77.90625 215.714844 77.605469 215.703125 C 77.070312 215.703125 76.527344 215.75 75.984375 215.78125 C 74.601562 215.863281 73.269531 215.742188 72.15625 214.777344 C 71.660156 214.328125 71.074219 214.105469 70.402344 214.105469 C 68.394531 214.105469 66.386719 213.824219 64.441406 214.21875 C 63.964844 214.382812 63.476562 214.433594 62.976562 214.371094 C 62.476562 214.308594 62.015625 214.136719 61.59375 213.859375 C 60.980469 213.457031 60.484375 213.582031 59.96875 214.214844 C 59.878906 214.324219 59.769531 214.40625 59.636719 214.457031 C 59.507812 214.511719 59.371094 214.527344 59.230469 214.511719 C 59.089844 214.492188 58.964844 214.441406 58.851562 214.355469 C 58.738281 214.269531 58.652344 214.164062 58.597656 214.03125 C 58.273438 213.316406 57.289062 213.703125 57.089844 213.039062 C 56.890625 212.375 57.652344 211.941406 57.757812 211.316406 C 57.757812 211.242188 57.710938 211.148438 57.691406 211.089844 L 46.796875 211.089844 C 47.21875 210.417969 47.800781 210.707031 48.226562 210.613281 C 48.847656 210.492188 49.472656 210.417969 50.101562 210.398438 C 50.644531 210.359375 51.1875 210.398438 51.722656 210.351562 C 52.257812 210.304688 52.8125 210.269531 53.347656 210.183594 C 53.882812 210.097656 54.585938 209.933594 55.203125 209.800781 C 55.816406 209.667969 56.253906 209.558594 56.863281 209.417969 C 56.542969 208.675781 55.9375 208.941406 55.523438 208.949219 C 53.515625 208.949219 51.539062 209.058594 49.554688 209.097656 C 48.355469 209.175781 47.199219 208.996094 46.085938 208.554688 C 45.542969 208.207031 44.949219 208.011719 44.304688 207.964844 C 43.882812 207.902344 43.855469 207.5 44.304688 206.789062 C 43.535156 206.789062 42.847656 206.789062 42.164062 206.789062 C 41.480469 206.789062 40.722656 206.683594 40 206.640625 C 39.644531 206.640625 39.210938 206.640625 39.179688 206.179688 C 39.144531 205.71875 39.558594 205.625 39.847656 205.460938 C 41.472656 204.585938 43.207031 204.160156 45.054688 204.179688 C 46.585938 204.234375 48.121094 204.09375 49.914062 204.035156 C 48.738281 203.363281 47.597656 203.925781 46.65625 203.417969 C 47.023438 202.878906 47.679688 203.261719 48.121094 202.925781 C 48.027344 202.417969 47.589844 202.640625 47.3125 202.578125 C 47.039062 202.542969 46.765625 202.527344 46.492188 202.539062 C 44.949219 202.59375 43.453125 202.34375 42.007812 201.789062 C 40.671875 201.183594 39.152344 201.472656 37.707031 201.417969 C 36.714844 201.417969 35.695312 201.371094 34.726562 201.316406 C 34.625 201.316406 34.453125 201.0625 34.464844 200.941406 C 34.519531 200.773438 34.625 200.652344 34.78125 200.574219 C 34.945312 200.488281 35.117188 200.445312 35.300781 200.4375 L 45.296875 199.472656 C 45.796875 199.421875 46.359375 199.875 46.800781 199.3125 C 46.746094 199.128906 46.640625 198.988281 46.476562 198.882812 C 46.316406 198.78125 46.140625 198.746094 45.953125 198.777344 C 42.230469 198.683594 38.546875 198.269531 34.902344 197.535156 C 32.222656 197.136719 29.53125 196.988281 26.828125 197.09375 C 26.019531 197.117188 25.230469 197.019531 24.453125 196.796875 C 25.296875 196.550781 26.144531 196.316406 26.980469 196.046875 C 27.132812 195.957031 27.210938 195.820312 27.214844 195.644531 C 27.171875 195.46875 27.066406 195.339844 26.902344 195.261719 C 26.40625 195.0625 25.898438 194.914062 25.207031 194.683594 C 26.03125 194.1875 26.925781 193.960938 27.886719 194.015625 C 29.511719 193.902344 31.160156 193.953125 32.652344 193.144531 C 33.402344 192.734375 34.25 193.144531 35.214844 192.8125 C 34.546875 192.144531 33.828125 192.363281 33.207031 192.324219 C 32.585938 192.285156 31.773438 192.324219 30.992188 192.324219 C 31.328125 191.441406 32.007812 191.855469 32.492188 191.699219 C 32.832031 191.59375 33.300781 191.59375 33.339844 191.171875 C 33.382812 190.75 32.839844 190.761719 32.550781 190.589844 C 32.445312 190.492188 32.355469 190.390625 32.277344 190.273438 C 33.058594 189.808594 33.84375 189.246094 34.71875 189.359375 C 36.207031 189.554688 37.222656 188.628906 38.449219 188.152344 C 35.394531 188.066406 32.371094 188.121094 29.191406 187.8125 C 29.960938 187.140625 30.777344 187.628906 31.40625 187.207031 C 31.351562 186.65625 30.882812 186.886719 30.601562 186.792969 C 30.320312 186.699219 30.042969 186.703125 30.109375 186.34375 C 30.109375 186.242188 30.382812 186.101562 30.53125 186.109375 C 31.519531 186.15625 32.503906 186.421875 33.496094 186.160156 C 33.933594 186.046875 34.359375 185.898438 34.773438 185.71875 C 34.941406 185.636719 35.042969 185.503906 35.082031 185.324219 C 35.085938 185.179688 35.039062 185.054688 34.945312 184.949219 C 34.847656 184.84375 34.730469 184.785156 34.585938 184.773438 C 33.964844 184.6875 33.335938 184.640625 32.699219 184.597656 C 32.0625 184.558594 31.253906 184.558594 30.535156 184.503906 C 30.351562 184.484375 30.21875 184.394531 30.128906 184.230469 C 30.015625 183.882812 30.289062 183.734375 30.5625 183.699219 C 33.167969 183.40625 35.769531 183.125 38.414062 182.835938 C 38.523438 182.265625 37.632812 182.265625 37.652344 181.648438 C 37.667969 181.414062 37.613281 181.199219 37.488281 181 C 37.367188 180.800781 37.199219 180.652344 36.980469 180.5625 C 36.488281 180.367188 35.953125 180.261719 34.878906 179.957031 C 36.601562 179.804688 37.800781 179.71875 38.984375 179.578125 C 40.167969 179.433594 41.5 179.242188 42.753906 179.066406 C 44.035156 178.917969 45.296875 178.671875 46.539062 178.328125 C 46 178.261719 45.464844 178.175781 44.921875 178.140625 C 44.378906 178.109375 43.65625 178.074219 43.019531 178.082031 C 42.15625 178.082031 41.398438 178 41.09375 176.988281 C 41.015625 176.816406 40.894531 176.683594 40.730469 176.59375 C 40.570312 176.5 40.394531 176.464844 40.207031 176.484375 C 39.667969 176.484375 39.117188 176.445312 38.574219 176.484375 C 33.683594 176.734375 28.796875 176.484375 23.902344 176.453125 C 23.429688 176.453125 22.8125 176.6875 22.511719 175.980469 C 23.179688 175.445312 23.917969 175.949219 24.605469 175.886719 C 25.328125 175.816406 26.050781 175.796875 26.773438 175.828125 C 27.773438 175.875 28.761719 175.792969 29.738281 175.585938 C 31.515625 175.21875 33.289062 174.816406 35.09375 175.109375 C 35.460938 175.128906 35.8125 175.082031 36.160156 174.960938 C 38.460938 174.367188 40.796875 174.164062 43.167969 174.351562 C 42.25 174.050781 42.859375 174.285156 42.671875 173.976562 C 42.617188 173.898438 42.542969 173.855469 42.449219 173.84375 L 34.152344 173.675781 C 34.425781 172.929688 35.1875 173.359375 35.449219 172.917969 C 35.523438 172.789062 35.542969 172.5 35.449219 172.449219 C 35.242188 172.269531 35.003906 172.167969 34.734375 172.140625 C 32.8125 172.171875 30.953125 171.855469 29.152344 171.1875 C 28.441406 171.027344 27.726562 170.925781 27.003906 170.890625 C 26.40625 170.785156 26.273438 170.132812 26.652344 169.605469 C 27 169.140625 27.457031 168.894531 28.03125 168.867188 C 30.710938 168.46875 33.386719 168.058594 36.066406 167.632812 C 36.40625 167.578125 36.808594 167.632812 36.960938 167.175781 C 31.265625 167.117188 26.816406 166.632812 24.714844 165.835938 C 26.679688 165.015625 28.6875 165.621094 30.691406 165.371094 C 30.496094 164.824219 29.941406 165.117188 29.660156 164.871094 C 29.597656 164.808594 29.480469 164.742188 29.484375 164.6875 C 29.492188 164.636719 29.519531 164.265625 29.597656 164.238281 C 30.535156 163.898438 31.492188 163.640625 32.472656 163.46875 C 34.707031 163.085938 36.875 162.464844 38.976562 161.609375 C 39.125 161.507812 39.195312 161.367188 39.183594 161.1875 C 39.128906 161.011719 39.011719 160.898438 38.835938 160.847656 C 38.390625 160.8125 37.945312 160.8125 37.496094 160.847656 C 35.878906 160.933594 34.25 161.035156 32.445312 161.148438 C 32.316406 161.222656 32.355469 160.53125 32.539062 160.847656 C 32.71875 161.160156 32.429688 160.847656 32.777344 160.753906 C 33.027344 160.664062 33.449219 160.632812 33.496094 160.476562 C 33.617188 160.109375 33.226562 160.101562 32.984375 160.089844 C 32.261719 160.011719 31.539062 159.996094 30.8125 160.042969 C 30.019531 160.128906 30.460938 158.761719 29.472656 159.054688 C 28.839844 159.152344 28.210938 159.152344 27.578125 159.054688 C 26.867188 159.054688 26.152344 158.988281 25.410156 158.949219 C 25.496094 158.210938 26.078125 158.277344 26.398438 158.238281 C 27.65625 158.066406 28.914062 157.964844 30.183594 157.929688 C 33.300781 157.886719 36.253906 156.96875 39.25 156.285156 C 39.800781 156.164062 39.785156 156.125 40.992188 154.09375 C 40.394531 153.683594 39.765625 154.050781 39.15625 154.039062 C 38.058594 154.039062 37.355469 153.785156 37.578125 153.46875 C 37.941406 152.945312 38.542969 153.121094 39.042969 153 L 46.199219 151.195312 C 48.734375 150.5 51.304688 149.972656 53.910156 149.605469 C 54.042969 149.605469 54.15625 149.410156 54.378906 149.222656 C 53.601562 148.554688 52.691406 148.648438 51.816406 148.621094 C 50.9375 148.59375 50.015625 148.621094 49.085938 148.621094 C 48.992188 147.949219 49.578125 147.988281 49.902344 147.894531 C 50.769531 147.640625 51.660156 147.492188 52.578125 147.292969 C 53.644531 147.050781 54.707031 146.835938 55.410156 145.851562 C 55.675781 145.53125 56 145.289062 56.382812 145.125 C 56.765625 144.960938 57.164062 144.894531 57.578125 144.925781 C 59.695312 144.878906 61.628906 143.972656 63.703125 143.726562 C 63.878906 143.726562 64.171875 143.671875 64.207031 143.578125 C 64.507812 142.726562 65.542969 142.867188 66.214844 142.175781 C 63.644531 142.175781 61.3125 142.082031 58.992188 142.214844 C 57.910156 142.320312 56.828125 142.367188 55.746094 142.351562 C 54.203125 142.253906 52.675781 142.34375 51.160156 142.625 C 49.808594 142.902344 48.46875 142.84375 47.144531 142.457031 C 47.070312 141.753906 47.617188 141.785156 47.992188 141.726562 C 53.09375 140.933594 58.199219 140.171875 63.300781 139.386719 C 64.554688 139.191406 65.796875 138.957031 67.042969 138.714844 C 68.085938 138.554688 68.910156 138.042969 69.511719 137.171875 Z M 79.253906 214.054688 Z M 84.695312 215.144531 L 84.472656 215.292969 L 84.667969 215.121094 Z M 273.96875 167.734375 L 273.753906 167.875 L 273.949219 167.707031 Z M 224.46875 203.671875 C 224.628906 203.753906 224.792969 203.820312 224.964844 203.871094 C 226.183594 204.140625 227.382812 203.839844 226.972656 203.4375 C 226.339844 202.859375 225.636719 203.148438 224.964844 203.4375 C 224.804688 203.519531 224.65625 203.617188 224.515625 203.730469 C 224.449219 203.726562 224.378906 203.726562 224.308594 203.730469 C 224.261719 203.761719 224.21875 203.796875 224.183594 203.839844 Z M 92.839844 214.054688 C 92.691406 214.152344 92.554688 214.261719 92.398438 214.347656 C 92.117188 214.507812 91.589844 214.449219 91.675781 214.929688 C 91.699219 215.019531 91.738281 215.101562 91.796875 215.171875 C 91.855469 215.242188 91.929688 215.292969 92.011719 215.332031 C 92.09375 215.367188 92.183594 215.386719 92.273438 215.382812 C 92.367188 215.378906 92.453125 215.355469 92.53125 215.3125 C 93.484375 215.03125 94.449219 214.960938 95.429688 215.113281 C 96.53125 215.285156 97.597656 215.15625 98.628906 214.730469 Z M 169.109375 133.484375 C 169.0625 133.351562 168.980469 133.246094 168.863281 133.167969 C 168.746094 133.089844 168.617188 133.054688 168.476562 133.0625 C 166.878906 132.976562 165.324219 132.546875 163.6875 132.667969 C 160.902344 132.875 158.101562 132.839844 155.320312 133.042969 C 152.367188 133.25 149.457031 134.054688 146.449219 133.597656 C 146.382812 133.582031 146.316406 133.585938 146.253906 133.605469 C 146.1875 133.621094 146.128906 133.65625 146.082031 133.703125 C 146.035156 133.75 146 133.804688 145.980469 133.871094 C 145.957031 133.9375 145.953125 134 145.96875 134.066406 C 146.039062 134.234375 146.164062 134.332031 146.34375 134.363281 C 149.386719 134.449219 152.421875 135.414062 155.484375 134.558594 C 155.929688 134.480469 156.375 134.453125 156.824219 134.46875 L 168.4375 133.800781 C 168.691406 133.820312 169.007812 133.820312 169.109375 133.484375 Z M 226.925781 207.300781 C 230.453125 207.609375 237.355469 206.449219 239.925781 205.207031 C 239.539062 204.535156 238.929688 205.101562 238.492188 204.933594 C 237.9375 204.667969 237.394531 204.371094 236.875 204.039062 C 236.703125 203.964844 236.527344 203.945312 236.34375 203.972656 C 234.5625 204.253906 232.722656 204.175781 230.988281 204.824219 C 229.832031 205.261719 231.128906 205.777344 230.9375 206.289062 C 229.710938 206.480469 228.425781 206.429688 226.925781 207.300781 Z M 220.902344 207.640625 C 219.375 207.449219 217.851562 207.449219 216.324219 207.640625 C 215.613281 207.703125 214.898438 207.742188 214.183594 207.78125 C 212.027344 207.898438 209.878906 207.996094 207.722656 208.117188 C 207.238281 208.109375 206.84375 208.292969 206.539062 208.667969 C 206.394531 208.894531 206.328125 209.136719 206.335938 209.40625 C 206.339844 209.550781 206.390625 209.671875 206.496094 209.769531 C 206.597656 209.871094 206.722656 209.917969 206.867188 209.914062 C 208.386719 209.789062 209.9375 209.867188 211.398438 209.351562 C 213.035156 208.789062 214.722656 208.539062 216.453125 208.601562 C 218.011719 208.644531 219.496094 208.328125 220.902344 207.640625 Z M 144.703125 217.835938 C 145.941406 217.867188 146.671875 217.835938 147.3125 217.417969 C 148.332031 216.742188 149.445312 216.472656 150.660156 216.609375 C 150.847656 216.628906 151.019531 216.589844 151.175781 216.488281 C 151.285156 216.367188 151.351562 216.226562 151.375 216.066406 C 151.375 216.011719 151.289062 215.878906 151.234375 215.871094 C 149.480469 215.710938 147.65625 215.066406 146.167969 216.660156 C 145.980469 216.878906 145.746094 217.007812 145.464844 217.046875 C 145.183594 217.085938 144.921875 217.027344 144.683594 216.871094 C 144.238281 216.535156 143.734375 216.355469 143.175781 216.332031 C 142.808594 216.332031 142.386719 216.398438 142.226562 216.75 C 142.003906 217.246094 142.480469 217.351562 142.800781 217.417969 C 143.597656 217.628906 144.402344 217.773438 144.703125 217.835938 Z M 316.433594 136.160156 C 317.605469 135.992188 318.710938 136.300781 319.742188 135.84375 C 319.894531 135.746094 319.980469 135.605469 320 135.421875 C 319.996094 135.238281 319.925781 135.078125 319.789062 134.953125 C 319.585938 134.757812 319.34375 134.640625 319.066406 134.597656 C 318.789062 134.554688 318.527344 134.59375 318.273438 134.71875 C 317.25 135.328125 316.214844 135.148438 315.136719 135.058594 C 314.691406 135.066406 314.257812 135.148438 313.84375 135.308594 C 313.722656 135.308594 313.601562 135.589844 313.601562 135.730469 C 313.601562 135.871094 313.769531 136.132812 313.863281 136.140625 C 314.761719 136.167969 315.652344 136.160156 316.433594 136.160156 Z M 317.832031 133.332031 C 318.855469 133.332031 319.398438 133.371094 319.929688 133.332031 C 320.34375 133.328125 320.714844 133.191406 321.039062 132.929688 C 321.363281 132.664062 321.570312 132.332031 321.660156 131.921875 C 321.675781 131.734375 321.609375 131.585938 321.460938 131.472656 C 321.148438 131.273438 320.808594 131.171875 320.441406 131.160156 C 320.074219 131.148438 319.726562 131.234375 319.40625 131.414062 C 318.59375 131.945312 317.722656 132.355469 316.796875 132.640625 C 316.71875 132.691406 316.679688 132.765625 316.683594 132.859375 C 316.761719 133 316.863281 133.210938 316.988281 133.238281 C 317.269531 133.285156 317.550781 133.316406 317.832031 133.332031 Z M 62.988281 211.484375 C 63.074219 211.617188 63.101562 211.726562 63.148438 211.734375 C 65.578125 212.046875 67.988281 211.644531 70.402344 211.492188 C 70.617188 211.492188 70.980469 211.175781 70.980469 211.015625 C 70.980469 210.480469 70.515625 210.59375 70.183594 210.613281 C 69.011719 210.671875 67.847656 210.773438 66.675781 210.820312 C 65.410156 210.839844 64.179688 211.0625 62.988281 211.484375 Z M 273 203.203125 C 274.753906 204.335938 276.613281 203.871094 278.453125 203.792969 C 278.554688 203.792969 278.730469 203.523438 278.714844 203.390625 C 278.703125 203.257812 278.5 203.042969 278.386719 203.042969 C 276.585938 203.074219 274.792969 203.128906 273 203.203125 Z M 319.71875 180.996094 C 318.132812 180.667969 317.136719 181.546875 316.179688 182.511719 C 315.992188 182.703125 315.898438 183.03125 316.132812 183.183594 C 316.355469 183.34375 316.59375 183.378906 316.847656 183.285156 C 317.363281 182.933594 317.84375 182.546875 318.292969 182.117188 C 318.730469 181.714844 319.453125 181.667969 319.71875 180.996094 Z M 230.941406 125.773438 C 231.445312 125.773438 231.707031 125.773438 231.96875 125.773438 C 232.105469 125.769531 232.222656 125.722656 232.324219 125.625 C 232.421875 125.53125 232.476562 125.414062 232.484375 125.277344 C 232.484375 125.140625 232.4375 125.019531 232.347656 124.917969 C 232.257812 124.816406 232.144531 124.761719 232.007812 124.746094 C 231.132812 124.585938 230.265625 124.617188 229.402344 124.839844 C 229.242188 124.90625 229.140625 125.027344 229.097656 125.195312 C 229.117188 125.363281 229.207031 125.484375 229.355469 125.558594 C 229.972656 125.660156 230.582031 125.726562 230.941406 125.773438 Z M 312.605469 170.207031 C 313.585938 170.902344 314.671875 171.171875 315.863281 171.011719 C 316.03125 170.941406 316.128906 170.820312 316.167969 170.644531 C 316.167969 170.46875 316.097656 170.332031 315.957031 170.226562 C 314.84375 169.828125 313.726562 169.820312 312.605469 170.207031 Z M 318.871094 142.382812 C 320.878906 143.277344 321.988281 143.324219 324.734375 142.710938 C 322.476562 142.8125 320.710938 142.464844 318.871094 142.382812 Z M 42.542969 195.941406 L 42.605469 195.585938 L 36.6875 195.585938 C 36.609375 195.585938 36.535156 195.671875 36.453125 195.71875 L 36.632812 195.933594 Z M 243.164062 205.140625 C 244.242188 205.074219 244.871094 205.054688 245.496094 204.980469 C 245.621094 204.980469 245.730469 204.765625 245.824219 204.628906 C 245.824219 204.628906 245.761719 204.4375 245.710938 204.421875 C 244.546875 204.152344 243.398438 204.210938 242.269531 204.605469 C 242.207031 204.605469 242.160156 204.765625 242.160156 204.84375 C 242.160156 204.925781 242.234375 205.066406 242.28125 205.074219 C 242.722656 205.101562 243.164062 205.140625 243.164062 205.140625 Z M 271.894531 125.335938 L 271.894531 125.644531 C 273.054688 125.644531 274.21875 125.644531 275.375 125.644531 C 275.441406 125.644531 275.507812 125.628906 275.566406 125.601562 C 275.625 125.570312 275.675781 125.527344 275.714844 125.472656 C 275.753906 125.417969 275.777344 125.355469 275.789062 125.289062 C 275.796875 125.222656 275.792969 125.160156 275.769531 125.09375 C 275.679688 124.929688 275.539062 124.839844 275.347656 124.828125 C 274.191406 124.921875 273.046875 125.109375 271.894531 125.289062 Z M 198.265625 206.917969 C 196.820312 206.417969 195.351562 206.332031 193.859375 206.65625 C 193.753906 206.65625 193.671875 206.910156 193.613281 207.058594 C 193.613281 207.058594 193.726562 207.246094 193.78125 207.246094 C 195.300781 207.097656 196.804688 206.984375 198.292969 206.871094 Z M 123.296875 201.503906 C 124.835938 201.503906 126.261719 201.503906 127.6875 201.503906 C 128.007812 201.503906 128.355469 201.621094 128.738281 201.035156 C 127.199219 201.035156 125.773438 201.035156 124.347656 201.035156 C 124.039062 201.003906 123.65625 200.875 123.316406 201.457031 Z M 229.898438 203.699219 C 230.164062 203.65625 230.417969 203.585938 230.667969 203.492188 C 230.824219 203.394531 230.902344 203.257812 230.910156 203.074219 C 230.769531 202.570312 229.617188 202.128906 229.097656 202.363281 C 228.953125 202.484375 228.890625 202.636719 228.910156 202.820312 C 228.910156 203.070312 228.992188 203.296875 229.148438 203.492188 C 229.34375 203.617188 229.664062 203.597656 229.917969 203.652344 Z M 314.023438 140.753906 C 313.480469 140.808594 313.273438 140.957031 313.199219 141.222656 C 313.164062 141.355469 313.171875 141.480469 313.234375 141.605469 C 313.292969 141.726562 313.386719 141.8125 313.515625 141.859375 C 313.835938 141.988281 314.164062 142.058594 314.507812 142.074219 C 314.765625 142.074219 315.070312 141.949219 315.0625 141.667969 C 315.050781 141.402344 314.941406 141.191406 314.734375 141.027344 C 314.523438 140.882812 314.292969 140.777344 314.042969 140.707031 Z M 284.574219 124.023438 C 284.574219 124.023438 284.296875 124.023438 284.3125 124.382812 C 284.355469 124.5625 284.460938 124.695312 284.625 124.773438 C 284.941406 124.941406 285.273438 125.058594 285.625 125.113281 C 286.125 125.175781 286.960938 125.390625 287.054688 124.925781 C 287.183594 124.214844 286.339844 124.4375 285.878906 124.324219 Z M 328.273438 139.875 C 328.597656 139.90625 328.917969 139.90625 329.238281 139.875 C 329.359375 139.875 329.546875 139.660156 329.535156 139.582031 C 329.492188 139.410156 329.390625 139.285156 329.230469 139.210938 C 328.566406 138.953125 327.886719 138.910156 327.191406 139.078125 C 327.117188 139.078125 327.003906 139.203125 327.011719 139.246094 C 327.050781 139.398438 327.097656 139.632812 327.199219 139.667969 C 327.566406 139.742188 327.933594 139.792969 328.308594 139.828125 Z M 303.902344 191.265625 C 303.023438 191.089844 302.164062 191.160156 301.328125 191.488281 C 301.199219 191.554688 301.140625 191.753906 301.050781 191.894531 C 301.199219 191.976562 301.351562 192.128906 301.492188 192.117188 C 302.019531 192.070312 302.539062 191.984375 303.054688 191.855469 C 303.320312 191.78125 303.742188 191.84375 303.902344 191.265625 Z M 333.722656 142.605469 C 334.070312 142.550781 334.507812 142.484375 334.941406 142.402344 C 334.980469 142.402344 335.027344 142.261719 335.023438 142.1875 C 335.011719 142.097656 334.972656 142.023438 334.902344 141.96875 C 334.601562 141.765625 334.269531 141.660156 333.90625 141.648438 C 333.546875 141.636719 333.207031 141.71875 332.894531 141.902344 C 332.773438 141.953125 332.714844 142.175781 332.660156 142.328125 C 332.660156 142.328125 332.78125 142.472656 332.851562 142.484375 C 333.0625 142.539062 333.355469 142.558594 333.691406 142.605469 Z M 330.679688 155.65625 C 331.519531 156.195312 332.425781 156.34375 333.394531 156.089844 C 333.523438 156.089844 333.609375 155.84375 333.710938 155.707031 C 333.578125 155.609375 333.4375 155.421875 333.300781 155.425781 C 332.578125 155.460938 331.894531 155.515625 330.679688 155.65625 Z M 327.4375 141.886719 C 328.402344 141.886719 329.230469 142.941406 330.214844 142.222656 C 330.25 142.132812 330.238281 142.050781 330.183594 141.976562 C 329.277344 141.25 328.308594 141.820312 327.40625 141.886719 Z M 331.640625 162.523438 C 331.582031 162.363281 331.5625 162.113281 331.46875 162.074219 C 331.128906 161.988281 330.800781 162.023438 330.488281 162.175781 C 330.171875 162.328125 329.945312 162.566406 329.800781 162.882812 C 329.800781 162.972656 329.976562 163.191406 330.074219 163.199219 C 330.375 163.234375 330.660156 163.195312 330.933594 163.070312 C 331.210938 162.949219 331.433594 162.765625 331.609375 162.523438 Z M 317.847656 144.363281 C 317.847656 144.195312 317.878906 143.960938 317.785156 143.878906 C 317.625 143.71875 317.433594 143.613281 317.210938 143.5625 C 316.988281 143.511719 316.769531 143.527344 316.554688 143.605469 C 316.414062 143.632812 316.316406 143.710938 316.253906 143.839844 C 316.191406 143.96875 316.195312 144.09375 316.261719 144.222656 C 316.34375 144.347656 316.453125 144.449219 316.582031 144.527344 C 316.710938 144.601562 316.851562 144.648438 317.003906 144.664062 C 317.152344 144.675781 317.300781 144.65625 317.441406 144.605469 C 317.582031 144.550781 317.707031 144.46875 317.8125 144.363281 Z M 195.28125 134.015625 L 195.28125 134.417969 C 195.816406 134.417969 196.351562 134.449219 196.878906 134.417969 C 197.410156 134.382812 197.851562 134.589844 198.359375 134.019531 Z M 40.207031 180.957031 L 40.28125 181.332031 C 40.808594 181.367188 41.335938 181.367188 41.863281 181.332031 C 42.277344 181.285156 42.800781 181.519531 43.140625 180.976562 Z M 155.480469 216.125 C 155.527344 216.046875 155.53125 215.964844 155.484375 215.882812 C 155.441406 215.800781 155.371094 215.757812 155.277344 215.757812 C 154.664062 215.554688 154.082031 215.617188 153.523438 215.945312 C 153.472656 216.015625 153.453125 216.09375 153.464844 216.179688 C 153.472656 216.265625 153.511719 216.339844 153.578125 216.394531 C 153.894531 216.53125 154.226562 216.578125 154.570312 216.527344 C 154.914062 216.476562 155.214844 216.335938 155.480469 216.113281 Z M 196.804688 209.484375 C 196.503906 209.050781 196.042969 209.183594 195.648438 209.191406 C 195.351562 209.191406 194.84375 209.105469 194.976562 209.660156 C 194.976562 209.808594 195.40625 209.933594 195.648438 209.941406 C 196.125 210.015625 196.511719 209.859375 196.804688 209.472656 Z M 311.121094 182.292969 C 310.664062 181.972656 310.167969 181.902344 309.640625 182.070312 C 309.554688 182.113281 309.503906 182.179688 309.484375 182.273438 C 309.484375 182.339844 309.53125 182.480469 309.585938 182.488281 C 310.023438 182.59375 310.464844 182.6875 310.925781 182.769531 C 311.011719 182.757812 311.082031 182.71875 311.132812 182.648438 C 311.144531 182.574219 311.121094 182.472656 311.121094 182.277344 Z M 102.277344 214.289062 C 101.902344 214.289062 101.609375 214.363281 101.65625 214.695312 C 101.703125 215.03125 102.023438 215.050781 102.324219 215.050781 C 102.625 215.050781 102.929688 215.019531 102.835938 214.675781 C 102.746094 214.476562 102.425781 214.367188 102.265625 214.273438 Z M 340.570312 153.757812 C 340.476562 153.355469 340.15625 153.253906 339.816406 153.246094 C 339.695312 153.246094 339.453125 153.410156 339.460938 153.484375 C 339.492188 153.90625 339.835938 153.992188 340.183594 153.992188 C 340.304688 153.972656 340.429688 153.824219 340.566406 153.742188 Z M 311.421875 168.445312 C 311.140625 168.445312 310.910156 168.578125 310.972656 168.886719 C 310.972656 169.015625 311.179688 169.160156 311.3125 169.203125 C 311.574219 169.28125 311.855469 169.203125 311.894531 168.90625 C 311.9375 168.613281 311.679688 168.472656 311.414062 168.429688 Z M 310.597656 181.125 C 310.308594 180.945312 309.996094 180.851562 309.65625 180.835938 C 309.320312 180.820312 309 180.890625 308.695312 181.046875 C 309.316406 181.359375 309.953125 181.382812 310.597656 181.125 Z M 322.550781 133.894531 C 322.566406 134.027344 322.628906 134.128906 322.738281 134.207031 C 322.847656 134.28125 322.964844 134.304688 323.09375 134.269531 C 323.222656 134.269531 323.414062 134.074219 323.414062 133.96875 C 323.414062 133.660156 323.148438 133.566406 322.894531 133.605469 C 322.765625 133.625 322.644531 133.792969 322.550781 133.894531 Z M 234.757812 202.753906 C 234.816406 202.679688 234.832031 202.597656 234.804688 202.507812 C 234.777344 202.417969 234.71875 202.359375 234.632812 202.332031 C 234.515625 202.277344 234.394531 202.265625 234.265625 202.296875 C 234.140625 202.328125 234.039062 202.394531 233.960938 202.5 C 233.929688 202.53125 233.910156 202.570312 233.898438 202.613281 C 233.886719 202.65625 233.890625 202.699219 233.902344 202.742188 C 233.914062 202.789062 233.9375 202.824219 233.96875 202.855469 C 234 202.886719 234.039062 202.910156 234.082031 202.921875 C 234.199219 202.972656 234.324219 202.984375 234.449219 202.953125 C 234.574219 202.921875 234.679688 202.855469 234.757812 202.753906 Z M 164.984375 138.113281 C 165.8125 138.21875 166.324219 138.46875 166.730469 137.878906 C 166.117188 137.714844 165.535156 137.792969 164.984375 138.113281 Z M 278.011719 124.324219 C 278.023438 124.257812 278.015625 124.195312 277.992188 124.132812 C 277.972656 124.070312 277.9375 124.019531 277.886719 123.972656 C 277.839844 123.929688 277.785156 123.898438 277.722656 123.878906 C 277.660156 123.863281 277.59375 123.859375 277.53125 123.875 C 277.433594 123.871094 277.359375 123.914062 277.316406 124 C 277.269531 124.089844 277.277344 124.171875 277.335938 124.25 C 277.414062 124.398438 277.535156 124.503906 277.691406 124.566406 C 277.796875 124.585938 277.914062 124.398438 278.011719 124.324219 Z M 204.382812 210.296875 C 204.289062 210.171875 204.1875 210.054688 204.074219 209.949219 C 204.042969 209.949219 203.902344 209.988281 203.855469 210.050781 C 203.714844 210.222656 203.742188 210.417969 203.953125 210.464844 C 204.167969 210.511719 204.25 210.359375 204.394531 210.296875 Z M 314.226562 180.824219 C 314.019531 180.890625 313.65625 180.761719 313.683594 181.132812 C 313.683594 181.210938 314.144531 181.285156 314.398438 181.300781 C 314.546875 181.300781 314.839844 181.160156 314.835938 181.113281 C 314.792969 180.761719 314.480469 180.863281 314.238281 180.824219 Z M 315.164062 156.464844 C 315.390625 156.582031 315.53125 156.707031 315.664062 156.703125 C 315.921875 156.675781 316.171875 156.628906 316.421875 156.5625 C 316.285156 156.480469 316.152344 156.347656 316.019531 156.347656 C 315.734375 156.363281 315.453125 156.402344 315.175781 156.464844 Z M 272.820312 199.890625 L 273.453125 199.632812 C 273.308594 199.351562 273.039062 199.347656 272.785156 199.351562 C 272.53125 199.359375 272.234375 199.3125 272.28125 199.6875 C 272.308594 199.777344 272.589844 199.777344 272.832031 199.890625 Z M 332.304688 139.679688 C 332.117188 139.773438 332.078125 139.910156 332.203125 140.070312 C 332.25 140.125 332.386719 140.191406 332.410156 140.164062 C 332.519531 140.070312 332.613281 139.96875 332.699219 139.855469 Z M 66.054688 204.953125 C 66.121094 204.90625 66.246094 204.867188 66.253906 204.8125 C 66.285156 204.71875 66.265625 204.636719 66.199219 204.5625 C 66.136719 204.488281 66.054688 204.460938 65.960938 204.484375 C 65.871094 204.496094 65.800781 204.539062 65.75 204.617188 C 65.71875 204.832031 65.832031 204.945312 66.054688 204.953125 Z M 62.035156 205.066406 C 61.902344 204.96875 61.753906 204.90625 61.59375 204.871094 C 61.433594 204.90625 61.289062 204.96875 61.152344 205.058594 C 61.300781 205.132812 61.449219 205.261719 61.59375 205.261719 C 61.742188 205.261719 61.871094 205.140625 62.015625 205.066406 Z M 190.011719 213.945312 C 190.238281 213.945312 190.40625 213.84375 190.320312 213.703125 C 190.234375 213.5625 190.023438 213.578125 189.871094 213.558594 C 189.71875 213.535156 189.476562 213.65625 189.5625 213.796875 C 189.648438 213.9375 189.835938 213.898438 189.992188 213.945312 Z M 311.265625 136.019531 L 310.925781 136.273438 C 311.046875 136.363281 311.160156 136.507812 311.285156 136.527344 C 311.414062 136.550781 311.695312 136.476562 311.714844 136.402344 C 311.78125 136.066406 311.472656 136.066406 311.265625 136.019531 Z M 96.214844 201.652344 C 95.964844 201.652344 95.730469 201.652344 95.503906 201.652344 C 95.503906 201.652344 95.503906 201.773438 95.449219 201.835938 C 95.679688 201.835938 95.914062 201.882812 96.121094 201.882812 C 96.160156 201.808594 96.191406 201.730469 96.214844 201.652344 Z M 334.257812 163.429688 L 334.488281 163.332031 C 334.429688 163.195312 334.367188 163.058594 334.292969 162.925781 C 334.292969 162.925781 334.144531 162.984375 334.070312 163.011719 C 334.132812 163.144531 334.191406 163.28125 334.257812 163.421875 Z M 307.023438 169.0625 C 306.9375 168.933594 306.863281 168.71875 306.753906 168.707031 C 306.574219 168.691406 306.425781 168.753906 306.304688 168.894531 C 306.199219 169.054688 306.304688 169.242188 306.546875 169.234375 C 306.714844 169.199219 306.875 169.136719 307.023438 169.054688 Z M 39.179688 172.546875 C 39.332031 172.507812 39.554688 172.546875 39.625 172.421875 C 39.699219 172.292969 39.578125 172.152344 39.351562 172.179688 C 39.125 172.207031 38.984375 172.179688 38.910156 172.300781 C 38.835938 172.421875 38.957031 172.546875 39.179688 172.542969 Z M 204.015625 133.738281 C 203.910156 133.8125 203.8125 133.890625 203.71875 133.980469 C 203.71875 133.980469 203.78125 134.15625 203.820312 134.15625 C 203.957031 134.144531 204.089844 134.125 204.222656 134.089844 Z M 33.675781 195.914062 C 33.660156 195.820312 33.640625 195.726562 33.609375 195.636719 C 33.375 195.636719 33.140625 195.679688 32.90625 195.703125 C 32.90625 195.773438 32.9375 195.898438 32.960938 195.898438 C 33.195312 195.917969 33.429688 195.914062 33.675781 195.914062 Z M 334.980469 152.324219 C 334.976562 152.238281 334.957031 152.15625 334.929688 152.074219 L 334.226562 152.113281 C 334.226562 152.179688 334.226562 152.308594 334.265625 152.308594 C 334.5 152.308594 334.734375 152.308594 334.980469 152.308594 Z M 46.714844 206.75 C 46.78125 206.703125 46.914062 206.648438 46.910156 206.609375 C 46.894531 206.476562 46.835938 206.371094 46.730469 206.289062 C 46.625 206.207031 46.503906 206.179688 46.375 206.199219 C 46.304688 206.199219 46.179688 206.300781 46.1875 206.339844 C 46.199219 206.640625 46.421875 206.761719 46.714844 206.75 Z M 153.964844 138.414062 C 153.886719 138.414062 153.753906 138.414062 153.730469 138.488281 C 153.660156 138.675781 153.773438 138.777344 154.011719 138.722656 C 154.160156 138.675781 154.304688 138.613281 154.441406 138.542969 Z M 90.242188 130.816406 C 90.355469 130.734375 90.539062 130.675781 90.570312 130.574219 C 90.605469 130.472656 90.476562 130.300781 90.285156 130.339844 C 90.203125 130.359375 90.140625 130.398438 90.097656 130.464844 C 89.988281 130.632812 90.050781 130.753906 90.242188 130.816406 Z M 296.492188 189.339844 C 296.492188 189.132812 296.425781 189.003906 296.21875 189 C 296.132812 189.007812 296.074219 189.050781 296.039062 189.132812 C 296.007812 189.222656 296.023438 189.304688 296.082031 189.378906 C 296.140625 189.453125 296.21875 189.484375 296.3125 189.476562 C 296.375 189.480469 296.433594 189.386719 296.492188 189.339844 Z M 289.90625 123.230469 C 289.828125 123.269531 289.691406 123.296875 289.679688 123.351562 C 289.625 123.59375 289.746094 123.679688 289.988281 123.574219 C 290.046875 123.574219 290.082031 123.433594 290.121094 123.363281 Z M 30.363281 195.953125 L 30.542969 195.804688 C 30.417969 195.734375 30.289062 195.671875 30.15625 195.625 C 30.113281 195.625 30.042969 195.710938 29.980469 195.765625 Z M 86.359375 208.492188 L 86.1875 208.554688 C 86.1875 208.613281 86.1875 208.707031 86.253906 208.726562 C 86.320312 208.75 86.367188 208.695312 86.429688 208.667969 Z M 282.148438 198.132812 L 282.363281 197.992188 C 282.304688 197.929688 282.257812 197.832031 282.191406 197.816406 C 281.941406 197.757812 281.828125 197.859375 281.910156 198.066406 C 281.929688 198.085938 282.070312 198.085938 282.148438 198.105469 Z M 320.683594 174.660156 L 320.597656 174.839844 L 320.777344 174.929688 C 320.8125 174.867188 320.871094 174.792969 320.859375 174.746094 C 320.84375 174.699219 320.746094 174.6875 320.683594 174.660156 Z M 310.851562 166.472656 C 310.933594 166.472656 311.050781 166.472656 311.085938 166.4375 C 311.199219 166.277344 311.085938 166.175781 310.878906 166.203125 C 310.808594 166.234375 310.742188 166.273438 310.683594 166.324219 Z M 90.222656 214.957031 C 90.089844 214.898438 89.960938 214.832031 89.828125 214.785156 C 89.828125 214.785156 89.769531 214.910156 89.734375 214.976562 L 90.121094 215.160156 Z M 218.605469 126.90625 L 218.480469 126.726562 L 218.386719 126.917969 Z M 106.152344 214.953125 L 106.316406 214.851562 C 106.269531 214.804688 106.226562 214.722656 106.175781 214.71875 C 106.121094 214.710938 106.066406 214.777344 106.007812 214.816406 Z M 196.894531 212.195312 C 196.960938 212.207031 197.027344 212.207031 197.09375 212.195312 C 197.09375 212.195312 197.09375 212.074219 197.09375 212.015625 C 197.09375 211.953125 196.945312 212.015625 196.894531 212.015625 C 196.839844 212.015625 196.878906 212.136719 196.871094 212.195312 Z M 105.25 211.589844 C 105.195312 211.550781 105.148438 211.476562 105.097656 211.476562 C 105.042969 211.476562 104.996094 211.542969 104.949219 211.585938 C 104.902344 211.625 105.042969 211.699219 105.097656 211.699219 C 105.148438 211.699219 105.175781 211.625 105.230469 211.589844 Z M 200.164062 211.015625 L 200.351562 211.136719 L 200.351562 210.941406 Z M 204.636719 207.304688 L 204.730469 207.179688 L 204.550781 207.179688 Z M 261.734375 125.375 L 261.625 125.53125 L 261.835938 125.53125 Z M 61.496094 206.214844 L 61.703125 206.152344 L 61.546875 206.03125 Z M 69.996094 204.203125 L 70.175781 204.203125 L 70.109375 204.035156 Z M 37.355469 191.089844 L 37.539062 191.089844 L 37.472656 190.921875 Z M 35 191.003906 L 35.109375 191.152344 L 35.195312 190.984375 Z M 298.105469 188.789062 L 298.292969 188.738281 L 298.152344 188.621094 Z M 67.003906 186.429688 L 66.910156 186.558594 L 67.097656 186.558594 Z M 46.453125 183.808594 L 46.292969 183.714844 L 46.292969 183.867188 Z M 323.113281 174.464844 L 323.15625 174.632812 L 323.308594 174.535156 Z M 29.378906 169.597656 L 29.546875 169.703125 L 29.546875 169.539062 Z M 40.253906 166.855469 L 40.417969 166.957031 L 40.417969 166.800781 Z M 97.953125 132.082031 L 98.121094 132.042969 L 98 131.949219 Z M 188.90625 134.65625 L 188.707031 134.710938 L 188.855469 134.824219 Z M 64.894531 164.640625 L 64.714844 164.6875 L 64.847656 164.789062 Z M 37.578125 158.792969 L 37.753906 158.746094 L 37.625 158.652344 Z M 183.417969 135.1875 L 183.324219 135.316406 L 183.503906 135.316406 Z M 309.660156 158.265625 L 309.621094 158.089844 L 309.453125 158.195312 Z M 336.476562 154.84375 C 336.601562 154.695312 336.5625 154.609375 336.367188 154.597656 C 336.320312 154.640625 336.300781 154.699219 336.308594 154.761719 C 336.328125 154.84375 336.414062 154.84375 336.476562 154.84375 Z M 323.253906 139.039062 L 323.082031 139.078125 L 323.207031 139.179688 Z M 297.074219 145.742188 L 297.175781 145.597656 L 296.976562 145.597656 Z M 305.175781 145.152344 L 305.347656 145.105469 L 305.222656 145.003906 Z M 310.0625 144.421875 L 310.101562 144.617188 L 310.277344 144.496094 Z M 310.0625 144.421875 " fill-opacity="1" fill-rule="nonzero"/></g><path fill="#000000" d="M 328.816406 126.109375 C 328.308594 126.253906 327.671875 126.253906 327.316406 126.570312 C 326.3125 127.488281 325.183594 127.375 324.011719 127.242188 C 322.683594 127.011719 321.34375 126.871094 319.996094 126.820312 C 318.65625 126.859375 317.453125 125.886719 316.078125 126.335938 C 315.328125 125.839844 314.539062 126.121094 313.738281 126.128906 C 311.800781 126.128906 309.875 125.785156 307.605469 126.226562 C 308.753906 125.441406 309.972656 124.789062 311.265625 124.277344 C 311.5625 124.222656 311.742188 124.40625 311.9375 124.585938 C 312.828125 125.363281 312.941406 125.429688 313.535156 124.652344 C 314.652344 123.203125 316.121094 123.257812 317.398438 123.949219 C 318.453125 124.480469 319.570312 124.800781 320.746094 124.90625 C 323.421875 125.257812 326.101562 125.53125 328.777344 125.832031 Z M 328.816406 126.109375 " fill-opacity="1" fill-rule="nonzero"/><path fill="#000000" d="M 280.675781 119.972656 C 281.558594 119.167969 282.46875 119.300781 283.355469 119.261719 C 286.867188 119.152344 290.394531 119.488281 293.898438 118.851562 C 294.257812 118.832031 294.605469 118.894531 294.933594 119.046875 C 295.105469 119.136719 295.203125 119.277344 295.230469 119.46875 C 295.230469 119.609375 295.101562 119.777344 295 119.910156 C 294.933594 119.972656 294.855469 120.015625 294.765625 120.039062 C 294.097656 120.28125 289.175781 120.882812 288.429688 120.710938 C 286.46875 120.363281 284.492188 120.195312 282.503906 120.199219 C 281.890625 120.160156 281.28125 120.085938 280.675781 119.972656 Z M 280.675781 119.972656 " fill-opacity="1" fill-rule="nonzero"/><path fill="#000000" d="M 212.46875 125.578125 C 209.792969 125.820312 207.226562 126.101562 204.636719 126.25 C 203.1875 126.316406 201.757812 126.519531 200.347656 126.859375 C 199.816406 126.960938 199.285156 126.984375 198.746094 126.933594 C 198.320312 126.933594 198.078125 126.261719 198.265625 125.859375 C 198.386719 125.550781 198.585938 125.308594 198.867188 125.132812 C 199.144531 124.953125 199.449219 124.875 199.777344 124.894531 C 203.558594 125.402344 207.355469 125.089844 211.15625 125.1875 C 211.53125 125.222656 212.046875 125.082031 212.46875 125.578125 Z M 212.46875 125.578125 " fill-opacity="1" fill-rule="nonzero"/><path fill="#000000" d="M 263.820312 119.972656 C 263.695312 120.070312 263.5625 120.261719 263.433594 120.261719 C 261.003906 120.246094 258.617188 120.542969 256.265625 121.152344 C 254.84375 121.519531 253.421875 121.519531 252 121.152344 C 251.839844 121.105469 251.714844 120.742188 251.667969 120.480469 C 251.667969 120.367188 251.820312 120.167969 251.960938 120.078125 C 252.542969 119.804688 253.148438 119.699219 253.789062 119.765625 C 257.023438 119.71875 260.253906 119.691406 263.480469 119.675781 C 263.59375 119.675781 263.742188 119.859375 263.820312 119.972656 Z M 263.820312 119.972656 " fill-opacity="1" fill-rule="nonzero"/><path fill="#000000" d="M 311.460938 192.761719 C 311.714844 193.269531 312.082031 193.726562 312.691406 193.613281 C 313.21875 193.484375 313.746094 193.472656 314.273438 193.585938 C 314.804688 193.699219 315.28125 193.917969 315.710938 194.25 C 316.152344 194.566406 316.882812 194.484375 317.972656 194.664062 C 317 195.011719 316.007812 195.070312 315 194.839844 C 313.933594 194.660156 312.867188 194.660156 311.800781 194.839844 C 310.730469 194.945312 309.65625 194.96875 308.582031 194.898438 C 308.296875 194.894531 308.074219 194.777344 307.914062 194.542969 C 307.730469 194.015625 308.214844 193.960938 308.542969 193.941406 C 309.085938 193.964844 309.613281 193.875 310.121094 193.675781 C 310.628906 193.476562 311.074219 193.183594 311.460938 192.792969 Z M 311.460938 192.761719 " fill-opacity="1" fill-rule="nonzero"/><path fill="#000000" d="M 332.015625 168.195312 L 330.90625 168.195312 C 329.648438 168.195312 328.898438 167.902344 329.105469 167.578125 C 329.546875 166.910156 330.328125 166.910156 331.007812 166.847656 C 331.820312 166.785156 332.597656 166.9375 333.328125 167.304688 C 333.480469 167.394531 333.5625 167.523438 333.578125 167.699219 C 333.578125 167.832031 333.402344 168.054688 333.28125 168.070312 C 332.6875 168.15625 332.070312 168.195312 332.015625 168.195312 Z M 332.015625 168.195312 " fill-opacity="1" fill-rule="nonzero"/><path fill="#000000" d="M 339.378906 134.484375 C 339.863281 134.472656 340.339844 134.5 340.820312 134.5625 C 341.253906 134.636719 342.050781 134.234375 342.003906 135.035156 C 342.003906 135.402344 341.21875 135.179688 340.792969 135.128906 C 339.1875 134.964844 337.589844 135.007812 336 135.261719 C 335.90625 135.285156 335.820312 135.273438 335.738281 135.226562 C 335.65625 135.179688 335.601562 135.109375 335.574219 135.015625 C 335.550781 134.925781 335.5625 134.835938 335.609375 134.753906 C 335.65625 134.671875 335.726562 134.617188 335.820312 134.589844 C 336.316406 134.414062 336.832031 134.300781 337.359375 134.253906 C 338.039062 134.285156 338.710938 134.363281 339.378906 134.484375 Z M 339.378906 134.484375 " fill-opacity="1" fill-rule="nonzero"/><g clip-path="url(#f16fcbb376)"><path fill="#000000" d="M 352.425781 164.902344 C 350.679688 165.023438 348.9375 165.023438 347.191406 164.902344 C 346.964844 164.902344 346.5625 164.734375 346.523438 164.589844 C 346.429688 164.042969 346.890625 164.132812 347.191406 164.152344 C 348.882812 164.234375 350.617188 163.667969 352.425781 164.902344 Z M 352.425781 164.902344 " fill-opacity="1" fill-rule="nonzero"/></g><path fill="#000000" d="M 138.148438 128.429688 C 140.390625 127.261719 140.933594 127.207031 144.347656 127.757812 Z M 138.148438 128.429688 " fill-opacity="1" fill-rule="nonzero"/><path fill="#000000" d="M 339.378906 142.449219 C 339.152344 142.308594 338.929688 142.25 338.890625 142.128906 C 338.882812 141.949219 338.957031 141.808594 339.113281 141.714844 C 339.835938 141.335938 340.605469 141.160156 341.421875 141.175781 C 341.597656 141.207031 341.730469 141.304688 341.808594 141.464844 C 341.832031 141.644531 341.769531 141.789062 341.628906 141.902344 C 340.832031 142.101562 340.050781 142.28125 339.378906 142.449219 Z M 339.378906 142.449219 " fill-opacity="1" fill-rule="nonzero"/><path fill="#000000" d="M 114.046875 129.5625 C 116.054688 128.890625 117.019531 128.832031 118.773438 129.285156 C 117.058594 129.78125 115.59375 130.351562 114.027344 129.519531 Z M 114.046875 129.5625 " fill-opacity="1" fill-rule="nonzero"/><path fill="#000000" d="M 72.464844 217.769531 C 72.082031 217.667969 71.648438 217.582031 71.234375 217.433594 C 71.125 217.394531 71.078125 217.144531 71.039062 216.988281 C 71 216.835938 71.132812 216.816406 71.207031 216.789062 C 72.011719 216.585938 72.78125 216.675781 73.515625 217.0625 C 73.578125 217.0625 73.644531 217.238281 73.617188 217.277344 C 73.589844 217.320312 73.441406 217.601562 73.316406 217.640625 C 73.035156 217.710938 72.753906 217.753906 72.464844 217.769531 Z M 72.464844 217.769531 " fill-opacity="1" fill-rule="nonzero"/><path fill="#000000" d="M 284.640625 210.277344 C 284.980469 210.363281 285.316406 210.46875 285.644531 210.59375 C 285.792969 210.699219 285.863281 210.84375 285.859375 211.027344 C 285.832031 211.207031 285.742188 211.339844 285.582031 211.425781 C 285.308594 211.578125 285.015625 211.640625 284.703125 211.613281 C 284.386719 211.589844 284.109375 211.480469 283.863281 211.285156 C 283.65625 211.105469 283.546875 210.882812 283.535156 210.613281 C 283.535156 210.324219 283.875 210.285156 284.128906 210.257812 C 284.21875 210.269531 284.3125 210.277344 284.640625 210.277344 Z M 284.640625 210.277344 " fill-opacity="1" fill-rule="nonzero"/><path fill="#000000" d="M 329.164062 182.585938 C 328.933594 182.5625 328.710938 182.5 328.496094 182.40625 C 328.265625 182.285156 328.101562 182.101562 328.007812 181.855469 C 327.933594 181.542969 328.234375 181.414062 328.503906 181.375 C 328.765625 181.34375 329.027344 181.34375 329.292969 181.375 C 329.714844 181.421875 330.183594 181.375 330.417969 181.875 C 330.597656 182.179688 329.941406 182.59375 329.164062 182.585938 Z M 329.164062 182.585938 " fill-opacity="1" fill-rule="nonzero"/><path fill="#000000" d="M 244.800781 213.617188 L 249.34375 213.617188 C 248.675781 214.289062 247.890625 213.859375 247.207031 213.933594 C 246.421875 213.980469 245.632812 213.980469 244.847656 213.933594 Z M 244.800781 213.617188 " fill-opacity="1" fill-rule="nonzero"/><path fill="#000000" d="M 65.234375 217.480469 C 66.386719 217.34375 67.53125 217.203125 68.675781 217.089844 C 68.816406 217.089844 68.976562 217.238281 69.125 217.324219 C 69.03125 217.453125 68.929688 217.695312 68.832031 217.695312 C 67.671875 217.695312 66.507812 217.695312 65.351562 217.695312 Z M 65.234375 217.480469 " fill-opacity="1" fill-rule="nonzero"/><path fill="#000000" d="M 318.039062 189.714844 C 319.667969 189.246094 321.179688 189.714844 323.101562 189.394531 C 321.386719 190.191406 320.636719 190.21875 318.039062 189.714844 Z M 318.039062 189.714844 " fill-opacity="1" fill-rule="nonzero"/><path fill="#000000" d="M 295.027344 198.023438 C 296.371094 197.6875 297.734375 197.597656 299.109375 197.761719 C 297.773438 198.46875 297.773438 198.46875 295.027344 198.023438 Z M 295.027344 198.023438 " fill-opacity="1" fill-rule="nonzero"/><g clip-path="url(#6f7b977318)"><path fill="#000000" d="M 145.265625 223.550781 C 144.476562 223.996094 143.632812 224.21875 142.726562 224.21875 C 142.582031 224.21875 142.433594 224.09375 142.285156 224.023438 C 142.398438 223.910156 142.5 223.75 142.640625 223.691406 C 143.5 223.339844 144.375 223.292969 145.265625 223.550781 Z M 145.265625 223.550781 " fill-opacity="1" fill-rule="nonzero"/></g><path fill="#000000" d="M 271.359375 119.816406 C 271.359375 119.898438 271.359375 120.003906 271.300781 120.050781 C 271.0625 120.1875 270.808594 120.25 270.539062 120.230469 C 270.265625 120.210938 270.023438 120.117188 269.804688 119.953125 C 269.753906 119.90625 269.71875 119.742188 269.753906 119.710938 C 269.785156 119.675781 270.015625 119.433594 270.160156 119.421875 C 270.785156 119.347656 271.253906 119.523438 271.359375 119.816406 Z M 271.359375 119.816406 " fill-opacity="1" fill-rule="nonzero"/><path fill="#000000" d="M 345.210938 133.128906 C 343.71875 133.34375 342.832031 133.417969 341.992188 132.96875 C 341.914062 132.914062 341.871094 132.839844 341.863281 132.746094 C 341.863281 132.679688 341.976562 132.558594 342.023438 132.574219 C 342.894531 132.714844 343.765625 132.875 345.210938 133.128906 Z M 345.210938 133.128906 " fill-opacity="1" fill-rule="nonzero"/><path fill="#000000" d="M 199.355469 223.675781 L 196.277344 223.675781 C 197.304688 223.257812 198.328125 223.257812 199.355469 223.675781 Z M 199.355469 223.675781 " fill-opacity="1" fill-rule="nonzero"/><path fill="#000000" d="M 292.472656 210.585938 C 292.277344 210.585938 292.003906 210.546875 291.988281 210.25 C 291.976562 209.957031 292.238281 209.855469 292.492188 209.875 C 292.65625 209.886719 292.789062 209.960938 292.894531 210.089844 C 293.007812 210.382812 292.8125 210.503906 292.472656 210.585938 Z M 292.472656 210.585938 " fill-opacity="1" fill-rule="nonzero"/><path fill="#000000" d="M 190.398438 216.84375 C 190.710938 216.945312 191.015625 217.066406 191.308594 217.210938 C 191.40625 217.332031 191.429688 217.46875 191.378906 217.613281 C 191.136719 217.726562 190.886719 217.746094 190.628906 217.671875 C 190.375 217.59375 190.175781 217.441406 190.039062 217.210938 C 190.03125 217.136719 190.238281 217.011719 190.398438 216.84375 Z M 190.398438 216.84375 " fill-opacity="1" fill-rule="nonzero"/><path fill="#000000" d="M 69.492188 137.167969 L 66.910156 137.308594 C 66.871094 136.957031 66.964844 136.832031 67.175781 136.785156 C 68.003906 136.585938 68.765625 136.722656 69.472656 137.191406 Z M 69.492188 137.167969 " fill-opacity="1" fill-rule="nonzero"/><path fill="#000000" d="M 311.789062 198.085938 C 312.648438 197.65625 313.523438 197.617188 314.414062 197.976562 C 313.546875 198.265625 312.671875 198.300781 311.789062 198.085938 Z M 311.789062 198.085938 " fill-opacity="1" fill-rule="nonzero"/><path fill="#000000" d="M 316.863281 202.054688 C 316.664062 202.039062 316.476562 201.996094 316.292969 201.921875 C 316.179688 201.839844 316.152344 201.652344 316.085938 201.511719 C 316.292969 201.382812 316.515625 201.296875 316.753906 201.257812 C 317.136719 201.214844 317.417969 201.359375 317.605469 201.695312 C 317.617188 201.777344 317.589844 201.84375 317.523438 201.894531 C 317.289062 201.96875 317.03125 202.015625 316.863281 202.054688 Z M 316.863281 202.054688 " fill-opacity="1" fill-rule="nonzero"/><path fill="#000000" d="M 342.996094 172.621094 C 341.9375 173.292969 341.40625 173.125 340.886719 172.722656 Z M 342.996094 172.621094 " fill-opacity="1" fill-rule="nonzero"/><path fill="#000000" d="M 349.351562 151.980469 C 349.257812 152.101562 349.179688 152.296875 349.058594 152.324219 C 348.683594 152.402344 348.390625 152.273438 348.335938 151.839844 C 348.359375 151.667969 348.449219 151.546875 348.605469 151.46875 C 349 151.390625 349.234375 151.625 349.351562 151.980469 Z M 349.351562 151.980469 " fill-opacity="1" fill-rule="nonzero"/><path fill="#000000" d="M 171.015625 219.359375 C 171.476562 218.820312 171.917969 219.035156 172.3125 219.027344 C 172.460938 219.027344 172.609375 219.148438 172.761719 219.210938 C 172.636719 219.285156 172.507812 219.417969 172.375 219.417969 C 171.964844 219.425781 171.550781 219.382812 171.015625 219.359375 Z M 171.015625 219.359375 " fill-opacity="1" fill-rule="nonzero"/><path fill="#000000" d="M 346.113281 139.96875 C 346.003906 140.113281 345.859375 140.195312 345.675781 140.210938 C 345.496094 140.230469 345.339844 140.179688 345.203125 140.058594 C 345.097656 139.984375 344.96875 139.707031 345.007812 139.660156 C 345.132812 139.53125 345.28125 139.453125 345.460938 139.429688 C 345.636719 139.410156 345.800781 139.445312 345.953125 139.539062 C 346.042969 139.566406 346.105469 139.625 346.140625 139.714844 C 346.171875 139.804688 346.164062 139.890625 346.113281 139.96875 Z M 346.113281 139.96875 " fill-opacity="1" fill-rule="nonzero"/><path fill="#000000" d="M 265.996094 119.691406 C 266.113281 119.597656 266.210938 119.429688 266.332031 119.414062 C 266.578125 119.414062 266.839844 119.46875 266.839844 119.769531 C 266.839844 119.871094 266.652344 120.039062 266.53125 120.058594 C 266.40625 120.085938 266.292969 120.066406 266.183594 119.992188 C 266.078125 119.917969 266.015625 119.816406 265.996094 119.691406 Z M 265.996094 119.691406 " fill-opacity="1" fill-rule="nonzero"/><path fill="#000000" d="M 309.453125 200.117188 C 308.902344 200.421875 308.332031 200.460938 307.746094 200.230469 C 308 200.0625 308.28125 199.96875 308.585938 199.949219 C 308.886719 199.929688 309.179688 199.984375 309.453125 200.117188 Z M 309.453125 200.117188 " fill-opacity="1" fill-rule="nonzero"/><path fill="#000000" d="M 299.605469 209.980469 C 299.851562 209.828125 300.117188 209.742188 300.402344 209.730469 C 300.691406 209.71875 300.964844 209.78125 301.21875 209.914062 C 300.628906 210.34375 300.09375 210.027344 299.605469 209.980469 Z M 299.605469 209.980469 " fill-opacity="1" fill-rule="nonzero"/><path fill="#000000" d="M 345.691406 141.738281 C 345.640625 141.875 345.546875 141.964844 345.414062 142.015625 C 345.277344 142.0625 345.148438 142.050781 345.023438 141.980469 C 344.902344 141.933594 344.746094 141.699219 344.773438 141.597656 C 344.792969 141.53125 344.820312 141.472656 344.867188 141.421875 C 344.910156 141.371094 344.964844 141.332031 345.027344 141.308594 C 345.089844 141.28125 345.15625 141.273438 345.222656 141.28125 C 345.292969 141.285156 345.351562 141.308594 345.410156 141.34375 C 345.542969 141.429688 345.605469 141.605469 345.691406 141.738281 Z M 345.691406 141.738281 " fill-opacity="1" fill-rule="nonzero"/><path fill="#000000" d="M 174.421875 129.246094 C 174.355469 129.386719 174.335938 129.601562 174.226562 129.65625 C 173.972656 129.789062 173.734375 129.703125 173.734375 129.378906 C 173.777344 129.214844 173.878906 129.105469 174.039062 129.046875 C 174.140625 129.019531 174.296875 129.171875 174.421875 129.246094 Z M 174.421875 129.246094 " fill-opacity="1" fill-rule="nonzero"/><path fill="#000000" d="M 344.734375 144.851562 C 344.949219 144.90625 345.261719 144.945312 345.261719 144.992188 C 345.261719 145.414062 344.929688 145.246094 344.722656 145.261719 C 344.515625 145.273438 344.234375 145.195312 344.234375 145.148438 C 344.191406 144.730469 344.574219 144.992188 344.734375 144.851562 Z M 344.734375 144.851562 " fill-opacity="1" fill-rule="nonzero"/><path fill="#000000" d="M 344.820312 148.398438 L 345.238281 148.574219 C 345.144531 148.695312 345.042969 148.808594 344.929688 148.910156 C 344.929688 148.910156 344.769531 148.863281 344.722656 148.800781 C 344.585938 148.632812 344.628906 148.492188 344.820312 148.398438 Z M 344.820312 148.398438 " fill-opacity="1" fill-rule="nonzero"/><path fill="#000000" d="M 312.472656 200.082031 C 312.738281 200.035156 313.003906 200.003906 313.273438 199.988281 C 313.421875 200.023438 313.554688 200.082031 313.683594 200.164062 C 313.441406 200.226562 313.199219 200.269531 312.953125 200.292969 C 312.820312 200.292969 312.6875 200.179688 312.472656 200.082031 Z M 312.472656 200.082031 " fill-opacity="1" fill-rule="nonzero"/><path fill="#000000" d="M 238.59375 212.859375 C 238.4375 212.90625 238.277344 212.925781 238.113281 212.917969 C 237.871094 212.871094 237.832031 212.71875 238 212.578125 C 238.082031 212.53125 238.164062 212.53125 238.246094 212.578125 C 238.371094 212.660156 238.488281 212.753906 238.59375 212.859375 Z M 238.59375 212.859375 " fill-opacity="1" fill-rule="nonzero"/><path fill="#000000" d="M 185.835938 128.46875 C 185.332031 128.738281 184.851562 129.140625 184.1875 128.742188 C 184.722656 128.3125 185.320312 128.570312 185.863281 128.496094 Z M 185.835938 128.46875 " fill-opacity="1" fill-rule="nonzero"/><path fill="#000000" d="M 339.679688 181.855469 C 339.734375 182.050781 339.679688 182.207031 339.460938 182.183594 C 339.238281 182.164062 339.238281 182.015625 339.152344 181.902344 C 339.066406 181.789062 339.234375 181.714844 339.257812 181.722656 C 339.402344 181.757812 339.542969 181.800781 339.679688 181.855469 Z M 339.679688 181.855469 " fill-opacity="1" fill-rule="nonzero"/><path fill="#000000" d="M 337.105469 132.109375 C 336.945312 132.148438 336.78125 132.167969 336.617188 132.164062 C 336.347656 132.117188 336.328125 131.976562 336.570312 131.894531 C 336.734375 131.863281 336.902344 131.863281 337.070312 131.894531 C 337.070312 131.894531 337.089844 132.042969 337.105469 132.109375 Z M 337.105469 132.109375 " fill-opacity="1" fill-rule="nonzero"/><path fill="#000000" d="M 62.566406 217.5 C 62.566406 217.566406 62.566406 217.675781 62.566406 217.695312 C 62.492188 217.746094 62.410156 217.761719 62.324219 217.742188 C 62.078125 217.648438 62.082031 217.535156 62.324219 217.460938 C 62.390625 217.441406 62.484375 217.488281 62.566406 217.5 Z M 62.566406 217.5 " fill-opacity="1" fill-rule="nonzero"/><path fill="#000000" d="M 315.523438 192.605469 C 315.375 192.605469 315.230469 192.640625 315.074219 192.640625 C 315.074219 192.640625 315.074219 192.511719 315.042969 192.4375 L 315.492188 192.398438 C 315.492188 192.398438 315.511719 192.53125 315.523438 192.605469 Z M 315.523438 192.605469 " fill-opacity="1" fill-rule="nonzero"/><path fill="#000000" d="M 227.226562 123.484375 C 227.140625 123.484375 227 123.484375 226.980469 123.417969 C 226.898438 123.210938 227.015625 123.109375 227.261719 123.171875 C 227.335938 123.171875 227.382812 123.277344 227.441406 123.339844 Z M 227.226562 123.484375 " fill-opacity="1" fill-rule="nonzero"/><path fill="#000000" d="M 332.269531 181.945312 L 332.082031 182.015625 C 332.082031 181.949219 332.003906 181.851562 332.023438 181.835938 C 332.175781 181.667969 332.269531 181.734375 332.269531 181.945312 Z M 332.269531 181.945312 " fill-opacity="1" fill-rule="nonzero"/><path fill="#000000" d="M 342.996094 176.90625 C 342.949219 176.988281 342.882812 177.035156 342.792969 177.042969 C 342.703125 177.054688 342.625 177.023438 342.566406 176.953125 C 342.511719 176.902344 342.511719 176.800781 342.492188 176.71875 C 342.640625 176.71875 342.785156 176.679688 342.933594 176.679688 C 342.953125 176.679688 342.972656 176.828125 342.996094 176.90625 Z M 342.996094 176.90625 " fill-opacity="1" fill-rule="nonzero"/><path fill="#000000" d="M 134.816406 128.074219 L 134.996094 128.199219 C 134.9375 128.246094 134.882812 128.320312 134.816406 128.335938 C 134.589844 128.382812 134.496094 128.292969 134.589844 128.121094 C 134.617188 128.074219 134.734375 128.085938 134.816406 128.074219 Z M 134.816406 128.074219 " fill-opacity="1" fill-rule="nonzero"/><path fill="#000000" d="M 297.578125 119.480469 C 297.519531 119.535156 297.464844 119.609375 297.398438 119.621094 C 297.332031 119.636719 297.191406 119.621094 297.164062 119.582031 C 297.0625 119.402344 297.164062 119.300781 297.390625 119.347656 C 297.457031 119.359375 297.519531 119.433594 297.578125 119.480469 Z M 297.578125 119.480469 " fill-opacity="1" fill-rule="nonzero"/><path fill="#000000" d="M 345.519531 135.085938 L 345.257812 134.804688 C 345.308594 134.75 345.371094 134.707031 345.445312 134.679688 C 345.632812 134.679688 345.730469 134.765625 345.691406 134.953125 C 345.679688 135.007812 345.578125 135.039062 345.519531 135.085938 Z M 345.519531 135.085938 " fill-opacity="1" fill-rule="nonzero"/><path fill="#000000" d="M 288.167969 210.847656 C 288.199219 210.773438 288.214844 210.660156 288.273438 210.625 C 288.496094 210.492188 288.617188 210.574219 288.574219 210.8125 C 288.574219 210.875 288.453125 210.953125 288.382812 210.960938 C 288.308594 210.96875 288.234375 210.886719 288.167969 210.847656 Z M 288.167969 210.847656 " fill-opacity="1" fill-rule="nonzero"/><g clip-path="url(#2267069dd2)"><path fill="#000000" d="M 307.851562 114.011719 L 308.054688 113.949219 L 308.027344 114.109375 Z M 307.851562 114.011719 " fill-opacity="1" fill-rule="nonzero"/></g><path fill="#000000" d="M 249.222656 119.957031 L 249.316406 120.105469 L 249.125 120.097656 Z M 249.222656 119.957031 " fill-opacity="1" fill-rule="nonzero"/><path fill="#000000" d="M 246.574219 121.042969 L 246.519531 121.21875 L 246.378906 121.105469 Z M 246.574219 121.042969 " fill-opacity="1" fill-rule="nonzero"/><path fill="#000000" d="M 302.589844 122.136719 L 302.542969 122.304688 L 302.402344 122.191406 Z M 302.589844 122.136719 " fill-opacity="1" fill-rule="nonzero"/><path fill="#000000" d="M 295.308594 123.023438 L 295.308594 123.21875 L 295.140625 123.136719 Z M 295.308594 123.023438 " fill-opacity="1" fill-rule="nonzero"/><path fill="#000000" d="M 280.910156 212.570312 C 280.910156 212.644531 280.910156 212.75 280.910156 212.773438 C 280.910156 212.792969 280.769531 212.773438 280.695312 212.773438 C 280.625 212.773438 280.695312 212.585938 280.695312 212.570312 C 280.695312 212.558594 280.835938 212.570312 280.910156 212.570312 Z M 280.910156 212.570312 " fill-opacity="1" fill-rule="nonzero"/><path fill="#000000" d="M 268.367188 208.894531 L 268.171875 208.957031 L 268.191406 208.789062 Z M 268.367188 208.894531 " fill-opacity="1" fill-rule="nonzero"/><path fill="#000000" d="M 328.625 193.6875 L 328.542969 193.558594 L 328.710938 193.566406 Z M 328.625 193.6875 " fill-opacity="1" fill-rule="nonzero"/><path fill="#000000" d="M 171.757812 130.085938 L 171.914062 130.210938 L 171.730469 130.285156 Z M 171.757812 130.085938 " fill-opacity="1" fill-rule="nonzero"/><path fill="#000000" d="M 340.539062 176.613281 L 340.746094 176.679688 L 340.578125 176.792969 Z M 340.539062 176.613281 " fill-opacity="1" fill-rule="nonzero"/><path fill="#000000" d="M 316.960938 130.085938 C 316.796875 130.085938 316.628906 130.085938 316.460938 130.085938 C 316.292969 130.085938 316.140625 129.949219 316.285156 129.808594 C 316.320312 129.777344 316.453125 129.808594 316.519531 129.808594 C 316.667969 129.898438 316.808594 129.992188 316.941406 130.097656 Z M 316.960938 130.085938 " fill-opacity="1" fill-rule="nonzero"/><path fill="#000000" d="M 350.925781 140.277344 L 350.839844 140.152344 L 351.011719 140.15625 Z M 350.925781 140.277344 " fill-opacity="1" fill-rule="nonzero"/><path fill="#000000" d="M 342.292969 143.945312 L 342.246094 144.09375 L 342.109375 143.992188 Z M 342.292969 143.945312 " fill-opacity="1" fill-rule="nonzero"/><path fill="#000000" d="M 345.382812 144.019531 L 345.566406 143.964844 L 345.539062 144.113281 Z M 345.382812 144.019531 " fill-opacity="1" fill-rule="nonzero"/><path fill="#000000" d="M 311.488281 192.789062 L 311.796875 192.632812 C 311.757812 192.675781 311.714844 192.707031 311.660156 192.726562 C 311.597656 192.746094 311.527344 192.757812 311.460938 192.761719 Z M 311.488281 192.789062 " fill-opacity="1" fill-rule="nonzero"/><path fill="#000000" d="M 327.25 199.6875 L 327.082031 199.585938 L 327.269531 199.515625 Z M 327.25 199.6875 " fill-opacity="1" fill-rule="nonzero"/><path fill="#000000" d="M 46.074219 208.582031 L 45.757812 208.742188 C 45.800781 208.703125 45.84375 208.671875 45.890625 208.640625 C 45.960938 208.625 46.027344 208.613281 46.097656 208.609375 Z M 46.074219 208.582031 " fill-opacity="1" fill-rule="nonzero"/></svg>