<svg xmlns="http://www.w3.org/2000/svg" xmlns:xlink="http://www.w3.org/1999/xlink" width="500" zoomAndPan="magnify" viewBox="0 0 375 374.999991" height="500" preserveAspectRatio="xMidYMid meet" version="1.0"><defs><clipPath id="7e64a9f3a8"><path d="M 17.949219 142.332031 L 354.699219 142.332031 L 354.699219 239.832031 L 17.949219 239.832031 Z M 17.949219 142.332031 " clip-rule="nonzero"/></clipPath></defs><g clip-path="url(#7e64a9f3a8)"><path fill="#000000" d="M 93.011719 158.386719 C 93.1875 156.285156 93.535156 154.1875 95.636719 153.488281 C 97.210938 152.960938 98.785156 152.960938 100.359375 152.789062 C 104.035156 152.261719 107.707031 151.738281 111.382812 151.386719 C 118.03125 150.6875 124.503906 150.164062 131.152344 149.464844 C 133.601562 149.289062 136.050781 148.761719 138.5 148.589844 C 142 148.414062 145.5 148.414062 149.175781 148.238281 C 149.875 148.238281 150.574219 148.238281 151.273438 148.0625 C 154.773438 147.714844 158.097656 147.011719 161.597656 146.839844 C 164.046875 146.664062 166.320312 147.011719 168.769531 146.839844 C 170.519531 146.839844 172.445312 146.3125 174.195312 146.140625 C 176.46875 145.964844 178.742188 145.613281 181.195312 145.4375 C 187.667969 144.914062 194.140625 144.5625 200.613281 144.214844 C 203.765625 144.039062 206.914062 143.863281 210.238281 143.863281 C 214.085938 143.863281 217.9375 144.039062 221.785156 143.863281 C 225.109375 143.6875 228.433594 143.339844 231.933594 143.164062 C 232.632812 143.164062 233.507812 143.515625 234.382812 143.515625 C 237.007812 143.6875 239.457031 142.988281 242.082031 143.6875 C 243.304688 144.039062 244.882812 143.164062 246.28125 142.988281 C 247.332031 142.988281 248.207031 143.164062 249.605469 143.515625 C 251.703125 142.640625 254.503906 142.988281 257.304688 143.339844 C 257.480469 143.339844 257.828125 143.6875 258.003906 143.6875 C 260.804688 142.8125 263.601562 143.339844 266.578125 143.339844 C 272.699219 143.515625 278.648438 143.515625 284.773438 143.6875 C 288.273438 143.863281 291.773438 144.390625 295.269531 144.390625 C 299.996094 144.5625 304.894531 144.214844 309.617188 144.390625 C 310.667969 144.390625 311.894531 144.738281 312.941406 145.089844 C 312.941406 145.265625 312.941406 145.4375 312.769531 145.613281 C 312.417969 145.613281 312.066406 145.613281 311.542969 145.613281 C 311.71875 145.964844 311.894531 146.140625 312.066406 146.3125 C 312.242188 146.3125 312.59375 146.3125 312.769531 146.3125 C 316.617188 144.390625 320.464844 146.488281 324.492188 146.3125 C 326.238281 146.140625 328.339844 147.539062 330.089844 148.414062 C 330.4375 148.589844 330.613281 150.511719 330.4375 150.6875 C 328.863281 151.386719 330.265625 152.613281 329.738281 153.3125 C 330.613281 153.488281 331.488281 153.488281 332.363281 153.664062 C 336.386719 154.535156 340.761719 153.488281 344.785156 155.410156 C 346.535156 156.285156 346.710938 157.511719 346.1875 159.261719 C 346.011719 159.785156 345.660156 160.484375 345.835938 161.011719 C 346.1875 162.933594 345.3125 164.683594 343.386719 164.859375 C 341.988281 165.035156 340.585938 164.683594 339.1875 164.683594 C 338.3125 164.683594 337.613281 164.859375 336.738281 164.859375 C 336.738281 165.035156 336.738281 165.210938 336.738281 165.386719 C 340.0625 166.261719 343.210938 167.132812 346.535156 167.660156 C 348.285156 168.007812 350.035156 167.835938 351.785156 168.183594 C 352.308594 168.359375 352.660156 169.234375 353.183594 169.757812 C 351.960938 170.457031 353.183594 170.984375 353.359375 171.507812 C 353.710938 173.082031 354.933594 175.007812 354.585938 176.40625 C 354.058594 178.332031 352.835938 180.433594 351.261719 181.480469 C 348.8125 183.230469 346.011719 184.28125 343.5625 185.332031 C 343.738281 185.332031 344.4375 185.507812 345.136719 185.679688 C 347.234375 185.855469 348.636719 187.082031 348.460938 189.003906 C 348.460938 190.230469 346.535156 191.105469 344.785156 191.28125 C 344.085938 191.28125 343.386719 191.628906 342.6875 191.980469 C 345.136719 194.429688 344.960938 196.355469 342.511719 198.105469 C 342.160156 198.277344 341.636719 198.277344 341.289062 198.453125 C 340.414062 198.453125 339.710938 198.453125 338.835938 198.453125 C 336.914062 198.453125 334.8125 198.453125 332.890625 198.453125 C 332.714844 198.453125 332.539062 198.976562 332.363281 199.328125 C 336.214844 199.679688 339.886719 199.851562 343.5625 200.378906 C 344.613281 200.554688 345.488281 201.953125 346.011719 203.003906 C 346.1875 203.527344 345.660156 204.753906 344.960938 205.277344 C 343.738281 206.328125 342.335938 207.203125 340.414062 206.851562 C 339.539062 206.675781 338.664062 207.375 337.789062 207.375 C 336.914062 207.550781 336.039062 207.375 334.8125 207.550781 C 336.039062 207.902344 336.738281 208.25 337.613281 208.425781 C 338.664062 208.777344 339.539062 208.953125 340.585938 209.125 C 340.9375 209.125 341.113281 209.300781 341.460938 209.125 C 343.5625 208.25 345.136719 209.125 346.535156 210.699219 C 346.710938 210.875 347.0625 211.050781 347.585938 211.402344 C 346.886719 211.75 346.359375 211.925781 345.488281 212.449219 C 346.1875 212.976562 346.886719 213.152344 347.585938 213.675781 C 343.910156 216.300781 339.886719 216.476562 335.511719 215.949219 C 336.5625 217.351562 337.4375 218.574219 338.488281 219.800781 C 338.3125 219.972656 338.136719 220.148438 337.960938 220.324219 C 337.613281 219.972656 337.261719 219.800781 336.5625 219.097656 C 336.914062 219.972656 337.089844 220.5 337.261719 220.847656 C 336.039062 221.199219 334.636719 221.550781 333.0625 221.898438 C 332.539062 221.722656 331.664062 221.375 330.964844 221.550781 C 327.464844 221.898438 324.140625 222.597656 320.640625 222.949219 C 316.792969 223.296875 312.941406 223.125 309.269531 223.125 C 308.394531 223.125 307.519531 223.472656 306.644531 223.648438 C 307.167969 226.273438 305.769531 227.324219 302.96875 227.148438 C 300.695312 226.972656 298.246094 227.324219 295.796875 227.148438 C 293.871094 227.148438 291.945312 226.621094 290.195312 226.449219 C 288.449219 226.273438 286.699219 226.796875 284.949219 226.449219 C 283.199219 226.097656 281.273438 226.972656 279.699219 225.75 C 279.523438 225.574219 279 225.75 278.648438 225.921875 C 275.324219 226.449219 272.175781 227.148438 268.675781 226.621094 C 267.453125 226.449219 265.875 226.449219 264.476562 226.449219 C 262.550781 226.449219 260.804688 226.273438 258.878906 226.273438 C 258.003906 226.273438 256.953125 226.273438 256.078125 226.273438 C 252.929688 226.449219 249.953125 226.796875 246.804688 226.449219 C 244.53125 226.273438 242.429688 226.449219 240.332031 226.449219 C 238.058594 226.449219 235.78125 226.273438 233.332031 226.273438 C 231.757812 226.273438 230.183594 226.796875 228.785156 226.449219 C 225.460938 225.921875 222.308594 227.324219 218.984375 226.449219 C 216.363281 225.75 213.386719 226.621094 210.585938 226.621094 C 208.3125 226.621094 206.039062 227.324219 203.589844 226.796875 C 201.664062 226.449219 198.863281 226.273438 196.765625 227.496094 C 196.414062 227.671875 195.539062 227.324219 194.839844 227.324219 C 193.441406 227.324219 191.867188 227.496094 190.464844 227.496094 C 188.191406 227.496094 186.09375 227.324219 183.816406 227.496094 C 183.117188 227.496094 182.59375 228.199219 181.894531 228.199219 C 180.492188 228.371094 178.917969 228.371094 177.519531 228.371094 C 174.019531 228.546875 170.34375 228.199219 167.019531 228.722656 C 164.746094 229.246094 162.296875 228.023438 160.199219 229.773438 C 160.023438 229.949219 159.847656 229.773438 159.496094 229.773438 C 153.546875 229.597656 147.773438 230.648438 141.824219 230.996094 C 140.601562 230.996094 139.203125 231.871094 137.976562 231.523438 C 134.300781 230.648438 130.804688 233.621094 126.953125 232.398438 C 126.078125 232.046875 125.03125 232.921875 123.980469 232.921875 C 121.53125 233.097656 118.90625 232.921875 116.28125 232.746094 C 116.632812 232.746094 116.980469 232.921875 117.15625 232.921875 C 117.15625 233.097656 117.15625 233.273438 117.15625 233.445312 C 116.457031 233.445312 115.582031 233.445312 114.882812 233.445312 C 113.480469 233.445312 111.90625 233.621094 110.507812 233.621094 C 106.65625 233.796875 102.808594 233.972656 99.132812 234.320312 C 97.910156 234.496094 96.683594 235.019531 95.460938 235.371094 C 94.585938 235.546875 93.886719 235.546875 93.011719 235.722656 C 91.785156 235.894531 90.734375 235.894531 89.511719 236.070312 C 89.335938 236.070312 88.988281 236.421875 88.988281 236.421875 C 87.0625 235.195312 85.3125 236.769531 83.386719 236.246094 C 81.8125 235.894531 80.238281 236.421875 78.664062 236.597656 C 76.214844 236.945312 73.765625 237.296875 71.316406 237.644531 C 69.039062 237.996094 66.765625 238.347656 64.492188 238.519531 C 63.089844 238.695312 61.867188 238.347656 60.46875 238.347656 C 59.59375 238.347656 58.542969 239.046875 57.667969 238.871094 C 54.167969 237.996094 50.667969 239.746094 46.996094 238.871094 C 43.496094 237.996094 39.644531 237.996094 36.148438 236.597656 C 35.445312 236.246094 34.921875 235.019531 34.222656 234.320312 C 32.996094 233.273438 31.773438 232.046875 30.546875 231.171875 C 29.324219 230.121094 28.097656 229.246094 27.222656 228.546875 C 27.921875 226.796875 28.449219 225.574219 28.972656 224.171875 C 27.046875 224.171875 24.949219 225.75 23.375 223.648438 C 22.324219 222.949219 21.449219 222.597656 21.449219 222.425781 C 21.800781 221.550781 22.324219 220.5 23.023438 219.800781 C 23.199219 219.449219 23.898438 219.449219 24.597656 218.75 C 23.898438 218.398438 23.199219 218.050781 22.5 217.699219 C 20.925781 217 19.351562 216.476562 17.949219 215.949219 C 18.125 212.101562 20.925781 212.101562 23.023438 211.050781 C 24.597656 210.175781 26.523438 209.828125 28.449219 208.953125 C 26.699219 208.953125 24.949219 208.601562 23.199219 208.601562 C 21.625 208.601562 18.648438 206.851562 18.824219 205.453125 C 19 204.578125 20.050781 203.351562 20.925781 203.175781 C 23.550781 202.652344 25.824219 201.429688 27.921875 199.851562 C 28.972656 198.976562 30.898438 198.976562 32.996094 198.453125 C 31.949219 198.105469 31.597656 197.578125 31.074219 197.578125 C 28.796875 197.753906 26.875 196.527344 24.949219 195.480469 C 24.425781 195.128906 23.898438 193.730469 24.074219 193.03125 C 24.949219 191.28125 25.296875 189.179688 27.921875 188.832031 C 30.199219 188.128906 30.199219 187.605469 28.449219 186.207031 C 27.75 185.507812 28.273438 182.53125 29.148438 182.183594 C 29.496094 182.007812 29.847656 182.007812 30.722656 181.65625 C 29.148438 180.605469 28.097656 179.90625 27.398438 179.558594 C 27.398438 178.683594 27.398438 177.984375 27.222656 176.933594 C 29.148438 175.53125 31.773438 175.007812 34.570312 174.832031 C 37.722656 174.65625 40.871094 173.609375 44.019531 172.910156 C 46.292969 172.382812 48.570312 170.632812 51.195312 171.859375 C 51.542969 172.035156 52.242188 171.507812 52.59375 171.332031 C 51.367188 170.632812 50.144531 169.933594 48.917969 169.234375 C 47.167969 168.183594 47.167969 166.085938 48.917969 165.210938 C 51.019531 164.160156 53.46875 163.285156 55.917969 162.933594 C 59.242188 162.234375 62.566406 162.234375 65.890625 161.710938 C 69.390625 161.1875 72.890625 160.3125 76.390625 159.785156 C 78.488281 159.4375 80.589844 159.4375 82.863281 159.261719 C 84.789062 159.085938 86.886719 158.734375 88.8125 158.5625 C 90.035156 158.210938 91.261719 158.386719 93.011719 158.386719 Z M 316.09375 150.863281 C 316.09375 150.6875 316.09375 150.511719 316.09375 150.339844 C 313.117188 150.164062 309.96875 149.8125 306.820312 149.636719 C 305.945312 151.5625 305.945312 151.738281 307.34375 151.738281 C 310.316406 151.386719 313.292969 151.039062 316.09375 150.863281 Z M 146.375 206.328125 C 146.375 206.503906 146.375 206.851562 146.375 207.027344 C 150.75 206.503906 154.949219 205.800781 159.324219 205.277344 C 159.324219 205.101562 159.324219 204.753906 159.148438 204.578125 C 154.949219 205.277344 150.75 205.800781 146.375 206.328125 Z M 174.542969 156.988281 C 174.542969 157.160156 174.542969 157.511719 174.71875 157.6875 C 178.042969 157.335938 181.367188 156.8125 184.519531 156.460938 C 184.519531 156.285156 184.519531 156.113281 184.519531 155.761719 C 181.195312 156.8125 177.695312 155.0625 174.542969 156.988281 Z M 224.410156 168.007812 C 224.410156 168.183594 224.410156 168.535156 224.410156 168.710938 C 228.257812 168.535156 232.109375 168.183594 235.957031 168.007812 C 235.957031 167.835938 235.957031 167.660156 235.957031 167.484375 C 231.933594 166.261719 228.257812 168.710938 224.410156 168.007812 Z M 146.023438 206.851562 C 144.625 206.851562 143.226562 206.851562 141.824219 207.027344 C 140.601562 207.203125 139.375 207.375 138.152344 207.550781 C 140.777344 208.601562 143.402344 208.425781 146.023438 206.851562 Z M 146.023438 206.851562 " fill-opacity="1" fill-rule="nonzero"/></g></svg>