<svg xmlns="http://www.w3.org/2000/svg" xmlns:xlink="http://www.w3.org/1999/xlink" width="500" zoomAndPan="magnify" viewBox="0 0 375 374.999991" height="500" preserveAspectRatio="xMidYMid meet" version="1.0"><defs><clipPath id="5697349a68"><path d="M 12.808594 159.054688 L 362.1875 159.054688 L 362.1875 237.800781 L 12.808594 237.800781 Z M 12.808594 159.054688 " clip-rule="nonzero"/></clipPath></defs><g clip-path="url(#5697349a68)"><path fill="#000000" d="M 362.1875 164.214844 C 359.890625 164.691406 358.253906 165.136719 356.566406 165.359375 C 354.96875 165.570312 353.308594 165.496094 351.695312 165.648438 C 349.714844 165.832031 347.183594 166.039062 347.484375 167.914062 C 347.601562 168.664062 350.179688 169.320312 351.765625 169.773438 C 352.714844 170.042969 353.996094 169.644531 354.976562 169.890625 C 356.285156 170.214844 357.675781 170.707031 358.621094 171.421875 C 359.824219 172.328125 359.851562 173.445312 357.800781 173.863281 C 355.539062 174.328125 353.195312 174.585938 350.949219 175.089844 C 350.058594 175.292969 349.335938 175.910156 348.539062 176.339844 C 349.507812 176.785156 350.410156 177.40625 351.460938 177.628906 C 352.648438 177.878906 354.03125 177.613281 355.226562 177.851562 C 358.175781 178.429688 359.085938 180.550781 356.796875 182.082031 C 354.742188 183.453125 354.242188 184.445312 356.113281 186.101562 C 356.820312 186.722656 356.972656 187.828125 357 188.71875 C 357.078125 191.734375 356.695312 192.003906 352.640625 191.710938 C 347.960938 191.371094 343.289062 190.722656 338.976562 192.898438 C 337.71875 193.53125 336.289062 194.042969 336.847656 195.347656 C 337.722656 197.402344 336.816406 198.386719 334.023438 198.742188 C 333.332031 198.828125 332.785156 199.550781 332.175781 199.980469 C 332.808594 200.410156 333.347656 201.050781 334.09375 201.242188 C 337.511719 202.125 340.988281 202.882812 344.445312 203.683594 C 345.574219 203.945312 346.699219 204.207031 347.824219 204.46875 C 347.78125 204.6875 347.738281 204.90625 347.695312 205.121094 C 345.78125 205.039062 343.867188 204.941406 341.953125 204.875 C 340.699219 204.832031 339.339844 204.605469 338.210938 204.878906 C 336.953125 205.179688 335.515625 205.792969 334.925781 206.585938 C 334.625 206.996094 335.785156 208.265625 336.648438 208.847656 C 339.4375 210.734375 342.410156 212.472656 345.28125 214.292969 C 346.09375 214.808594 346.992188 215.34375 347.492188 216.015625 C 348.476562 217.332031 348.710938 218.621094 346.128906 219.164062 C 345.433594 219.3125 344.707031 219.449219 344.089844 219.710938 C 341.367188 220.886719 341.429688 222.332031 344.269531 223.582031 C 344.871094 223.847656 345.605469 223.941406 346.394531 224.140625 C 346.066406 224.285156 345.855469 224.402344 345.625 224.480469 C 332.171875 228.96875 317.980469 227.160156 304.015625 227.160156 C 283.707031 227.164062 263.519531 228.238281 243.402344 230.339844 C 223.691406 232.398438 203.929688 234.121094 184.070312 235.332031 C 165.28125 236.472656 146.453125 236.335938 127.675781 237.136719 C 106.488281 238.039062 85.316406 237.816406 64.140625 237.640625 C 52.382812 237.539062 40.695312 236.382812 29.097656 234.863281 C 25.609375 234.40625 22.582031 233.375 19.984375 231.527344 C 18.5625 230.515625 16.769531 229.792969 15.160156 228.925781 C 11.929688 227.179688 12.027344 224.199219 15.457031 222.671875 C 16.992188 221.988281 18.789062 221.628906 20.296875 220.921875 C 21.019531 220.578125 21.808594 219.75 21.765625 219.171875 C 21.664062 217.800781 22.742188 217.378906 24.003906 216.726562 C 26.363281 215.5 26.398438 214.570312 24.183594 213.3125 C 22.613281 212.425781 20.714844 211.867188 19.039062 211.078125 C 17.976562 210.574219 16.976562 209.96875 16.085938 209.304688 C 14.855469 208.386719 15.152344 207.601562 16.800781 207.214844 C 17.472656 207.058594 18.273438 206.964844 18.941406 207.082031 C 21.203125 207.476562 23 207.222656 24.777344 205.910156 C 26.089844 204.9375 28.035156 204.441406 29.699219 203.734375 C 28.164062 202.90625 26.585938 202.121094 25.109375 201.238281 C 23.289062 200.152344 21.382812 199.097656 19.871094 197.796875 C 19.320312 197.324219 19.335938 195.738281 19.878906 195.4375 C 21.878906 194.320312 24.121094 193.363281 26.457031 192.710938 C 27.1875 192.511719 28.570312 193.402344 29.53125 193.917969 C 30.839844 194.617188 31.894531 195.636719 33.300781 196.167969 C 36.441406 197.351562 38.292969 196.375 37.964844 193.835938 C 37.863281 193.035156 37.707031 192.195312 37.285156 191.464844 C 36.453125 190.042969 34.816406 188.804688 36.9375 187.15625 C 38.292969 186.101562 37.710938 184.25 40.523438 183.507812 C 43.089844 182.832031 42.417969 179.730469 39.554688 178.996094 C 36.171875 178.125 37.382812 177.417969 39.371094 176.515625 C 41.097656 175.726562 41.976562 174.75 41.164062 173.152344 C 40.339844 171.53125 41.636719 171.335938 43.40625 171.46875 C 44.828125 171.578125 46.265625 171.566406 47.699219 171.574219 C 51.269531 171.589844 53.707031 170.59375 55.273438 167.949219 C 57.773438 163.726562 62.796875 162.039062 68.710938 161.53125 C 74.097656 161.066406 79.46875 160.085938 84.84375 160.097656 C 96.597656 160.121094 108.347656 160.679688 120.105469 160.925781 C 124.980469 161.023438 129.867188 160.820312 134.746094 160.855469 C 141.429688 160.902344 148.121094 161.226562 154.796875 161.101562 C 161.898438 160.96875 169.015625 160.695312 176.011719 159.605469 C 176.894531 159.46875 177.800781 159.316406 178.695312 159.320312 C 186.980469 159.335938 195.261719 159.390625 203.546875 159.425781 C 206.796875 159.441406 210.050781 159.453125 213.304688 159.421875 C 223.070312 159.335938 232.835938 159.167969 242.601562 159.136719 C 258.527344 159.082031 274.453125 159.140625 290.382812 159.09375 C 302.503906 159.058594 314.605469 158.785156 326.65625 160.382812 C 331.042969 160.964844 335.738281 160.941406 340.171875 160.507812 C 347.777344 159.757812 354.964844 159.757812 362.1875 164.214844 " fill-opacity="1" fill-rule="nonzero"/></g></svg>