<svg xmlns="http://www.w3.org/2000/svg" xmlns:xlink="http://www.w3.org/1999/xlink" width="500" zoomAndPan="magnify" viewBox="0 0 375 374.999991" height="500" preserveAspectRatio="xMidYMid meet" version="1.0"><defs><clipPath id="bdcaa006eb"><path d="M 17 145.867188 L 364.613281 145.867188 L 364.613281 230.617188 L 17 230.617188 Z M 17 145.867188 " clip-rule="nonzero"/></clipPath></defs><g clip-path="url(#bdcaa006eb)"><path fill="#000000" d="M 364.199219 181.835938 C 361.640625 180.523438 358.9375 180.300781 356.15625 181.035156 C 355.9375 181.105469 355.71875 181.105469 355.5 181.179688 C 355.71875 178.546875 353.964844 177.742188 351.625 177.742188 C 349.503906 177.742188 347.457031 178.183594 345.484375 178.839844 C 346.945312 177.890625 348.847656 177.449219 348.992188 175.332031 C 348.917969 175.257812 348.917969 175.257812 348.847656 175.183594 C 348.847656 175.183594 348.917969 175.183594 348.917969 175.183594 C 348.917969 175.183594 348.917969 175.109375 348.917969 175.109375 C 349.503906 175.109375 350.089844 175.109375 350.675781 175.109375 C 352.648438 174.597656 352.722656 174.597656 352.0625 173.355469 C 351.769531 172.773438 351.1875 172.1875 350.746094 171.675781 C 350.015625 171.382812 349.578125 171.601562 349.285156 172.039062 C 348.847656 171.675781 348.40625 171.308594 347.894531 171.089844 C 347.894531 171.089844 347.824219 171.089844 347.824219 171.089844 C 345.335938 170.652344 343.144531 171.96875 340.730469 171.894531 C 340.585938 171.894531 340.511719 171.820312 340.367188 171.820312 C 340.65625 171.234375 340.65625 170.652344 340.511719 169.992188 C 340.4375 169.847656 340.292969 169.628906 340.367188 169.628906 C 340.367188 169.628906 340.4375 169.628906 340.4375 169.628906 C 340.878906 169.921875 341.316406 170.210938 341.390625 170.140625 C 341.753906 169.773438 342.195312 169.554688 342.632812 169.410156 C 343.144531 169.410156 343.730469 169.335938 344.167969 169.1875 C 345.265625 169.117188 346.289062 169.042969 347.164062 168.386719 C 347.238281 168.164062 347.3125 167.945312 347.382812 167.726562 C 346.945312 165.535156 345.921875 164.363281 343.507812 165.753906 C 343.507812 165.753906 343.800781 165.460938 343.800781 165.460938 C 343.875 165.242188 343.875 164.949219 343.875 164.65625 C 344.386719 164.511719 345.191406 164.511719 345.410156 163.996094 C 347.09375 164.800781 348.699219 164.21875 350.308594 163.558594 C 350.746094 163.414062 350.96875 163.195312 350.96875 162.753906 C 350.894531 162.460938 350.746094 162.171875 350.601562 161.949219 C 351.84375 162.242188 353.015625 162.242188 354.109375 161 C 354.109375 159.027344 354.109375 159.027344 350.675781 159.539062 C 350.382812 159.609375 350.089844 159.609375 349.796875 159.683594 C 349.359375 160.34375 348.699219 160.488281 347.96875 160.488281 C 347.894531 159.683594 347.605469 159.027344 346.582031 159.539062 C 346.070312 159.757812 345.703125 160.195312 345.265625 160.488281 C 345.191406 160.414062 345.042969 160.34375 344.972656 160.269531 C 344.679688 160.195312 344.3125 160.121094 343.949219 160.121094 C 343.875 160.050781 343.875 160.050781 343.800781 159.976562 C 343.507812 159.757812 343.289062 159.902344 343.21875 160.195312 C 342.414062 160.34375 341.679688 160.488281 340.949219 160.855469 C 341.097656 160.488281 341.167969 160.121094 340.730469 159.832031 C 340 159.464844 339.414062 159.832031 339.121094 160.5625 C 339.050781 160.707031 339.050781 160.925781 338.976562 161.148438 C 338.902344 161.21875 338.832031 161.21875 338.757812 161.292969 C 338.609375 161.21875 338.464844 161.21875 338.390625 161.21875 C 338.390625 161.074219 338.390625 160.855469 338.320312 160.707031 C 338.097656 159.976562 337.878906 159.320312 337.292969 158.734375 C 335.027344 157.199219 334.371094 158.953125 333.566406 160.34375 C 333.199219 160.050781 332.6875 159.976562 332.175781 160.050781 C 331.300781 160.414062 330.714844 161.148438 330.054688 161.804688 C 329.542969 162.097656 329.398438 161.804688 329.324219 160.855469 C 329.253906 160.121094 329.03125 159.832031 328.449219 159.683594 C 328.449219 159.609375 328.449219 159.609375 328.449219 159.609375 C 326.546875 158.808594 328.886719 156.980469 327.496094 156.101562 C 324.792969 155.152344 322.453125 155.371094 320.917969 157.785156 C 320.257812 154.640625 317.261719 156.46875 315.214844 156.175781 C 314.042969 156.46875 313.460938 157.199219 313.09375 158.148438 C 312.21875 157.273438 310.902344 157.5625 309.804688 157.273438 C 309.730469 157.273438 309.730469 157.273438 309.65625 157.273438 C 309.511719 156.980469 309.4375 156.6875 309.292969 156.46875 C 310.097656 155.808594 310.242188 155.222656 309.21875 154.640625 C 308.5625 154.785156 307.976562 155.003906 307.464844 155.371094 C 307.171875 155.371094 306.878906 155.445312 306.515625 155.445312 C 306.515625 155.515625 306.515625 155.664062 306.515625 155.734375 C 306.292969 155.664062 306.148438 155.589844 305.929688 155.515625 C 305.199219 155.152344 304.394531 154.933594 303.589844 154.933594 C 303.152344 154.933594 302.785156 155.003906 302.417969 155.222656 C 302.273438 155.371094 302.054688 155.371094 301.90625 155.515625 C 301.324219 155.515625 300.8125 155.515625 300.226562 155.515625 C 298.324219 155.371094 298.398438 154.054688 298.324219 152.8125 C 298.765625 152.152344 299.277344 151.570312 300.082031 151.347656 C 300.226562 151.789062 300.59375 152.007812 301.105469 152.082031 C 302.054688 152.082031 302.929688 152.007812 303.882812 152.007812 C 303.957031 151.859375 304.027344 151.789062 304.101562 151.640625 C 304.101562 151.640625 304.101562 151.640625 304.101562 151.570312 C 304.027344 151.714844 303.882812 151.933594 303.664062 152.226562 C 304.394531 152.886719 305.199219 152.957031 306.148438 152.8125 C 306.585938 152.664062 306.953125 152.445312 307.320312 152.226562 C 307.683594 151.933594 308.050781 151.640625 308.414062 151.421875 C 308.925781 151.347656 309.4375 151.347656 309.949219 151.277344 C 310.460938 151.859375 311.195312 152.152344 311.925781 151.933594 C 313.824219 151.347656 316.019531 151.570312 317.699219 150.035156 C 318.429688 149.375 318.871094 150.324219 319.164062 151.058594 C 319.382812 151.421875 319.746094 151.640625 320.1875 151.640625 C 321.648438 151.570312 322.453125 150.546875 323.476562 149.742188 C 325.523438 148.132812 324.425781 147.253906 322.597656 146.597656 C 322.234375 146.523438 321.792969 146.378906 321.429688 146.378906 C 321.210938 146.378906 321.0625 146.378906 320.84375 146.378906 C 319.457031 146.449219 318.210938 146.011719 316.894531 145.9375 C 315.140625 145.9375 313.386719 146.085938 311.632812 146.378906 C 310.972656 146.671875 310.316406 146.671875 309.65625 146.449219 C 308.195312 146.449219 306.585938 145.867188 305.417969 147.328125 C 305.417969 147.328125 305.417969 147.402344 305.417969 147.402344 C 305.269531 147.109375 305.199219 146.816406 304.90625 146.671875 C 304.613281 146.523438 304.320312 146.449219 304.027344 146.523438 C 303.589844 146.597656 303.152344 146.597656 302.710938 146.523438 C 302.417969 146.523438 302.128906 146.523438 301.835938 146.597656 C 301.394531 146.816406 300.957031 146.523438 300.519531 146.523438 C 300.152344 146.523438 299.859375 146.597656 299.496094 146.671875 C 298.984375 146.890625 298.472656 147.183594 298.179688 147.695312 C 297.960938 147.402344 297.667969 147.109375 297.230469 146.960938 C 294.816406 146.304688 292.402344 146.449219 289.992188 146.816406 C 286.992188 147.695312 283.847656 147.109375 280.851562 147.546875 C 280.414062 147.621094 279.972656 147.695312 279.609375 147.839844 C 278.878906 148.132812 278.292969 148.570312 278.074219 149.300781 C 277.5625 148.425781 276.683594 147.984375 275.515625 147.984375 C 275.148438 147.984375 274.78125 147.984375 274.417969 148.058594 C 273.757812 148.207031 273.027344 148.277344 272.371094 148.351562 C 272.003906 148.496094 271.785156 148.644531 271.566406 148.9375 C 270.617188 149.59375 269.445312 149.230469 268.421875 149.375 C 268.203125 149.449219 267.984375 149.523438 267.765625 149.59375 C 267.398438 149.59375 267.105469 149.523438 266.742188 149.523438 C 266.15625 149.523438 265.570312 149.59375 264.984375 149.59375 C 264.109375 149.667969 263.15625 149.667969 262.28125 149.742188 C 261.695312 149.742188 261.109375 149.667969 260.527344 149.667969 C 260.234375 149.667969 259.941406 149.59375 259.574219 149.59375 C 259.28125 149.667969 258.992188 149.59375 258.699219 149.59375 C 258.40625 149.667969 258.039062 149.742188 257.746094 149.8125 C 256.796875 149.886719 256.285156 150.546875 255.773438 151.203125 C 255.554688 151.277344 255.40625 151.277344 255.261719 151.347656 C 255.554688 150.910156 255.628906 150.472656 255.554688 150.035156 C 255.40625 149.667969 255.117188 149.449219 254.75 149.300781 C 254.019531 149.15625 253.289062 149.230469 252.554688 149.15625 C 252.191406 149.15625 251.824219 149.15625 251.460938 149.15625 C 250.730469 149.230469 249.996094 149.300781 249.265625 149.375 C 248.902344 149.375 248.535156 149.375 248.167969 149.449219 C 247.21875 149.449219 246.195312 149.449219 245.246094 149.375 C 244.878906 149.375 244.441406 149.375 244.074219 149.375 C 243.492188 149.375 242.832031 149.375 242.246094 149.375 C 240.859375 149.375 239.46875 149.375 238.082031 149.449219 C 237.714844 149.449219 237.277344 149.449219 236.910156 149.523438 C 236.542969 149.523438 236.179688 149.59375 235.8125 149.667969 C 235.449219 149.742188 235.15625 149.8125 234.789062 149.886719 C 234.351562 150.035156 233.839844 150.105469 233.402344 150.035156 C 233.109375 149.960938 232.742188 149.960938 232.449219 150.035156 C 232.15625 150.105469 231.867188 150.324219 231.644531 150.546875 C 231.644531 150.546875 231.644531 150.617188 231.644531 150.617188 C 228.503906 151.789062 225.210938 149.375 222.066406 150.765625 C 220.824219 151.058594 219.4375 150.546875 218.265625 151.421875 C 217.609375 151.714844 217.316406 152.519531 216.65625 152.886719 C 216.292969 152.886719 216 152.886719 215.632812 152.886719 C 215.488281 151.859375 214.757812 151.640625 213.878906 151.496094 C 213.222656 152.226562 212.78125 153.03125 211.394531 152.8125 C 209.859375 152.519531 208.175781 152.886719 206.640625 152.445312 C 206.203125 152.300781 205.835938 152.664062 205.542969 153.03125 C 205.542969 153.105469 205.472656 153.105469 205.472656 153.175781 C 201.890625 150.035156 197.867188 151.640625 193.992188 152.371094 C 189.460938 152.445312 185 153.324219 180.46875 153.324219 C 179.371094 154.566406 178.710938 152.738281 177.761719 152.957031 C 176.300781 153.324219 174.910156 153.617188 173.449219 153.910156 C 173.007812 152.957031 172.277344 152.8125 171.253906 153.03125 C 167.160156 154.054688 163.066406 153.03125 158.898438 153.617188 C 155.753906 154.054688 152.464844 153.542969 149.246094 153.542969 C 144.640625 153.542969 140.035156 154.347656 135.503906 153.324219 C 134.769531 154.199219 133.675781 154.054688 132.652344 154.128906 C 131.773438 154.199219 130.894531 154.199219 130.019531 154.273438 C 129.726562 154.199219 129.433594 154.128906 129.140625 154.128906 C 124.390625 154.128906 119.636719 154.273438 114.882812 154.128906 C 109.691406 154.054688 104.574219 154.710938 99.382812 154.199219 C 99.3125 154.199219 99.238281 154.199219 99.09375 154.199219 C 99.53125 151.789062 97.191406 152.226562 95.949219 152.226562 C 92.292969 152.082031 88.636719 151.714844 84.90625 152.082031 C 80.960938 151.714844 77.085938 151.789062 73.210938 151.640625 C 67.214844 151.277344 61.144531 151.347656 55.152344 150.324219 C 54.710938 149.667969 54.273438 149.011719 53.394531 148.9375 C 52.078125 149.011719 51.277344 149.667969 50.984375 150.910156 C 50.691406 151.203125 51.789062 151.496094 50.984375 151.789062 C 50.765625 151.640625 50.542969 151.570312 50.324219 151.496094 C 50.105469 151.058594 49.886719 150.691406 49.667969 150.253906 C 49.082031 149.960938 48.496094 149.667969 47.839844 149.375 C 47.546875 149.523438 47.402344 149.742188 47.402344 150.105469 C 47.402344 150.398438 47.402344 150.691406 47.402344 150.984375 C 47.402344 150.984375 47.472656 151.058594 47.472656 151.128906 C 47.253906 151.128906 47.109375 151.128906 46.890625 151.128906 C 46.890625 151.347656 46.890625 151.496094 46.890625 151.714844 C 46.816406 151.714844 46.742188 151.714844 46.742188 151.789062 C 46.667969 151.789062 46.667969 151.714844 46.597656 151.714844 C 46.378906 151.640625 46.15625 151.714844 45.9375 151.933594 C 45.644531 151.933594 45.355469 151.933594 45.0625 151.933594 C 45.0625 152.082031 45.0625 152.226562 45.0625 152.371094 C 45.0625 152.371094 44.988281 152.371094 44.988281 152.371094 C 44.914062 152.371094 44.839844 152.445312 44.695312 152.445312 C 44.550781 152.152344 44.328125 151.859375 44.039062 151.640625 C 42.136719 152.445312 41.84375 148.644531 39.652344 150.253906 C 39.652344 150.398438 39.652344 150.546875 39.652344 150.691406 C 39.796875 151.128906 39.796875 151.640625 39.578125 151.859375 C 39.140625 152.226562 38.917969 151.714844 38.699219 151.421875 C 38.335938 150.984375 38.042969 150.546875 37.53125 149.742188 C 36.289062 152.152344 34.753906 153.617188 31.902344 153.105469 C 31.316406 152.957031 30.367188 153.398438 29.855469 153.835938 C 28.609375 155.078125 26.929688 155.078125 25.394531 155.445312 C 25.101562 156.101562 24.882812 156.6875 24.589844 157.34375 C 24.515625 157.5625 24.441406 157.785156 24.441406 158.003906 C 23.929688 158.003906 23.566406 158.222656 23.417969 158.734375 C 22.46875 158.808594 21.738281 159.320312 21.226562 160.050781 C 20.347656 161.21875 19.324219 162.171875 17.9375 162.753906 C 17.496094 162.972656 16.839844 163.265625 17.132812 163.996094 C 18.15625 164.949219 19.617188 164.511719 20.859375 164.949219 C 22.175781 166.046875 23.859375 165.898438 25.394531 165.898438 C 27.003906 165.972656 27.292969 166.921875 27.222656 168.164062 C 27.585938 169.1875 27.953125 170.210938 28.902344 170.871094 C 30.144531 171.746094 29.269531 172.480469 28.902344 173.355469 C 28.246094 174.015625 27.515625 174.671875 26.855469 175.332031 C 26.199219 175.988281 26.5625 176.5 27.074219 177.011719 C 27.367188 177.523438 27.585938 178.109375 27.878906 178.621094 C 27.148438 178.914062 26.492188 179.277344 26.417969 180.082031 C 26.269531 181.253906 25.246094 181.617188 24.441406 182.203125 C 24.152344 182.128906 23.785156 182.128906 23.492188 182.058594 C 21.8125 183.300781 21.8125 183.300781 23.492188 183.957031 C 23.566406 184.03125 23.710938 184.25 23.785156 184.25 C 24.003906 184.175781 24.222656 184.03125 24.441406 183.957031 C 25.027344 183.886719 25.613281 183.886719 26.199219 183.8125 C 25.613281 185.128906 24.441406 186.003906 23.417969 186.882812 C 22.25 187.90625 22.25 189.003906 23.199219 190.171875 C 23.566406 190.171875 23.859375 190.027344 24.152344 189.808594 C 24.515625 189.808594 24.882812 189.808594 25.320312 189.878906 C 26.125 189.953125 26.636719 190.246094 26.78125 191.121094 C 27.003906 192.292969 27.074219 193.316406 26.125 194.195312 C 25.613281 194.265625 25.320312 194.484375 25.175781 194.996094 C 24.664062 195.070312 24.441406 195.363281 24.296875 195.800781 C 23.417969 195.800781 22.542969 195.875 21.664062 195.875 C 21.152344 195.949219 20.566406 196.023438 20.054688 196.09375 C 20.859375 197.335938 21.664062 198.582031 23.417969 198.582031 C 23.785156 199.3125 24.589844 199.3125 25.175781 199.53125 C 24.078125 200.410156 23.199219 201.359375 23.417969 202.820312 C 22.46875 203.332031 21.882812 204.355469 20.714844 204.574219 C 20.054688 204.136719 19.324219 204.503906 18.519531 204.648438 C 18.8125 205.085938 19.105469 205.527344 19.472656 206.039062 C 19.617188 206.402344 19.910156 206.621094 20.277344 206.769531 C 20.496094 206.769531 20.714844 206.769531 20.933594 206.769531 C 20.933594 206.84375 21.007812 206.914062 21.007812 206.988281 C 21.589844 208.160156 22.324219 209.183594 23.640625 209.695312 C 24.296875 209.839844 24.953125 209.984375 25.613281 210.132812 C 26.636719 210.9375 27.367188 211.886719 27.441406 213.347656 C 26.710938 214.300781 26.125 215.25 26.492188 216.421875 C 27.292969 216.492188 28.027344 216.640625 28.828125 216.710938 C 28.902344 216.859375 28.976562 217.003906 29.121094 217.078125 C 29.707031 217.589844 30.367188 218.027344 31.023438 218.394531 C 31.972656 218.980469 32.996094 219.492188 34.019531 219.855469 C 33.800781 220.585938 34.167969 221.320312 34.605469 222.050781 C 35.042969 222.5625 35.554688 223 36.140625 223.21875 C 38.335938 223.878906 41.1875 223.21875 42.355469 225.925781 C 42.574219 226.289062 42.792969 226.582031 43.015625 226.875 C 43.304688 227.386719 43.671875 227.824219 43.964844 228.265625 C 44.839844 229.433594 46.15625 230.605469 47.621094 230.238281 C 49.15625 229.800781 48.789062 228.335938 48.570312 227.023438 C 48.425781 226.21875 50.03125 226.289062 50.03125 225.265625 C 50.835938 226.070312 51.859375 226.4375 53.03125 226.511719 C 52.957031 226.730469 52.957031 226.949219 53.105469 226.949219 C 55.882812 227.605469 57.78125 230.09375 60.5625 230.605469 C 62.242188 229.871094 63.191406 228.628906 63.632812 226.949219 C 64.730469 227.898438 66.042969 227.824219 67.433594 227.3125 C 67.800781 227.09375 68.019531 226.875 68.164062 226.582031 C 69.261719 226.289062 69.261719 226.363281 69.628906 227.535156 C 70.503906 228.046875 71.089844 227.535156 71.675781 227.023438 C 72.1875 226.4375 72.550781 225.777344 72.699219 224.972656 C 72.699219 224.609375 72.625 224.242188 72.40625 223.878906 C 72.40625 223.878906 72.332031 223.878906 72.332031 223.878906 C 72.40625 223.804688 72.40625 223.730469 72.40625 223.660156 C 72.480469 223.660156 72.480469 223.660156 72.550781 223.660156 C 73.136719 223.4375 73.648438 223.21875 74.160156 222.855469 C 74.671875 222.5625 75.183594 222.34375 75.695312 222.050781 C 80.886719 218.980469 86.152344 218.027344 91.925781 220.808594 C 93.753906 221.683594 95.730469 221.609375 96.972656 219.636719 C 97.410156 218.980469 97.703125 218.246094 97.847656 217.445312 C 97.847656 217.445312 97.847656 217.445312 97.847656 217.371094 C 97.921875 217.371094 97.921875 217.371094 97.996094 217.371094 C 102.527344 220.296875 107.355469 218.394531 112.105469 217.808594 C 112.179688 217.664062 112.179688 217.515625 112.179688 217.445312 C 113.054688 218.320312 114.300781 218.394531 115.46875 218.46875 C 116.273438 218.539062 117.078125 218.539062 117.953125 218.539062 C 117.078125 218.832031 116.199219 219.125 115.542969 219.929688 C 115.542969 220.222656 115.542969 220.441406 115.542969 220.734375 C 116.710938 220.878906 116.566406 222.855469 118.175781 222.269531 C 118.246094 221.976562 118.320312 221.683594 118.46875 221.464844 C 119.492188 220.441406 121.828125 221.027344 122.050781 218.980469 C 122.269531 219.125 122.5625 219.199219 122.632812 219.417969 C 122.78125 219.855469 122.925781 220.222656 123.292969 220.515625 C 123.292969 220.585938 123.292969 220.660156 123.367188 220.734375 C 123.804688 221.246094 124.390625 221.464844 125.046875 221.464844 C 125.484375 221.464844 125.925781 221.390625 126.289062 221.320312 C 126.730469 221.171875 127.09375 221.027344 127.53125 220.734375 C 127.753906 220.734375 127.972656 220.808594 128.117188 220.808594 C 128.335938 221.171875 128.554688 221.539062 128.777344 221.902344 C 129.871094 223.367188 130.164062 223.367188 131.117188 221.902344 C 131.335938 221.539062 131.554688 221.171875 131.773438 220.808594 C 132.359375 220.734375 132.941406 220.585938 133.527344 220.515625 C 134.40625 220.585938 135.355469 220.585938 136.234375 220.660156 C 136.671875 220.660156 137.183594 220.660156 137.621094 220.660156 C 137.769531 220.734375 137.839844 220.808594 137.988281 220.878906 C 138.28125 220.878906 138.5 220.878906 138.71875 220.734375 C 138.867188 220.878906 138.9375 220.953125 139.011719 221.097656 C 140.984375 222.121094 143.179688 221.832031 145.300781 221.832031 C 145.300781 221.832031 145.371094 221.832031 145.371094 221.832031 C 145.300781 221.976562 145.226562 222.121094 145.152344 222.269531 C 145.078125 222.488281 145.078125 222.925781 145.152344 223 C 145.8125 223.367188 146.542969 223.292969 147.199219 223 C 147.640625 222.78125 147.710938 222.34375 147.566406 221.902344 C 147.492188 221.683594 147.417969 221.464844 147.347656 221.320312 C 147.492188 221.246094 147.640625 221.171875 147.785156 221.097656 C 147.929688 220.953125 148.003906 220.808594 148.003906 220.660156 C 148.152344 220.808594 148.296875 220.878906 148.515625 220.808594 C 148.808594 222.121094 148.882812 223.511719 150.855469 223.585938 C 152.464844 222.707031 154.4375 222.121094 155.023438 220.074219 C 155.023438 220.074219 155.097656 220.074219 155.097656 220.148438 C 155.242188 220.148438 155.390625 220.148438 155.535156 220.148438 C 156.265625 220.148438 155.753906 221.027344 156.265625 221.097656 C 157.730469 221.757812 159.117188 221.902344 160.289062 220.585938 C 160.726562 220.003906 161.382812 219.929688 161.96875 219.855469 C 161.96875 219.855469 161.96875 219.855469 161.96875 219.929688 C 162.1875 220.222656 162.480469 220.441406 162.847656 220.585938 C 165.332031 221.320312 167.816406 221.683594 170.378906 221.097656 C 170.449219 221.097656 170.449219 221.027344 170.523438 221.027344 C 171.035156 221.832031 172.132812 222.195312 172.863281 222.78125 C 173.449219 223 174.03125 223.074219 174.617188 222.925781 C 176.371094 222.34375 177.90625 221.097656 179.953125 221.539062 C 180.46875 221.683594 180.980469 221.902344 181.492188 222.121094 C 182.003906 222.34375 182.515625 222.5625 183.027344 222.707031 C 183.609375 222.78125 184.121094 222.636719 184.632812 222.34375 C 184.925781 222.121094 185.21875 221.902344 185.511719 221.609375 C 185.511719 221.464844 185.511719 221.246094 185.511719 221.097656 C 185.585938 221.097656 185.65625 221.171875 185.804688 221.171875 C 192.75 220.808594 199.695312 221.757812 206.640625 220.585938 C 209.347656 219.417969 212.34375 220.367188 214.976562 219.417969 C 215.121094 219.34375 215.269531 219.199219 215.414062 219.050781 C 216.292969 219.636719 217.097656 220.367188 217.097656 221.539062 C 216.511719 221.539062 215.925781 221.539062 215.34375 221.539062 C 214.757812 221.320312 214.097656 221.246094 213.515625 221.539062 C 212.5625 221.832031 212.710938 222.636719 212.5625 223.292969 C 211.6875 223.730469 210.808594 224.171875 209.929688 224.683594 C 209.128906 225.195312 208.835938 225.925781 209.785156 226.65625 C 211.394531 227.605469 213.074219 228.117188 214.902344 227.242188 C 215.195312 227.023438 215.488281 226.730469 215.632812 226.363281 C 215.632812 226.144531 215.632812 226 215.632812 225.777344 C 215.632812 225.777344 215.632812 225.777344 215.632812 225.707031 C 216 225.558594 216.292969 225.414062 216.65625 225.265625 C 217.390625 225.265625 218.121094 225.195312 218.925781 225.195312 C 218.925781 225.484375 218.996094 225.707031 219.070312 226 C 219.363281 225.707031 219.65625 225.414062 219.949219 225.121094 C 219.949219 225.046875 219.949219 224.902344 219.949219 224.828125 C 220.3125 224.753906 220.679688 224.753906 221.042969 224.683594 C 221.265625 224.683594 221.410156 224.683594 221.628906 224.683594 C 221.410156 225.414062 221.703125 226.144531 222.214844 226.800781 C 222.507812 227.023438 222.800781 227.167969 223.164062 227.242188 C 223.605469 227.242188 224.117188 227.167969 224.1875 227.824219 C 224.1875 227.972656 224.261719 228.117188 224.261719 228.265625 C 224.40625 228.335938 224.480469 228.484375 224.628906 228.558594 C 225.210938 229.140625 225.722656 229.140625 226.308594 228.558594 C 226.601562 228.335938 226.894531 228.117188 227.257812 227.898438 C 227.917969 228.191406 228.648438 228.046875 229.304688 228.191406 C 229.671875 228.265625 229.964844 228.335938 230.328125 228.335938 C 230.84375 228.265625 231.355469 228.191406 231.71875 227.753906 C 232.230469 227.460938 232.667969 227.09375 233.035156 226.65625 C 233.035156 226.875 233.109375 227.167969 233.179688 227.386719 C 233.328125 227.535156 233.402344 227.605469 233.546875 227.753906 C 235.59375 227.09375 237.714844 226.949219 239.835938 226.949219 C 240.566406 226.949219 241.222656 226.65625 241.734375 226.144531 C 242.6875 226 243.492188 226.363281 244.292969 226.730469 C 245.246094 227.09375 246.121094 226.949219 246.78125 226.289062 C 246.78125 226.289062 246.855469 226.289062 246.855469 226.289062 C 247.21875 226.4375 247.585938 226.4375 247.949219 226.4375 C 248.023438 226.4375 248.097656 226.4375 248.167969 226.363281 C 248.535156 227.023438 249.046875 227.460938 249.851562 226.582031 C 250.363281 226 251.242188 226.070312 251.824219 225.707031 C 252.042969 225.707031 252.265625 225.707031 252.484375 225.707031 C 252.847656 225.707031 253.140625 225.632812 253.507812 225.558594 C 253.871094 225.707031 254.164062 225.851562 254.53125 225.777344 C 257.015625 225.339844 259.503906 225.195312 261.914062 224.609375 C 263.890625 224.097656 265.863281 223.878906 267.835938 223.585938 C 267.835938 223.660156 267.984375 223.660156 268.203125 223.660156 C 268.421875 223.660156 268.640625 223.585938 268.859375 223.367188 L 268.859375 223 C 268.933594 222.925781 269.078125 222.925781 269.152344 222.925781 C 269.371094 222.78125 269.59375 222.636719 269.8125 222.5625 C 271.199219 222.488281 272.664062 222.488281 274.050781 222.414062 C 274.636719 222.195312 275.292969 221.902344 275.878906 221.683594 C 275.953125 221.757812 276.027344 221.832031 276.171875 221.902344 C 276.609375 222.707031 277.121094 223 278.367188 222.5625 C 278.878906 222.414062 279.242188 222.269531 279.609375 222.195312 C 279.902344 222.195312 280.191406 222.125 280.484375 221.976562 C 281.65625 221.832031 282.09375 222.414062 283.265625 224.242188 C 283.554688 224.683594 283.777344 225.265625 284.800781 225.265625 C 285.09375 223.878906 285.382812 222.34375 286.40625 221.097656 C 286.847656 220.585938 287.210938 220.515625 287.796875 221.097656 C 288.746094 222.125 288.820312 222.050781 289.480469 220.953125 C 290.648438 219.050781 290.648438 219.050781 292.621094 220.296875 C 292.84375 220.441406 293.132812 220.660156 293.355469 220.734375 C 294.085938 220.878906 294.449219 220.734375 294.011719 219.855469 C 293.867188 219.5625 293.9375 219.34375 294.085938 219.199219 C 294.378906 219.125 294.742188 219.050781 295.035156 218.980469 C 295.984375 218.6875 296.863281 218.394531 297.8125 218.175781 C 299.128906 217.882812 300.519531 217.734375 301.761719 217.296875 C 303.078125 216.859375 304.613281 216.859375 305.855469 216.347656 C 306.003906 216.273438 306.074219 216.199219 306.222656 216.054688 C 308.925781 217.515625 311.339844 215.03125 313.972656 215.175781 C 314.410156 215.105469 314.847656 215.03125 315.214844 214.886719 C 316.019531 214.59375 316.75 214.226562 317.40625 213.789062 C 317.554688 213.640625 317.699219 213.496094 317.847656 213.347656 C 318.722656 213.714844 319.453125 213.277344 320.039062 212.546875 C 320.917969 213.277344 321.941406 213.347656 323.039062 213.203125 C 323.550781 213.203125 323.988281 213.058594 324.425781 212.835938 C 325.960938 213.640625 327.277344 213.714844 328.300781 211.742188 C 328.300781 211.742188 328.300781 211.8125 328.300781 211.8125 C 328.667969 212.035156 329.03125 212.253906 329.472656 212.324219 C 334.808594 211.8125 339.855469 210.644531 344.679688 208.304688 C 344.753906 208.160156 344.753906 208.011719 344.824219 207.867188 C 345.996094 207.9375 346.945312 207.207031 348.117188 207.136719 C 349.140625 205.378906 348.480469 204.285156 347.3125 203.40625 C 347.675781 203.480469 348.042969 203.550781 348.335938 203.40625 C 348.480469 203.40625 348.554688 203.332031 348.699219 203.332031 C 348.847656 203.40625 348.917969 203.550781 349.066406 203.699219 C 350.015625 204.941406 351.1875 204.136719 352.210938 203.917969 C 352.792969 203.773438 352.722656 202.96875 352.722656 202.308594 C 352.941406 202.457031 353.160156 202.527344 353.453125 202.601562 C 355.355469 202.75 357.109375 202.457031 358.789062 201.578125 C 359.082031 201.285156 359.300781 200.992188 359.300781 200.554688 C 358.71875 198.289062 357.984375 196.023438 358.351562 193.683594 C 358.351562 193.683594 358.277344 193.609375 358.277344 193.609375 C 358.9375 193.972656 359.519531 193.902344 360.179688 193.535156 C 361.714844 189.074219 357.765625 190.757812 355.9375 190.097656 C 355.5 190.027344 355.0625 189.953125 354.621094 189.953125 C 354.183594 189.953125 353.746094 189.953125 353.304688 189.953125 C 352.648438 189.953125 351.992188 189.808594 351.332031 189.808594 C 350.675781 189.953125 350.015625 190.027344 349.503906 190.464844 C 349.503906 190.464844 349.429688 190.464844 349.429688 190.464844 C 348.992188 190.464844 348.480469 190.464844 348.042969 190.464844 C 347.75 190.464844 347.457031 190.464844 347.164062 190.464844 C 347.75 190.320312 348.335938 190.171875 348.917969 190.171875 C 350.234375 189.953125 351.1875 189.222656 351.84375 188.199219 C 351.992188 188.636719 352.28125 189.003906 352.648438 189.367188 C 355.355469 189.441406 357.839844 189.148438 359.59375 186.882812 C 359.886719 185.785156 359.59375 185.199219 359.007812 184.761719 C 361.054688 184.46875 363.617188 184.980469 364.199219 181.835938 Z M 302.128906 150.105469 C 302.128906 150.179688 302.128906 150.179688 302.128906 150.253906 C 302.128906 150.253906 302.054688 150.253906 302.054688 150.253906 C 302.054688 150.253906 302.054688 150.253906 301.980469 150.253906 C 302.054688 150.179688 302.128906 150.105469 302.128906 150.105469 Z M 34.460938 176.136719 C 34.460938 176.136719 34.460938 176.0625 34.460938 176.136719 C 34.53125 176.0625 34.53125 176.0625 34.605469 176.0625 C 34.53125 176.136719 34.460938 176.136719 34.460938 176.136719 Z M 34.460938 176.0625 C 34.460938 176.0625 34.386719 176.0625 34.460938 176.0625 C 34.53125 175.988281 34.679688 175.914062 34.824219 175.914062 C 34.679688 175.988281 34.53125 175.988281 34.460938 176.0625 Z M 35.265625 176.0625 C 35.265625 176.0625 35.335938 176.0625 35.265625 176.0625 C 35.335938 176.136719 35.265625 176.0625 35.265625 176.0625 Z M 66.628906 156.175781 C 66.703125 156.175781 66.703125 156.101562 66.777344 156.101562 C 66.777344 156.101562 66.777344 156.175781 66.847656 156.175781 C 66.777344 156.175781 66.703125 156.175781 66.628906 156.175781 Z M 72.332031 218.101562 Z M 81.324219 172.699219 C 81.324219 172.699219 81.324219 172.625 81.324219 172.699219 C 81.324219 172.625 81.324219 172.625 81.324219 172.699219 C 81.324219 172.625 81.324219 172.625 81.324219 172.699219 Z M 101.871094 167.289062 C 101.796875 167.289062 101.796875 167.289062 101.871094 167.289062 C 101.796875 167.214844 101.871094 167.214844 101.871094 167.214844 C 101.871094 167.214844 101.871094 167.214844 101.871094 167.289062 Z M 104.574219 162.535156 C 104.648438 162.390625 104.722656 162.242188 104.722656 162.097656 C 104.722656 162.097656 104.648438 162.097656 104.648438 162.097656 C 104.648438 162.097656 104.648438 162.023438 104.648438 162.023438 C 104.648438 162.023438 104.722656 162.023438 104.722656 162.097656 C 104.792969 162.242188 104.867188 162.390625 105.015625 162.460938 C 104.867188 162.535156 104.722656 162.535156 104.574219 162.535156 Z M 106.550781 165.023438 Z M 107.355469 173.429688 C 107.425781 173.429688 107.425781 173.429688 107.355469 173.429688 C 107.425781 173.429688 107.425781 173.429688 107.355469 173.429688 C 107.425781 173.429688 107.425781 173.429688 107.355469 173.429688 C 107.425781 173.503906 107.425781 173.503906 107.355469 173.429688 C 107.425781 173.503906 107.355469 173.503906 107.355469 173.429688 Z M 107.425781 174.378906 Z M 110.9375 171.675781 C 111.007812 171.601562 111.007812 171.527344 111.082031 171.457031 C 111.15625 171.527344 111.230469 171.601562 111.300781 171.675781 C 111.15625 171.675781 111.082031 171.675781 110.9375 171.675781 Z M 112.105469 216.710938 C 112.179688 216.710938 112.179688 216.710938 112.105469 216.710938 C 112.179688 216.710938 112.179688 216.710938 112.105469 216.710938 C 112.179688 216.710938 112.179688 216.710938 112.105469 216.710938 Z M 113.859375 175.988281 Z M 114.519531 175.914062 C 114.664062 175.84375 114.8125 175.769531 114.957031 175.695312 C 115.03125 175.769531 115.175781 175.914062 115.25 175.988281 C 114.957031 175.988281 114.738281 175.914062 114.519531 175.914062 Z M 127.3125 159.097656 Z M 130.09375 177.960938 C 130.09375 177.960938 130.09375 177.890625 130.09375 177.960938 C 130.09375 177.890625 130.09375 177.890625 130.09375 177.960938 C 130.09375 177.890625 130.09375 177.960938 130.09375 177.960938 Z M 135.28125 180.375 C 135.210938 180.375 135.136719 180.300781 135.0625 180.300781 C 135.136719 180.300781 135.210938 180.300781 135.28125 180.300781 C 135.28125 180.300781 135.28125 180.375 135.28125 180.375 Z M 135.28125 180.300781 Z M 135.574219 167.507812 C 135.429688 167.359375 135.429688 167.214844 135.648438 167.140625 C 135.722656 167.140625 135.867188 167.214844 135.941406 167.214844 C 135.792969 167.289062 135.648438 167.359375 135.574219 167.507812 Z M 143.472656 155.371094 C 143.472656 155.445312 143.472656 155.445312 143.472656 155.371094 Z M 144.203125 167.507812 C 143.617188 167.507812 143.105469 167.507812 142.519531 167.507812 C 142.449219 167.433594 142.449219 167.433594 142.375 167.359375 C 143.398438 167.289062 144.421875 167.289062 145.445312 167.289062 C 145.078125 167.289062 144.640625 167.433594 144.203125 167.507812 Z M 147.054688 177.960938 C 147.054688 177.960938 147.128906 177.816406 147.128906 177.816406 C 147.128906 177.816406 147.199219 177.816406 147.199219 177.816406 C 147.128906 177.816406 147.054688 177.890625 147.054688 177.960938 Z M 148.664062 183.152344 C 148.664062 183.082031 148.734375 183.007812 148.734375 182.933594 C 148.808594 182.933594 148.882812 182.933594 148.882812 182.933594 C 148.808594 183.082031 148.734375 183.082031 148.664062 183.152344 Z M 150.125 167.652344 C 149.757812 167.359375 149.394531 167.214844 148.953125 167.070312 C 149.46875 166.996094 149.980469 166.921875 150.492188 166.847656 C 150.34375 167.140625 150.269531 167.359375 150.125 167.652344 Z M 160.871094 162.902344 C 160.945312 162.902344 160.945312 162.828125 160.871094 162.902344 C 160.800781 162.683594 160.726562 162.535156 160.652344 162.390625 C 160.726562 162.460938 160.800781 162.609375 160.871094 162.683594 C 160.945312 162.753906 161.019531 162.753906 161.09375 162.828125 C 161.019531 162.828125 160.945312 162.902344 160.871094 162.902344 Z M 161.382812 174.308594 Z M 173.007812 179.863281 C 173.007812 180.082031 173.082031 180.230469 173.15625 180.449219 C 173.007812 180.230469 172.863281 180.082031 172.71875 179.863281 C 172.863281 179.863281 173.082031 179.789062 173.230469 179.496094 C 173.15625 179.570312 173.082031 179.71875 173.007812 179.863281 Z M 176.738281 160.488281 C 176.738281 160.488281 176.8125 160.5625 176.8125 160.5625 C 176.738281 160.5625 176.738281 160.5625 176.664062 160.5625 C 176.664062 160.5625 176.664062 160.5625 176.738281 160.488281 Z M 176.8125 211.375 C 176.8125 211.449219 176.738281 211.449219 176.738281 211.523438 C 176.738281 211.449219 176.738281 211.449219 176.664062 211.375 C 176.738281 211.375 176.8125 211.375 176.8125 211.375 Z M 183.757812 188.273438 C 183.757812 188.273438 183.757812 188.199219 183.757812 188.199219 C 183.757812 188.125 183.757812 188.050781 183.757812 188.050781 C 183.757812 188.050781 183.828125 188.050781 183.828125 188.050781 C 183.828125 188.050781 183.828125 188.125 183.828125 188.273438 C 183.828125 188.199219 183.757812 188.199219 183.757812 188.273438 Z M 190.335938 165.972656 C 190.042969 165.972656 189.753906 165.898438 189.460938 165.972656 C 189.3125 165.972656 189.09375 166.046875 188.949219 166.117188 C 188.582031 165.898438 188.144531 165.753906 187.703125 165.679688 C 187.632812 165.460938 187.558594 165.167969 187.558594 164.949219 C 188.070312 164.730469 188.582031 164.511719 189.09375 164.21875 C 189.386719 164.21875 189.679688 164.144531 189.898438 164.144531 C 190.042969 164.144531 190.117188 164.070312 190.265625 164.070312 C 190.484375 164.070312 190.628906 164.21875 190.847656 164.289062 C 190.847656 164.730469 190.996094 165.023438 191.289062 165.3125 C 190.996094 165.386719 190.703125 165.679688 190.335938 165.972656 Z M 194.871094 159.757812 C 194.796875 159.757812 194.796875 159.832031 194.796875 159.832031 C 194.722656 159.757812 194.722656 159.757812 194.652344 159.683594 C 194.722656 159.683594 194.796875 159.757812 194.871094 159.757812 Z M 217.390625 178.621094 C 217.316406 178.621094 217.242188 178.695312 217.242188 178.695312 C 217.316406 178.621094 217.390625 178.621094 217.390625 178.546875 C 217.390625 178.546875 217.390625 178.546875 217.390625 178.621094 Z M 217.390625 222.5625 C 217.390625 222.488281 217.390625 222.488281 217.390625 222.414062 C 217.390625 222.488281 217.460938 222.488281 217.460938 222.5625 C 217.460938 222.5625 217.390625 222.5625 217.390625 222.5625 Z M 220.898438 157.199219 Z M 224.480469 188.273438 C 224.480469 188.273438 224.554688 188.273438 224.554688 188.273438 C 224.554688 188.273438 224.554688 188.273438 224.480469 188.273438 Z M 224.628906 199.3125 C 224.628906 199.164062 224.554688 199.019531 224.554688 198.871094 C 224.628906 198.945312 224.699219 199.09375 224.699219 199.3125 C 224.699219 199.3125 224.628906 199.3125 224.628906 199.3125 Z M 227.1875 177.960938 C 227.1875 177.960938 227.1875 177.890625 227.1875 177.890625 C 227.1875 177.890625 227.257812 177.890625 227.257812 177.890625 C 227.257812 177.890625 227.257812 177.960938 227.1875 177.960938 Z M 229.816406 178.621094 C 229.890625 178.546875 229.890625 178.472656 229.964844 178.402344 C 230.039062 178.402344 230.039062 178.472656 230.109375 178.472656 C 230.039062 178.546875 229.890625 178.621094 229.816406 178.621094 Z M 233.765625 222.707031 C 233.839844 222.636719 233.839844 222.707031 233.839844 222.707031 C 233.839844 222.707031 233.765625 222.707031 233.765625 222.707031 Z M 234.570312 157.34375 C 234.570312 157.273438 234.570312 157.273438 234.570312 157.34375 C 234.644531 157.273438 234.570312 157.34375 234.570312 157.34375 Z M 243.5625 156.101562 C 243.492188 156.101562 243.34375 156.027344 243.269531 156.027344 C 243.34375 155.808594 243.492188 155.734375 243.5625 155.734375 C 243.5625 155.808594 243.5625 155.957031 243.5625 156.101562 Z M 248.535156 158.734375 C 248.535156 158.515625 248.535156 158.296875 248.535156 158.148438 C 248.679688 158.296875 248.753906 158.515625 248.902344 158.734375 C 248.753906 158.734375 248.609375 158.734375 248.535156 158.734375 Z M 251.679688 159.609375 Z M 257.089844 155.445312 C 257.015625 155.445312 257.015625 155.445312 257.089844 155.445312 C 257.164062 155.371094 257.164062 155.296875 257.164062 155.296875 C 257.164062 155.296875 257.089844 155.371094 257.089844 155.445312 Z M 266.007812 156.980469 C 265.9375 156.832031 265.789062 156.6875 265.789062 156.613281 C 265.9375 156.761719 266.007812 156.832031 266.15625 156.980469 C 266.082031 156.980469 266.007812 156.980469 266.007812 156.980469 Z M 277.632812 160.414062 Z M 282.3125 168.386719 C 282.386719 168.386719 282.386719 168.386719 282.3125 168.386719 C 282.386719 168.386719 282.386719 168.386719 282.3125 168.386719 C 282.386719 168.457031 282.386719 168.457031 282.460938 168.457031 C 282.53125 168.53125 282.605469 168.675781 282.679688 168.75 C 282.53125 168.605469 282.460938 168.53125 282.3125 168.386719 Z M 285.96875 155.734375 C 285.382812 155.003906 284.582031 154.640625 283.703125 154.566406 C 283.777344 154.273438 283.703125 154.054688 283.628906 153.761719 C 283.628906 153.6875 283.554688 153.6875 283.554688 153.6875 C 283.777344 153.6875 283.996094 153.6875 284.214844 153.617188 C 285.09375 153.105469 285.96875 153.25 286.847656 153.761719 C 286.847656 153.980469 286.847656 154.199219 286.917969 154.347656 C 286.261719 154.710938 286.042969 155.222656 285.96875 155.734375 Z M 289.332031 217.589844 C 289.332031 217.589844 289.257812 217.515625 289.257812 217.515625 C 289.332031 217.515625 289.332031 217.515625 289.40625 217.445312 C 289.332031 217.515625 289.332031 217.589844 289.332031 217.589844 Z M 293.867188 167.582031 C 293.792969 167.582031 293.792969 167.507812 293.867188 167.582031 C 293.792969 167.507812 293.867188 167.507812 293.867188 167.582031 C 293.867188 167.507812 293.867188 167.582031 293.867188 167.582031 Z M 294.667969 170.285156 C 294.667969 170.285156 294.667969 170.210938 294.667969 170.210938 C 294.667969 170.285156 294.742188 170.285156 294.742188 170.285156 C 294.742188 170.285156 294.742188 170.285156 294.667969 170.285156 Z M 298.324219 176.867188 Z M 298.398438 177.230469 Z M 298.398438 177.085938 C 298.398438 177.011719 298.472656 176.9375 298.472656 176.867188 C 298.472656 176.867188 298.324219 176.792969 298.324219 176.792969 C 298.324219 176.792969 298.398438 176.71875 298.398438 176.71875 C 298.398438 176.792969 298.472656 176.867188 298.472656 176.9375 C 298.472656 176.9375 298.472656 176.9375 298.542969 176.9375 C 298.542969 177.011719 298.472656 177.085938 298.398438 177.085938 Z M 306.585938 201.140625 C 306.660156 201.066406 306.660156 201.066406 306.585938 201.140625 C 306.660156 201.140625 306.660156 201.140625 306.585938 201.140625 Z M 309.949219 186.445312 C 309.949219 186.445312 309.949219 186.371094 309.949219 186.445312 C 309.949219 186.371094 309.949219 186.371094 309.949219 186.445312 C 309.949219 186.371094 309.949219 186.445312 309.949219 186.445312 Z M 341.828125 182.859375 Z M 341.828125 182.933594 Z M 340.21875 192.148438 C 339.707031 191.855469 339.121094 191.78125 338.539062 191.78125 C 338.390625 191.78125 338.320312 191.78125 338.171875 191.78125 C 338.390625 191.707031 338.539062 191.5625 338.757812 191.488281 C 339.488281 190.976562 340.367188 190.609375 340.949219 189.953125 C 341.828125 190.539062 342.632812 190.539062 343.4375 189.808594 C 343.507812 189.953125 343.65625 190.097656 343.800781 190.246094 C 343.949219 190.320312 344.09375 190.390625 344.242188 190.390625 C 342.707031 190.539062 341.316406 190.757812 340.21875 192.148438 Z M 344.167969 188.710938 C 344.3125 188.710938 344.386719 188.785156 344.460938 188.929688 C 344.3125 188.855469 344.242188 188.785156 344.167969 188.710938 Z M 349.796875 195.289062 C 349.871094 195.289062 349.871094 195.289062 349.945312 195.289062 C 350.234375 195.289062 350.527344 195.289062 350.894531 195.21875 C 350.96875 195.289062 350.96875 195.363281 351.039062 195.363281 C 351.257812 195.4375 351.480469 195.363281 351.550781 195.144531 C 351.992188 195.070312 352.503906 194.996094 352.941406 194.851562 C 353.304688 194.707031 353.527344 194.414062 353.746094 194.121094 C 354.257812 194.121094 354.769531 194.121094 355.28125 194.121094 C 355.28125 194.414062 355.28125 194.707031 355.28125 194.925781 C 355.132812 197.335938 355.0625 197.335938 352.355469 198.070312 C 352.136719 198.140625 351.917969 198.359375 351.625 198.507812 C 351.332031 198.507812 351.039062 198.507812 350.746094 198.507812 C 350.527344 198.140625 350.382812 197.703125 350.015625 197.410156 C 349.359375 196.679688 349.359375 196.023438 349.796875 195.289062 Z M 348.992188 198.652344 C 348.917969 198.871094 348.992188 199.09375 349.066406 199.3125 C 349.066406 199.3125 348.992188 199.3125 348.992188 199.3125 C 348.992188 199.3125 348.917969 199.3125 348.917969 199.3125 C 348.917969 199.238281 348.917969 198.945312 348.917969 198.945312 Z M 348.992188 198.652344 " fill-opacity="1" fill-rule="nonzero"/></g></svg>