<svg xmlns="http://www.w3.org/2000/svg" xmlns:xlink="http://www.w3.org/1999/xlink" width="500" zoomAndPan="magnify" viewBox="0 0 375 374.999991" height="500" preserveAspectRatio="xMidYMid meet" version="1.0"><defs><clipPath id="26198dc5b9"><path d="M 120.5625 87 L 254.8125 87 L 254.8125 302 L 120.5625 302 Z M 120.5625 87 " clip-rule="nonzero"/></clipPath><clipPath id="7f7152c12b"><path d="M 180 56.25 L 204 56.25 L 204 318.75 L 180 318.75 Z M 180 56.25 " clip-rule="nonzero"/></clipPath></defs><g clip-path="url(#26198dc5b9)"><path fill="#000000" d="M 169.460938 289.585938 L 171.714844 289.949219 L 171.867188 290.042969 L 172.875 290.226562 L 175.121094 290.5 L 177.359375 290.71875 L 179.59375 290.875 L 181.855469 290.976562 L 184.117188 291.019531 L 186.367188 291 L 188.617188 290.921875 L 190.859375 290.78125 L 193.101562 290.582031 L 195.335938 290.324219 L 197.566406 290.003906 L 199.792969 289.621094 L 201.996094 289.1875 L 204.1875 288.691406 L 206.375 288.136719 L 208.558594 287.527344 L 210.601562 286.898438 L 212.816406 286.078125 L 214.949219 285.226562 L 216.992188 284.34375 L 218.953125 283.429688 L 220.941406 282.421875 L 222.925781 281.332031 L 224.800781 280.203125 L 226.574219 279.042969 L 228.328125 277.777344 L 230.039062 276.417969 L 231.625 275.019531 L 233.09375 273.582031 L 234.523438 272.011719 L 235.832031 270.386719 L 236.976562 268.773438 L 236.070312 270.3125 L 235.0625 271.824219 L 233.941406 273.316406 L 232.773438 274.722656 L 231.53125 276.082031 L 230.1875 277.414062 L 228.742188 278.722656 L 227.269531 279.953125 L 225.78125 281.109375 L 224.210938 282.242188 L 222.550781 283.347656 L 220.808594 284.425781 L 219.148438 285.398438 L 217.445312 286.335938 L 215.339844 287.238281 L 213.144531 288.101562 L 210.957031 288.886719 L 208.730469 289.5625 L 206.496094 290.179688 L 204.257812 290.734375 L 202.015625 291.230469 L 199.753906 291.667969 L 197.472656 292.046875 L 195.1875 292.363281 L 192.898438 292.617188 L 190.601562 292.8125 L 188.304688 292.941406 L 186.003906 293.011719 L 183.695312 293.019531 L 181.511719 292.96875 L 179.882812 292.859375 L 178.324219 292.667969 L 176.828125 292.402344 L 175.394531 292.066406 L 174.035156 291.671875 L 172.757812 291.21875 L 171.566406 290.71875 L 170.472656 290.175781 L 169.484375 289.601562 Z M 154.492188 191.105469 L 156.574219 192.621094 L 158.773438 194.082031 L 160.835938 195.34375 L 162.917969 196.523438 L 162.75 196.523438 L 160.742188 195.445312 L 158.675781 194.179688 L 156.472656 192.714844 L 154.386719 191.195312 L 152.417969 189.625 L 150.574219 188 L 148.734375 186.113281 L 147.726562 184.722656 L 149.445312 186.683594 L 151.3125 188.46875 L 153.199219 190.070312 Z M 157.867188 114.441406 L 156.382812 116.285156 L 154.984375 118.171875 L 153.667969 120.09375 L 152.410156 122.085938 L 151.210938 124.148438 L 150.109375 126.199219 L 149.074219 128.289062 L 148.089844 130.441406 L 147.1875 132.5625 L 147.675781 130.75 L 148.296875 128.871094 L 149.0625 126.949219 L 149.972656 125.015625 L 151.082031 122.992188 L 152.320312 120.933594 L 153.613281 118.949219 L 154.960938 117.035156 L 156.421875 115.128906 L 157.949219 113.292969 L 159.535156 111.539062 L 161.195312 109.847656 L 162.9375 108.21875 L 164.660156 106.695312 L 166.191406 105.300781 L 167.777344 103.964844 L 169.386719 102.703125 L 167.410156 104.050781 L 165.492188 105.480469 L 163.636719 106.996094 L 161.925781 108.507812 L 160.382812 109.921875 L 158.921875 111.296875 L 157.519531 112.632812 L 156.171875 113.933594 L 154.886719 115.183594 L 153.667969 116.363281 L 152.535156 117.429688 L 151.585938 118.265625 L 152.964844 116.269531 L 154.445312 114.296875 L 156.011719 112.382812 L 157.640625 110.542969 L 159.339844 108.78125 L 161.128906 107.074219 L 162.988281 105.449219 L 164.914062 103.90625 L 166.898438 102.453125 L 168.949219 101.085938 L 171.0625 99.800781 L 173.226562 98.605469 L 175.410156 97.515625 L 177.652344 96.503906 L 179.957031 95.570312 L 182.253906 94.742188 L 184.570312 93.996094 L 186.9375 93.324219 L 189.359375 92.726562 L 191.707031 92.222656 L 194.089844 91.789062 L 196.519531 91.417969 L 198.996094 91.109375 L 201.65625 91.007812 L 204.132812 91.042969 L 206.5625 91.1875 L 209.097656 91.480469 L 211.539062 91.910156 L 213.996094 92.507812 L 216.410156 93.28125 L 218.746094 94.230469 L 221.035156 95.394531 L 221.558594 96.382812 L 225.316406 97.992188 L 227.15625 99.566406 L 228.929688 101.183594 L 230.765625 102.921875 L 232.402344 104.5 L 234.167969 106.234375 L 235.824219 107.882812 L 237.5 109.5625 L 239.265625 111.34375 L 240.476562 112.546875 L 239.195312 111.042969 L 237.753906 109.386719 L 236.390625 107.816406 L 235.105469 106.335938 L 233.632812 104.683594 L 232.265625 103.148438 L 230.855469 101.601562 L 229.40625 100.039062 L 227.792969 98.453125 L 225.851562 96.816406 L 226.832031 97.128906 L 227.996094 97.644531 L 229.335938 98.398438 L 230.5 99.082031 L 231.757812 99.933594 L 233.097656 100.953125 L 234.273438 101.90625 L 235.523438 103.011719 L 236.925781 104.367188 L 238.539062 105.972656 L 240.25 107.691406 L 241.980469 109.441406 L 243.59375 111.085938 L 245.285156 112.816406 L 247.019531 114.597656 L 248.609375 116.238281 L 250.257812 117.945312 L 251.964844 119.71875 L 244 126.359375 L 242.609375 124.460938 L 241.21875 122.628906 L 239.828125 120.859375 L 238.414062 119.121094 L 236.898438 117.332031 L 235.390625 115.625 L 233.886719 113.996094 L 233.121094 113.25 L 234.277344 114.675781 L 232.78125 113.101562 L 231.144531 111.460938 L 229.515625 109.917969 L 227.894531 108.46875 L 226.210938 107.054688 L 224.457031 105.679688 L 222.714844 104.417969 L 220.953125 103.242188 L 219.089844 102.113281 L 217.242188 101.109375 L 218.453125 101.925781 L 218.96875 102.527344 L 217.261719 101.734375 L 215.582031 101.046875 L 213.8125 100.414062 L 212.070312 99.898438 L 210.269531 99.386719 L 208.34375 98.917969 L 206.429688 98.585938 L 204.519531 98.386719 L 202.59375 98.320312 L 200.664062 98.390625 L 199.164062 98.660156 L 197.800781 99.089844 L 195.917969 99.566406 L 193.667969 100.082031 L 191.367188 100.585938 L 189.214844 101.101562 L 187.0625 101.679688 L 184.980469 102.304688 L 182.964844 102.976562 L 180.953125 103.71875 L 178.941406 104.539062 L 177.003906 105.410156 L 175.140625 106.332031 L 173.726562 107.308594 L 172.539062 108.300781 L 171.269531 109.289062 L 169.925781 110.265625 L 168.320312 111.441406 L 166.730469 112.722656 L 165.21875 114.058594 L 163.78125 115.457031 L 162.417969 116.917969 L 161.125 118.449219 L 159.902344 120.042969 L 158.75 121.707031 L 157.6875 123.398438 L 156.695312 125.160156 L 155.769531 126.996094 L 154.921875 128.867188 L 154.160156 130.753906 L 153.457031 132.707031 L 152.820312 134.734375 L 151.898438 137.46875 L 151.238281 139.433594 L 150.683594 141.355469 L 150.214844 143.332031 L 149.847656 145.28125 L 149.59375 147.203125 L 149.445312 149.148438 L 149.410156 151.050781 L 149.496094 152.945312 L 149.699219 154.816406 L 150.019531 156.660156 L 150.460938 158.480469 L 151.023438 160.277344 L 151.699219 162.03125 L 152.492188 163.769531 L 153.398438 165.476562 L 154.402344 167.128906 L 155.53125 168.777344 L 156.734375 170.355469 L 158.03125 171.90625 L 159.445312 173.453125 L 160.992188 174.957031 L 162.640625 176.511719 L 164.246094 177.972656 L 165.910156 179.421875 L 167.636719 180.855469 L 169.304688 182.167969 L 170.996094 183.414062 L 172.765625 184.625 L 174.445312 185.675781 L 176.1875 186.652344 L 177.882812 187.472656 L 180.117188 188.484375 L 181.335938 188.972656 L 183.273438 189.578125 L 185.179688 190.082031 L 187.445312 190.621094 L 189.757812 191.121094 L 191.8125 191.535156 L 194.035156 191.960938 L 196.433594 192.394531 L 198.9375 192.828125 L 201.042969 193.179688 L 203.246094 193.53125 L 205.550781 193.894531 L 207.839844 194.242188 L 209.585938 194.554688 L 211.289062 194.941406 L 213.839844 195.773438 L 215.359375 196.539062 L 216.6875 197.355469 L 217.835938 198.203125 L 220.34375 199.273438 L 222.773438 200.476562 L 224.9375 201.683594 L 227.460938 203.257812 L 229.835938 205.074219 L 231.972656 207.03125 L 233.914062 209.136719 L 235.722656 211.425781 L 237.246094 213.65625 L 238.652344 216.003906 L 239.957031 218.488281 L 241.039062 220.820312 L 242.039062 223.242188 L 242.964844 225.761719 L 243.824219 229.066406 L 244.300781 231.644531 L 244.714844 234.171875 L 245.066406 236.652344 L 245.359375 239.082031 L 245.589844 241.464844 L 245.671875 242.992188 L 245.351562 240.925781 L 244.992188 238.945312 L 244.59375 236.9375 L 244.152344 234.902344 L 243.667969 232.835938 L 243.144531 230.742188 L 242.578125 228.621094 L 241.65625 225.945312 L 240.75 223.933594 L 239.796875 222.003906 L 238.796875 220.160156 L 237.683594 218.261719 L 236.46875 216.382812 L 235.195312 214.609375 L 233.863281 212.945312 L 232.335938 211.226562 L 230.738281 209.652344 L 229.074219 208.222656 L 227.003906 206.472656 L 224.785156 204.925781 L 222.625 203.664062 L 220.382812 202.472656 L 218.0625 201.398438 L 215.664062 200.445312 L 213.191406 199.613281 L 210.234375 198.902344 L 207.699219 198.53125 L 205.261719 198.160156 L 202.925781 197.796875 L 200.683594 197.441406 L 198.542969 197.085938 L 196.070312 196.660156 L 193.613281 196.21875 L 191.320312 195.785156 L 189.191406 195.359375 L 186.890625 194.867188 L 184.472656 194.300781 L 182.390625 193.757812 L 180.28125 193.117188 L 178.390625 192.386719 L 176.480469 191.546875 L 174.804688 190.945312 L 173.042969 190.191406 L 171.398438 189.410156 L 169.746094 188.539062 L 168.035156 187.550781 L 166.402344 186.546875 L 164.703125 185.304688 L 162.945312 183.945312 L 161.140625 182.480469 L 159.746094 181.308594 L 158.9375 180.699219 L 157.21875 179.082031 L 155.464844 177.371094 L 153.910156 175.6875 L 152.445312 173.941406 L 151.078125 172.15625 L 149.773438 170.265625 L 148.605469 168.351562 L 147.535156 166.363281 L 146.589844 164.320312 L 145.785156 162.242188 L 145.105469 160.101562 L 144.570312 157.929688 L 144.175781 155.734375 L 143.925781 153.507812 L 143.816406 151.261719 L 143.847656 149.03125 L 144.011719 146.761719 L 144.300781 144.539062 L 144.710938 142.3125 L 145.238281 140.066406 L 145.855469 137.914062 L 146.582031 135.726562 L 147.410156 133.300781 L 148.109375 131.070312 L 148.878906 128.90625 L 149.71875 126.804688 L 150.65625 124.722656 L 151.691406 122.664062 L 152.804688 120.675781 L 153.992188 118.761719 L 155.292969 116.875 L 156.671875 115.0625 L 158.136719 113.324219 L 159.679688 111.660156 L 161.300781 110.070312 L 163.007812 108.554688 L 164.796875 107.105469 L 166.613281 105.769531 L 168.503906 104.5 L 170.476562 103.296875 L 172.503906 102.175781 L 174.515625 101.160156 L 176.605469 100.203125 L 178.765625 99.308594 L 180.945312 98.488281 L 183.089844 97.761719 L 185.300781 97.085938 L 187.574219 96.460938 L 189.875 95.898438 L 192.085938 95.417969 L 194.355469 94.980469 L 196.675781 94.589844 L 199.054688 94.242188 L 201.269531 94.050781 L 203.5 94.03125 L 205.730469 94.171875 L 207.929688 94.464844 L 209.882812 94.792969 L 208.398438 94.429688 L 206.191406 94.105469 L 203.960938 93.933594 L 201.71875 93.921875 L 199.527344 94.066406 L 197.136719 94.402344 L 194.800781 94.789062 L 192.519531 95.214844 L 190.292969 95.6875 L 188.015625 96.234375 L 185.726562 96.847656 L 183.5 97.511719 L 181.339844 98.230469 L 179.171875 99.027344 L 176.992188 99.914062 L 174.886719 100.859375 L 172.855469 101.863281 L 170.828125 102.964844 L 168.839844 104.15625 L 166.925781 105.414062 L 165.09375 106.734375 L 163.289062 108.167969 L 161.566406 109.675781 L 159.921875 111.25 L 158.359375 112.902344 L 156.875 114.632812 L 155.472656 116.4375 L 154.15625 118.3125 L 152.941406 120.222656 L 151.8125 122.199219 L 150.757812 124.25 L 149.792969 126.34375 L 148.9375 128.433594 L 148.152344 130.589844 L 147.4375 132.8125 L 146.636719 135.242188 L 145.886719 137.4375 L 145.246094 139.601562 L 144.699219 141.832031 L 144.261719 144.074219 L 143.953125 146.285156 L 143.75 146.351562 L 143.621094 145.109375 L 143.574219 143.765625 L 143.621094 142.316406 L 143.765625 140.769531 L 144.003906 139.183594 L 143.605469 140.59375 L 143.105469 142.914062 L 142.734375 145.203125 L 142.484375 147.535156 L 142.367188 149.875 L 142.390625 152.1875 L 142.558594 154.527344 L 142.878906 156.835938 L 143.339844 159.109375 L 143.695312 161.039062 L 144.15625 162.960938 L 144.804688 164.929688 L 145.722656 166.746094 L 146.796875 168.511719 L 147.929688 170.175781 L 149.15625 171.804688 L 150.472656 173.398438 L 151.804688 174.871094 L 153.222656 176.320312 L 154.785156 177.929688 L 156.527344 179.628906 L 158.261719 181.265625 L 159.960938 182.808594 L 161.734375 184.351562 L 163.589844 185.890625 L 165.402344 187.3125 L 167.128906 188.460938 L 168.929688 189.535156 L 170.675781 190.488281 L 172.417969 191.347656 L 174.296875 192.175781 L 176.089844 192.839844 L 177.824219 193.480469 L 179.546875 194.015625 L 181.582031 194.507812 L 183.34375 194.839844 L 185.554688 195.339844 L 188.101562 195.902344 L 190.160156 196.328125 L 192.386719 196.761719 L 194.773438 197.199219 L 197.324219 197.648438 L 199.550781 198.019531 L 201.75 198.378906 L 204.046875 198.742188 L 206.441406 199.105469 L 208.933594 199.476562 L 211.808594 199.996094 L 214.28125 200.761719 L 216.675781 201.640625 L 218.992188 202.644531 L 221.234375 203.761719 L 223.332031 204.9375 L 225.550781 206.34375 L 227.648438 207.96875 L 229.535156 209.726562 L 231.273438 211.632812 L 232.902344 213.71875 L 234.28125 215.757812 L 235.574219 217.9375 L 236.78125 220.257812 L 237.78125 222.4375 L 238.71875 224.726562 L 239.589844 227.125 L 240.292969 229.945312 L 240.75 232.449219 L 241.148438 234.898438 L 241.488281 237.296875 L 241.765625 239.644531 L 241.984375 241.9375 L 242.15625 244.472656 L 242.230469 246.96875 L 242.09375 249.054688 L 241.894531 251.082031 L 241.636719 253.046875 L 241.320312 254.984375 L 240.902344 257.136719 L 240.40625 259.207031 L 239.828125 261.191406 L 239.171875 263.09375 L 238.4375 264.910156 L 237.539062 266.855469 L 236.542969 268.695312 L 235.449219 270.425781 L 234.265625 272.042969 L 232.988281 273.613281 L 231.535156 275.625 L 230.199219 277.28125 L 228.851562 278.636719 L 227.539062 280.101562 L 226.234375 281.75 L 225.570312 282.785156 L 224.429688 284.246094 L 222.484375 286.171875 L 220.660156 287.78125 L 218.792969 289.296875 L 216.890625 290.71875 L 215.78125 291.6875 L 214.753906 292.644531 L 213.238281 293.792969 L 211.300781 295.03125 L 209.007812 296.253906 L 206.730469 297.28125 L 204.460938 298.179688 L 202.15625 298.96875 L 199.816406 299.65625 L 197.433594 300.238281 L 195.011719 300.714844 L 192.21875 301.066406 L 189.753906 300.835938 L 187.332031 300.589844 L 184.945312 300.324219 L 182.597656 300.046875 L 180.285156 299.75 L 177.871094 299.417969 L 175.445312 299.058594 L 173.066406 298.679688 L 170.730469 298.28125 L 168.441406 297.863281 L 166.027344 297.394531 L 163.632812 296.894531 L 161.289062 296.367188 L 159 295.820312 L 156.691406 295.230469 L 154.300781 294.574219 L 151.976562 293.894531 L 149.714844 293.183594 L 147.464844 292.421875 L 145.125 291.574219 L 142.863281 290.691406 L 141.167969 290 L 143.019531 290.925781 L 144.933594 291.824219 L 146.917969 292.703125 L 148.863281 293.519531 L 150.769531 294.285156 L 152.730469 295.03125 L 154.746094 295.757812 L 156.8125 296.460938 L 157.5 296.742188 L 155.085938 296.101562 L 152.707031 295.425781 L 150.394531 294.722656 L 148.144531 293.988281 L 145.789062 293.160156 L 143.460938 292.285156 L 141.214844 291.371094 L 139.023438 290.410156 L 136.722656 289.320312 L 134.515625 288.183594 L 132.402344 287 L 130.246094 285.683594 L 128.148438 284.277344 L 126.167969 282.8125 L 124.199219 281.199219 L 122.3125 279.480469 L 120.570312 277.6875 L 125.589844 274.335938 L 127.625 275.574219 L 129.652344 276.769531 L 131.675781 277.921875 L 133.691406 279.03125 L 135.730469 280.113281 L 137.855469 281.195312 L 139.976562 282.230469 L 142.089844 283.21875 L 144.199219 284.160156 L 146.300781 285.054688 L 148.492188 285.9375 L 150.695312 286.777344 L 152.890625 287.5625 L 155.078125 288.296875 L 157.261719 288.976562 L 159.511719 289.625 L 161.777344 290.226562 L 164.035156 290.769531 L 166.289062 291.257812 L 168.535156 291.6875 L 170.839844 292.070312 L 173.144531 292.398438 L 175.441406 292.664062 L 177.730469 292.871094 L 180.027344 293.019531 L 182.347656 293.109375 L 184.660156 293.136719 L 186.96875 293.101562 L 189.269531 293.007812 L 191.570312 292.847656 L 193.867188 292.628906 L 196.160156 292.347656 L 198.445312 292.007812 L 200.726562 291.601562 L 202.976562 291.140625 L 205.21875 290.621094 L 207.460938 290.039062 L 209.695312 289.398438 L 211.863281 288.695312 L 214.113281 287.847656 L 216.277344 286.96875 L 218.355469 286.054688 L 220.351562 285.101562 L 222.4375 284.027344 L 224.460938 282.890625 L 226.382812 281.710938 L 228.203125 280.488281 L 230.050781 279.128906 L 231.816406 277.691406 L 233.457031 276.210938 L 234.992188 274.664062 L 236.484375 272.980469 L 237.84375 271.238281 L 239.070312 269.441406 L 240.1875 267.554688 L 241.171875 265.59375 L 242.027344 263.570312 L 242.742188 261.503906 L 243.316406 259.402344 L 243.769531 257.234375 L 244.089844 255 L 244.277344 252.847656 L 244.351562 250.628906 L 244.3125 248.351562 L 244.167969 246.082031 L 243.929688 243.898438 L 243.597656 241.660156 L 243.167969 239.371094 L 242.65625 237.277344 L 241.90625 235.238281 L 241.007812 233.277344 L 239.960938 231.398438 L 238.765625 229.597656 L 237.417969 227.871094 L 235.972656 226.277344 L 234.382812 224.75 L 232.6875 223.316406 L 230.9375 222.011719 L 229.058594 220.765625 L 227.441406 219.917969 L 220.703125 217.515625 L 218.460938 216.71875 L 211.722656 214.316406 L 209.480469 213.519531 L 204.988281 211.917969 L 202.746094 211.117188 L 200.5 210.320312 L 196.007812 208.71875 L 193.765625 207.917969 L 191.519531 207.121094 L 187.027344 205.519531 L 184.785156 204.71875 L 184.011719 204.386719 L 185.945312 204.90625 L 187.875 205.429688 L 189.808594 205.949219 L 191.738281 206.472656 L 193.671875 206.992188 L 195.601562 207.511719 L 196.882812 207.828125 L 192.390625 206.226562 L 190.144531 205.429688 L 187.902344 204.628906 L 183.410156 203.027344 L 181.164062 202.230469 L 178.921875 201.429688 L 174.429688 199.828125 L 172.183594 199.03125 L 169.738281 197.976562 L 167.460938 196.914062 L 165.273438 195.816406 L 163.175781 194.683594 L 161.164062 193.519531 L 159.097656 192.226562 L 156.988281 190.789062 L 155 189.308594 L 153.136719 187.777344 L 151.390625 186.199219 L 149.664062 184.347656 L 148.09375 182.414062 L 146.65625 180.390625 L 145.34375 178.285156 L 144.164062 176.09375 L 143.144531 173.890625 L 142.257812 171.632812 L 141.488281 169.300781 L 140.84375 166.898438 L 140.316406 164.421875 L 139.925781 162.003906 L 139.800781 160.390625 L 139.601562 158.027344 L 139.492188 155.605469 L 139.476562 153.128906 L 139.554688 150.597656 L 139.71875 148.101562 L 139.9375 145.832031 L 140.222656 143.519531 L 140.578125 141.164062 L 141 138.769531 L 141.492188 136.328125 L 142.050781 133.851562 L 142.742188 131.300781 L 143.53125 128.960938 L 144.367188 126.683594 L 145.25 124.472656 L 146.210938 122.257812 L 147.265625 120.023438 L 148.371094 117.863281 L 149.53125 115.777344 L 150.808594 113.671875 L 152.164062 111.621094 L 153.582031 109.652344 L 155.082031 107.746094 L 156.695312 105.871094 L 158.378906 104.089844 L 160.125 102.40625 L 161.984375 100.78125 L 163.914062 99.253906 L 165.914062 97.828125 L 167.980469 96.507812 L 170.109375 95.289062 L 172.308594 94.167969 L 174.542969 93.167969 L 176.8125 92.273438 L 179.144531 91.472656 L 181.511719 90.777344 L 183.847656 90.195312 L 186.242188 89.699219 L 188.691406 89.289062 L 191.425781 89.230469 L 193.882812 89.34375 L 196.292969 89.515625 L 198.660156 89.742188 L 201.0625 90.035156 L 203.507812 90.402344 L 205.898438 90.835938 L 208.238281 91.335938 L 210.601562 91.917969 L 212.980469 92.59375 L 215.296875 93.339844 L 217.554688 94.164062 L 219.835938 95.097656 L 222.070312 96.121094 L 224.242188 97.222656 L 226.359375 98.417969 L 228.453125 99.722656 L 230.472656 101.113281 L 232.421875 102.589844 L 234.300781 104.152344 L 236.113281 105.804688 L 237.847656 107.539062 L 239.5 109.347656 L 241.058594 111.210938 L 242.546875 113.15625 L 243.964844 115.179688 L 245.265625 117.210938 L 246.078125 118.820312 L 246.523438 120.074219 L 246.90625 121.304688 L 247.230469 122.503906 L 247.496094 123.660156 L 246.75 122.316406 L 245.617188 120.1875 L 244.421875 118.128906 L 243.164062 116.136719 L 241.785156 114.144531 L 240.339844 112.226562 L 238.824219 110.394531 L 237.222656 108.617188 L 235.535156 106.90625 L 233.777344 105.28125 L 231.949219 103.738281 L 230.050781 102.285156 L 228.085938 100.914062 L 226.050781 99.625 L 223.980469 98.441406 L 221.863281 97.347656 L 219.679688 96.332031 L 217.4375 95.402344 L 215.234375 94.582031 L 212.964844 93.839844 L 210.636719 93.164062 L 208.300781 92.578125 L 206.007812 92.074219 L 203.65625 91.640625 L 201.253906 91.265625 L 199.164062 91.128906 L 197.207031 91.082031 L 195.230469 91.074219 L 193.226562 91.105469 L 191.195312 91.175781 L 189.234375 91.34375 L 187.269531 91.816406 L 185.355469 92.347656 L 183.496094 92.933594 L 181.679688 93.574219 L 179.832031 94.292969 L 178.039062 95.074219 L 176.300781 95.914062 L 174.617188 96.8125 L 172.945312 97.789062 L 171.332031 98.824219 L 169.773438 99.914062 L 168.269531 101.066406 L 166.566406 102.335938 L 164.789062 103.726562 L 163.074219 105.210938 L 161.453125 106.757812 L 159.894531 108.386719 L 158.394531 110.113281 L 156.988281 111.882812 L 155.660156 113.703125 L 154.390625 115.609375 L 153.179688 117.589844 L 152.082031 119.539062 L 151.03125 121.570312 L 150.03125 123.675781 L 149.105469 125.789062 L 148.261719 127.886719 L 147.457031 130.050781 L 146.695312 132.285156 L 146.074219 134.503906 L 145.527344 136.902344 L 145.046875 139.253906 L 144.632812 141.554688 L 144.285156 143.8125 L 144.003906 146.023438 L 143.789062 148.1875 L 143.628906 150.515625 L 143.546875 152.910156 L 143.550781 155.242188 L 143.640625 157.507812 L 143.691406 159.515625 L 143.769531 161.402344 L 143.925781 163.34375 L 144.1875 165.375 L 144.53125 167.363281 L 144.996094 169.339844 L 145.753906 171.460938 L 146.621094 173.503906 L 146.816406 173.765625 L 146.175781 171.957031 L 145.625 170.101562 L 145.160156 168.203125 L 144.777344 166.261719 L 144.480469 164.273438 L 144.269531 162.257812 L 144.164062 160.402344 L 144.125 158.511719 L 144.207031 158.652344 L 144.429688 160.800781 L 144.746094 162.949219 L 145.195312 165.214844 L 145.746094 167.398438 L 146.40625 169.507812 L 147.167969 171.539062 L 148.035156 173.496094 L 149.046875 175.453125 L 150.171875 177.335938 L 151.414062 179.144531 L 152.773438 180.878906 L 154.246094 182.542969 L 155.707031 183.902344 L 157.371094 185.300781 L 159.160156 186.671875 L 161.074219 188.007812 L 163.046875 189.269531 L 164.902344 190.363281 L 166.601562 191.121094 L 168.359375 191.859375 L 170.179688 192.578125 L 172.058594 193.269531 L 173.996094 193.945312 L 175.726562 194.394531 L 177.65625 194.914062 L 179.589844 195.4375 L 181.519531 195.957031 L 183.453125 196.476562 L 185.382812 197 L 187.316406 197.519531 L 189.300781 198.089844 L 193.792969 199.691406 L 196.039062 200.488281 L 198.285156 201.289062 L 200.527344 202.089844 L 202.773438 202.890625 L 205.019531 203.6875 L 205.964844 203.972656 L 210.457031 205.574219 L 212.699219 206.371094 L 219.4375 208.773438 L 221.679688 209.570312 L 228.417969 211.972656 L 230.664062 212.769531 L 233.820312 214.53125 L 235.933594 215.90625 L 237.757812 217.109375 L 235.652344 215.53125 L 233.417969 214.042969 L 230.230469 212.40625 L 227.984375 211.605469 L 225.738281 210.808594 L 221.246094 209.207031 L 219.003906 208.40625 L 216.757812 207.609375 L 212.265625 206.007812 L 210.023438 205.207031 L 207.777344 204.40625 L 205.53125 203.609375 L 203.1875 202.769531 L 200.898438 201.816406 L 199.8125 201.160156 L 201.410156 201.554688 L 203.476562 202.15625 L 205.539062 202.761719 L 207.753906 203.527344 L 210 204.328125 L 212.246094 205.125 L 214.488281 205.925781 L 213.035156 205.257812 L 211.210938 204.441406 L 209.914062 203.832031 L 216.652344 206.234375 L 218.894531 207.035156 L 221.140625 207.832031 L 227.878906 210.234375 L 229.957031 210.875 L 233.128906 212.109375 L 235.261719 213.277344 L 237.308594 214.527344 L 239.273438 215.859375 L 241.269531 217.375 L 243.175781 219.011719 L 244.976562 220.746094 L 246.738281 222.75 L 248.445312 225.191406 L 249.949219 227.75 L 251.253906 230.421875 L 252.347656 233.195312 L 253.273438 236.445312 L 253.804688 239.121094 L 254.230469 241.765625 L 254.542969 244.382812 L 254.753906 247.054688 L 254.84375 249.863281 L 254.796875 252.445312 L 254.5625 254.289062 L 254.132812 255.859375 L 253.652344 257.828125 L 253.140625 260.617188 L 252.464844 263.34375 L 251.429688 266.292969 L 250.527344 267.976562 L 250.769531 266.8125 L 251.476562 264.394531 L 252.152344 261.820312 L 252.734375 259.105469 L 253.148438 256.015625 L 253.152344 253.800781 L 252.953125 253.296875 L 252.730469 255.917969 L 252.335938 258.664062 L 251.78125 261.359375 L 251.050781 263.707031 L 250.183594 265.828125 L 249.191406 267.921875 L 248.089844 269.941406 L 246.878906 271.890625 L 245.570312 273.75 L 245.183594 274.070312 L 246.28125 272.019531 L 247.269531 269.894531 L 248.109375 267.765625 L 246.996094 269.804688 L 245.765625 271.773438 L 244.4375 273.636719 L 243.117188 275.523438 L 241.8125 277.410156 L 240.390625 279.246094 L 238.921875 280.960938 L 237.386719 282.59375 L 235.511719 284.25 L 233.394531 285.878906 L 231.316406 287.328125 L 229.1875 288.6875 L 226.964844 289.988281 L 224.644531 291.230469 L 222.421875 292.324219 L 220.179688 293.34375 L 217.859375 294.320312 L 215.464844 295.253906 L 212.894531 296.152344 L 210.480469 296.875 L 208.058594 297.535156 L 205.628906 298.128906 L 203.191406 298.65625 L 200.730469 299.121094 L 198.25 299.523438 L 195.761719 299.859375 L 193.269531 300.125 L 193.523438 300.015625 L 195.667969 299.640625 L 197.800781 299.214844 L 199.921875 298.738281 L 202.035156 298.214844 L 204.105469 297.648438 L 206.167969 297.035156 L 206.867188 296.582031 L 206.867188 296.375 L 204.472656 296.9375 L 202.070312 297.433594 L 199.632812 297.875 L 197.1875 298.246094 L 194.734375 298.550781 L 192.277344 298.792969 L 189.816406 298.96875 L 187.351562 299.074219 L 184.886719 299.117188 L 182.410156 299.09375 L 179.933594 299.003906 L 177.480469 298.851562 L 175.039062 298.636719 L 172.589844 298.359375 L 170.136719 298.015625 L 167.679688 297.609375 L 165.292969 297.160156 L 162.90625 296.648438 L 160.511719 296.078125 L 158.117188 295.449219 L 155.730469 294.761719 L 154.496094 294.574219 L 153.710938 294.59375 L 151.394531 293.832031 L 149.078125 293.019531 L 146.757812 292.148438 L 144.4375 291.226562 L 142.210938 290.292969 L 140 289.320312 L 137.785156 288.296875 L 135.566406 287.226562 L 133.347656 286.105469 L 131.1875 284.972656 L 129.085938 283.828125 L 127.113281 282.679688 L 125.382812 281.507812 L 123.898438 280.335938 L 121.832031 279.046875 L 125.40625 274.089844 L 126.941406 275.613281 L 128.613281 277.09375 L 130.335938 278.460938 L 132.125 279.75 L 134.035156 280.996094 L 135.96875 282.148438 L 137.921875 283.214844 L 138.972656 283.855469 L 137.886719 283.601562 L 136.773438 283.292969 L 135.636719 282.933594 L 135.152344 282.855469 L 137.121094 283.945312 L 139.191406 285 L 141.355469 286.015625 L 143.410156 286.910156 L 145.550781 287.769531 L 147.773438 288.601562 L 150.003906 289.375 L 152.164062 290.074219 L 154.207031 290.5625 L 156.417969 291.140625 L 156.386719 291.042969 L 156.632812 291.027344 L 158.949219 291.640625 L 161.152344 292.183594 L 163.410156 292.707031 L 165.726562 293.207031 L 168.101562 293.683594 L 170.378906 294.113281 L 172.648438 294.511719 L 174.960938 294.890625 L 177.324219 295.253906 L 179.734375 295.597656 L 182.023438 295.898438 L 184.320312 296.183594 L 186.652344 296.449219 L 189.027344 296.703125 L 191.4375 296.9375 L 193.246094 296.90625 L 195.511719 296.507812 L 197.734375 296.015625 L 199.917969 295.425781 L 202.0625 294.742188 L 204.171875 293.960938 L 205.949219 293.085938 L 205.773438 293.074219 L 203.699219 293.933594 L 201.59375 294.691406 L 199.449219 295.355469 L 197.265625 295.925781 L 195.042969 296.398438 L 192.78125 296.777344 L 190.992188 296.695312 L 188.589844 296.457031 L 186.222656 296.203125 L 184.113281 295.871094 L 186.039062 296.066406 L 188.398438 296.324219 L 190.796875 296.5625 L 192.570312 296.691406 L 194.832031 296.320312 L 197.054688 295.859375 L 199.234375 295.296875 L 201.375 294.644531 L 203.480469 293.894531 L 205.554688 293.046875 L 207.589844 292.101562 L 208.695312 291.628906 L 210.679688 290.535156 L 212.625 289.34375 L 214.480469 288.09375 L 216.273438 286.777344 L 218.035156 285.367188 L 219.761719 283.867188 L 221.277344 282.328125 L 222.65625 280.769531 L 223.917969 279.246094 L 225.152344 277.660156 L 226.363281 276.019531 L 227.546875 274.320312 L 228.464844 272.835938 L 228.503906 272.277344 L 228.933594 271.21875 L 229.722656 269.691406 L 230.523438 268.117188 L 231.414062 266.203125 L 232.328125 263.933594 L 233.027344 261.871094 L 233.554688 259.921875 L 233.984375 257.855469 L 234.324219 255.667969 L 234.554688 253.472656 L 234.6875 251.410156 L 234.746094 249.253906 L 234.726562 247.015625 L 234.628906 244.6875 L 234.46875 242.390625 L 234.261719 240.269531 L 234 238.085938 L 233.679688 235.839844 L 233.300781 233.535156 L 232.847656 231.21875 L 232.324219 229.820312 L 231.507812 227.941406 L 230.6875 226.0625 L 229.847656 224.191406 L 228.878906 222.265625 L 227.832031 220.4375 L 226.738281 218.765625 L 225.515625 217.136719 L 224.207031 215.648438 L 222.855469 214.328125 L 221.359375 213.113281 L 219.804688 212.070312 L 217.925781 211 L 216.109375 210.058594 L 214.214844 209.210938 L 212.242188 208.453125 L 210.1875 207.789062 L 208.4375 207.421875 L 205.886719 207.046875 L 203.433594 206.675781 L 201.078125 206.304688 L 198.8125 205.941406 L 196.644531 205.578125 L 194.015625 205.125 L 191.515625 204.667969 L 189.171875 204.222656 L 186.980469 203.777344 L 184.421875 203.21875 L 181.871094 202.609375 L 179.59375 202 L 176.875 201.140625 L 174.148438 199.992188 L 172.464844 199.246094 L 170.007812 198.046875 L 167.667969 196.730469 L 165.503906 195.367188 L 163.3125 193.863281 L 161.300781 192.367188 L 159.339844 190.824219 L 157.355469 189.171875 L 155.488281 187.539062 L 153.695312 185.90625 L 151.875 184.183594 L 149.933594 182.277344 L 148.148438 180.3125 L 146.480469 178.308594 L 144.914062 176.289062 L 143.433594 174.296875 L 142.050781 172.03125 L 140.78125 169.652344 L 139.648438 167.191406 L 138.671875 164.675781 L 137.851562 162.070312 L 137.199219 159.425781 L 136.730469 156.679688 L 136.566406 154.234375 L 136.429688 151.527344 L 136.453125 148.851562 L 136.644531 146.160156 L 136.972656 143.539062 L 137.445312 140.9375 L 138.050781 138.335938 L 138.75 135.871094 L 139.566406 133.394531 L 140.273438 131.371094 L 141.050781 128.871094 L 141.910156 126.429688 L 142.855469 124.054688 L 143.914062 121.6875 L 145.089844 119.332031 L 146.363281 117.050781 L 147.726562 114.84375 L 149.21875 112.667969 L 150.808594 110.570312 L 152.5 108.550781 L 154.28125 106.621094 L 156.148438 104.78125 L 158.109375 103.027344 L 160.164062 101.359375 L 162.246094 99.816406 L 164.402344 98.367188 L 166.636719 96.996094 L 168.929688 95.71875 L 171.191406 94.574219 L 173.515625 93.503906 L 175.644531 92.644531 L 177.753906 91.9375 L 179.6875 91.414062 L 181.558594 91.019531 L 183.339844 90.746094 L 185.007812 90.585938 L 186.988281 90.261719 L 189.398438 89.699219 L 191.777344 89.203125 L 194.207031 88.757812 L 196.691406 88.363281 L 199.371094 88.007812 L 202.042969 87.871094 L 204.710938 87.921875 L 207.359375 88.160156 L 209.976562 88.582031 L 212.582031 89.179688 L 215.074219 89.925781 L 217.535156 90.828125 L 219.96875 91.882812 L 222.234375 93.011719 L 224.484375 94.273438 L 226.707031 95.660156 L 228.75 97.058594 L 230.78125 98.566406 L 232.800781 100.179688 L 234.667969 101.777344 L 236.496094 103.441406 L 238.316406 105.195312 L 240.082031 106.988281 L 241.730469 108.746094 L 243.371094 110.578125 L 245.011719 112.480469 L 246.585938 114.390625 L 248.074219 116.257812 L 249.558594 118.191406 L 251.035156 120.183594 L 245.859375 126.8125 L 244.140625 125.027344 L 242.480469 123.304688 L 240.878906 121.652344 L 239.222656 119.945312 L 237.519531 118.199219 L 235.894531 116.539062 L 234.253906 114.875 L 232.527344 113.140625 L 230.914062 111.527344 L 229.199219 109.832031 L 227.523438 108.195312 L 225.832031 106.574219 L 224.164062 105.015625 L 222.4375 103.46875 L 220.875 102.203125 L 219.105469 101.28125 L 217.347656 100.273438 L 215.480469 99.402344 L 213.570312 98.691406 L 211.53125 98.105469 L 209.492188 97.664062 L 207.375 97.34375 L 205.191406 97.144531 L 203.054688 97.054688 L 200.820312 97.066406 L 198.738281 97.222656 L 196.449219 97.53125 L 194.210938 97.898438 L 192.027344 98.324219 L 189.828125 98.824219 L 187.625 99.398438 L 185.480469 100.039062 L 183.390625 100.742188 L 181.289062 101.539062 L 179.226562 102.410156 L 177.226562 103.351562 L 175.277344 104.363281 L 173.34375 105.472656 L 171.476562 106.652344 L 169.667969 107.90625 L 167.914062 109.238281 L 166.214844 110.644531 L 164.578125 112.125 L 163.003906 113.679688 L 161.503906 115.285156 L 160.0625 116.964844 L 158.675781 118.722656 L 157.378906 120.507812 L 156.148438 122.34375 L 155.117188 123.988281 L 154.269531 125.328125 L 153.433594 126.609375 L 152.617188 127.808594 L 151.800781 128.964844 L 150.984375 130.070312 L 150.167969 131.121094 L 149.359375 132.109375 L 148.558594 133.019531 L 148.769531 132.070312 L 149.671875 129.953125 L 150.398438 128.074219 L 151.167969 126.234375 L 151.996094 124.410156 L 152.90625 122.5625 L 153.859375 120.765625 L 154.859375 119.015625 L 155.910156 117.304688 L 157.050781 115.589844 Z M 141.398438 163.257812 L 141.277344 161.328125 L 141.222656 159.410156 L 141.238281 157.460938 L 141.152344 155.488281 L 140.988281 153.4375 L 141.054688 150.964844 L 141.207031 148.484375 L 141.414062 146.261719 L 141.6875 143.992188 L 142.03125 141.683594 L 142.4375 139.328125 L 142.914062 136.929688 L 143.441406 134.597656 L 144.058594 132.597656 L 144.878906 130.921875 L 145.550781 128.824219 L 146.097656 126.917969 L 146.675781 125.050781 L 147.3125 123.175781 L 148.023438 121.257812 L 147.273438 122.816406 L 146.328125 124.996094 L 145.460938 127.179688 L 144.636719 129.425781 L 143.859375 131.738281 L 143.199219 134.199219 L 142.648438 136.652344 L 142.164062 139.0625 L 141.746094 141.429688 L 141.398438 143.75 L 141.117188 146.03125 L 140.90625 148.265625 L 140.746094 150.730469 L 140.671875 153.21875 L 140.691406 155.648438 L 140.796875 158.023438 L 141 160.335938 L 141.292969 162.589844 Z M 141.222656 287.175781 L 139.46875 286.195312 L 137.75 285.175781 L 136.109375 284.128906 L 134.546875 283.0625 L 132.953125 281.90625 L 131.414062 280.703125 L 129.738281 279.421875 L 127.972656 278.027344 L 126.246094 276.507812 L 124.660156 274.9375 L 121.382812 277.296875 L 123.734375 274.53125 L 123.5625 274.78125 L 123.28125 274.914062 L 122.039062 276.339844 L 123.21875 275.519531 L 124.832031 277.160156 L 126.585938 278.746094 L 128.414062 280.230469 L 130.273438 281.59375 L 132.257812 282.914062 L 134.300781 284.152344 L 136.507812 285.328125 L 138.601562 286.265625 L 140.433594 286.945312 Z M 175.933594 93.917969 L 173.589844 94.914062 L 171.316406 95.980469 L 169.109375 97.121094 L 166.859375 98.398438 L 164.691406 99.753906 L 162.601562 101.1875 L 160.570312 102.71875 L 158.582031 104.367188 L 156.683594 106.09375 L 154.878906 107.90625 L 153.160156 109.808594 L 151.53125 111.792969 L 149.996094 113.859375 L 148.566406 115.988281 L 147.25 118.15625 L 146.027344 120.402344 L 144.894531 122.71875 L 143.886719 125.027344 L 142.976562 127.363281 L 142.148438 129.765625 L 141.402344 132.234375 L 140.644531 134.316406 L 139.957031 136.515625 L 140.347656 136.214844 L 139.898438 138.253906 L 139.507812 140.417969 L 139.503906 141.722656 L 139.53125 142.609375 L 140.050781 140.117188 L 140.675781 137.699219 L 141.40625 135.324219 L 142.253906 132.933594 L 142.925781 130.761719 L 143.71875 128.378906 L 144.59375 126.0625 L 145.546875 123.804688 L 146.632812 121.511719 L 147.808594 119.285156 L 149.074219 117.136719 L 150.441406 115.039062 L 151.921875 112.992188 L 153.492188 111.023438 L 155.15625 109.136719 L 156.902344 107.335938 L 158.738281 105.617188 L 160.660156 103.980469 L 162.648438 102.441406 L 164.679688 101.011719 L 166.789062 99.65625 L 168.980469 98.378906 L 170.507812 97.34375 L 171.660156 96.445312 L 172.945312 95.570312 L 174.351562 94.730469 L 175.878906 93.945312 Z M 188.191406 99.734375 L 186.390625 100.050781 L 184.265625 100.695312 L 182.207031 101.386719 L 180.132812 102.15625 L 178.070312 103.003906 L 176.078125 103.90625 L 174.164062 104.863281 L 172.253906 105.914062 L 170.386719 107.039062 L 168.601562 108.226562 L 166.894531 109.46875 L 165.214844 110.820312 L 163.613281 112.230469 L 162.09375 113.707031 L 160.644531 115.25 L 159.273438 116.867188 L 157.976562 118.554688 L 156.753906 120.308594 L 155.632812 122.097656 L 154.582031 123.953125 L 153.601562 125.878906 L 152.710938 127.84375 L 151.910156 129.820312 L 151.175781 131.863281 L 150.503906 133.972656 L 149.632812 136.578125 L 148.9375 138.640625 L 148.347656 140.667969 L 147.847656 142.753906 L 147.457031 144.828125 L 147.179688 146.875 L 147.015625 148.964844 L 146.976562 151.011719 L 147.058594 152.988281 L 147.125 151.210938 L 147.285156 149.449219 L 147.535156 147.675781 L 147.652344 146.054688 L 147.800781 144.226562 L 148.179688 142.0625 L 148.722656 139.953125 L 149.347656 137.921875 L 150.082031 135.847656 L 150.914062 133.21875 L 151.605469 131.140625 L 152.363281 129.128906 L 153.1875 127.183594 L 154.117188 125.21875 L 155.121094 123.328125 L 156.191406 121.503906 L 157.347656 119.734375 L 158.59375 118.011719 L 159.914062 116.359375 L 161.3125 114.773438 L 162.777344 113.261719 L 164.324219 111.816406 L 165.949219 110.433594 L 167.632812 109.128906 L 169.363281 107.914062 L 171.171875 106.753906 L 173.0625 105.652344 L 174.957031 104.648438 L 176.894531 103.714844 L 178.90625 102.835938 L 180.992188 102.011719 L 183.03125 101.28125 L 185.113281 100.609375 L 187.257812 99.984375 Z M 188.191406 99.734375 " fill-opacity="1" fill-rule="nonzero"/></g><g clip-path="url(#7f7152c12b)"><path fill="#000000" d="M 191.585938 270.46875 L 191.355469 272.9375 L 191.265625 272.707031 L 191.066406 275.019531 L 190.894531 277.210938 L 190.734375 279.351562 L 190.605469 281.589844 L 190.503906 283.929688 L 190.433594 286.367188 L 190.394531 288.652344 L 190.382812 290.882812 L 190.390625 293.183594 L 190.421875 295.554688 L 190.472656 298 L 190.558594 300.550781 L 190.664062 303.089844 L 190.773438 305.402344 L 190.882812 307.484375 L 191.042969 310.078125 L 191.214844 312.265625 L 191.453125 314.460938 L 182.527344 315.878906 L 182.746094 313.511719 L 182.96875 311.144531 L 183.1875 308.777344 L 183.410156 306.410156 L 183.597656 304.722656 L 183.597656 306.792969 L 183.601562 308.867188 L 183.601562 313.007812 L 183.605469 315.078125 L 190.402344 315.355469 L 189.960938 313.714844 L 189.597656 311.949219 L 189.257812 309.960938 L 188.921875 307.671875 L 188.769531 305.648438 L 188.660156 303.339844 L 188.554688 300.808594 L 188.464844 298.21875 L 188.414062 295.753906 L 188.378906 293.359375 L 188.371094 291.03125 L 188.382812 288.777344 L 188.417969 286.492188 L 188.488281 284.019531 L 188.589844 281.644531 L 188.714844 279.441406 L 188.886719 277.90625 L 189.164062 276.453125 L 189.527344 275.085938 L 189.984375 273.746094 L 190.519531 272.457031 L 191.128906 271.246094 Z M 188.710938 201.804688 L 188.695312 204.125 L 188.675781 206.53125 L 188.65625 208.953125 L 188.527344 208.089844 L 188.546875 205.652344 L 188.566406 203.296875 L 188.582031 200.96875 L 188.601562 198.613281 L 188.65625 196.304688 L 188.765625 196.359375 L 188.75 198.738281 L 188.734375 201.089844 Z M 189.863281 302.496094 L 189.851562 304.824219 L 189.816406 307.320312 L 189.773438 309.585938 L 189.71875 312.128906 L 189.664062 314.351562 L 189.601562 316.753906 L 189.445312 317.644531 L 189.207031 315.632812 L 189.070312 313.59375 L 189.050781 311.445312 L 189.105469 308.976562 L 189.144531 306.734375 L 189.171875 304.234375 L 189.175781 301.839844 L 189.128906 299.761719 L 189.050781 297.5625 L 188.921875 295.222656 L 188.625 292.980469 L 188.335938 290.976562 L 188.363281 292.3125 L 188.480469 294.941406 L 188.578125 297.324219 L 188.585938 299.265625 L 188.484375 300.949219 L 188.265625 302.835938 L 187.949219 304.453125 L 187.546875 306.082031 L 187.082031 307.515625 L 187.097656 305.214844 L 187.113281 302.996094 L 187.089844 300.699219 L 187.023438 298.597656 L 186.933594 296.292969 L 186.824219 293.78125 L 186.710938 291.351562 L 186.601562 289.148438 L 186.480469 286.824219 L 186.34375 284.378906 L 186.199219 281.8125 L 186.105469 279.425781 L 186.042969 277.050781 L 186.003906 274.566406 L 185.980469 272.242188 L 185.976562 269.878906 L 185.984375 267.433594 L 186.019531 264.714844 L 186.066406 262.394531 L 186.164062 260.054688 L 186.273438 257.554688 L 186.382812 255.113281 L 186.484375 252.726562 L 186.585938 250.394531 L 186.679688 248.121094 L 186.773438 245.90625 L 186.878906 243.375 L 186.976562 240.886719 L 187.074219 238.480469 L 187.164062 236.152344 L 187.246094 233.90625 L 187.242188 232.730469 L 186.980469 234.632812 L 186.710938 236.59375 L 186.4375 238.617188 L 186.164062 240.695312 L 185.882812 242.839844 L 185.597656 245.039062 L 185.460938 247.265625 L 185.078125 247.175781 L 184.636719 246.019531 L 184.28125 244.617188 L 184.019531 243.054688 L 183.847656 241.429688 L 183.78125 239.761719 L 183.820312 237.914062 L 183.910156 235.605469 L 183.992188 233.375 L 184.097656 231.027344 L 184.226562 228.65625 L 184.351562 226.28125 L 184.480469 223.90625 L 184.601562 221.5625 L 184.703125 219 L 184.792969 216.667969 L 184.878906 214.40625 L 184.96875 211.882812 L 185.042969 209.6875 L 185.109375 207.371094 L 184.890625 208.933594 L 184.949219 206.679688 L 184.960938 204.363281 L 184.984375 201.929688 L 185.003906 199.640625 L 185.015625 197.308594 L 185.019531 194.851562 L 185.011719 192.625 L 184.878906 192.976562 L 184.558594 193.210938 L 184.371094 191.386719 L 184.167969 189.3125 L 183.964844 187.023438 L 183.933594 184.800781 L 183.902344 182.351562 L 183.875 179.941406 L 183.851562 177.660156 L 183.714844 175.714844 L 183.410156 173.988281 L 183.21875 171.679688 L 183.164062 169.195312 L 183.140625 166.796875 L 183.121094 164.296875 L 183.097656 161.964844 L 183.078125 159.667969 L 183.058594 157.300781 L 183.039062 154.859375 L 182.652344 153.039062 L 182.390625 151.253906 L 182.3125 149.296875 L 182.292969 146.960938 L 182.273438 144.566406 L 182.253906 142.121094 L 182.234375 139.640625 L 182.21875 137.367188 L 182.199219 135.054688 L 182.183594 132.691406 L 182.164062 130.289062 L 182.144531 127.839844 L 182.128906 125.375 L 182.109375 123.09375 L 182.09375 120.777344 L 182.078125 118.425781 L 182.058594 116.039062 L 182.042969 113.613281 L 182.027344 111.15625 L 182.011719 108.78125 L 182.015625 106.378906 L 182.042969 103.820312 L 182.082031 101.527344 L 182.136719 99.085938 L 182.203125 96.597656 L 182.269531 94.300781 L 182.351562 91.894531 L 182.441406 89.386719 L 182.53125 87.074219 L 182.628906 84.730469 L 182.730469 82.304688 L 182.84375 79.804688 L 182.964844 77.289062 L 183.089844 74.945312 L 183.226562 72.488281 L 183.371094 70.125 L 183.539062 67.632812 L 183.722656 65.222656 L 183.953125 62.738281 L 184.292969 60 L 200.332031 58.253906 L 200.796875 60.800781 L 201.230469 63.195312 L 201.628906 65.433594 L 202.050781 67.875 L 202.460938 70.335938 L 202.8125 72.546875 L 203.171875 75.007812 L 203.269531 76.683594 L 203.207031 78.542969 L 202.929688 80.4375 L 202.472656 80.984375 L 202.445312 83.117188 L 202.511719 86.066406 L 202.523438 88.441406 L 202.53125 90.820312 L 202.542969 93.199219 L 202.550781 95.574219 L 202.5625 97.953125 L 202.570312 100.328125 L 202.582031 102.707031 L 202.589844 105.085938 L 202.601562 107.460938 L 202.609375 109.839844 L 202.621094 112.03125 L 202.707031 114.53125 L 202.78125 116.957031 L 202.710938 117.589844 L 202.441406 115.589844 L 202.160156 113.535156 L 201.890625 111.636719 L 201.667969 109.648438 L 201.449219 107.65625 L 201.003906 103.679688 L 200.785156 101.691406 L 200.117188 95.726562 L 199.898438 93.738281 L 199.675781 91.75 L 199.652344 89.398438 L 199.644531 87.019531 L 199.605469 84.28125 L 199.511719 81.773438 L 199.414062 79.953125 L 199.160156 77.246094 L 198.84375 74.886719 L 198.46875 72.429688 L 198.097656 70.15625 L 197.671875 67.628906 L 197.277344 65.371094 L 196.867188 63.085938 L 196.425781 60.648438 L 189.015625 58.472656 L 188.394531 61.515625 L 188.125 64 L 187.933594 66.445312 L 188.003906 68.414062 L 188.078125 70.480469 L 188.171875 72.441406 L 188.265625 74.546875 L 188.328125 76.539062 L 188.277344 78.851562 L 188.234375 81.351562 L 188.328125 82.441406 L 188.222656 84.859375 L 188.128906 87.195312 L 188.039062 89.484375 L 187.949219 91.980469 L 187.867188 94.371094 L 187.796875 96.660156 L 187.734375 99.113281 L 187.679688 101.53125 L 187.640625 103.804688 L 187.613281 106.308594 L 187.605469 108.664062 L 187.621094 111.007812 L 187.636719 113.46875 L 187.65625 115.890625 L 187.671875 118.28125 L 187.691406 120.632812 L 187.707031 122.953125 L 187.722656 125.234375 L 187.742188 127.691406 L 187.757812 130.140625 L 187.777344 132.546875 L 187.792969 134.90625 L 187.8125 137.222656 L 187.832031 139.496094 L 187.847656 141.96875 L 187.867188 144.417969 L 187.886719 146.808594 L 187.90625 149.148438 L 187.925781 151.429688 L 187.945312 153.828125 L 187.964844 156.300781 L 187.984375 158.695312 L 188.007812 161.019531 L 188.027344 163.273438 L 188.050781 165.773438 L 188.070312 168.207031 L 188.09375 170.546875 L 188.117188 172.785156 L 188.140625 175.300781 L 188.164062 177.714844 L 188.191406 179.988281 L 188.21875 182.414062 L 188.289062 184.6875 L 188.335938 182.96875 L 188.308594 180.472656 L 188.285156 178.230469 L 188.257812 175.847656 L 188.234375 173.324219 L 188.210938 171.050781 L 188.1875 168.734375 L 188.167969 166.320312 L 188.144531 163.804688 L 188.125 161.523438 L 188.105469 159.214844 L 188.082031 156.835938 L 188.0625 154.382812 L 188.042969 151.925781 L 188.023438 149.65625 L 188.003906 147.332031 L 187.984375 144.949219 L 187.964844 142.511719 L 187.945312 140.019531 L 187.929688 137.730469 L 187.910156 135.421875 L 187.894531 133.070312 L 187.875 130.675781 L 187.859375 128.234375 L 187.839844 125.75 L 187.824219 123.457031 L 187.804688 121.148438 L 187.789062 118.804688 L 187.773438 116.421875 L 187.753906 114.003906 L 187.914062 113.046875 L 188.300781 114.367188 L 188.636719 115.8125 L 188.921875 117.355469 L 189.128906 118.679688 L 189.113281 116.296875 L 189.09375 113.875 L 189.078125 111.421875 L 189.0625 109.042969 L 189.066406 106.734375 L 189.089844 104.214844 L 189.25 102.191406 L 189.503906 100.222656 L 189.628906 98.042969 L 189.492188 96.007812 L 189.359375 94 L 189.238281 91.910156 L 189.121094 89.742188 L 189.007812 87.726562 L 189.074219 85.445312 L 189.175781 83.050781 L 189.285156 80.578125 L 189.40625 78.074219 L 189.527344 75.71875 L 189.480469 73.59375 L 189.410156 71.492188 L 189.347656 69.457031 L 189.304688 67.328125 L 189.277344 65.238281 L 189.273438 63.203125 L 189.347656 61.007812 L 191.539062 56.792969 L 195.769531 61.273438 L 196.203125 63.679688 L 196.605469 65.929688 L 197.011719 68.273438 L 197.425781 70.746094 L 197.785156 72.960938 L 198.164062 75.5 L 198.457031 77.738281 L 198.671875 80.457031 L 198.777344 82.257812 L 198.859375 84.855469 L 198.886719 87.492188 L 198.894531 89.867188 L 198.90625 92.246094 L 198.914062 94.621094 L 198.925781 97 L 198.933594 99.378906 L 198.945312 101.753906 L 198.953125 104.132812 L 198.964844 106.511719 L 198.972656 108.886719 L 198.980469 111.265625 L 199.042969 113.644531 L 199.121094 116.089844 L 199.1875 118.460938 L 199.214844 120.703125 L 199.046875 122.738281 L 198.871094 124.804688 L 198.6875 126.796875 L 198.496094 128.722656 L 198.289062 130.53125 L 198.070312 132.347656 L 197.84375 134.269531 L 197.617188 136.300781 L 197.378906 138.445312 L 197.140625 140.5625 L 197.050781 142.632812 L 196.917969 144.585938 L 196.632812 146.425781 L 196.761719 148.605469 L 197.050781 149.949219 L 197.167969 152.570312 L 197.128906 155.003906 L 197.085938 157.335938 L 197.144531 159.273438 L 197.433594 160.605469 L 197.601562 162.582031 L 197.636719 165.070312 L 197.5625 167.515625 L 197.484375 169.847656 L 197.398438 172.207031 L 197.300781 174.59375 L 197.199219 177.007812 L 197.089844 179.449219 L 196.960938 181.683594 L 196.816406 184 L 196.65625 186.421875 L 196.484375 188.949219 L 196.320312 191.226562 L 196.148438 193.519531 L 195.964844 195.886719 L 195.773438 198.328125 L 195.566406 200.84375 L 195.351562 203.433594 L 195.144531 205.902344 L 194.949219 208.253906 L 194.761719 210.476562 L 194.5625 212.824219 L 194.34375 215.375 L 194.445312 215.375 L 194.828125 213.191406 L 195.203125 211.078125 L 195.554688 209.199219 L 195.917969 207.222656 L 196.285156 205.15625 L 196.644531 203.101562 L 196.4375 205.59375 L 196.238281 207.964844 L 196.050781 210.210938 L 195.855469 212.476562 L 195.636719 215.0625 L 195.429688 217.441406 L 195.238281 219.609375 L 195.011719 222.15625 L 194.792969 224.527344 L 194.570312 226.875 L 194.328125 229.101562 L 194.109375 231.367188 L 193.824219 233.773438 L 193.542969 236.066406 L 193.246094 238.421875 L 192.945312 240.824219 L 192.648438 243.144531 L 192.347656 245.511719 L 192.039062 247.910156 L 191.746094 250.203125 L 191.433594 252.628906 L 191.128906 254.964844 L 190.828125 257.28125 L 190.515625 259.695312 L 190.214844 262.164062 L 189.941406 264.617188 L 189.695312 266.957031 L 189.46875 269.179688 L 189.230469 271.628906 L 189.019531 274.023438 L 188.839844 276.238281 L 188.671875 278.410156 L 188.527344 280.648438 L 188.414062 282.980469 L 188.332031 285.414062 L 188.28125 287.828125 L 188.261719 290.054688 L 188.261719 292.351562 L 188.285156 294.71875 L 188.328125 297.152344 L 188.398438 299.65625 L 188.503906 302.285156 L 188.613281 304.6875 L 188.722656 306.867188 L 188.863281 309.285156 L 189.035156 311.703125 L 189.230469 313.785156 L 189.515625 315.644531 L 184.78125 314.566406 L 185.003906 312.199219 L 185.222656 309.828125 L 185.445312 307.460938 L 185.882812 302.726562 L 186.105469 300.359375 L 186.324219 297.992188 L 186.546875 295.625 L 186.984375 290.890625 L 187.207031 288.523438 L 187.425781 286.15625 L 187.613281 283.800781 L 187.78125 281.425781 L 187.929688 279.0625 L 188.0625 276.71875 L 188.171875 274.386719 L 188.265625 272.066406 L 188.328125 269.8125 L 188.390625 267.46875 L 188.445312 265.058594 L 188.503906 262.625 L 188.550781 260.328125 L 188.601562 257.972656 L 188.648438 255.566406 L 188.695312 253.113281 L 188.734375 250.816406 L 188.777344 248.476562 L 188.816406 246.085938 L 188.855469 243.648438 L 188.890625 241.28125 L 188.925781 238.957031 L 188.957031 236.597656 L 188.988281 234.199219 L 189.019531 231.757812 L 189.050781 229.40625 L 189.078125 227.078125 L 189.105469 224.71875 L 189.273438 226.152344 L 189.464844 228.113281 L 189.65625 230.054688 L 189.84375 232.050781 L 190.03125 234.09375 L 190.132812 233.648438 L 190.164062 231.199219 L 190.191406 228.878906 L 190.21875 226.542969 L 190.246094 224.175781 L 190.269531 221.773438 L 190.296875 219.339844 L 190.320312 216.972656 L 190.34375 214.648438 L 190.363281 212.292969 L 190.386719 209.910156 L 190.40625 207.496094 L 190.425781 205.054688 L 190.445312 202.730469 L 190.460938 200.394531 L 190.480469 198.03125 L 190.496094 195.644531 L 190.511719 193.234375 L 190.527344 190.796875 L 190.542969 188.460938 L 190.554688 186.125 L 190.566406 183.769531 L 190.582031 181.390625 L 190.59375 178.988281 L 190.671875 177.117188 L 190.683594 174.71875 L 190.675781 172.492188 L 190.667969 170.207031 L 190.65625 167.859375 L 190.640625 165.457031 L 190.625 162.996094 L 190.609375 160.476562 L 190.589844 158.175781 L 190.570312 155.902344 L 190.550781 153.585938 L 190.527344 151.226562 L 190.503906 148.820312 L 190.480469 146.371094 L 190.453125 143.878906 L 190.414062 141.382812 L 190.359375 138.933594 L 190.308594 136.546875 L 190.261719 134.222656 L 190.210938 131.902344 L 190.160156 129.429688 L 190.109375 127.039062 L 190.0625 124.730469 L 190.015625 122.355469 L 189.964844 119.90625 L 189.917969 117.5625 L 189.871094 115.257812 L 189.824219 112.773438 L 189.777344 110.4375 L 189.734375 108.078125 L 189.691406 105.644531 L 189.652344 103.375 L 189.609375 100.886719 L 189.578125 98.542969 L 189.550781 96.253906 L 189.535156 93.847656 L 189.507812 91.300781 L 189.488281 88.867188 L 189.472656 86.546875 L 189.464844 84.335938 L 189.460938 81.78125 L 189.46875 79.34375 L 189.484375 77.082031 L 189.511719 74.714844 L 189.570312 72.230469 L 189.667969 69.953125 L 189.839844 67.421875 L 190.082031 65.066406 L 190.449219 62.636719 L 190.9375 60.261719 L 191.582031 58.980469 L 192.296875 57.804688 L 193.046875 56.84375 L 193.132812 57.21875 L 192.355469 59.550781 L 191.820312 61.824219 L 191.398438 64.273438 L 191.125 66.484375 L 190.921875 68.992188 L 190.804688 71.277344 L 190.730469 73.648438 L 190.691406 76.175781 L 190.671875 78.355469 L 190.660156 80.714844 L 190.660156 83.25 L 190.667969 85.578125 L 190.679688 87.847656 L 190.695312 90.230469 L 190.71875 92.726562 L 190.738281 95.082031 L 190.761719 97.460938 L 190.792969 99.910156 L 191.035156 101.832031 L 191.285156 103.921875 L 191.53125 105.796875 L 191.78125 107.832031 L 192.03125 109.84375 L 192.28125 111.75 L 192.535156 113.765625 L 192.789062 115.847656 L 193.039062 117.730469 L 193.292969 119.6875 L 193.546875 121.71875 L 193.804688 123.777344 L 194.054688 125.671875 L 194.191406 127.84375 L 194.242188 130.265625 L 194.296875 132.722656 L 194.34375 135.003906 L 194.394531 137.351562 L 194.445312 139.761719 L 194.496094 142.234375 L 194.527344 144.78125 L 194.554688 147.257812 L 194.578125 149.691406 L 194.601562 152.082031 L 194.625 154.429688 L 194.644531 156.730469 L 194.660156 158.988281 L 194.679688 161.402344 L 194.695312 163.902344 L 194.710938 166.347656 L 194.722656 168.730469 L 194.734375 171.054688 L 194.742188 173.320312 L 194.746094 175.617188 L 194.554688 177.746094 L 194.347656 179.839844 L 194.144531 181.917969 L 193.9375 183.980469 L 193.890625 186.28125 L 193.878906 188.613281 L 194.046875 187.332031 L 194.253906 185.300781 L 194.457031 183.25 L 194.660156 181.183594 L 194.867188 179.101562 L 195.070312 177 L 195.230469 175.847656 L 195.21875 178.28125 L 195.207031 180.6875 L 195.191406 183.078125 L 195.179688 185.441406 L 195.167969 187.78125 L 195.152344 190.101562 L 195.136719 192.527344 L 195.121094 194.949219 L 195.105469 197.34375 L 195.085938 199.714844 L 195.070312 202.058594 L 195.050781 204.378906 L 195.03125 206.796875 L 195.132812 209.003906 L 195.328125 211.011719 L 195.523438 213.003906 L 195.71875 214.972656 L 195.914062 216.921875 L 196.109375 218.882812 L 196.300781 220.933594 L 196.492188 222.960938 L 196.683594 224.964844 L 196.859375 226.96875 L 196.832031 229.300781 L 196.804688 231.648438 L 196.773438 234.09375 L 196.738281 236.5 L 196.707031 238.867188 L 196.738281 240.195312 L 196.703125 242.5 L 196.667969 244.949219 L 196.628906 247.371094 L 196.585938 249.742188 L 196.546875 252.070312 L 196.503906 254.441406 L 196.457031 256.886719 L 196.40625 259.273438 L 196.359375 261.609375 L 196.449219 263.726562 L 196.53125 262.695312 L 196.582031 260.386719 L 196.632812 258.023438 L 196.679688 255.605469 L 196.726562 253.15625 L 196.765625 250.851562 L 196.808594 248.5 L 196.847656 246.101562 L 196.886719 243.65625 L 196.921875 241.292969 L 196.953125 238.964844 L 197.085938 236.40625 L 197.445312 235.160156 L 197.597656 237.234375 L 197.738281 239.359375 L 197.738281 241.632812 L 197.703125 244.019531 L 197.664062 246.460938 L 197.875 244.960938 L 198.121094 242.902344 L 198.132812 244.589844 L 198.09375 247.019531 L 198.054688 249.402344 L 198.011719 251.734375 L 197.96875 254.082031 L 197.921875 256.535156 L 197.988281 258.757812 L 198.140625 260.804688 L 198.289062 262.808594 L 198.578125 267.050781 L 198.722656 269.121094 L 198.789062 271.25 L 198.707031 273.660156 L 198.597656 276.066406 L 198.472656 278.484375 L 198.328125 280.917969 L 198.164062 283.363281 L 197.980469 285.824219 L 197.761719 288.324219 L 197.546875 290.542969 L 197.179688 292.082031 L 196.640625 293.460938 L 196.417969 295.832031 L 196.167969 298.347656 L 195.726562 300.332031 L 195.535156 299.429688 L 195.589844 297.253906 L 195.808594 294.886719 L 195.972656 292.308594 L 195.773438 290.882812 L 195.554688 292.566406 L 195.335938 294.933594 L 195.082031 297.222656 L 194.683594 299.183594 L 194.285156 301.148438 L 193.890625 303.109375 L 193.492188 305.070312 L 193.332031 304.636719 L 193.328125 302.5625 L 193.289062 300.902344 L 192.90625 302.9375 L 192.519531 304.976562 L 192.332031 307.050781 L 192.332031 309.121094 L 192.335938 311.191406 L 192.335938 313.265625 L 192.136719 315.609375 L 182.269531 317.234375 L 181.804688 314.09375 L 181.613281 311.9375 L 181.433594 309.328125 L 181.296875 306.941406 L 181.183594 304.683594 L 181.074219 302.207031 L 180.96875 299.492188 L 180.902344 296.933594 L 180.863281 294.445312 L 180.84375 292.023438 L 180.84375 289.664062 L 180.871094 287.375 L 181.015625 288.675781 L 181.199219 290.691406 L 181.394531 292.753906 L 181.613281 294.863281 L 181.84375 297.019531 L 182.226562 297.847656 L 182.3125 296.46875 L 182.277344 294.003906 L 182.261719 291.605469 L 182.265625 289.273438 L 182.296875 286.996094 L 182.359375 284.421875 L 182.457031 281.933594 L 182.585938 279.542969 L 182.746094 277.238281 L 182.914062 275.0625 L 183.109375 272.738281 L 183.335938 270.246094 L 183.570312 267.867188 L 183.808594 265.578125 L 184.066406 263.175781 L 184.347656 260.664062 L 184.230469 259.417969 L 184.28125 257.761719 L 184.585938 255.394531 L 184.882812 253.125 L 185.195312 250.691406 L 185.5 248.328125 L 185.792969 246.066406 L 186.105469 243.601562 L 186.398438 241.324219 L 186.703125 238.917969 L 187.097656 236.917969 L 187.625 235.03125 L 187.902344 232.769531 L 188.179688 230.449219 L 188.394531 228.195312 L 188.636719 225.929688 L 188.847656 223.710938 L 189.066406 221.304688 L 189.289062 218.832031 L 189.5625 219.875 L 189.773438 221.289062 L 189.960938 222.660156 L 190.195312 220.171875 L 190.390625 217.964844 L 190.589844 215.683594 L 190.800781 213.191406 L 191.011719 210.722656 L 191.199219 208.53125 L 191.222656 206.417969 L 191.347656 204.441406 L 191.148438 205.046875 L 191.359375 202.554688 L 191.570312 199.96875 L 191.773438 197.476562 L 191.964844 195.058594 L 192.144531 192.71875 L 192.3125 190.449219 L 192.480469 188.117188 L 192.648438 185.625 L 192.804688 183.242188 L 192.945312 180.964844 L 193.066406 178.742188 L 193.171875 176.316406 L 193.273438 173.914062 L 193.367188 171.546875 L 193.453125 169.203125 L 193.476562 166.976562 L 193.347656 166.363281 L 193.273438 168.671875 L 193.1875 171.007812 L 193.097656 173.375 L 193 175.765625 L 192.894531 178.183594 L 192.777344 180.453125 L 192.640625 182.699219 L 192.53125 182.574219 L 192.667969 180.328125 L 192.785156 178.046875 L 192.890625 175.628906 L 192.988281 173.238281 L 193.078125 170.878906 L 193.160156 168.542969 L 193.238281 166.238281 L 193.363281 164.652344 L 193.429688 162.234375 L 193.488281 159.851562 L 193.539062 157.496094 L 193.582031 155.175781 L 193.613281 152.773438 L 193.488281 150.457031 L 193.359375 148.214844 L 193.222656 146.050781 L 193.085938 143.964844 L 192.886719 142.363281 L 192.503906 141.734375 L 192.191406 140.390625 L 191.972656 138.085938 L 191.859375 135.308594 L 191.855469 132.683594 L 191.863281 130.523438 L 191.851562 128.417969 L 191.824219 126.132812 L 191.785156 123.742188 L 191.730469 121.289062 L 191.675781 119.03125 L 191.609375 116.699219 L 191.53125 114.289062 L 191.457031 111.675781 L 191.445312 109.296875 L 191.253906 107.167969 L 191.058594 105.035156 L 190.992188 102.757812 L 190.984375 100.382812 L 190.972656 98.003906 L 190.964844 95.625 L 190.953125 93.25 L 190.945312 90.871094 L 190.933594 88.492188 L 190.925781 86.117188 L 190.867188 83.527344 L 190.765625 81.566406 L 190.65625 79.640625 L 190.410156 77.519531 L 190.066406 75.117188 L 189.726562 72.945312 L 189.34375 70.632812 L 188.917969 68.164062 L 188.539062 66.007812 L 188.121094 63.6875 L 187.667969 61.214844 L 197.210938 61.507812 L 196.933594 63.5 L 196.71875 65.714844 L 196.535156 68.015625 L 196.367188 70.425781 L 196.226562 72.675781 L 196.089844 75.113281 L 195.96875 77.378906 L 195.847656 79.804688 L 195.734375 82.289062 L 195.628906 84.707031 L 195.53125 87.042969 L 195.445312 89.300781 L 195.355469 91.765625 L 195.402344 93.988281 L 195.332031 96.28125 L 195.265625 98.636719 L 195.207031 101.058594 L 195.167969 103.328125 L 195.128906 105.746094 L 195 107.9375 L 195.007812 110.15625 L 195.027344 112.625 L 195.042969 115.0625 L 195.0625 117.464844 L 195.078125 119.828125 L 195.09375 122.15625 L 195.113281 124.449219 L 195.128906 126.839844 L 195.148438 129.300781 L 195.164062 131.722656 L 195.183594 134.097656 L 195.199219 136.425781 L 195.21875 138.714844 L 195.238281 141.109375 L 195.257812 143.578125 L 195.273438 145.988281 L 195.292969 148.34375 L 195.3125 150.640625 L 195.332031 152.957031 L 195.351562 155.449219 L 195.375 157.871094 L 195.355469 160.007812 L 195.230469 161.929688 L 194.996094 163.714844 L 194.675781 165.523438 L 194.265625 167.082031 L 194.253906 169.394531 L 194.277344 171.675781 L 194.296875 174.046875 L 194.324219 176.527344 L 194.347656 178.863281 L 194.375 181.113281 L 194.402344 183.648438 L 194.433594 185.964844 L 194.464844 188.339844 L 194.5 190.734375 L 194.523438 192.890625 L 194.53125 195.199219 L 194.523438 197.730469 L 194.511719 200.035156 L 194.492188 202.371094 L 194.464844 204.847656 L 194.449219 207.332031 L 194.382812 209.644531 L 194.304688 211.945312 L 194.214844 214.429688 L 194.125 216.761719 L 194.035156 219.074219 L 193.9375 221.613281 L 193.8125 224.125 L 193.683594 226.5 L 193.558594 228.875 L 193.429688 231.246094 L 193.324219 233.460938 L 193.242188 235.691406 L 193.152344 238 L 193.058594 240.386719 L 192.960938 242.855469 L 192.859375 245.402344 L 192.761719 247.695312 L 192.667969 249.957031 L 192.566406 252.273438 L 192.464844 254.644531 L 192.359375 257.074219 L 192.25 259.558594 L 192.117188 262.253906 L 192.089844 264.085938 L 192.046875 266.726562 L 192.035156 269.164062 L 192.035156 271.515625 L 192.050781 273.777344 L 192.085938 276.199219 L 192.140625 278.554688 L 192.210938 280.796875 L 192.351562 283.273438 L 192.488281 285.769531 L 192.613281 288.144531 L 192.730469 290.398438 L 192.839844 292.699219 L 192.957031 295.300781 L 193.050781 297.699219 L 193.125 299.898438 L 193.167969 302.136719 L 193.160156 304.554688 L 193.128906 307.105469 L 193.089844 309.289062 L 192.988281 311.019531 L 192.785156 312.679688 L 192.488281 314.097656 L 192.105469 315.492188 L 191.636719 316.832031 L 191.097656 318.09375 L 190.855469 317.296875 L 190.824219 315 L 190.679688 313.011719 L 190.535156 310.914062 L 190.382812 308.796875 L 190.222656 306.871094 L 190.058594 304.648438 L 189.875 302.65625 Z M 191.859375 179.613281 L 192.082031 177.59375 L 192.304688 175.554688 L 192.332031 173.648438 L 192.1875 171.628906 L 192.179688 169.320312 L 192.167969 166.953125 L 192.152344 164.527344 L 192.136719 162.042969 L 192.117188 159.558594 L 192.15625 157.53125 L 192.445312 155.761719 L 192.367188 153.707031 L 192.136719 151.738281 L 191.902344 149.742188 L 191.695312 148.183594 L 191.71875 150.601562 L 191.742188 152.972656 L 191.761719 155.300781 L 191.78125 157.585938 L 191.800781 159.828125 L 191.816406 162.347656 L 191.835938 164.824219 L 191.847656 167.242188 L 191.859375 169.601562 L 191.871094 171.90625 L 191.878906 174.148438 L 191.871094 176.5 L 191.859375 178.921875 Z M 191.605469 216.890625 L 191.230469 218.710938 L 190.84375 220.644531 L 190.4375 222.785156 L 190.050781 224.613281 L 189.683594 226.753906 L 189.480469 228.8125 L 189.238281 231.078125 L 189.078125 233.023438 L 189.492188 232.804688 L 189.894531 232.835938 L 190.25 233.121094 L 190.570312 232.152344 L 190.839844 229.792969 L 191.027344 227.847656 L 191.285156 225.273438 L 191.484375 223.144531 L 191.691406 220.386719 L 191.710938 218.285156 Z M 194.066406 159.828125 L 194.046875 157.46875 L 194.023438 155.035156 L 194.003906 152.53125 L 193.984375 150.257812 L 193.96875 147.949219 L 193.949219 145.585938 L 193.929688 143.164062 L 193.910156 140.6875 L 193.890625 138.332031 L 193.875 136.039062 L 193.855469 133.699219 L 193.835938 131.316406 L 193.820312 128.890625 L 193.800781 126.417969 L 193.785156 124.066406 L 193.765625 121.765625 L 193.730469 119.613281 L 193.390625 119.433594 L 193.203125 117.304688 L 192.859375 115.980469 L 192.683594 116.1875 L 192.699219 118.574219 L 192.71875 120.921875 L 192.734375 123.234375 L 192.75 125.511719 L 192.769531 127.996094 L 192.789062 130.4375 L 192.804688 132.835938 L 192.824219 135.191406 L 192.839844 137.503906 L 192.859375 139.773438 L 192.878906 142.269531 L 192.898438 144.710938 L 192.914062 147.097656 L 192.933594 149.425781 L 192.953125 151.699219 L 192.972656 154.132812 L 193.308594 155.789062 L 193.667969 157.253906 L 193.9375 158.785156 Z M 184.730469 167.210938 L 184.882812 165.097656 L 184.859375 162.675781 L 184.839844 160.402344 L 184.820312 158.058594 L 184.800781 155.640625 L 184.777344 153.148438 L 184.761719 150.820312 L 184.742188 148.519531 L 184.722656 146.167969 L 184.703125 143.757812 L 184.683594 141.292969 L 184.664062 138.886719 L 184.648438 136.601562 L 184.628906 134.269531 L 184.613281 131.898438 L 184.59375 129.480469 L 184.574219 127.015625 L 184.558594 124.617188 L 184.542969 122.328125 L 184.523438 120 L 184.507812 117.636719 L 184.488281 115.234375 L 184.472656 112.800781 L 184.457031 110.332031 L 184.445312 108.023438 L 184.277344 109.535156 L 184.097656 111.65625 L 184.089844 113.652344 L 184.277344 115.832031 L 184.339844 118.34375 L 184.359375 120.695312 L 184.375 123.011719 L 184.390625 125.296875 L 184.410156 127.753906 L 184.429688 130.203125 L 184.445312 132.609375 L 184.464844 134.96875 L 184.480469 137.289062 L 184.5 139.558594 L 184.519531 142.035156 L 184.539062 144.480469 L 184.554688 146.875 L 184.574219 149.210938 L 184.59375 151.492188 L 184.613281 153.898438 L 184.632812 156.367188 L 184.65625 158.765625 L 184.675781 161.089844 L 184.695312 163.339844 L 184.71875 165.84375 Z M 184.730469 167.210938 " fill-opacity="1" fill-rule="nonzero"/></g></svg>