<svg xmlns="http://www.w3.org/2000/svg" xmlns:xlink="http://www.w3.org/1999/xlink" width="500" zoomAndPan="magnify" viewBox="0 0 375 374.999991" height="500" preserveAspectRatio="xMidYMid meet" version="1.0"><defs><clipPath id="a1935ffa53"><path d="M 40.753906 102.714844 L 333.984375 102.714844 L 333.984375 219.988281 L 40.753906 219.988281 Z M 40.753906 102.714844 " clip-rule="nonzero"/></clipPath><clipPath id="c477caf500"><path d="M 260.070312 223.09375 L 307.910156 223.09375 L 307.910156 271.949219 L 260.070312 271.949219 Z M 260.070312 223.09375 " clip-rule="nonzero"/></clipPath></defs><g clip-path="url(#a1935ffa53)"><path fill="#000000" d="M 325.277344 199.613281 C 315.820312 212.625 298.761719 215.839844 283.675781 216.03125 C 274.601562 216.144531 265.507812 215.589844 256.4375 215.246094 C 247.03125 214.894531 237.625 214.542969 228.21875 214.1875 C 219.574219 213.863281 210.925781 213.539062 202.28125 213.214844 C 216.292969 211.164062 230.203125 208.429688 243.941406 204.992188 C 248.199219 203.925781 252.429688 202.773438 256.644531 201.53125 C 260.949219 200.261719 265.136719 198.675781 269.410156 197.316406 C 270.960938 196.820312 270.300781 194.371094 268.734375 194.871094 C 264.480469 196.222656 260.085938 197.226562 255.777344 198.40625 C 251.460938 199.582031 247.125 200.714844 242.78125 201.796875 C 234.265625 203.921875 225.683594 205.777344 217.050781 207.371094 C 205.089844 209.574219 193.039062 211.253906 180.9375 212.414062 C 158.878906 211.589844 136.816406 210.769531 114.757812 209.957031 C 110.320312 209.792969 105.875 209.660156 101.4375 209.460938 C 97.964844 209.304688 94.484375 209.035156 91.089844 208.257812 C 84.4375 206.738281 78.234375 202.808594 77.25 195.519531 C 76.203125 187.769531 80.566406 180.726562 86.128906 175.753906 C 92.125 170.390625 99.523438 166.441406 106.570312 162.648438 C 135.882812 146.882812 168.574219 137.554688 201.800781 135.472656 C 209.886719 134.964844 217.988281 134.847656 226.085938 135.167969 C 227.355469 135.21875 227.34375 133.269531 226.085938 133.203125 C 208.953125 132.304688 191.757812 133.371094 174.859375 136.332031 C 157.90625 139.304688 141.292969 144.15625 125.394531 150.742188 C 117.492188 154.011719 109.78125 157.714844 102.296875 161.855469 C 95.222656 165.769531 87.785156 169.871094 82.101562 175.722656 C 76.792969 181.1875 73.347656 188.597656 74.492188 196.332031 C 75.578125 203.675781 81.035156 208.523438 87.871094 210.691406 C 88.828125 210.996094 89.800781 211.253906 90.78125 211.476562 C 88.96875 211.265625 87.152344 211.042969 85.339844 210.804688 C 76.925781 209.707031 68.25 208.691406 60.042969 206.480469 C 53.058594 204.59375 45.433594 200.347656 44.273438 192.46875 C 43.128906 184.679688 50.976562 179.953125 56.527344 176.265625 C 69.488281 167.65625 83.21875 160.207031 97.476562 153.976562 C 125.855469 141.578125 156.410156 134.03125 187.277344 131.597656 C 218.007812 129.171875 249.125 131.75 278.925781 139.679688 C 293.921875 143.667969 310.183594 148.777344 320.851562 160.710938 C 325.644531 166.074219 329.121094 172.816406 330.167969 179.964844 C 331.1875 186.957031 329.425781 193.90625 325.277344 199.613281 Z M 111.539062 213.398438 C 109.257812 213.246094 106.976562 213.070312 104.699219 212.878906 C 106.921875 212.941406 109.128906 212.980469 111.300781 213.066406 C 121.09375 213.445312 130.886719 213.828125 140.675781 214.210938 C 141.832031 214.253906 142.992188 214.300781 144.152344 214.34375 C 133.273438 214.445312 122.394531 214.132812 111.539062 213.398438 Z M 271.742188 134.203125 C 272.851562 133.570312 273.90625 132.851562 274.894531 132.0625 C 274.214844 132.898438 273.492188 133.699219 272.726562 134.46875 C 272.382812 134.390625 272.039062 134.308594 271.695312 134.226562 C 271.710938 134.21875 271.726562 134.214844 271.742188 134.203125 Z M 333.820312 180.785156 C 332.117188 164.640625 320.015625 152.476562 306.058594 145.519531 C 298.667969 141.832031 290.769531 139.277344 282.828125 137.0625 C 281.703125 136.75 280.570312 136.445312 279.4375 136.148438 C 279.6875 136.105469 279.9375 135.992188 280.175781 135.785156 C 280.554688 135.453125 280.9375 135.121094 281.316406 134.789062 C 290.292969 131.847656 299.277344 128.929688 308.253906 125.992188 C 310.035156 125.410156 309.273438 122.589844 307.476562 123.175781 C 300.632812 125.398438 293.796875 127.636719 286.957031 129.863281 C 296.398438 121.601562 305.816406 113.308594 315.25 105.035156 C 316.617188 103.832031 314.640625 101.941406 313.269531 103.058594 C 310.28125 105.492188 307.289062 107.917969 304.300781 110.34375 C 305.355469 109.15625 306.394531 107.953125 307.40625 106.726562 C 308.117188 105.863281 307.019531 104.726562 306.164062 105.488281 C 301.210938 109.890625 296.652344 114.753906 292.023438 119.492188 C 290.757812 120.789062 289.492188 122.09375 288.226562 123.394531 C 285.597656 125.527344 282.972656 127.652344 280.347656 129.785156 C 283.464844 124.585938 285.140625 118.496094 285.097656 112.457031 C 285.082031 110.390625 282.066406 110.4375 281.914062 112.457031 C 281.324219 120.328125 276.796875 127.359375 270.269531 131.683594 C 269.433594 132.238281 269.449219 133.199219 269.894531 133.816406 C 266.40625 133.035156 262.90625 132.320312 259.390625 131.675781 C 243.617188 128.796875 227.589844 127.300781 211.554688 127.1875 C 195.507812 127.074219 179.460938 128.355469 163.625 130.941406 C 147.789062 133.523438 132.171875 137.449219 117.003906 142.675781 C 101.859375 147.898438 87.144531 154.40625 73.128906 162.167969 C 66.113281 166.050781 59.277344 170.25 52.644531 174.757812 C 46.636719 178.839844 39.949219 184.183594 40.832031 192.296875 C 41.699219 200.25 48.09375 205.773438 55.1875 208.492188 C 59.101562 209.988281 63.242188 210.753906 67.359375 211.46875 C 71.855469 212.25 76.371094 212.960938 80.894531 213.597656 C 98.964844 216.132812 117.1875 217.523438 135.433594 217.730469 C 150.710938 217.898438 166.003906 217.242188 181.210938 215.773438 C 187.28125 216.007812 193.351562 216.242188 199.421875 216.472656 C 219.003906 217.222656 238.585938 217.972656 258.167969 218.71875 C 267.546875 219.078125 276.972656 219.703125 286.363281 219.398438 C 294.90625 219.121094 303.523438 217.914062 311.410156 214.492188 C 318.019531 211.625 324.015625 207.203125 328.285156 201.367188 C 332.617188 195.449219 334.589844 188.074219 333.820312 180.785156 " fill-opacity="1" fill-rule="nonzero"/></g><path fill="#000000" d="M 149.054688 225.492188 C 148.660156 225.75 148.269531 226.011719 147.878906 226.273438 C 147.910156 226.144531 147.9375 226.015625 147.96875 225.886719 C 148.273438 224.59375 147.183594 223.648438 145.945312 223.867188 C 143.503906 224.300781 141.058594 224.734375 138.613281 225.167969 C 139.027344 224.414062 138.503906 223.160156 137.523438 223.265625 C 133.011719 223.757812 128.699219 225.1875 124.335938 226.394531 C 119.921875 227.613281 115.511719 228.832031 111.097656 230.050781 C 108.992188 230.632812 109.898438 233.652344 111.988281 233.273438 C 121.6875 231.535156 131.382812 229.800781 141.082031 228.0625 C 127.210938 238.410156 113.097656 248.457031 99.144531 258.6875 C 97.910156 259.59375 99.050781 261.664062 100.367188 260.785156 C 113.019531 252.328125 125.707031 243.921875 138.375 235.492188 C 129.464844 243.925781 120.605469 252.417969 111.65625 260.800781 C 110.964844 261.449219 112 262.476562 112.695312 261.835938 C 122.566406 252.757812 132.558594 243.796875 142.464844 234.753906 C 141.359375 239.496094 140.261719 244.238281 139.230469 248.992188 C 138.792969 251.007812 141.859375 251.875 142.335938 249.847656 C 143.832031 243.488281 145.328125 237.128906 146.824219 230.769531 C 148.050781 229.640625 149.28125 228.511719 150.507812 227.375 C 151.496094 226.460938 150.199219 224.734375 149.054688 225.492188 " fill-opacity="1" fill-rule="nonzero"/><path fill="#000000" d="M 85.6875 132.539062 C 88.226562 133.34375 90.765625 134.15625 93.304688 134.960938 C 93.390625 135.234375 93.472656 135.503906 93.554688 135.773438 C 90.933594 134.695312 88.308594 133.617188 85.6875 132.539062 Z M 98.652344 136.453125 C 99.820312 136.167969 100.355469 134.316406 99.074219 133.628906 C 98.433594 133.285156 97.789062 132.941406 97.144531 132.59375 C 95.441406 128.214844 93.734375 123.835938 92.027344 119.457031 C 91.257812 117.488281 88.128906 118.242188 88.78125 120.351562 L 91.664062 129.660156 L 80.476562 123.667969 C 77.414062 122.027344 74.347656 120.398438 71.28125 118.765625 C 68.1875 117.121094 65.210938 115.347656 61.835938 114.351562 C 61.007812 114.109375 60.25 115.265625 60.957031 115.859375 C 63.578125 118.066406 66.570312 119.542969 69.574219 121.171875 C 72.703125 122.867188 75.828125 124.570312 78.960938 126.257812 C 80.316406 126.988281 81.667969 127.71875 83.019531 128.445312 C 79.964844 127.46875 76.914062 126.488281 73.855469 125.507812 C 65.582031 122.855469 57.203125 120.414062 49.007812 117.523438 C 47.316406 116.929688 46.109375 119.707031 47.773438 120.453125 C 55.945312 124.101562 64.335938 127.328125 72.613281 130.742188 C 80.015625 133.796875 87.421875 136.84375 94.832031 139.890625 C 94.878906 140.050781 94.929688 140.210938 94.980469 140.371094 C 81.277344 140.296875 67.574219 140.117188 53.871094 140.179688 C 51.917969 140.183594 51.574219 142.976562 53.417969 143.539062 C 54.488281 143.871094 55.640625 143.941406 56.746094 144.082031 C 57.1875 144.140625 57.519531 143.945312 57.734375 143.640625 C 70.910156 143.769531 84.09375 143.703125 97.273438 143.753906 C 98.339844 143.761719 99.226562 142.671875 98.898438 141.621094 C 98.828125 141.394531 98.757812 141.167969 98.6875 140.941406 C 99.402344 140.585938 99.917969 139.707031 99.625 138.957031 C 99.296875 138.121094 98.972656 137.289062 98.652344 136.453125 " fill-opacity="1" fill-rule="nonzero"/><g clip-path="url(#c477caf500)"><path fill="#000000" d="M 287.832031 252.820312 C 287.046875 251.414062 286.261719 250.015625 285.476562 248.609375 C 288.277344 251.949219 291.078125 255.285156 293.882812 258.617188 C 291.800781 256.757812 289.78125 254.824219 287.832031 252.820312 Z M 307.078125 268.878906 C 297.601562 257.546875 288.117188 246.214844 278.628906 234.890625 C 279.238281 234.96875 279.84375 235.046875 280.453125 235.125 C 286.003906 235.832031 291.589844 236.804688 297.183594 237.019531 C 298.945312 237.085938 299.355469 234.300781 297.601562 233.914062 C 292.0625 232.703125 286.335938 232.234375 280.710938 231.519531 C 277.855469 231.152344 275 230.789062 272.144531 230.421875 C 270.785156 228.378906 269.425781 226.332031 268.0625 224.289062 C 267.304688 223.144531 264.957031 223.035156 264.726562 224.722656 C 264.515625 226.28125 264.304688 227.839844 264.09375 229.394531 C 263.96875 229.378906 263.847656 229.363281 263.726562 229.347656 C 262.707031 229.21875 261.953125 230.289062 261.902344 231.167969 L 260.394531 256.675781 C 260.269531 258.691406 263.699219 259.210938 263.976562 257.160156 C 265.050781 249.25 266.125 241.339844 267.199219 233.433594 C 268.113281 233.550781 269.03125 233.664062 269.945312 233.78125 C 271.644531 236.898438 273.425781 239.960938 275.472656 242.875 C 277.054688 245.117188 278.710938 247.3125 280.445312 249.445312 C 283.25 253.65625 286.058594 257.867188 288.863281 262.074219 C 289.824219 263.519531 291.742188 262.929688 292.167969 261.675781 C 296.195312 265.289062 300.472656 268.621094 304.945312 271.640625 C 306.707031 272.828125 308.277344 270.3125 307.078125 268.878906 " fill-opacity="1" fill-rule="nonzero"/></g></svg>