<svg xmlns="http://www.w3.org/2000/svg" xmlns:xlink="http://www.w3.org/1999/xlink" width="500" zoomAndPan="magnify" viewBox="0 0 375 374.999991" height="500" preserveAspectRatio="xMidYMid meet" version="1.0"><defs><clipPath id="a0fa473687"><path d="M 86 70.734375 L 294.546875 70.734375 L 294.546875 323.484375 L 86 323.484375 Z M 86 70.734375 " clip-rule="nonzero"/></clipPath></defs><g clip-path="url(#a0fa473687)"><path fill="#000000" d="M 104.863281 266.054688 C 92.625 218.949219 94.945312 155.210938 111.828125 74.832031 C 111.96875 74.160156 112.597656 73.707031 113.28125 73.78125 C 113.960938 73.859375 114.476562 74.441406 114.464844 75.125 L 111.570312 267.28125 L 108.945312 266.945312 C 123.695312 207.167969 148.054688 146.914062 182.027344 86.191406 L 184.277344 87.609375 C 158.601562 123.832031 134.164062 181.761719 110.96875 261.390625 L 108.496094 260.425781 C 135.636719 205.675781 173.398438 155.375 221.789062 109.515625 C 222.292969 109.035156 223.082031 109.027344 223.601562 109.496094 C 224.117188 109.964844 224.183594 110.75 223.753906 111.300781 C 192.773438 151.03125 157.710938 203.050781 118.570312 267.351562 L 116.417969 265.796875 C 158.558594 216.285156 201.210938 178.484375 244.378906 152.398438 C 244.957031 152.046875 245.703125 152.183594 246.117188 152.71875 C 246.53125 153.25 246.484375 154.007812 246.003906 154.484375 C 173.949219 225.773438 135.839844 262.398438 131.675781 264.355469 C 131.082031 264.632812 130.375 264.441406 130.007812 263.902344 C 129.636719 263.359375 129.714844 262.632812 130.191406 262.183594 C 147.488281 245.773438 173.382812 229.691406 207.871094 213.9375 L 207.875 213.9375 C 224.949219 206.164062 244.136719 199.210938 265.4375 193.074219 C 265.449219 193.070312 265.457031 193.070312 265.464844 193.066406 C 280.882812 188.972656 289.703125 187.539062 291.929688 188.761719 C 292.480469 189.066406 292.828125 189.492188 292.976562 190.042969 C 293.082031 190.445312 293.058594 190.867188 292.90625 191.304688 C 292.683594 191.953125 292.125 192.675781 291.230469 193.480469 L 291.632812 192.804688 C 291.582031 193.023438 291.488281 193.234375 291.355469 193.449219 C 288.265625 198.386719 233.90625 220.308594 128.28125 259.207031 L 127.617188 256.640625 C 180.375 248.492188 234.550781 248.546875 290.140625 256.804688 C 290.191406 256.8125 290.242188 256.820312 290.292969 256.835938 C 291.941406 257.277344 293.050781 257.753906 293.617188 258.257812 C 294.222656 258.800781 294.429688 259.417969 294.242188 260.117188 C 294.136719 260.507812 293.90625 260.847656 293.546875 261.136719 C 292.257812 262.183594 287.582031 263.082031 279.511719 263.824219 L 279.542969 263.820312 C 260.117188 266.019531 241.734375 267.152344 224.386719 267.210938 L 224.53125 267.203125 C 216.441406 268.105469 184.898438 265.488281 129.90625 259.351562 L 130.335938 256.726562 L 275.070312 287.796875 L 275.078125 287.800781 C 286.203125 290.265625 292.417969 292.289062 293.71875 293.867188 C 294.152344 294.390625 294.300781 294.949219 294.171875 295.542969 C 294.152344 295.628906 294.125 295.710938 294.09375 295.796875 C 293.941406 296.195312 293.605469 296.5 293.1875 296.609375 C 258.363281 305.738281 200.460938 297.976562 119.488281 273.332031 L 120.59375 270.933594 C 156.398438 293.691406 189.75 310.289062 220.652344 320.726562 L 219.71875 323.21875 C 197.886719 314.203125 170.550781 301.707031 137.71875 285.734375 L 137.761719 285.753906 C 133.695312 283.945312 131.347656 282.421875 130.714844 281.1875 C 130.394531 280.570312 130.367188 279.964844 130.625 279.382812 C 130.769531 279.0625 130.992188 278.78125 131.296875 278.546875 L 131.300781 278.546875 C 131.324219 278.523438 131.351562 278.503906 131.378906 278.484375 L 130.96875 278.96875 C 131.089844 278.726562 131.265625 278.511719 131.503906 278.3125 L 131.5 278.3125 C 132.890625 277.160156 138.925781 275.777344 149.605469 274.167969 C 149.621094 274.167969 149.636719 274.164062 149.648438 274.164062 C 202.242188 267.972656 236.273438 263.539062 251.746094 260.863281 L 251.753906 260.863281 C 275.226562 256.933594 287.746094 254.214844 289.320312 252.703125 C 289.144531 252.871094 289.085938 253.117188 289.140625 253.441406 C 289.167969 253.617188 289.238281 253.769531 289.347656 253.898438 C 289.148438 253.664062 289.035156 253.371094 289.03125 253.066406 C 288.949219 249.546875 273.335938 247.632812 242.191406 247.324219 C 242.128906 247.324219 242.070312 247.316406 242.011719 247.308594 C 234.722656 246.257812 196.664062 249.304688 127.832031 256.453125 C 127.8125 256.457031 127.792969 256.457031 127.773438 256.457031 C 122.101562 256.804688 118.644531 256.578125 117.402344 255.785156 C 116.800781 255.402344 116.484375 254.894531 116.445312 254.261719 C 116.441406 254.191406 116.441406 254.125 116.445312 254.058594 L 116.566406 254.683594 C 116.300781 254.113281 116.3125 253.519531 116.59375 252.902344 C 117.207031 251.566406 119.703125 249.882812 124.089844 247.851562 C 126.589844 246.695312 129.75 245.386719 133.574219 243.917969 C 133.585938 243.914062 133.597656 243.910156 133.609375 243.902344 C 198.058594 221.390625 233.097656 208.648438 238.730469 205.683594 C 238.765625 205.664062 238.804688 205.648438 238.84375 205.632812 C 265.035156 194.769531 278.867188 188.320312 280.335938 186.292969 L 280.222656 187.667969 C 280.242188 187.703125 280.261719 187.730469 280.28125 187.746094 C 278.128906 186.078125 264.71875 190.371094 240.054688 200.617188 C 240.027344 200.628906 240 200.636719 239.972656 200.648438 C 231.398438 203.570312 204.300781 217.386719 158.6875 242.101562 C 158.675781 242.105469 158.667969 242.113281 158.65625 242.117188 C 155.816406 243.554688 153.914062 244.28125 152.953125 244.296875 C 152.171875 244.3125 151.625 244.015625 151.316406 243.40625 C 151.191406 243.15625 151.132812 242.890625 151.144531 242.601562 C 151.15625 242.320312 151.253906 242.046875 151.429688 241.828125 C 166.660156 222.519531 204.945312 188.992188 266.28125 141.242188 L 267.152344 143.625 C 267.175781 143.625 267.191406 143.621094 267.203125 143.621094 C 265.199219 144 255.464844 151.714844 238 166.765625 C 237.503906 167.191406 236.777344 167.195312 236.277344 166.777344 C 235.773438 166.359375 235.652344 165.640625 235.980469 165.078125 C 235.5625 165.792969 235.726562 166.371094 236.480469 166.8125 C 236.933594 167.082031 237.359375 167.089844 237.746094 166.839844 C 235.917969 168.019531 214.074219 188.9375 172.222656 229.597656 C 172.21875 229.601562 172.210938 229.609375 172.207031 229.613281 C 168.054688 233.507812 165.363281 235.628906 164.140625 235.980469 C 163.410156 236.1875 162.820312 236.050781 162.367188 235.566406 C 162.007812 235.183594 161.867188 234.691406 161.945312 234.085938 C 161.960938 233.976562 161.980469 233.859375 162.011719 233.742188 L 161.976562 233.957031 C 162.285156 229.992188 169.859375 218.347656 184.703125 199.019531 L 184.65625 199.085938 C 188.265625 193.734375 211.96875 165.734375 255.765625 115.09375 L 255.753906 115.109375 C 257.65625 112.835938 258.667969 111.40625 258.792969 110.832031 C 258.730469 111.125 258.851562 111.402344 259.15625 111.65625 C 259.351562 111.820312 259.539062 111.894531 259.722656 111.878906 C 259.632812 111.886719 259.476562 111.9375 259.25 112.027344 L 259.378906 111.964844 C 252.585938 115.523438 240.617188 126.28125 223.480469 144.234375 C 223.460938 144.253906 223.441406 144.277344 223.417969 144.296875 C 217.820312 149.425781 193.601562 177.617188 150.765625 228.863281 C 150.757812 228.871094 150.75 228.878906 150.746094 228.886719 C 144.503906 235.992188 140.679688 239.847656 139.269531 240.449219 C 138.574219 240.75 137.976562 240.679688 137.480469 240.246094 C 137.117188 239.925781 136.941406 239.5 136.953125 238.96875 L 137.503906 240.078125 C 137.066406 239.757812 136.800781 239.300781 136.71875 238.699219 C 135.867188 232.675781 166.6875 186.128906 229.179688 99.054688 L 229.140625 99.109375 C 232.75 93.503906 234.449219 90.15625 234.230469 89.066406 C 234.253906 89.179688 234.332031 89.28125 234.46875 89.367188 C 234.535156 89.410156 234.589844 89.433594 234.636719 89.4375 C 234.496094 89.421875 234.230469 89.484375 233.84375 89.628906 L 234.089844 89.507812 C 204.34375 108.222656 166.8125 155.433594 121.492188 231.152344 C 121.15625 231.714844 120.457031 231.949219 119.847656 231.703125 C 119.242188 231.457031 118.902344 230.804688 119.050781 230.164062 C 119.886719 226.570312 126.25 214.546875 138.140625 194.09375 L 138.101562 194.164062 C 141.757812 186.90625 162.089844 154.058594 199.09375 95.621094 L 199.085938 95.636719 C 202.558594 89.980469 204.34375 86.6875 204.449219 85.753906 C 204.410156 86.117188 204.585938 86.417969 204.984375 86.660156 C 205.304688 86.859375 205.59375 86.898438 205.851562 86.785156 C 205.820312 86.796875 205.769531 86.828125 205.699219 86.875 L 205.808594 86.792969 C 186.367188 102.921875 156.109375 149.007812 115.035156 225.046875 C 114.882812 225.332031 114.628906 225.554688 114.320312 225.664062 C 113.246094 226.058594 112.507812 225.699219 112.101562 224.589844 C 112.082031 224.53125 112.0625 224.472656 112.042969 224.410156 C 111.757812 223.390625 112 221.136719 112.773438 217.65625 C 114.835938 208.324219 117.355469 198.414062 120.328125 187.933594 L 120.320312 187.964844 C 122.695312 178.710938 131.914062 149.898438 147.980469 101.523438 L 147.96875 101.566406 L 152.816406 85.238281 C 152.816406 85.234375 152.820312 85.226562 152.820312 85.222656 C 152.925781 84.878906 152.984375 84.652344 152.996094 84.542969 C 152.941406 85.105469 153.234375 85.484375 153.867188 85.679688 C 154.308594 85.816406 154.664062 85.761719 154.9375 85.507812 C 154.839844 85.597656 154.660156 85.824219 154.402344 86.191406 L 154.453125 86.113281 C 144.101562 103.261719 128.914062 151.855469 108.886719 231.886719 C 108.765625 232.367188 108.390625 232.738281 107.910156 232.855469 C 107.433594 232.976562 106.925781 232.816406 106.597656 232.449219 C 106.535156 232.378906 106.476562 232.304688 106.421875 232.222656 C 104.9375 230.101562 104.65625 219.257812 105.574219 199.6875 L 105.714844 200.347656 C 105.632812 200.191406 105.582031 200.003906 105.554688 199.792969 C 105.242188 197.378906 107.660156 168.128906 112.804688 112.039062 L 112.804688 112.074219 C 113.4375 102.386719 113.886719 93.308594 114.148438 84.839844 C 114.148438 84.824219 114.148438 84.808594 114.148438 84.789062 C 114.199219 84.0625 114.203125 83.597656 114.15625 83.398438 C 114.257812 83.839844 114.589844 84.078125 115.144531 84.113281 C 115.496094 84.140625 115.757812 84.054688 115.9375 83.859375 C 115.925781 83.871094 115.910156 83.894531 115.886719 83.921875 L 116.101562 83.441406 C 108.894531 115.5625 102.160156 172.523438 95.902344 254.320312 C 95.851562 255.003906 95.292969 255.535156 94.609375 255.550781 C 93.925781 255.566406 93.339844 255.066406 93.253906 254.386719 C 84.972656 189.324219 84.761719 132.148438 92.625 82.859375 C 92.734375 82.152344 93.390625 81.660156 94.101562 81.75 C 94.816406 81.835938 95.328125 82.472656 95.265625 83.1875 C 89.210938 152.082031 90.949219 218.140625 100.480469 281.363281 L 97.832031 281.617188 L 96.316406 245.683594 L 96.316406 245.6875 C 96.265625 244.664062 96.355469 243.878906 96.585938 243.328125 C 96.917969 242.53125 97.480469 242.113281 98.273438 242.074219 C 98.496094 242.0625 98.71875 242.089844 98.949219 242.15625 C 99.234375 242.238281 99.488281 242.417969 99.660156 242.660156 C 122.871094 274.96875 176.050781 289.675781 259.203125 286.777344 L 258.855469 286.835938 C 258.859375 286.832031 258.863281 286.832031 258.863281 286.832031 L 258.867188 286.832031 C 258.292969 287.039062 258.117188 287.488281 258.328125 288.175781 C 258.390625 288.378906 258.480469 288.523438 258.601562 288.613281 C 258.355469 288.429688 257.628906 288.148438 256.417969 287.769531 L 256.464844 287.785156 C 212.8125 275.882812 189.453125 269.316406 186.390625 268.085938 L 186.460938 268.113281 L 123.109375 246.789062 C 122.894531 246.71875 122.703125 246.59375 122.550781 246.425781 C 121.855469 245.664062 121.898438 244.929688 122.675781 244.214844 C 122.773438 244.125 122.886719 244.042969 123.007812 243.96875 C 124.742188 242.894531 134.070312 241.601562 150.992188 240.082031 C 151.003906 240.082031 151.015625 240.082031 151.027344 240.078125 L 285.796875 231.546875 L 284.679688 232.300781 C 284.417969 232.851562 284.496094 233.265625 284.917969 233.542969 C 284.902344 233.535156 284.878906 233.519531 284.84375 233.503906 C 283.238281 232.738281 276.957031 231.929688 265.996094 231.082031 L 266.0625 231.085938 C 177.8125 228.632812 131.746094 226.363281 127.867188 224.269531 C 127.378906 224.003906 127.078125 223.640625 126.964844 223.179688 C 126.808594 222.511719 127.183594 221.832031 127.832031 221.609375 C 191.222656 199.964844 236.570312 180.195312 263.871094 162.304688 L 263.5 162.671875 C 263.742188 162.3125 263.878906 162.0625 263.910156 161.921875 C 263.84375 162.222656 263.972656 162.484375 264.296875 162.703125 C 264.390625 162.765625 264.46875 162.800781 264.539062 162.808594 C 263.535156 162.691406 260.253906 164.105469 254.695312 167.046875 L 254.714844 167.035156 C 247.957031 170.753906 239.449219 176.613281 229.195312 184.613281 L 229.183594 184.621094 C 221.785156 190.265625 210.945312 199.621094 196.660156 212.691406 L 196.664062 212.683594 C 177.054688 230.871094 166.820312 240.777344 165.960938 242.394531 C 166.1875 241.96875 166.105469 241.542969 165.710938 241.117188 C 165.339844 240.71875 164.941406 240.597656 164.519531 240.757812 C 164.535156 240.753906 164.5625 240.742188 164.597656 240.722656 L 164.332031 240.898438 C 190.945312 218.339844 223.464844 192.261719 261.890625 162.664062 L 261.855469 162.691406 C 264.960938 160.136719 266.652344 158.519531 266.921875 157.851562 C 266.8125 158.128906 266.878906 158.417969 267.128906 158.71875 C 267.300781 158.925781 267.480469 159.039062 267.671875 159.050781 C 267.640625 159.050781 267.585938 159.050781 267.507812 159.0625 L 267.574219 159.050781 C 260.867188 160.21875 247.691406 167.257812 228.042969 180.179688 C 227.945312 180.246094 227.835938 180.296875 227.722656 180.335938 C 224.914062 181.246094 200.296875 200.164062 153.875 237.082031 C 153.867188 237.089844 153.859375 237.09375 153.855469 237.101562 C 149.707031 240.261719 146.953125 241.890625 145.589844 241.988281 C 144.859375 242.039062 144.300781 241.804688 143.90625 241.289062 C 143.636719 240.933594 143.511719 240.5 143.53125 239.988281 C 143.53125 239.929688 143.539062 239.867188 143.542969 239.804688 L 143.535156 239.910156 C 143.644531 235.539062 150.789062 224.210938 164.96875 205.925781 L 164.9375 205.96875 C 169.800781 199.164062 194.863281 169.910156 240.132812 118.207031 L 240.117188 118.226562 C 245.199219 112.210938 247.910156 108.777344 248.25 107.917969 C 248.070312 108.367188 248.207031 108.78125 248.648438 109.152344 C 249.046875 109.488281 249.433594 109.566406 249.820312 109.382812 C 249.800781 109.390625 249.769531 109.410156 249.722656 109.4375 L 249.84375 109.351562 C 214.023438 137.765625 175.386719 185.160156 133.941406 251.535156 C 133.605469 252.070312 132.941406 252.296875 132.347656 252.078125 C 131.597656 251.796875 131.308594 251.222656 131.480469 250.34375 C 131.523438 250.128906 131.609375 249.847656 131.738281 249.5 C 134.34375 242.511719 160.46875 194.011719 210.113281 103.996094 L 210.085938 104.050781 C 219.050781 85.941406 222.210938 76.230469 219.5625 74.921875 C 219.21875 74.75 218.664062 74.765625 217.894531 74.964844 L 218.078125 74.902344 C 182.492188 89.882812 140.777344 146.277344 92.945312 244.078125 C 92.636719 244.703125 91.90625 244.988281 91.257812 244.734375 C 90.613281 244.480469 90.269531 243.773438 90.472656 243.109375 C 98.046875 218.148438 123.609375 164.523438 167.152344 82.238281 L 167.132812 82.273438 C 169.675781 77.113281 170.792969 74.050781 170.488281 73.085938 C 170.523438 73.195312 170.613281 73.285156 170.757812 73.355469 C 170.820312 73.386719 170.871094 73.402344 170.914062 73.402344 C 170.851562 73.402344 170.742188 73.425781 170.589844 73.480469 L 170.707031 73.433594 C 158.390625 79.113281 142.0625 99.273438 121.714844 133.90625 L 121.746094 133.847656 C 101.273438 172.859375 90.507812 200.859375 89.445312 217.851562 L 89.40625 217.429688 C 89.410156 217.453125 89.414062 217.46875 89.421875 217.476562 C 89.390625 217.414062 89.339844 217.375 89.273438 217.355469 C 89.371094 217.382812 89.558594 217.359375 89.835938 217.285156 C 91.242188 216.914062 93.542969 215.496094 96.730469 213.035156 L 96.660156 213.09375 C 135.261719 178.800781 162.402344 156.957031 178.082031 147.558594 L 178.058594 147.574219 C 205.03125 130.578125 225.023438 121.484375 238.03125 120.289062 C 238.164062 120.277344 238.296875 120.285156 238.429688 120.3125 C 241.425781 120.945312 242.53125 123.128906 241.742188 126.863281 C 240.832031 131.164062 237.066406 137.945312 230.441406 147.207031 C 230.429688 147.222656 230.417969 147.238281 230.40625 147.253906 L 150.722656 249.003906 L 148.960938 247.054688 C 207.257812 210.433594 247.488281 189.582031 269.648438 184.5 C 270.246094 184.363281 270.859375 184.652344 271.136719 185.203125 C 271.410156 185.75 271.277344 186.414062 270.808594 186.8125 C 227.148438 224 189.378906 253.109375 157.496094 274.152344 L 156.195312 271.832031 C 180.734375 260.378906 222.417969 254.160156 281.253906 253.1875 C 281.992188 253.175781 282.597656 253.761719 282.609375 254.496094 C 282.621094 255.230469 282.035156 255.835938 281.296875 255.851562 C 222.84375 256.820312 181.519531 262.949219 157.324219 274.246094 C 156.691406 274.542969 155.9375 274.296875 155.597656 273.6875 C 155.257812 273.082031 155.445312 272.3125 156.027344 271.925781 C 187.820312 250.945312 225.503906 221.898438 269.082031 184.785156 L 270.242188 187.097656 C 248.375 192.109375 208.421875 212.847656 150.378906 249.308594 C 149.832031 249.652344 149.117188 249.554688 148.683594 249.074219 C 148.25 248.59375 148.222656 247.871094 148.621094 247.359375 L 228.308594 145.609375 L 228.273438 145.65625 C 234.683594 136.699219 238.304688 130.25 239.136719 126.3125 C 239.554688 124.316406 239.136719 123.1875 237.878906 122.921875 L 238.273438 122.941406 C 225.691406 124.097656 206.09375 133.058594 179.476562 149.828125 C 179.46875 149.835938 179.460938 149.839844 179.453125 149.84375 C 163.914062 159.15625 136.90625 180.902344 98.429688 215.085938 C 98.40625 215.105469 98.382812 215.125 98.359375 215.144531 C 94.886719 217.824219 92.273438 219.398438 90.519531 219.859375 C 89.792969 220.050781 89.152344 220.078125 88.601562 219.933594 C 87.886719 219.75 87.359375 219.324219 87.03125 218.65625 C 86.949219 218.488281 86.878906 218.304688 86.828125 218.109375 C 86.792969 217.972656 86.777344 217.828125 86.785156 217.6875 C 87.871094 200.316406 98.738281 171.957031 119.386719 132.613281 C 119.394531 132.59375 119.40625 132.574219 119.417969 132.554688 C 140.046875 97.441406 156.769531 76.929688 169.589844 71.011719 C 169.628906 70.996094 169.671875 70.980469 169.710938 70.964844 C 170.164062 70.808594 170.578125 70.730469 170.957031 70.738281 C 171.3125 70.742188 171.640625 70.820312 171.933594 70.964844 C 172.46875 71.226562 172.835938 71.667969 173.027344 72.28125 C 173.550781 73.925781 172.382812 77.648438 169.527344 83.449219 C 169.519531 83.460938 169.515625 83.472656 169.507812 83.484375 C 126.042969 165.621094 100.546875 219.085938 93.019531 243.882812 L 90.550781 242.910156 C 138.679688 144.507812 180.84375 87.6875 217.042969 72.445312 C 217.105469 72.421875 217.164062 72.398438 217.226562 72.382812 C 218.636719 72.019531 219.808594 72.070312 220.746094 72.535156 C 224.984375 74.628906 222.226562 85.527344 212.476562 105.230469 C 212.464844 105.25 212.457031 105.265625 212.449219 105.285156 C 162.867188 195.183594 136.796875 243.5625 134.234375 250.429688 C 134.15625 250.640625 134.109375 250.78125 134.097656 250.851562 C 134.214844 250.253906 133.941406 249.828125 133.277344 249.582031 L 131.679688 250.125 C 173.289062 183.488281 212.125 135.871094 248.1875 107.265625 C 248.226562 107.234375 248.265625 107.207031 248.308594 107.179688 C 248.441406 107.097656 248.558594 107.03125 248.671875 106.976562 C 249.324219 106.667969 249.890625 106.714844 250.367188 107.121094 C 250.898438 107.566406 251.019531 108.160156 250.730469 108.894531 C 250.285156 110.023438 247.425781 113.707031 242.152344 119.945312 C 242.148438 119.953125 242.140625 119.957031 242.136719 119.964844 C 196.925781 171.597656 171.917969 200.78125 167.105469 207.519531 C 167.09375 207.53125 167.085938 207.546875 167.074219 207.558594 C 153.25 225.378906 146.292969 236.1875 146.199219 239.976562 C 146.199219 240.011719 146.199219 240.046875 146.195312 240.085938 C 146.195312 240.089844 146.191406 240.09375 146.191406 240.09375 C 146.199219 239.964844 146.144531 239.828125 146.027344 239.675781 C 145.839844 239.429688 145.632812 239.3125 145.402344 239.328125 C 146.234375 239.269531 148.511719 237.820312 152.238281 234.984375 L 152.214844 235 C 198.890625 197.878906 223.785156 178.8125 226.902344 177.800781 L 226.578125 177.953125 C 246.535156 164.832031 260.046875 157.65625 267.117188 156.425781 C 267.140625 156.421875 267.164062 156.421875 267.183594 156.417969 C 267.429688 156.386719 267.65625 156.378906 267.855469 156.394531 C 268.429688 156.433594 268.871094 156.644531 269.1875 157.027344 C 269.609375 157.539062 269.679688 158.148438 269.390625 158.855469 C 268.953125 159.941406 267.003906 161.90625 263.550781 164.75 C 263.539062 164.757812 263.527344 164.765625 263.515625 164.777344 C 225.125 194.347656 192.636719 220.398438 166.054688 242.929688 C 165.972656 243 165.882812 243.058594 165.785156 243.105469 C 165.667969 243.164062 165.5625 243.214844 165.460938 243.25 C 164.765625 243.511719 164.199219 243.40625 163.757812 242.929688 C 163.292969 242.429688 163.242188 241.835938 163.605469 241.148438 C 164.605469 239.261719 175.023438 229.125 194.851562 210.730469 L 194.859375 210.722656 C 209.203125 197.601562 220.105469 188.195312 227.566406 182.503906 L 227.554688 182.511719 C 237.921875 174.425781 246.546875 168.492188 253.429688 164.703125 C 253.4375 164.699219 253.441406 164.695312 253.449219 164.691406 C 259.496094 161.492188 263.296875 159.980469 264.851562 160.164062 C 265.210938 160.203125 265.523438 160.316406 265.789062 160.496094 C 266.464844 160.953125 266.707031 161.621094 266.511719 162.496094 C 266.40625 162.96875 266.140625 163.523438 265.707031 164.164062 C 265.605469 164.308594 265.480469 164.433594 265.332031 164.53125 C 237.84375 182.546875 192.296875 202.414062 128.695312 224.128906 L 129.558594 222.5625 C 129.484375 222.25 129.34375 222.039062 129.132812 221.925781 C 132.640625 223.816406 178.308594 225.984375 266.136719 228.425781 C 266.160156 228.425781 266.179688 228.425781 266.203125 228.425781 C 277.492188 229.300781 284.089844 230.191406 285.992188 231.101562 C 286.140625 231.171875 286.273438 231.246094 286.390625 231.324219 C 287.257812 231.898438 287.488281 232.605469 287.085938 233.449219 C 286.878906 233.886719 286.449219 234.175781 285.96875 234.207031 L 151.195312 242.738281 L 151.230469 242.734375 C 134.726562 244.21875 125.785156 245.382812 124.410156 246.234375 C 124.429688 246.222656 124.449219 246.203125 124.476562 246.179688 C 125.007812 245.695312 125.019531 245.179688 124.519531 244.628906 L 123.960938 244.265625 L 187.3125 265.589844 C 187.335938 265.597656 187.359375 265.605469 187.382812 265.617188 C 190.351562 266.808594 213.613281 273.339844 257.167969 285.214844 C 257.183594 285.21875 257.199219 285.222656 257.214844 285.226562 C 258.71875 285.695312 259.714844 286.117188 260.207031 286.488281 C 260.542969 286.742188 260.765625 287.042969 260.875 287.386719 C 261.160156 288.3125 260.796875 288.960938 259.785156 289.332031 C 259.738281 289.347656 259.691406 289.363281 259.640625 289.378906 C 259.53125 289.414062 259.414062 289.433594 259.292969 289.4375 C 175.195312 292.371094 121.261719 277.292969 97.496094 244.214844 L 98.210938 244.714844 C 98.265625 244.730469 98.328125 244.738281 98.398438 244.734375 C 98.730469 244.71875 98.945312 244.59375 99.046875 244.355469 C 98.96875 244.535156 98.945312 244.9375 98.976562 245.5625 L 98.976562 245.570312 L 100.496094 281.503906 C 100.527344 282.210938 99.996094 282.820312 99.292969 282.886719 C 98.585938 282.953125 97.953125 282.460938 97.847656 281.761719 C 88.285156 218.328125 86.539062 152.0625 92.613281 82.953125 L 95.253906 83.28125 C 87.433594 132.316406 87.648438 189.242188 95.894531 254.050781 L 93.246094 254.117188 C 99.515625 172.191406 106.265625 115.105469 113.5 82.859375 C 113.539062 82.6875 113.613281 82.523438 113.714844 82.378906 C 113.800781 82.261719 113.882812 82.15625 113.96875 82.0625 C 114.367188 81.625 114.820312 81.421875 115.328125 81.457031 C 116.074219 81.507812 116.546875 81.949219 116.746094 82.78125 C 116.855469 83.242188 116.878906 83.972656 116.808594 84.972656 L 116.8125 84.921875 C 116.546875 93.421875 116.097656 102.53125 115.460938 112.246094 C 115.460938 112.257812 115.460938 112.269531 115.460938 112.28125 C 110.332031 168.175781 107.910156 197.234375 108.195312 199.453125 C 108.183594 199.363281 108.152344 199.265625 108.09375 199.152344 C 108.199219 199.355469 108.246094 199.585938 108.234375 199.8125 C 107.34375 218.777344 107.46875 229.070312 108.605469 230.699219 C 108.601562 230.691406 108.597656 230.6875 108.589844 230.679688 L 106.300781 231.242188 C 126.390625 150.949219 141.683594 102.113281 152.171875 84.738281 C 152.191406 84.710938 152.207031 84.683594 152.222656 84.660156 C 152.59375 84.136719 152.898438 83.761719 153.136719 83.542969 C 153.617188 83.105469 154.125 82.96875 154.660156 83.136719 C 155.402344 83.367188 155.734375 83.921875 155.648438 84.796875 C 155.621094 85.089844 155.527344 85.496094 155.367188 86.011719 L 155.371094 85.996094 L 150.523438 102.324219 C 150.519531 102.335938 150.515625 102.351562 150.511719 102.363281 C 134.464844 150.675781 125.261719 179.433594 122.902344 188.628906 C 122.898438 188.640625 122.898438 188.648438 122.894531 188.660156 C 119.933594 199.089844 117.425781 208.949219 115.375 218.230469 L 115.375 218.234375 C 114.699219 221.28125 114.445312 223.097656 114.609375 223.691406 C 114.609375 223.6875 114.605469 223.683594 114.605469 223.675781 C 114.402344 223.117188 114 222.945312 113.40625 223.164062 L 112.691406 223.78125 C 153.925781 147.4375 184.398438 101.09375 204.109375 84.742188 C 204.144531 84.714844 204.179688 84.6875 204.21875 84.660156 C 204.417969 84.527344 204.601562 84.425781 204.773438 84.347656 C 205.367188 84.085938 205.902344 84.097656 206.375 84.390625 C 206.945312 84.738281 207.183594 85.292969 207.097656 86.054688 C 206.949219 87.378906 205.035156 91.035156 201.355469 97.027344 C 201.355469 97.035156 201.351562 97.039062 201.347656 97.042969 C 164.386719 155.410156 144.097656 188.179688 140.480469 195.363281 C 140.46875 195.386719 140.457031 195.410156 140.441406 195.433594 C 128.6875 215.652344 122.421875 227.433594 121.644531 230.769531 L 119.203125 229.785156 C 164.742188 153.703125 202.566406 106.191406 232.671875 87.253906 C 232.75 87.203125 232.832031 87.164062 232.917969 87.132812 C 233.699219 86.84375 234.367188 86.726562 234.929688 86.789062 C 235.296875 86.832031 235.625 86.941406 235.914062 87.128906 C 236.410156 87.449219 236.722656 87.921875 236.84375 88.546875 C 237.203125 90.34375 235.378906 94.34375 231.382812 100.550781 C 231.367188 100.570312 231.355469 100.585938 231.34375 100.605469 C 169.265625 187.101562 138.605469 233.007812 139.355469 238.324219 C 139.335938 238.179688 139.238281 238.042969 139.066406 237.917969 C 139.421875 238.175781 139.628906 238.589844 139.617188 239.027344 C 139.625 238.734375 139.5 238.472656 139.238281 238.246094 C 138.894531 237.941406 138.550781 237.859375 138.21875 238 C 139.257812 237.554688 142.765625 233.933594 148.742188 227.128906 L 148.722656 227.152344 C 191.632812 175.816406 215.933594 147.542969 221.617188 142.332031 L 221.554688 142.394531 C 238.894531 124.230469 251.089844 113.300781 258.140625 109.605469 C 258.183594 109.585938 258.226562 109.566406 258.269531 109.546875 C 258.734375 109.363281 259.136719 109.257812 259.476562 109.226562 C 260.03125 109.175781 260.496094 109.304688 260.863281 109.613281 C 261.382812 110.046875 261.5625 110.644531 261.398438 111.398438 C 261.179688 112.402344 259.980469 114.207031 257.796875 116.816406 C 257.792969 116.824219 257.789062 116.828125 257.78125 116.835938 C 214.054688 167.398438 190.414062 195.3125 186.863281 200.574219 C 186.847656 200.597656 186.832031 200.621094 186.816406 200.640625 C 172.292969 219.550781 164.902344 230.726562 164.632812 234.164062 C 164.628906 234.234375 164.617188 234.308594 164.597656 234.378906 C 164.59375 234.402344 164.589844 234.417969 164.589844 234.429688 C 164.617188 234.203125 164.523438 233.972656 164.308594 233.742188 C 164.023438 233.4375 163.722656 233.328125 163.410156 233.417969 C 164.21875 233.1875 166.542969 231.269531 170.382812 227.671875 L 170.367188 227.6875 C 212.34375 186.902344 234.324219 165.875 236.304688 164.597656 C 236.835938 164.257812 237.34375 164.230469 237.832031 164.515625 C 238.609375 164.976562 238.757812 165.613281 238.277344 166.433594 L 236.261719 164.746094 C 254.085938 149.382812 264.234375 141.46875 266.707031 141.003906 C 266.824219 140.980469 266.941406 140.96875 267.050781 140.964844 C 267.628906 140.941406 268.15625 141.292969 268.355469 141.835938 C 268.550781 142.382812 268.375 142.988281 267.921875 143.34375 C 206.75 190.960938 168.617188 224.335938 153.523438 243.476562 L 153.808594 242.699219 C 153.8125 242.53125 153.777344 242.363281 153.695312 242.203125 C 153.5 241.816406 153.234375 241.628906 152.902344 241.636719 C 153.457031 241.625 154.972656 240.992188 157.453125 239.738281 L 157.417969 239.757812 C 203.164062 214.972656 230.394531 201.097656 239.113281 198.125 L 239.03125 198.15625 C 264.648438 187.511719 278.941406 183.339844 281.914062 185.640625 C 282.214844 185.871094 282.445312 186.152344 282.609375 186.480469 C 282.832031 186.921875 282.785156 187.453125 282.496094 187.855469 C 280.734375 190.289062 266.523438 197.035156 239.863281 208.09375 L 239.972656 208.039062 C 234.222656 211.066406 199.0625 223.859375 134.488281 246.417969 L 134.527344 246.40625 C 130.761719 247.851562 127.652344 249.140625 125.207031 250.269531 C 121.417969 252.023438 119.355469 253.269531 119.019531 254.007812 C 119.074219 253.882812 119.0625 253.734375 118.984375 253.5625 C 119.074219 253.757812 119.117188 253.972656 119.105469 254.191406 C 119.105469 254.160156 119.105469 254.128906 119.105469 254.097656 C 119.089844 253.832031 119 253.644531 118.832031 253.539062 C 119.589844 254.023438 122.519531 254.109375 127.613281 253.800781 L 127.554688 253.804688 C 196.605469 246.632812 234.886719 243.589844 242.394531 244.671875 L 242.214844 244.660156 C 275.078125 244.984375 291.574219 247.765625 291.695312 253.003906 L 291.378906 252.171875 C 291.585938 252.417969 291.714844 252.695312 291.769531 253 C 291.867188 253.601562 291.667969 254.140625 291.167969 254.621094 C 289.199219 256.515625 276.207031 259.472656 252.195312 263.488281 L 252.203125 263.488281 C 236.679688 266.171875 202.601562 270.613281 149.960938 276.808594 L 150.003906 276.804688 C 139.8125 278.335938 134.214844 279.523438 133.207031 280.363281 C 133.257812 280.320312 133.304688 280.253906 133.347656 280.164062 C 133.253906 280.355469 133.109375 280.519531 132.9375 280.648438 C 132.9375 280.648438 132.933594 280.648438 132.933594 280.648438 C 132.980469 280.613281 133.023438 280.550781 133.058594 280.46875 C 133.148438 280.273438 133.15625 280.109375 133.085938 279.972656 C 133.429688 280.648438 135.351562 281.765625 138.84375 283.320312 C 138.859375 283.328125 138.871094 283.332031 138.886719 283.339844 C 171.667969 299.289062 198.953125 311.761719 220.738281 320.757812 C 221.402344 321.03125 221.726562 321.785156 221.476562 322.457031 C 221.222656 323.128906 220.480469 323.480469 219.800781 323.25 C 188.695312 312.746094 155.148438 296.054688 119.164062 273.179688 C 118.601562 272.824219 118.390625 272.105469 118.667969 271.5 C 118.945312 270.894531 119.628906 270.585938 120.265625 270.78125 C 200.757812 295.28125 258.171875 303.03125 292.511719 294.03125 L 291.605469 294.84375 C 291.589844 294.882812 291.578125 294.921875 291.570312 294.964844 C 291.511719 295.21875 291.542969 295.417969 291.664062 295.5625 C 290.75 294.457031 285.03125 292.734375 274.5 290.402344 L 274.511719 290.402344 L 129.773438 259.328125 C 129.082031 259.179688 128.625 258.515625 128.738281 257.8125 C 128.855469 257.113281 129.496094 256.625 130.203125 256.703125 C 184.996094 262.820312 216.34375 265.4375 224.234375 264.554688 C 224.28125 264.550781 224.332031 264.546875 224.378906 264.546875 C 241.628906 264.488281 259.914062 263.363281 279.242188 261.171875 C 279.25 261.171875 279.261719 261.171875 279.269531 261.171875 C 286.796875 260.476562 290.996094 259.777344 291.867188 259.070312 C 291.78125 259.140625 291.714844 259.261719 291.667969 259.425781 C 291.574219 259.785156 291.628906 260.058594 291.839844 260.246094 C 291.589844 260.019531 290.84375 259.742188 289.597656 259.40625 L 289.75 259.4375 C 234.425781 251.222656 180.515625 251.167969 128.023438 259.273438 C 127.347656 259.378906 126.699219 258.953125 126.53125 258.289062 C 126.359375 257.628906 126.714844 256.941406 127.359375 256.707031 C 232.414062 218.015625 286.328125 196.460938 289.097656 192.035156 C 289.078125 192.066406 289.058594 192.117188 289.042969 192.179688 C 289.105469 191.917969 289.246094 191.683594 289.445312 191.503906 C 290 191.003906 290.316406 190.644531 290.390625 190.429688 C 290.363281 190.507812 290.367188 190.605469 290.398438 190.726562 C 290.449219 190.910156 290.53125 191.035156 290.648438 191.097656 C 289.042969 190.21875 280.878906 191.730469 266.148438 195.640625 L 266.175781 195.632812 C 245 201.734375 225.933594 208.644531 208.976562 216.363281 L 208.980469 216.359375 C 174.757812 231.992188 149.105469 247.910156 132.023438 264.117188 L 130.539062 261.945312 C 134.429688 260.117188 172.292969 223.664062 244.128906 152.589844 L 245.757812 154.675781 C 202.835938 180.613281 160.398438 218.230469 118.445312 267.523438 C 117.996094 268.050781 117.214844 268.144531 116.652344 267.738281 C 116.089844 267.332031 115.933594 266.5625 116.292969 265.96875 C 155.488281 201.578125 190.609375 149.476562 221.652344 109.660156 L 223.621094 111.449219 C 175.460938 157.089844 137.882812 207.144531 110.882812 261.609375 C 110.578125 262.226562 109.847656 262.507812 109.207031 262.257812 C 108.5625 262.007812 108.21875 261.308594 108.410156 260.644531 C 131.691406 180.730469 156.253906 122.539062 182.101562 86.070312 C 182.511719 85.492188 183.300781 85.335938 183.902344 85.714844 C 184.5 86.09375 184.699219 86.871094 184.351562 87.492188 C 150.5 148.007812 126.226562 208.035156 111.535156 267.582031 C 111.371094 268.238281 110.742188 268.671875 110.070312 268.585938 C 109.398438 268.496094 108.898438 267.921875 108.90625 267.242188 L 111.800781 75.085938 L 114.4375 75.378906 C 97.640625 155.351562 95.308594 218.683594 107.441406 265.382812 C 107.625 266.09375 107.199219 266.824219 106.488281 267.007812 C 105.773438 267.191406 105.046875 266.765625 104.863281 266.054688 Z M 104.863281 266.054688 " fill-opacity="1" fill-rule="nonzero"/></g></svg>