<svg xmlns="http://www.w3.org/2000/svg" xmlns:xlink="http://www.w3.org/1999/xlink" width="500" zoomAndPan="magnify" viewBox="0 0 375 374.999991" height="500" preserveAspectRatio="xMidYMid meet" version="1.0"><defs><clipPath id="b8a45bbd4a"><path d="M 98 49 L 278 49 L 278 327.304688 L 98 327.304688 Z M 98 49 " clip-rule="nonzero"/></clipPath></defs><g clip-path="url(#b8a45bbd4a)"><path fill="#000000" d="M 178.421875 140.292969 C 186.464844 129.730469 194.378906 119.445312 202.109375 109.023438 C 202.828125 108.054688 203.039062 105.875 202.445312 104.890625 C 195.257812 93.058594 187.945312 81.300781 180.511719 69.621094 C 177.289062 64.558594 173.257812 60.230469 167.457031 57.972656 C 166.722656 57.765625 166.171875 57.328125 165.804688 56.660156 C 174.226562 53.71875 180.605469 57.320312 186.523438 61.988281 C 197.535156 70.679688 206.617188 81.175781 214.574219 93.070312 C 219.660156 87.335938 224.347656 81.414062 229.695312 76.167969 C 237.542969 68.46875 245.476562 60.75 254.125 54.003906 C 259.871094 49.519531 267.105469 47.542969 274.433594 51.101562 C 275.605469 51.671875 276.609375 53.585938 276.8125 55.003906 C 278.03125 63.496094 274.339844 71.101562 272.058594 78.929688 C 264.59375 104.535156 257.042969 130.113281 249.402344 155.664062 C 248.4375 158.875 248.851562 161.4375 250.269531 164.289062 C 257.921875 179.695312 265.304688 195.238281 273.09375 210.574219 C 277.246094 218.761719 276.238281 226.359375 271.875 233.910156 C 269.65625 237.75 265.53125 236.945312 262.132812 237.359375 C 252.84375 238.492188 243.511719 239.246094 234.1875 240.082031 C 230.484375 240.410156 230.9375 243.730469 230.71875 245.683594 C 229.265625 258.570312 227.988281 271.484375 227.109375 284.425781 C 226.441406 294.261719 226.582031 304.15625 226.089844 314.011719 C 225.847656 317.277344 225.203125 320.464844 224.148438 323.570312 C 223.679688 325.054688 222.050781 327.28125 221.050781 327.226562 C 220.148438 327.089844 219.320312 326.761719 218.574219 326.238281 C 217.824219 325.714844 217.234375 325.050781 216.796875 324.25 C 214.667969 319.253906 212.929688 314.128906 211.582031 308.867188 C 206.726562 288.945312 202.144531 268.953125 197.421875 248.996094 C 197.097656 248.054688 196.675781 247.15625 196.164062 246.300781 C 177.085938 249.957031 158.535156 254.875 141.359375 263.796875 C 132.683594 268.304688 124.480469 273.726562 116.125 278.835938 C 109.777344 282.714844 107.503906 283.007812 103.992188 279.984375 C 98.859375 275.566406 96.9375 268.714844 99.75 263.433594 C 115.683594 233.484375 133.132812 204.457031 152.855469 176.820312 C 158.300781 169.1875 163.378906 161.28125 169.09375 153.863281 C 171.691406 150.496094 171.605469 147.433594 170.976562 143.644531 C 168.859375 130.898438 166.84375 118.125 165.21875 105.308594 C 163.988281 95.582031 163.394531 85.773438 162.539062 76 C 162.453125 74.988281 162.269531 73.863281 162.601562 72.960938 C 163.324219 71.015625 162.683594 67.804688 166.175781 68.019531 C 169.433594 68.222656 168.175781 70.933594 168.421875 72.738281 C 171.359375 94.210938 174.292969 115.683594 177.230469 137.15625 C 177.371094 138.191406 177.980469 139.167969 178.421875 140.292969 Z M 212.890625 123.503906 C 211.894531 123.949219 211.539062 123.996094 211.390625 124.191406 C 202.289062 136.492188 193.160156 148.777344 184.183594 161.171875 C 183.511719 162.101562 183.539062 163.914062 183.875 165.140625 C 188.605469 182.402344 193.40625 199.644531 198.28125 216.867188 C 199.351562 220.65625 200.695312 224.363281 201.835938 227.878906 C 207.441406 226.988281 212.417969 226.308594 217.332031 225.332031 C 218.410156 225.117188 219.945312 223.980469 220.144531 223.03125 C 224.167969 204.089844 228.035156 185.121094 231.882812 166.140625 C 232.164062 165.0625 232.125 164 231.757812 162.949219 C 225.554688 149.835938 219.253906 136.761719 212.890625 123.503906 Z M 192.28125 229.570312 C 187.101562 210.238281 182.015625 191.253906 176.898438 172.144531 C 169 181.074219 125.59375 245.578125 125.253906 252.75 C 146.058594 240.410156 168.894531 234.40625 192.28125 229.570312 Z M 258.742188 72.902344 C 244.921875 82.695312 234.710938 95.949219 223.753906 108.492188 C 228.816406 118.742188 233.835938 128.910156 238.996094 139.359375 C 245.640625 117 252.195312 94.949219 258.746094 72.902344 Z M 234.164062 223.328125 L 260.9375 220.703125 L 242.097656 184.324219 C 239.335938 197.898438 236.789062 210.429688 234.164062 223.328125 Z M 206.28125 244.621094 C 208.742188 253.65625 211.050781 262.128906 213.359375 270.601562 L 213.945312 270.449219 C 214.925781 261.277344 215.90625 252.105469 216.933594 242.523438 Z M 206.28125 244.621094 " fill-opacity="1" fill-rule="nonzero"/></g></svg>