<svg xmlns="http://www.w3.org/2000/svg" xmlns:xlink="http://www.w3.org/1999/xlink" width="500" zoomAndPan="magnify" viewBox="0 0 375 374.999991" height="500" preserveAspectRatio="xMidYMid meet" version="1.0"><defs><clipPath id="9f66ac7b3e"><path d="M 71 29 L 304 29 L 304 354.941406 L 71 354.941406 Z M 71 29 " clip-rule="nonzero"/></clipPath></defs><g clip-path="url(#9f66ac7b3e)"><path fill="#000000" d="M 298.335938 353.507812 C 297.289062 352.90625 295.417969 352.40625 294.179688 352.390625 C 289.644531 352.335938 278.746094 350.625 273.554688 349.152344 C 260.464844 345.4375 245.230469 336.074219 234.480469 325.132812 C 226.976562 317.5 217.070312 304.234375 213.898438 297.585938 C 211.996094 293.59375 211.976562 293.578125 208.410156 293.578125 C 206.441406 293.578125 202.019531 292.863281 198.578125 291.992188 C 186.296875 288.886719 177.847656 284.316406 169.824219 276.449219 C 163.582031 270.332031 161.070312 266.8125 156.660156 258.019531 C 152.589844 249.902344 151.222656 244.554688 150.640625 234.488281 L 150.160156 226.171875 L 143.167969 219.222656 C 139.320312 215.398438 134.636719 210.382812 132.757812 208.074219 C 124.636719 198.097656 117.464844 182.34375 115.550781 170.28125 C 109.730469 133.632812 108.40625 110.359375 111.171875 93.367188 C 111.425781 91.789062 111.453125 90.503906 111.226562 90.503906 C 111 90.503906 105.835938 97.160156 99.75 105.300781 C 93.664062 113.4375 87.136719 121.910156 85.246094 124.125 C 83.355469 126.34375 81.4375 129.289062 80.980469 130.671875 C 80.035156 133.542969 78.550781 134.253906 75.289062 133.386719 C 73.460938 132.902344 72.789062 132.117188 71.941406 129.460938 C 70.972656 126.445312 71 126.054688 72.210938 125.167969 C 72.957031 124.621094 75.492188 118.519531 77.949219 111.355469 C 80.371094 104.292969 82.921875 96.972656 83.617188 95.082031 C 84.3125 93.195312 85.007812 91.113281 85.164062 90.457031 C 85.5625 88.746094 89.371094 77.425781 90.152344 75.617188 C 92.0625 71.199219 102.359375 38.285156 102.359375 36.601562 C 102.359375 35.273438 102.855469 34.5 103.878906 34.230469 C 105.003906 33.9375 105.285156 33.394531 104.972656 32.148438 C 103.792969 27.4375 110.550781 28.234375 115.039062 33.335938 C 116.660156 35.175781 124.027344 42.863281 131.414062 50.421875 C 145.261719 64.589844 148.460938 68.089844 152.328125 73.324219 C 155.398438 77.472656 161.839844 87.386719 161.839844 87.957031 C 161.839844 88.816406 171.210938 101.566406 172.53125 102.5 C 173.25 103.007812 174.058594 104.527344 174.328125 105.871094 C 174.914062 108.804688 173.113281 110.878906 170.332031 110.480469 C 167.578125 110.085938 168.894531 111.414062 175.082031 115.277344 C 181.046875 118.996094 182.988281 121.617188 181.648438 124.128906 C 179.875 127.441406 175.457031 126.726562 170.988281 122.40625 C 163.746094 115.40625 149.125 105.050781 135.914062 97.566406 C 131.792969 95.234375 124.285156 90.625 122.378906 89.257812 C 120.707031 88.058594 120.660156 88.085938 120.660156 90.269531 C 120.660156 91.503906 120.179688 94.210938 119.585938 96.28125 C 116.332031 107.675781 116.722656 127.710938 120.679688 152.722656 C 121.082031 155.242188 121.945312 160.738281 122.605469 164.9375 C 124.972656 180.019531 130.871094 193.902344 139.265625 204.171875 C 142.265625 207.839844 151.417969 217.234375 151.996094 217.234375 C 152.308594 217.234375 152.8125 216.121094 153.109375 214.761719 C 153.960938 210.886719 157.300781 203.507812 160.269531 198.945312 C 162.609375 195.351562 163.867188 194.328125 169.425781 191.5 C 175.585938 188.367188 176.164062 188.222656 182.675781 188.222656 C 188.746094 188.222656 190.003906 188.480469 194.28125 190.585938 C 196.917969 191.886719 199.726562 193.691406 200.523438 194.59375 C 203.496094 197.964844 204.972656 209.457031 203.074219 214.421875 C 202.625 215.601562 202.25 217.835938 202.246094 219.382812 C 202.230469 225.882812 196.667969 233.304688 189.859375 235.90625 C 184.617188 237.910156 168.089844 237.347656 163.40625 235.003906 C 161.542969 234.074219 159.871094 233.457031 159.695312 233.632812 C 159.023438 234.300781 162.007812 249.503906 163.558594 253.324219 C 170.417969 270.242188 187.222656 282.894531 206.363281 285.550781 C 209.773438 286.023438 210.042969 285.949219 209.53125 284.671875 C 208.183594 281.3125 208.140625 270.722656 209.453125 265.921875 C 212.0625 256.402344 216.179688 249.234375 223.148438 242.101562 C 229 236.109375 230.402344 235.121094 238.4375 231.296875 C 245.964844 227.710938 247.855469 227.109375 251.101562 227.257812 C 255.535156 227.460938 259.574219 229.828125 261.34375 233.25 C 262.644531 235.765625 262.871094 244.3125 261.75 248.535156 C 261.359375 250.003906 260.324219 254.128906 259.445312 257.695312 C 255.871094 272.234375 253.640625 275.875 243.242188 284.144531 C 240.273438 286.503906 222.675781 293.152344 221.773438 292.253906 C 221.523438 292.003906 221.320312 292.238281 221.320312 292.773438 C 221.320312 294.730469 227.613281 305.347656 231.800781 310.453125 C 238.921875 319.136719 242.644531 322.832031 249.40625 327.929688 C 263.089844 338.246094 274.03125 342.726562 289.949219 344.527344 C 296.5625 345.277344 301.796875 347.199219 303.144531 349.382812 C 304.226562 351.132812 303.164062 354.660156 301.5625 354.625 C 300.835938 354.609375 299.382812 354.109375 298.335938 353.507812 Z M 224.101562 283.679688 C 226.609375 282.855469 229.667969 281.65625 230.898438 281.015625 C 232.128906 280.371094 233.480469 279.820312 233.902344 279.789062 C 235.515625 279.671875 241.667969 274.574219 244.730469 270.820312 C 247.84375 267 250.074219 261.488281 251.898438 253.117188 C 255.199219 237.976562 254.820312 235.808594 249.046875 236.675781 C 240.449219 237.96875 228.308594 246.835938 222.921875 255.757812 C 218.332031 263.359375 216.621094 269.363281 216.929688 276.796875 C 217.1875 283.066406 217.695312 285.179688 218.949219 285.179688 C 219.273438 285.179688 221.59375 284.503906 224.101562 283.679688 Z M 187.507812 227.34375 C 190.617188 225.128906 192.988281 219.375 194.039062 211.507812 C 195.542969 200.253906 193.125 196.609375 184.167969 196.628906 C 179.96875 196.636719 173.292969 199.4375 169.964844 202.585938 C 166.082031 206.257812 161.078125 218.238281 161.078125 223.863281 C 161.078125 227.378906 167.765625 229.449219 178.269531 229.183594 C 183.964844 229.039062 185.578125 228.71875 187.507812 227.34375 Z M 86.917969 110.0625 C 88.28125 108.25 89.398438 106.453125 89.398438 106.070312 C 89.398438 105.6875 90.285156 104.417969 91.367188 103.246094 C 92.796875 101.703125 93.121094 100.859375 92.546875 100.164062 C 91.554688 98.96875 90.925781 93.644531 91.714844 93.15625 C 92.039062 92.957031 93.34375 90.988281 94.617188 88.785156 C 95.894531 86.582031 98.324219 83.230469 100.019531 81.339844 C 104.160156 76.722656 104.050781 75.429688 99.386719 73.832031 C 96.109375 72.707031 96.261719 72.679688 96.261719 74.410156 C 96.261719 75.660156 90.160156 94.300781 84.9375 109.015625 C 84.082031 111.429688 83.617188 113.394531 83.910156 113.382812 C 84.203125 113.371094 85.554688 111.875 86.917969 110.0625 Z M 164.316406 105.140625 C 163.140625 103.597656 161.582031 101.132812 160.847656 99.664062 C 160.117188 98.195312 157.859375 94.351562 155.832031 91.128906 L 152.148438 85.261719 L 152.195312 90.546875 C 152.226562 93.722656 151.875 96.203125 151.324219 96.757812 C 150.132812 97.945312 150.148438 98.886719 151.355469 98.945312 C 151.878906 98.96875 155.222656 101.171875 158.785156 103.835938 C 162.351562 106.5 165.53125 108.515625 165.859375 108.316406 C 166.1875 108.113281 165.492188 106.683594 164.316406 105.140625 Z M 143.871094 89.859375 C 143.574219 89.582031 143.175781 89.785156 142.988281 90.3125 C 142.476562 91.746094 141.222656 91.464844 139.566406 89.554688 C 138.375 88.179688 138.175781 87.167969 138.558594 84.402344 C 138.816406 82.507812 139.40625 80.003906 139.863281 78.835938 C 140.320312 77.667969 140.445312 76.464844 140.144531 76.164062 C 139.667969 75.6875 138.910156 76.433594 135.132812 81.117188 C 134.722656 81.625 134.386719 82.300781 134.386719 82.621094 C 134.386719 82.941406 133.515625 83.949219 132.453125 84.867188 L 130.519531 86.53125 L 143.917969 94.25 L 144.167969 92.304688 C 144.304688 91.238281 144.171875 90.136719 143.871094 89.859375 Z M 150.34375 81.996094 C 149.28125 80.011719 147.402344 77.957031 147.039062 78.386719 C 146.910156 78.542969 146.589844 79.566406 146.328125 80.660156 C 145.910156 82.410156 146.152344 82.746094 148.316406 83.398438 C 151.363281 84.3125 151.523438 84.203125 150.34375 81.996094 Z M 135.113281 66.074219 C 137.179688 66.074219 137.085938 65.4375 134.628906 62.871094 L 132.578125 60.730469 L 130.433594 65.769531 C 129.253906 68.539062 128.289062 71.027344 128.292969 71.300781 C 128.292969 71.574219 129.476562 70.511719 130.921875 68.933594 C 132.367188 67.359375 134.25 66.074219 135.113281 66.074219 Z M 141.25 70.746094 C 141.25 70.378906 140.734375 69.648438 140.105469 69.125 C 139.179688 68.355469 138.964844 68.386719 138.964844 69.289062 C 138.964844 69.898438 139.191406 70.628906 139.472656 70.90625 C 140.195312 71.632812 141.25 71.539062 141.25 70.746094 Z M 124.171875 64.09375 C 125.726562 60.371094 125.484375 60.148438 123.332031 63.328125 C 122.28125 64.875 121.425781 66.488281 121.425781 66.914062 C 121.425781 68.375 123.105469 66.648438 124.171875 64.09375 Z M 111.535156 56.867188 C 111.96875 56.050781 112.027344 55.382812 111.660156 55.382812 C 111.292969 55.382812 110.59375 56.265625 110.101562 57.339844 C 109.089844 59.570312 110.304688 59.167969 111.535156 56.867188 Z M 105.75 51.367188 C 108.117188 45.621094 110.085938 44.347656 113.328125 46.476562 C 114.335938 47.136719 115.871094 47.464844 116.8125 47.21875 C 118.386719 46.804688 118.261719 46.542969 114.839844 43.066406 C 112.832031 41.023438 110.746094 39.351562 110.207031 39.351562 C 109.664062 39.351562 109.222656 39.007812 109.222656 38.589844 C 109.222656 38.167969 108.878906 37.824219 108.460938 37.824219 C 108.042969 37.824219 107.699219 38.3125 107.699219 38.910156 C 107.699219 39.507812 106.664062 43.03125 105.402344 46.734375 C 104.136719 50.441406 102.777344 54.65625 102.375 56.097656 C 101.203125 60.304688 103.242188 57.445312 105.75 51.367188 Z M 119.898438 56.820312 C 119.898438 56.402344 119.554688 56.269531 119.136719 56.53125 C 118.71875 56.789062 118.375 57.34375 118.375 57.765625 C 118.375 58.183594 118.71875 58.316406 119.136719 58.054688 C 119.554688 57.796875 119.898438 57.242188 119.898438 56.820312 Z M 119.898438 56.820312 " fill-opacity="1" fill-rule="nonzero"/></g></svg>