<svg xmlns="http://www.w3.org/2000/svg" xmlns:xlink="http://www.w3.org/1999/xlink" width="500" zoomAndPan="magnify" viewBox="0 0 375 374.999991" height="500" preserveAspectRatio="xMidYMid meet" version="1.0"><defs><clipPath id="3bc018ea25"><path d="M 63.375 92 L 299 92 L 299 297.890625 L 63.375 297.890625 Z M 63.375 92 " clip-rule="nonzero"/></clipPath><clipPath id="1ff32f8289"><path d="M 77 77.390625 L 311.625 77.390625 L 311.625 284 L 77 284 Z M 77 77.390625 " clip-rule="nonzero"/></clipPath></defs><g clip-path="url(#3bc018ea25)"><path fill="#000000" d="M 149.746094 163.101562 C 149.433594 163.144531 148.773438 163.21875 148.355469 163.210938 C 147.378906 163.207031 146.414062 163.132812 145.785156 163.15625 L 133.695312 163.558594 C 122.652344 163.914062 111.605469 164.433594 100.550781 164.746094 C 95.832031 164.878906 91.117188 164.976562 86.398438 165 L 72.886719 165 C 71.613281 165.007812 69.5625 164.757812 67.875 165.011719 C 66.621094 165.203125 65.519531 165.65625 64.699219 166.34375 C 63.542969 167.316406 63.394531 169.054688 64.371094 170.210938 C 65.347656 171.371094 67.082031 171.515625 68.238281 170.535156 C 68.5625 170.257812 69.125 170.355469 69.660156 170.34375 C 70.863281 170.320312 72.101562 170.449219 72.949219 170.4375 L 86.449219 170.328125 C 91.207031 170.261719 95.964844 170.125 100.71875 169.957031 C 111.773438 169.550781 122.820312 168.949219 133.867188 168.515625 L 145.988281 168.015625 C 146.933594 167.976562 148.617188 168.144531 149.988281 167.976562 C 151.070312 167.847656 152.011719 167.527344 152.671875 167.046875 C 153.300781 166.585938 153.804688 165.925781 154.15625 165.117188 C 154.59375 164.109375 154.769531 162.808594 154.941406 161.980469 L 156.90625 151.042969 C 157.808594 145.65625 158.601562 140.25 159.34375 134.835938 C 160.453125 126.742188 161.441406 118.640625 162.492188 110.535156 C 162.800781 108.15625 163.042969 105.71875 163.410156 103.316406 C 163.648438 101.78125 163.945312 100.257812 164.347656 98.777344 C 164.433594 98.46875 164.753906 97.6875 164.980469 97.144531 C 165.804688 97.863281 166.449219 99.03125 167.035156 100.28125 C 168.402344 103.175781 169.285156 106.65625 169.960938 108.636719 C 172.207031 115.21875 174.21875 121.898438 176.078125 128.628906 C 177.941406 135.375 179.644531 142.164062 181.28125 148.9375 C 181.925781 151.582031 182.554688 154.226562 183.121094 156.890625 C 183.496094 158.644531 183.847656 160.410156 184.15625 162.183594 C 184.304688 163.074219 184.371094 165.457031 184.984375 166.796875 C 185.386719 167.671875 185.988281 168.265625 186.695312 168.5625 C 187.503906 168.902344 188.507812 169.019531 189.589844 168.9375 C 191.242188 168.808594 193.144531 168.203125 194.359375 167.988281 C 197.417969 167.457031 200.476562 166.941406 203.546875 166.472656 C 206.605469 166.003906 209.667969 165.585938 212.738281 165.238281 C 220.273438 164.394531 227.839844 163.917969 235.425781 163.691406 C 246.847656 163.351562 258.296875 163.554688 269.679688 163.78125 C 272.980469 163.847656 276.277344 163.949219 279.566406 164.085938 C 282.855469 164.226562 286.140625 164.40625 289.421875 164.648438 C 289.597656 164.660156 290.597656 164.660156 291.714844 164.742188 C 290.660156 165.257812 289.597656 165.671875 288.972656 165.996094 L 274.472656 173.175781 C 264.367188 178.105469 254.324219 183.203125 244.207031 188.128906 C 237.488281 191.398438 230.738281 194.601562 223.898438 197.621094 L 210.460938 203.335938 C 208.8125 204.035156 206.511719 204.816406 204.820312 206.050781 C 203.796875 206.792969 202.96875 207.695312 202.429688 208.753906 C 201.886719 209.835938 201.730469 211.039062 201.847656 212.273438 C 201.972656 213.574219 202.429688 214.917969 202.796875 216.03125 C 203.382812 217.820312 204.050781 219.578125 204.761719 221.320312 C 205.800781 223.886719 206.933594 226.414062 208.0625 228.945312 C 212.167969 238.101562 216.40625 247.214844 220.445312 256.40625 C 223.121094 262.503906 225.710938 268.632812 228.09375 274.851562 C 229.367188 278.15625 230.679688 281.460938 231.894531 284.800781 C 232.574219 286.660156 233.226562 288.535156 233.824219 290.417969 C 232.839844 289.738281 231.882812 289.03125 230.933594 288.304688 C 228.734375 286.617188 226.609375 284.832031 224.480469 283.070312 C 217.761719 277.496094 211.070312 271.867188 204.617188 265.980469 C 200.34375 262.082031 196.167969 258.070312 192.175781 253.871094 L 184.09375 244.898438 C 183.359375 244.070312 182.433594 242.941406 181.378906 242.230469 C 180.652344 241.738281 179.859375 241.410156 179.023438 241.292969 C 178.15625 241.175781 177.269531 241.296875 176.421875 241.621094 C 175.195312 242.078125 174.007812 243.023438 173.105469 243.710938 L 162.84375 251.742188 C 156.285156 256.714844 149.59375 261.53125 142.824219 266.226562 C 136.042969 270.925781 129.175781 275.5 122.261719 279.984375 C 119.726562 281.628906 117.183594 283.261719 114.59375 284.8125 C 112.886719 285.84375 111.160156 286.832031 109.402344 287.769531 C 109.257812 287.847656 109.042969 287.980469 108.789062 288.125 C 108.980469 287.535156 109.175781 286.960938 109.273438 286.699219 C 110.042969 284.65625 110.921875 282.652344 111.871094 280.679688 C 112.824219 278.6875 113.855469 276.726562 114.910156 274.785156 C 117.941406 269.253906 121.265625 263.867188 124.769531 258.59375 C 128.285156 253.296875 131.976562 248.113281 135.730469 243.015625 C 137.128906 241.117188 140.339844 237.871094 142.125 234.746094 C 143.230469 232.824219 143.800781 230.894531 143.609375 229.234375 C 143.472656 228.078125 142.945312 227.023438 142.140625 226.101562 C 140.882812 224.667969 138.839844 223.566406 137.5 222.761719 C 133.042969 220.089844 128.410156 217.71875 123.902344 215.132812 C 122.796875 214.5 121.703125 213.851562 120.617188 213.183594 C 112.0625 207.902344 103.355469 202.027344 95.175781 195.515625 C 87.035156 189.03125 79.414062 181.929688 72.972656 174.175781 C 72.28125 173.332031 71.03125 173.214844 70.191406 173.910156 C 69.347656 174.609375 69.234375 175.859375 69.925781 176.699219 C 76.496094 184.695312 84.277344 192.035156 92.601562 198.734375 C 100.875 205.394531 109.683594 211.429688 118.351562 216.847656 C 119.46875 217.546875 120.601562 218.222656 121.738281 218.890625 C 126.207031 221.488281 130.800781 223.867188 135.214844 226.554688 C 136.003906 227.035156 137.105469 227.613281 138.042969 228.34375 C 138.558594 228.75 139.105469 229.148438 139.171875 229.742188 C 139.304688 230.917969 138.472656 232.234375 137.539062 233.585938 C 135.757812 236.1875 133.257812 238.722656 132.078125 240.300781 C 128.25 245.4375 124.472656 250.652344 120.890625 255.996094 C 117.28125 261.363281 113.859375 266.851562 110.742188 272.484375 C 109.628906 274.492188 108.550781 276.527344 107.550781 278.597656 C 106.535156 280.683594 105.59375 282.808594 104.757812 284.980469 C 104.441406 285.824219 103.550781 287.726562 103.371094 289.269531 C 103.199219 290.722656 103.582031 291.96875 104.378906 292.820312 C 105.070312 293.542969 106.003906 293.914062 107.117188 293.871094 C 108.644531 293.816406 110.898438 292.5 111.6875 292.082031 C 113.519531 291.117188 115.320312 290.09375 117.109375 289.03125 C 119.75 287.457031 122.351562 285.808594 124.9375 284.148438 C 131.914062 279.667969 138.847656 275.09375 145.691406 270.398438 C 152.550781 265.691406 159.320312 260.863281 165.960938 255.886719 L 176.277344 247.878906 C 176.65625 247.589844 177.109375 247.214844 177.59375 246.894531 C 177.820312 246.746094 178.269531 246.542969 178.363281 246.503906 C 178.644531 246.570312 178.820312 246.882812 179.039062 247.117188 C 179.457031 247.550781 179.824219 248.011719 180.160156 248.390625 L 188.335938 257.53125 C 192.40625 261.824219 196.648438 265.941406 201.007812 269.941406 C 207.507812 275.898438 214.261719 281.589844 221.035156 287.226562 C 223.210938 289.039062 225.390625 290.875 227.644531 292.605469 C 229.179688 293.792969 230.761719 294.933594 232.394531 295.980469 C 233.042969 296.402344 234.671875 297.484375 235.910156 297.714844 C 236.835938 297.890625 237.675781 297.75 238.367188 297.386719 C 239.367188 296.867188 240.085938 295.886719 240.222656 294.46875 C 240.367188 292.988281 239.519531 290.46875 239.320312 289.820312 C 238.605469 287.503906 237.808594 285.210938 236.976562 282.9375 C 235.738281 279.574219 234.40625 276.234375 233.117188 272.90625 C 230.683594 266.617188 228.046875 260.414062 225.3125 254.246094 C 221.230469 245.0625 216.925781 235.964844 212.769531 226.816406 C 211.640625 224.347656 210.511719 221.882812 209.472656 219.382812 C 208.796875 217.75 208.160156 216.097656 207.585938 214.421875 C 207.355469 213.730469 207.050781 212.9375 206.90625 212.132812 C 206.835938 211.742188 206.742188 211.339844 206.917969 210.992188 C 207.175781 210.460938 207.699219 210.089844 208.257812 209.753906 C 209.59375 208.945312 211.210938 208.410156 212.410156 207.890625 L 225.867188 202.042969 C 232.730469 198.941406 239.519531 195.664062 246.257812 192.3125 C 256.34375 187.304688 266.34375 182.128906 276.410156 177.117188 L 290.925781 169.78125 C 291.960938 169.246094 294.105469 168.429688 295.605469 167.390625 C 296.683594 166.644531 297.472656 165.765625 297.820312 164.867188 C 298.269531 163.699219 298.003906 162.664062 296.941406 161.839844 C 296.414062 161.433594 295.429688 161.054688 294.257812 160.855469 C 292.425781 160.542969 290.011719 160.527344 289.710938 160.503906 C 286.386719 160.285156 283.058594 160.117188 279.726562 159.992188 C 276.410156 159.871094 273.085938 159.792969 269.753906 159.738281 C 258.308594 159.554688 246.792969 159.402344 235.308594 159.769531 C 227.613281 160.011719 219.9375 160.480469 212.304688 161.335938 C 209.179688 161.683594 206.066406 162.105469 202.957031 162.574219 C 199.859375 163.042969 196.769531 163.554688 193.683594 164.085938 C 192.6875 164.261719 191.21875 164.722656 189.828125 164.921875 C 189.371094 164.984375 188.929688 165.046875 188.554688 164.984375 C 188.484375 164.742188 188.371094 164.261719 188.328125 163.929688 C 188.203125 162.964844 188.167969 161.996094 188.085938 161.511719 C 187.78125 159.6875 187.429688 157.871094 187.046875 156.058594 C 186.480469 153.359375 185.855469 150.675781 185.21875 147.992188 C 183.277344 139.808594 181.230469 131.59375 178.945312 123.460938 C 177.414062 118.019531 175.777344 112.613281 173.992188 107.269531 C 173.171875 104.816406 172.027344 100.242188 170.171875 96.953125 C 169.09375 95.039062 167.746094 93.542969 166.210938 92.78125 C 164.695312 92.023438 163.421875 92.363281 162.371094 93.277344 C 161.210938 94.28125 160.421875 96.578125 160.132812 97.601562 C 159.671875 99.242188 159.335938 100.925781 159.066406 102.625 C 158.671875 105.0625 158.410156 107.535156 158.085938 109.949219 C 156.988281 118.03125 155.953125 126.125 154.796875 134.191406 C 154.023438 139.554688 153.195312 144.910156 152.261719 150.25 L 150.246094 160.988281 C 150.144531 161.476562 149.855469 162.664062 149.746094 163.101562 Z M 234.980469 293.234375 C 234.640625 293.566406 234.441406 293.894531 234.824219 293.9375 C 235.136719 293.964844 235.125 293.652344 234.980469 293.234375 Z M 234.980469 293.234375 " fill-opacity="1" fill-rule="evenodd"/></g><g clip-path="url(#1ff32f8289)"><path fill="#000000" d="M 163.125 148.53125 C 162.8125 148.570312 162.152344 148.648438 161.734375 148.640625 C 160.757812 148.636719 159.792969 148.558594 159.164062 148.582031 L 147.074219 148.988281 C 136.03125 149.339844 124.984375 149.863281 113.929688 150.175781 C 109.210938 150.308594 104.496094 150.40625 99.777344 150.429688 L 86.265625 150.429688 C 84.992188 150.433594 82.941406 150.1875 81.253906 150.441406 C 80 150.632812 78.898438 151.082031 78.078125 151.773438 C 76.921875 152.746094 76.773438 154.480469 77.75 155.640625 C 78.726562 156.796875 80.460938 156.941406 81.617188 155.964844 C 81.941406 155.6875 82.503906 155.785156 83.039062 155.773438 C 84.242188 155.75 85.480469 155.878906 86.328125 155.867188 L 99.828125 155.753906 C 104.585938 155.691406 109.34375 155.554688 114.097656 155.386719 C 125.152344 154.980469 136.199219 154.378906 147.25 153.945312 L 159.367188 153.445312 C 160.3125 153.40625 161.996094 153.574219 163.367188 153.40625 C 164.449219 153.277344 165.390625 152.953125 166.050781 152.472656 C 166.679688 152.015625 167.183594 151.355469 167.535156 150.546875 C 167.972656 149.539062 168.148438 148.234375 168.320312 147.40625 L 170.285156 136.472656 C 171.1875 131.082031 171.980469 125.675781 172.722656 120.265625 C 173.832031 112.171875 174.820312 104.066406 175.871094 95.960938 C 176.179688 93.582031 176.421875 91.144531 176.789062 88.742188 C 177.027344 87.210938 177.324219 85.6875 177.726562 84.207031 C 177.8125 83.898438 178.132812 83.117188 178.359375 82.574219 C 179.183594 83.289062 179.828125 84.460938 180.417969 85.710938 C 181.78125 88.605469 182.664062 92.085938 183.339844 94.0625 C 185.585938 100.644531 187.597656 107.324219 189.457031 114.058594 C 191.320312 120.800781 193.027344 127.59375 194.660156 134.367188 C 195.304688 137.011719 195.933594 139.65625 196.5 142.320312 C 196.875 144.074219 197.230469 145.839844 197.535156 147.609375 C 197.683594 148.503906 197.75 150.886719 198.363281 152.222656 C 198.765625 153.097656 199.367188 153.695312 200.074219 153.988281 C 200.882812 154.332031 201.886719 154.445312 202.96875 154.367188 C 204.621094 154.238281 206.523438 153.632812 207.738281 153.417969 C 210.796875 152.882812 213.855469 152.367188 216.925781 151.898438 C 219.984375 151.429688 223.046875 151.015625 226.117188 150.667969 C 233.652344 149.820312 241.21875 149.347656 248.804688 149.121094 C 260.226562 148.78125 271.675781 148.984375 283.058594 149.207031 C 286.359375 149.277344 289.65625 149.375 292.945312 149.515625 C 296.234375 149.652344 299.519531 149.832031 302.804688 150.078125 C 302.976562 150.089844 303.976562 150.089844 305.09375 150.167969 C 304.039062 150.683594 302.976562 151.101562 302.351562 151.425781 L 287.851562 158.605469 C 277.746094 163.535156 267.703125 168.628906 257.585938 173.554688 C 250.867188 176.828125 244.117188 180.027344 237.277344 183.050781 L 223.839844 188.761719 C 222.191406 189.464844 219.890625 190.246094 218.199219 191.476562 C 217.175781 192.21875 216.347656 193.121094 215.808594 194.183594 C 215.265625 195.265625 215.109375 196.46875 215.226562 197.703125 C 215.351562 199.003906 215.808594 200.347656 216.175781 201.457031 C 216.765625 203.246094 217.429688 205.007812 218.140625 206.75 C 219.179688 209.3125 220.3125 211.84375 221.441406 214.375 C 225.546875 223.53125 229.785156 232.644531 233.824219 241.835938 C 236.5 247.929688 239.089844 254.0625 241.472656 260.277344 C 242.746094 263.585938 244.058594 266.890625 245.273438 270.230469 C 245.953125 272.085938 246.605469 273.964844 247.203125 275.84375 C 246.21875 275.167969 245.261719 274.460938 244.3125 273.730469 C 242.117188 272.046875 239.988281 270.257812 237.859375 268.5 C 231.140625 262.925781 224.449219 257.296875 217.996094 251.410156 C 213.722656 247.507812 209.546875 243.496094 205.554688 239.300781 L 197.472656 230.328125 C 196.738281 229.5 195.8125 228.371094 194.761719 227.660156 C 194.03125 227.167969 193.238281 226.835938 192.402344 226.722656 C 191.535156 226.605469 190.648438 226.726562 189.800781 227.050781 C 188.574219 227.507812 187.386719 228.453125 186.488281 229.140625 L 176.226562 237.167969 C 169.664062 242.140625 162.972656 246.957031 156.203125 251.652344 C 149.421875 256.355469 142.554688 260.925781 135.640625 265.414062 C 133.105469 267.058594 130.5625 268.691406 127.972656 270.242188 C 126.265625 271.273438 124.539062 272.261719 122.78125 273.199219 C 122.636719 273.273438 122.421875 273.40625 122.167969 273.550781 C 122.359375 272.960938 122.554688 272.390625 122.652344 272.128906 C 123.421875 270.085938 124.300781 268.082031 125.25 266.109375 C 126.203125 264.117188 127.234375 262.152344 128.289062 260.214844 C 131.320312 254.679688 134.644531 249.296875 138.148438 244.023438 C 141.664062 238.726562 145.355469 233.539062 149.109375 228.445312 C 150.507812 226.546875 153.71875 223.300781 155.503906 220.171875 C 156.609375 218.25 157.179688 216.324219 156.988281 214.664062 C 156.851562 213.503906 156.324219 212.453125 155.519531 211.53125 C 154.261719 210.09375 152.21875 208.996094 150.878906 208.191406 C 146.421875 205.515625 141.789062 203.148438 137.28125 200.5625 C 136.175781 199.929688 135.082031 199.28125 133.996094 198.609375 C 125.441406 193.332031 116.734375 187.457031 108.554688 180.941406 C 100.414062 174.460938 92.792969 167.355469 86.351562 159.605469 C 85.660156 158.761719 84.410156 158.644531 83.570312 159.339844 C 82.726562 160.039062 82.613281 161.289062 83.304688 162.128906 C 89.875 170.125 97.65625 177.464844 105.980469 184.160156 C 114.253906 190.824219 123.066406 196.855469 131.730469 202.273438 C 132.847656 202.976562 133.980469 203.652344 135.117188 204.316406 C 139.585938 206.917969 144.179688 209.296875 148.59375 211.980469 C 149.382812 212.460938 150.484375 213.042969 151.421875 213.769531 C 151.9375 214.175781 152.484375 214.574219 152.550781 215.171875 C 152.683594 216.347656 151.851562 217.660156 150.917969 219.015625 C 149.140625 221.613281 146.636719 224.152344 145.457031 225.730469 C 141.628906 230.867188 137.851562 236.082031 134.269531 241.425781 C 130.660156 246.789062 127.238281 252.277344 124.121094 257.910156 C 123.007812 259.917969 121.929688 261.957031 120.929688 264.023438 C 119.914062 266.113281 118.972656 268.238281 118.140625 270.410156 C 117.820312 271.253906 116.929688 273.152344 116.75 274.699219 C 116.578125 276.152344 116.960938 277.394531 117.757812 278.246094 C 118.449219 278.972656 119.382812 279.339844 120.496094 279.300781 C 122.023438 279.242188 124.277344 277.929688 125.066406 277.511719 C 126.898438 276.546875 128.703125 275.519531 130.488281 274.460938 C 133.128906 272.886719 135.730469 271.238281 138.316406 269.574219 C 145.292969 265.09375 152.226562 260.523438 159.070312 255.828125 C 165.929688 251.121094 172.699219 246.292969 179.339844 241.3125 L 189.65625 233.308594 C 190.035156 233.019531 190.488281 232.644531 190.972656 232.324219 C 191.199219 232.175781 191.648438 231.972656 191.742188 231.929688 C 192.023438 232 192.199219 232.3125 192.417969 232.542969 C 192.835938 232.976562 193.203125 233.441406 193.539062 233.816406 L 201.714844 242.957031 C 205.785156 247.253906 210.027344 251.371094 214.386719 255.371094 C 220.886719 261.328125 227.640625 267.015625 234.414062 272.65625 C 236.589844 274.46875 238.769531 276.300781 241.023438 278.03125 C 242.5625 279.21875 244.140625 280.359375 245.773438 281.40625 C 246.421875 281.832031 248.050781 282.914062 249.289062 283.144531 C 250.214844 283.316406 251.054688 283.179688 251.746094 282.816406 C 252.746094 282.292969 253.464844 281.316406 253.601562 279.898438 C 253.746094 278.414062 252.898438 275.898438 252.699219 275.25 C 251.984375 272.933594 251.1875 270.640625 250.355469 268.367188 C 249.117188 265.003906 247.785156 261.664062 246.496094 258.332031 C 244.0625 252.046875 241.425781 245.839844 238.691406 239.675781 C 234.609375 230.488281 230.304688 221.394531 226.148438 212.242188 C 225.019531 209.777344 223.890625 207.3125 222.851562 204.808594 C 222.175781 203.175781 221.539062 201.527344 220.964844 199.847656 C 220.734375 199.160156 220.429688 198.367188 220.285156 197.5625 C 220.214844 197.167969 220.121094 196.769531 220.296875 196.421875 C 220.554688 195.890625 221.078125 195.519531 221.636719 195.183594 C 222.972656 194.371094 224.59375 193.839844 225.789062 193.320312 L 239.246094 187.472656 C 246.109375 184.371094 252.898438 181.09375 259.640625 177.742188 C 269.722656 172.734375 279.722656 167.558594 289.789062 162.546875 L 304.304688 155.210938 C 305.339844 154.671875 307.484375 153.855469 308.984375 152.820312 C 310.0625 152.074219 310.851562 151.195312 311.199219 150.296875 C 311.648438 149.128906 311.382812 148.089844 310.320312 147.269531 C 309.792969 146.863281 308.808594 146.480469 307.636719 146.285156 C 305.804688 145.972656 303.390625 145.953125 303.09375 145.933594 C 299.765625 145.710938 296.4375 145.542969 293.105469 145.421875 C 289.789062 145.300781 286.464844 145.21875 283.132812 145.167969 C 271.6875 144.984375 260.171875 144.832031 248.6875 145.195312 C 240.992188 145.441406 233.316406 145.910156 225.683594 146.765625 C 222.558594 147.113281 219.445312 147.535156 216.335938 148.003906 C 213.238281 148.472656 210.148438 148.984375 207.0625 149.515625 C 206.066406 149.6875 204.597656 150.152344 203.207031 150.347656 C 202.75 150.414062 202.308594 150.476562 201.933594 150.414062 C 201.863281 150.167969 201.75 149.6875 201.707031 149.359375 C 201.582031 148.390625 201.546875 147.425781 201.464844 146.9375 C 201.160156 145.117188 200.808594 143.296875 200.425781 141.484375 C 199.859375 138.789062 199.234375 136.101562 198.597656 133.421875 C 196.65625 125.238281 194.609375 117.023438 192.324219 108.890625 C 190.792969 103.449219 189.15625 98.039062 187.371094 92.699219 C 186.550781 90.242188 185.40625 85.671875 183.550781 82.382812 C 182.472656 80.464844 181.128906 78.972656 179.589844 78.207031 C 178.074219 77.449219 176.800781 77.792969 175.75 78.707031 C 174.589844 79.707031 173.800781 82.003906 173.511719 83.03125 C 173.050781 84.667969 172.714844 86.351562 172.445312 88.054688 C 172.050781 90.492188 171.789062 92.964844 171.464844 95.378906 C 170.367188 103.460938 169.332031 111.550781 168.175781 119.621094 C 167.402344 124.980469 166.574219 130.335938 165.640625 135.679688 L 163.625 146.417969 C 163.523438 146.90625 163.234375 148.089844 163.125 148.53125 Z M 248.359375 278.664062 C 248.019531 278.992188 247.820312 279.324219 248.203125 279.363281 C 248.515625 279.394531 248.503906 279.082031 248.359375 278.664062 Z M 248.359375 278.664062 " fill-opacity="1" fill-rule="evenodd"/></g></svg>