<svg xmlns="http://www.w3.org/2000/svg" xmlns:xlink="http://www.w3.org/1999/xlink" width="500" zoomAndPan="magnify" viewBox="0 0 375 374.999991" height="500" preserveAspectRatio="xMidYMid meet" version="1.0"><defs><clipPath id="da5d233514"><path d="M 67 71.5625 L 75 71.5625 L 75 303.3125 L 67 303.3125 Z M 67 71.5625 " clip-rule="nonzero"/></clipPath><clipPath id="f6fe1f7bf7"><path d="M 56.25 274 L 313 274 L 313 294 L 56.25 294 Z M 56.25 274 " clip-rule="nonzero"/></clipPath><clipPath id="e1958e8070"><path d="M 57 71.5625 L 83 71.5625 L 83 89 L 57 89 Z M 57 71.5625 " clip-rule="nonzero"/></clipPath><clipPath id="85c8c669cb"><path d="M 300 135 L 318.75 135 L 318.75 154 L 300 154 Z M 300 135 " clip-rule="nonzero"/></clipPath></defs><g clip-path="url(#da5d233514)"><path fill="#000000" d="M 68.933594 71.8125 C 68.929688 71.8125 68.925781 71.8125 68.921875 71.8125 C 67.882812 71.816406 67.042969 72.664062 67.050781 73.703125 C 67.082031 79.683594 67.128906 83.9375 67.1875 86.476562 L 67.1875 86.484375 C 67.699219 105.597656 67.949219 116.628906 67.9375 119.574219 L 67.9375 119.601562 C 67.964844 122.453125 67.964844 126.097656 67.9375 130.539062 C 67.773438 149.472656 67.699219 159.878906 67.71875 161.753906 C 67.71875 167.285156 67.796875 175.304688 67.964844 185.8125 L 67.964844 185.816406 C 68.179688 197.800781 68.394531 211.597656 68.613281 227.207031 L 68.613281 227.214844 L 68.863281 240.246094 L 68.863281 240.261719 L 70.566406 301.234375 C 70.597656 302.253906 71.433594 303.0625 72.449219 303.0625 C 72.46875 303.0625 72.484375 303.0625 72.503906 303.0625 C 73.542969 303.03125 74.363281 302.167969 74.332031 301.128906 L 72.628906 240.167969 L 72.378906 227.144531 C 72.160156 211.539062 71.945312 197.742188 71.730469 185.75 C 71.5625 175.25 71.484375 167.246094 71.488281 161.734375 L 71.488281 161.710938 C 71.464844 159.859375 71.539062 149.480469 71.703125 130.566406 L 71.703125 130.5625 C 71.730469 126.117188 71.730469 122.460938 71.703125 119.589844 C 71.714844 116.605469 71.464844 105.539062 70.949219 86.390625 C 70.894531 83.875 70.847656 79.640625 70.816406 73.683594 C 70.8125 72.648438 69.96875 71.8125 68.933594 71.8125 Z M 68.933594 71.8125 " fill-opacity="1" fill-rule="nonzero"/></g><g clip-path="url(#f6fe1f7bf7)"><path fill="#000000" d="M 310.246094 274.183594 C 310.203125 274.183594 310.160156 274.183594 310.121094 274.1875 C 254.09375 277.882812 201.773438 281.507812 153.160156 285.0625 L 153.15625 285.0625 C 141.347656 285.796875 131.886719 286.347656 124.777344 286.707031 L 124.769531 286.710938 L 65.183594 289.582031 L 65.179688 289.582031 C 61.472656 289.769531 59.082031 289.941406 58 290.101562 C 56.96875 290.25 56.257812 291.207031 56.410156 292.238281 C 56.546875 293.171875 57.351562 293.84375 58.273438 293.84375 C 58.363281 293.84375 58.457031 293.839844 58.546875 293.824219 C 59.507812 293.683594 61.78125 293.523438 65.363281 293.34375 L 124.957031 290.46875 L 124.976562 290.46875 C 132.105469 290.105469 141.582031 289.554688 153.414062 288.820312 L 153.433594 288.816406 C 202.035156 285.265625 254.347656 281.640625 310.367188 277.945312 C 311.40625 277.875 312.191406 276.980469 312.121094 275.941406 C 312.058594 274.949219 311.230469 274.183594 310.246094 274.183594 Z M 310.246094 274.183594 " fill-opacity="1" fill-rule="nonzero"/></g><g clip-path="url(#e1958e8070)"><path fill="#000000" d="M 68.605469 71.804688 C 68.507812 71.804688 68.410156 71.8125 68.3125 71.824219 L 68.304688 71.824219 C 67.585938 71.914062 67.003906 72.316406 66.558594 73.039062 C 66.453125 73.203125 66.355469 73.390625 66.261719 73.601562 C 66.242188 73.652344 66.222656 73.699219 66.203125 73.75 C 65.695312 75.203125 65.140625 76.5 64.546875 77.636719 C 64.113281 78.457031 63.597656 79.28125 63 80.113281 L 62.972656 80.160156 C 61.835938 81.839844 60.230469 83.507812 58.152344 85.164062 C 57.339844 85.808594 57.203125 86.992188 57.851562 87.808594 C 58.222656 88.273438 58.773438 88.519531 59.328125 88.519531 C 59.738281 88.519531 60.152344 88.382812 60.496094 88.109375 C 62.863281 86.226562 64.71875 84.292969 66.066406 82.304688 C 66.761719 81.332031 67.367188 80.359375 67.878906 79.386719 L 67.882812 79.378906 C 68.117188 78.9375 68.339844 78.476562 68.558594 77.996094 L 68.5625 77.996094 C 68.933594 78.800781 69.292969 79.453125 69.640625 79.953125 C 70.503906 81.332031 71.378906 82.488281 72.261719 83.417969 C 73.308594 84.777344 75.960938 86.53125 80.214844 88.675781 C 80.488281 88.8125 80.777344 88.878906 81.0625 88.878906 C 81.75 88.878906 82.414062 88.5 82.742188 87.84375 C 83.210938 86.914062 82.839844 85.785156 81.910156 85.316406 C 78.066406 83.375 75.84375 81.976562 75.238281 81.113281 C 75.183594 81.03125 75.121094 80.957031 75.050781 80.886719 C 74.308594 80.117188 73.558594 79.121094 72.792969 77.894531 C 72.777344 77.867188 72.757812 77.839844 72.738281 77.8125 C 72.210938 77.054688 71.582031 75.652344 70.863281 73.605469 C 70.832031 73.523438 70.800781 73.445312 70.761719 73.367188 C 70.691406 73.234375 70.621094 73.113281 70.550781 73 C 70.035156 72.203125 69.386719 71.804688 68.605469 71.804688 Z M 68.605469 71.804688 " fill-opacity="1" fill-rule="nonzero"/></g><path fill="#000000" d="M 299.5 266.351562 C 298.960938 266.351562 298.429688 266.578125 298.054688 267.023438 C 297.386719 267.816406 297.492188 269.003906 298.285156 269.671875 C 302.058594 272.839844 304.371094 274.640625 305.222656 275.078125 C 305.253906 275.09375 305.285156 275.109375 305.316406 275.125 L 305.3125 275.125 C 306.226562 275.730469 307.410156 276.246094 308.855469 276.675781 L 308.851562 276.675781 C 308.3125 277.175781 307.613281 277.796875 306.761719 278.539062 C 306.730469 278.566406 306.703125 278.589844 306.664062 278.628906 C 306.070312 279.214844 305.425781 280.019531 304.734375 281.039062 C 303.328125 283.117188 301.839844 286.179688 300.273438 290.234375 C 299.898438 291.203125 300.382812 292.292969 301.351562 292.667969 C 301.574219 292.753906 301.804688 292.796875 302.03125 292.796875 C 302.785156 292.796875 303.5 292.339844 303.789062 291.589844 C 305.25 287.804688 306.605469 284.992188 307.851562 283.152344 C 308.382812 282.371094 308.847656 281.777344 309.253906 281.363281 L 309.25 281.363281 C 311.089844 279.761719 312.289062 278.644531 312.851562 278.003906 C 313.050781 277.789062 313.21875 277.578125 313.355469 277.371094 C 313.667969 276.890625 313.832031 276.40625 313.839844 275.910156 C 313.859375 274.761719 313.273438 273.992188 312.082031 273.601562 C 312.015625 273.578125 311.941406 273.558594 311.871094 273.542969 C 309.753906 273.113281 308.226562 272.570312 307.292969 271.921875 C 307.183594 271.84375 307.0625 271.777344 306.9375 271.726562 L 306.933594 271.726562 C 306.320312 271.40625 304.246094 269.761719 300.710938 266.792969 C 300.355469 266.496094 299.925781 266.351562 299.5 266.351562 Z M 299.5 266.351562 " fill-opacity="1" fill-rule="nonzero"/><path fill="#000000" d="M 119.203125 201.722656 C 119.527344 201.882812 119.769531 202.21875 119.925781 202.738281 C 119.828125 202.410156 119.636719 202.117188 119.382812 201.886719 C 119.320312 201.832031 119.261719 201.777344 119.199219 201.722656 Z M 284.878906 111.878906 C 284.34375 111.878906 283.808594 112.105469 283.433594 112.550781 L 216.382812 192.488281 C 213.089844 196.324219 210.921875 198.449219 209.882812 198.863281 C 209.800781 198.851562 209.71875 198.847656 209.636719 198.847656 C 209.53125 198.847656 209.429688 198.855469 209.324219 198.871094 C 209.238281 198.886719 209.152344 198.894531 209.066406 198.894531 C 208.78125 198.894531 208.503906 198.808594 208.238281 198.644531 L 208.230469 198.640625 C 194.941406 190.347656 181.21875 181.40625 167.0625 171.816406 L 167.054688 171.808594 C 164.582031 170.15625 162.238281 169.308594 160.019531 169.261719 L 160.015625 169.261719 C 159.964844 169.261719 159.917969 169.257812 159.867188 169.257812 C 158.421875 169.257812 156.8125 170.085938 155.035156 171.734375 L 155.03125 171.734375 L 123.644531 198.238281 L 123.640625 198.238281 C 121.410156 199.925781 119.828125 200.996094 118.894531 201.449219 C 92.523438 177.84375 77.265625 162.550781 73.121094 155.578125 C 72.769531 154.984375 72.144531 154.65625 71.503906 154.65625 C 71.175781 154.65625 70.84375 154.742188 70.542969 154.921875 C 69.648438 155.453125 69.355469 156.605469 69.882812 157.5 C 74.234375 164.820312 89.792969 180.460938 116.566406 204.417969 L 116.5625 204.417969 C 116.933594 205.097656 117.527344 205.4375 118.347656 205.4375 C 118.609375 205.4375 118.894531 205.402344 119.199219 205.332031 C 119.292969 205.3125 119.382812 205.289062 119.476562 205.261719 C 120.71875 204.890625 122.886719 203.53125 125.976562 201.191406 C 126.003906 201.171875 126.03125 201.148438 126.058594 201.128906 L 157.523438 174.558594 L 157.59375 174.5 C 158.648438 173.515625 159.398438 173.023438 159.839844 173.023438 C 159.847656 173.023438 159.855469 173.023438 159.867188 173.023438 L 159.921875 173.027344 C 161.410156 173.050781 163.089844 173.6875 164.960938 174.9375 C 179.152344 184.554688 192.910156 193.519531 206.238281 201.832031 C 207.117188 202.386719 208.050781 202.664062 209.03125 202.664062 C 209.207031 202.664062 209.386719 202.652344 209.5625 202.636719 L 209.566406 202.636719 C 209.675781 202.648438 209.789062 202.65625 209.902344 202.65625 C 210.183594 202.65625 210.472656 202.613281 210.777344 202.53125 C 212.492188 202.046875 215.320312 199.511719 219.253906 194.921875 L 219.269531 194.90625 L 286.320312 114.96875 C 286.988281 114.171875 286.886719 112.984375 286.089844 112.316406 C 285.734375 112.023438 285.304688 111.878906 284.878906 111.878906 Z M 284.878906 111.878906 " fill-opacity="1" fill-rule="nonzero"/><path fill="#000000" d="M 236.648438 137.628906 C 235.136719 137.628906 233.683594 138.136719 232.289062 139.152344 C 213.894531 152 201.347656 161.007812 194.648438 166.171875 L 194.644531 166.171875 C 190.613281 168.699219 187.832031 169.960938 186.300781 169.960938 C 186.296875 169.960938 186.296875 169.960938 186.292969 169.960938 C 186.292969 169.960938 186.289062 169.960938 186.289062 169.960938 C 186.226562 169.960938 186.164062 169.964844 186.105469 169.96875 C 185.992188 169.980469 185.875 169.988281 185.757812 169.988281 C 184.792969 169.988281 183.675781 169.613281 182.402344 168.859375 L 182.351562 168.832031 C 164.425781 158.988281 152.179688 151.796875 145.617188 147.257812 C 145.585938 147.238281 145.558594 147.21875 145.527344 147.199219 C 142.6875 145.464844 140.566406 144.597656 139.15625 144.597656 C 139.117188 144.597656 139.074219 144.597656 139.035156 144.601562 C 138.527344 144.621094 138.070312 144.738281 137.664062 144.957031 C 137.589844 145 137.519531 145.042969 137.449219 145.09375 C 102.578125 170.589844 80.472656 187.59375 71.136719 196.109375 C 70.367188 196.808594 70.3125 198 71.011719 198.769531 C 71.382812 199.175781 71.894531 199.382812 72.40625 199.382812 C 72.859375 199.382812 73.3125 199.21875 73.671875 198.890625 C 82.882812 190.492188 104.773438 173.652344 139.347656 148.371094 L 139.351562 148.371094 C 140.066406 148.453125 141.460938 149.128906 143.539062 150.398438 L 143.535156 150.398438 C 150.21875 155.011719 162.554688 162.257812 180.539062 172.132812 C 182.382812 173.210938 184.125 173.75 185.761719 173.75 C 185.96875 173.75 186.175781 173.742188 186.378906 173.726562 C 188.648438 173.691406 192.101562 172.214844 196.742188 169.300781 C 196.792969 169.265625 196.84375 169.234375 196.890625 169.195312 C 203.53125 164.074219 216.058594 155.082031 234.476562 142.21875 L 234.503906 142.195312 C 235.046875 141.800781 235.578125 141.550781 236.101562 141.449219 L 236.105469 141.449219 L 267.664062 170.457031 C 269.132812 171.820312 270.757812 172.539062 272.542969 172.617188 L 272.539062 172.617188 C 272.628906 172.625 272.71875 172.628906 272.8125 172.628906 C 272.9375 172.628906 273.070312 172.621094 273.203125 172.605469 C 274.601562 172.445312 277.015625 171.148438 280.445312 168.710938 C 280.496094 168.675781 280.550781 168.632812 280.597656 168.589844 C 283.671875 165.882812 295.035156 156.859375 314.6875 141.519531 C 315.503906 140.882812 315.652344 139.699219 315.011719 138.878906 C 314.640625 138.402344 314.085938 138.15625 313.527344 138.15625 C 313.121094 138.15625 312.710938 138.285156 312.367188 138.554688 C 292.78125 153.84375 281.378906 162.898438 278.167969 165.714844 L 278.164062 165.714844 C 275.363281 167.699219 273.578125 168.746094 272.8125 168.863281 C 272.785156 168.859375 272.761719 168.859375 272.738281 168.859375 C 271.863281 168.828125 271.023438 168.4375 270.21875 167.691406 L 270.210938 167.6875 L 238.054688 138.128906 C 237.722656 137.820312 237.289062 137.644531 236.832031 137.632812 C 236.769531 137.628906 236.710938 137.628906 236.648438 137.628906 Z M 236.648438 137.628906 " fill-opacity="1" fill-rule="nonzero"/><path fill="#000000" d="M 275.429688 117.714844 C 276.214844 118.390625 276.34375 119.140625 275.816406 119.960938 C 276.203125 119.21875 276.050781 118.292969 275.425781 117.714844 Z M 288.660156 107.382812 C 288.257812 107.382812 287.851562 107.511719 287.511719 107.773438 C 282.585938 111.558594 279.855469 113.609375 279.3125 113.925781 C 279.257812 113.953125 279.207031 113.984375 279.15625 114.019531 C 278.332031 114.570312 277.628906 115.015625 277.042969 115.355469 L 277.039062 115.355469 C 274.925781 116.40625 273.640625 117.09375 273.183594 117.417969 C 272.976562 117.566406 272.808594 117.722656 272.675781 117.886719 C 271.882812 118.886719 271.980469 119.78125 272.972656 120.570312 L 272.976562 120.570312 C 273.320312 120.84375 273.734375 120.976562 274.144531 120.976562 C 274.640625 120.976562 275.132812 120.78125 275.496094 120.40625 L 275.492188 120.40625 C 275.933594 120.136719 277.035156 119.5625 278.800781 118.683594 C 278.832031 118.667969 278.867188 118.648438 278.898438 118.632812 C 279.554688 118.253906 280.324219 117.769531 281.207031 117.175781 L 281.210938 117.175781 C 281.445312 117.039062 281.941406 116.691406 282.699219 116.140625 L 282.703125 116.140625 C 282.59375 116.375 282.484375 116.609375 282.375 116.851562 C 282.359375 116.886719 282.34375 116.921875 282.332031 116.957031 C 281.632812 118.773438 281.007812 121.664062 280.460938 125.625 C 280.320312 126.652344 281.039062 127.601562 282.070312 127.746094 C 282.160156 127.757812 282.246094 127.761719 282.332031 127.761719 C 283.257812 127.761719 284.0625 127.082031 284.195312 126.136719 C 284.691406 122.539062 285.226562 119.960938 285.808594 118.40625 L 285.804688 118.40625 C 287.351562 115.019531 288.816406 112.332031 290.207031 110.339844 C 290.738281 109.578125 290.632812 108.542969 289.960938 107.902344 C 289.597656 107.558594 289.128906 107.382812 288.660156 107.382812 Z M 288.660156 107.382812 " fill-opacity="1" fill-rule="nonzero"/><g clip-path="url(#85c8c669cb)"><path fill="#000000" d="M 316.199219 135.742188 C 315.945312 135.742188 315.675781 135.777344 315.386719 135.851562 C 315.316406 135.871094 315.242188 135.890625 315.171875 135.914062 C 315.136719 135.925781 315.105469 135.9375 315.070312 135.949219 C 311.105469 137.457031 308.628906 138.296875 307.640625 138.46875 C 307.585938 138.480469 307.53125 138.492188 307.476562 138.507812 C 305.914062 138.925781 304.171875 139.148438 302.25 139.171875 C 301.207031 139.183594 300.375 140.039062 300.386719 141.078125 C 300.398438 142.109375 301.242188 142.9375 302.269531 142.9375 C 302.277344 142.9375 302.285156 142.9375 302.292969 142.9375 C 304.5 142.910156 306.527344 142.652344 308.371094 142.164062 L 308.367188 142.164062 C 309.011719 142.042969 310.03125 141.746094 311.421875 141.277344 L 311.425781 141.277344 C 310.984375 141.964844 310.609375 142.613281 310.308594 143.214844 C 309.460938 144.847656 308.617188 147.332031 307.773438 150.667969 C 307.519531 151.675781 308.132812 152.699219 309.140625 152.953125 C 309.292969 152.992188 309.449219 153.011719 309.601562 153.011719 C 310.445312 153.011719 311.210938 152.441406 311.425781 151.589844 C 312.199219 148.519531 312.945312 146.300781 313.660156 144.925781 L 313.675781 144.898438 C 314.027344 144.191406 314.519531 143.390625 315.144531 142.496094 L 315.164062 142.46875 C 316.070312 141.152344 316.871094 140.164062 317.5625 139.503906 C 317.644531 139.429688 317.714844 139.347656 317.78125 139.257812 C 318.449219 138.351562 318.496094 137.484375 317.917969 136.652344 C 317.492188 136.042969 316.917969 135.742188 316.199219 135.742188 Z M 316.199219 135.742188 " fill-opacity="1" fill-rule="nonzero"/></g></svg>