<svg xmlns="http://www.w3.org/2000/svg" xmlns:xlink="http://www.w3.org/1999/xlink" width="500" zoomAndPan="magnify" viewBox="0 0 375 374.999991" height="500" preserveAspectRatio="xMidYMid meet" version="1.0"><defs><clipPath id="5867bedbdb"><path d="M 57 47.34375 L 318.554688 47.34375 L 318.554688 327.84375 L 57 327.84375 Z M 57 47.34375 " clip-rule="nonzero"/></clipPath></defs><path fill="#000000" d="M 218.703125 135.941406 C 204.570312 127.785156 187.367188 124.972656 170.964844 129.882812 C 170.445312 129.90625 169.921875 130.066406 169.460938 130.371094 C 159.191406 137.015625 149.5625 145.410156 142.449219 155.355469 C 135.183594 165.535156 130.550781 177.320312 130.550781 190.523438 C 130.550781 212.328125 141.929688 231.339844 158.300781 242.511719 C 174.859375 253.824219 196.566406 257.121094 216.804688 247.273438 C 223.210938 244.167969 228.546875 239.894531 232.902344 234.765625 C 237.191406 229.691406 240.566406 223.78125 243.082031 217.332031 C 246.238281 209.160156 248.785156 200.601562 249.550781 191.917969 C 250.042969 185.992188 249.734375 180.011719 248.203125 174.050781 C 243.9375 157.628906 232.871094 144.105469 218.703125 135.941406 Z M 242.957031 195.394531 C 241.914062 202.132812 239.800781 208.75 237.347656 215.121094 C 235.109375 220.921875 232.105469 226.238281 228.210938 230.796875 C 224.40625 235.292969 219.714844 239.042969 214.136719 241.765625 C 195.984375 250.578125 176.574219 247.578125 161.765625 237.453125 C 146.957031 227.363281 136.683594 210.207031 136.683594 190.523438 C 136.683594 178.652344 140.917969 168.066406 147.445312 158.914062 C 153.976562 149.757812 162.835938 142.027344 172.28125 135.855469 C 172.40625 135.835938 172.527344 135.804688 172.679688 135.765625 C 187.460938 131.339844 202.914062 133.90625 215.636719 141.25 C 228.394531 148.609375 238.421875 160.777344 242.253906 175.585938 C 243.96875 182.203125 243.96875 188.855469 242.957031 195.394531 Z M 242.957031 195.394531 " fill-opacity="1" fill-rule="evenodd"/><g clip-path="url(#5867bedbdb)"><path fill="#000000" d="M 318.078125 213.46875 C 318.019531 208.542969 317.742188 203.574219 317.191406 198.640625 C 316.636719 193.695312 315.8125 188.777344 314.738281 183.957031 C 314.339844 182.179688 314.0625 178.78125 313.417969 176.089844 C 312.988281 174.292969 312.34375 172.757812 311.578125 171.785156 C 310.503906 170.433594 309.09375 169.402344 307.472656 168.613281 C 303.332031 166.632812 297.074219 166.894531 294.40625 163.734375 L 291.003906 154.96875 C 288.519531 150.027344 285.394531 145.167969 282.820312 140.148438 C 281.839844 138.234375 280.949219 136.300781 280.210938 134.320312 C 280.488281 133.582031 281.621094 130.359375 281.867188 129.449219 L 286.34375 115.449219 C 286.867188 114.144531 288.277344 111.925781 288.890625 110.148438 C 289.195312 109.230469 289.347656 108.375 289.316406 107.660156 C 289.289062 106.859375 289.011719 105.84375 288.367188 104.785156 C 287.296875 102.964844 285.058594 100.683594 284.199219 99.699219 C 282.113281 97.242188 279.90625 94.960938 277.574219 92.792969 C 274.140625 89.597656 270.523438 86.640625 266.84375 83.675781 L 257.277344 76.160156 C 256.847656 75.851562 255.132812 74.339844 254.273438 73.914062 C 253.289062 73.425781 252.433594 73.464844 251.910156 73.582031 C 249.121094 74.214844 246.269531 75.378906 243.449219 76.789062 C 239.554688 78.746094 235.78125 81.179688 232.46875 83.167969 L 226.800781 87.128906 C 225.570312 87.191406 224.132812 86.878906 222.597656 86.453125 C 218.765625 85.390625 214.503906 83.585938 211.285156 82.859375 L 202.394531 63.5625 C 201.351562 60.953125 200.398438 57.898438 199.140625 55.089844 C 198.160156 52.933594 196.964844 50.921875 195.492188 49.273438 C 194.972656 48.679688 193.992188 48.078125 192.640625 47.785156 C 190.800781 47.371094 187.765625 47.4375 186.695312 47.402344 L 166.488281 48.761719 L 153.394531 50.375 C 152.628906 50.460938 150.851562 50.34375 149.683594 50.542969 C 148.734375 50.710938 147.96875 51.085938 147.476562 51.492188 C 146.894531 51.949219 146.34375 52.722656 145.914062 53.773438 C 145.328125 55.292969 145.023438 57.765625 144.75 58.773438 L 140.855469 76.359375 C 140.699219 77.046875 140.332031 79.351562 140.148438 80.496094 C 138.832031 80.671875 135.980469 81.074219 135.183594 81.28125 L 125.617188 84.347656 L 118.625 79.585938 C 117.246094 78.785156 113.71875 75.742188 111.175781 74.410156 C 109.519531 73.542969 108.015625 73.324219 107.035156 73.519531 C 105.929688 73.738281 104.582031 74.464844 103.261719 75.5625 C 101.484375 77.035156 99.582031 79.230469 98.511719 80.144531 C 93.847656 84.054688 87.777344 87.980469 83.148438 92.6875 C 80.910156 94.984375 78.980469 97.464844 77.628906 100.183594 C 76.863281 101.730469 76.832031 103.386719 77.382812 105.074219 C 78.027344 107.144531 79.808594 109.316406 80.789062 111.03125 C 82.75 114.515625 85.203125 118.363281 87.164062 122.289062 C 88.332031 124.605469 89.371094 126.949219 89.984375 129.261719 C 89.496094 130.105469 86.304688 135.6875 85.695312 137.136719 C 83.976562 141.164062 82.996094 146.296875 81.371094 150.8125 C 80.757812 152.542969 80.050781 154.175781 79.101562 155.5625 L 72.941406 160.089844 L 62.664062 166.929688 C 62.085938 167.3125 59.691406 168.613281 58.863281 169.417969 C 58.097656 170.1875 57.820312 171.007812 57.730469 171.5625 C 57.023438 176.695312 56.933594 182.148438 57.242188 187.59375 C 57.546875 192.953125 58.222656 198.296875 59.078125 203.308594 C 59.355469 204.933594 59.632812 208.15625 60.335938 210.648438 C 60.828125 212.394531 61.53125 213.84375 62.359375 214.699219 C 64.046875 216.449219 66.160156 218.023438 68.460938 219.472656 C 73.09375 222.394531 78.582031 224.8125 82.6875 227.480469 C 83.609375 228.082031 87.472656 230.195312 88.207031 230.597656 L 91.703125 239.613281 L 95.015625 245.660156 C 95.015625 251.675781 90.8125 257.734375 89.527344 263.84375 C 89.125 265.789062 88.945312 267.738281 89.15625 269.6875 C 89.25 270.445312 89.679688 271.535156 90.570312 272.65625 C 91.886719 274.328125 94.492188 276.519531 95.230469 277.300781 L 107.648438 290.402344 C 108.507812 291.316406 109.734375 293.199219 111.019531 294.550781 C 111.96875 295.566406 112.984375 296.320312 113.871094 296.6875 C 114.699219 297.023438 115.867188 297.175781 117.152344 297.101562 C 118.746094 297.007812 120.679688 296.5625 121.78125 296.472656 L 137.449219 294.191406 L 144.871094 291.839844 L 155.9375 297.167969 C 158.578125 298.464844 160.414062 300.585938 161.949219 303.027344 C 164.523438 307.171875 166.210938 312.199219 168.359375 316.59375 C 169.03125 317.949219 170.871094 322.429688 172.773438 324.695312 C 173.9375 326.09375 175.257812 326.832031 176.421875 326.976562 C 181.265625 327.605469 186.355469 327.871094 191.445312 327.84375 C 196.535156 327.8125 201.597656 327.480469 206.40625 326.914062 C 208.09375 326.71875 211.128906 326.707031 213.523438 326.246094 C 215.179688 325.925781 216.617188 325.363281 217.570312 324.621094 C 218.09375 324.21875 218.703125 323.4375 219.105469 322.300781 C 219.59375 320.925781 219.902344 318.644531 220.085938 317.867188 L 222.78125 300.890625 C 222.8125 300.601562 222.90625 297.800781 222.9375 295.957031 L 233.726562 294.1875 L 245.410156 289.628906 L 248.261719 291.980469 L 259.667969 301.28125 C 260.128906 301.652344 262.214844 303.710938 263.253906 304.351562 C 264.265625 304.964844 265.15625 305.007812 265.675781 304.945312 C 266.414062 304.851562 267.425781 304.433594 268.4375 303.574219 C 269.789062 302.410156 271.535156 300.15625 272.242188 299.441406 C 275.121094 296.527344 278.832031 293.109375 281.898438 289.445312 C 284.199219 286.664062 286.128906 283.726562 287.140625 280.773438 C 287.355469 280.214844 287.449219 279.210938 287.109375 278.023438 C 286.742188 276.847656 285.851562 275.078125 285.671875 274.539062 L 282.910156 264.507812 C 282.417969 262.375 281.410156 259.453125 280.855469 256.65625 C 280.550781 255.132812 280.363281 253.65625 280.609375 252.472656 L 283.707031 248.914062 L 289.441406 237.804688 L 294.039062 236.335938 L 309.402344 229.632812 C 310.351562 229.164062 313.390625 228.117188 315.136719 227.078125 C 316.300781 226.371094 317.066406 225.527344 317.40625 224.855469 C 317.925781 223.792969 318.234375 222.335938 318.324219 220.703125 C 318.476562 218.226562 318.109375 215.25 318.078125 213.46875 Z M 311.914062 221.78125 C 310.84375 222.253906 307.53125 223.726562 306.734375 224.109375 L 291.710938 230.65625 C 290.699219 231.074219 289.011719 231.378906 287.660156 231.90625 C 286.558594 232.335938 285.609375 232.917969 284.996094 233.585938 C 283.953125 234.679688 283.0625 236.058594 282.296875 237.570312 C 280.980469 240.207031 279.996094 243.339844 278.554688 245.582031 C 277.941406 246.507812 276.410156 247.863281 275.613281 249.035156 C 275.089844 249.785156 274.753906 250.519531 274.628906 251.15625 C 274.296875 252.660156 274.324219 254.449219 274.601562 256.34375 C 275.0625 259.648438 276.316406 263.335938 276.929688 265.910156 L 279.875 276.535156 C 280.027344 276.933594 280.761719 278.707031 281.101562 279.46875 C 280.242188 281.539062 278.800781 283.570312 277.175781 285.53125 C 274.230469 289.058594 270.644531 292.339844 267.886719 295.140625 C 267.457031 295.574219 266.140625 297.003906 265.21875 298.011719 C 264.511719 297.394531 263.777344 296.71875 263.5625 296.558594 L 252.09375 287.195312 C 251.664062 286.835938 249.027344 284.460938 247.773438 283.75 C 246.605469 283.089844 245.59375 283.132812 245.074219 283.257812 L 232.136719 288.261719 L 218.917969 290.558594 C 218.644531 290.667969 217.078125 291.585938 216.863281 293.855469 C 216.742188 295.589844 216.710938 299.945312 216.679688 300.378906 L 214.105469 316.421875 C 213.984375 316.945312 213.585938 318.875 213.398438 319.839844 L 205.703125 320.828125 C 201.105469 321.367188 196.261719 321.683594 191.414062 321.714844 C 186.785156 321.746094 182.125 321.511719 177.710938 320.960938 C 177.21875 320.09375 174.429688 315.007812 173.878906 313.886719 C 171.609375 309.3125 169.828125 304.09375 167.160156 299.789062 C 165.015625 296.363281 162.316406 293.480469 158.636719 291.667969 C 156.828125 290.777344 153.148438 288.5625 150.050781 287.167969 C 147.996094 286.257812 146.128906 285.71875 144.902344 285.710938 L 136.070312 288.222656 L 121.261719 290.367188 L 116.203125 291.015625 L 112.15625 286.246094 L 99.707031 273.117188 C 99.0625 272.40625 95.8125 269.207031 95.230469 268.617188 C 95.136719 267.441406 95.289062 266.273438 95.535156 265.097656 C 96.886719 258.589844 101.148438 252.070312 101.148438 245.664062 C 101.148438 244.863281 100.964844 243.917969 100.535156 242.910156 C 99.738281 240.957031 97.957031 238.550781 97.285156 237.066406 L 93.726562 227.824219 C 93.421875 227.128906 92.714844 226.222656 91.582031 225.421875 C 89.925781 224.261719 87.011719 222.988281 86.03125 222.347656 C 81.921875 219.664062 76.402344 217.226562 71.742188 214.292969 C 69.875 213.117188 68.15625 211.863281 66.777344 210.449219 L 65.121094 202.289062 C 64.292969 197.496094 63.648438 192.382812 63.371094 187.257812 C 63.09375 182.59375 63.15625 177.925781 63.679688 173.492188 C 64.414062 173.039062 65.730469 172.234375 66.039062 172.03125 L 76.464844 165.097656 C 77.9375 164.082031 80.050781 162.90625 81.738281 161.554688 C 82.71875 160.761719 83.546875 159.90625 84.160156 159.015625 C 85.386719 157.21875 86.335938 155.117188 87.164062 152.871094 C 88.726562 148.476562 89.648438 143.46875 91.335938 139.550781 C 91.949219 138.140625 94.308594 134.660156 95.382812 132.28125 C 96.148438 130.589844 96.269531 129.121094 96.058594 128.292969 C 95.351562 125.398438 94.125 122.441406 92.652344 119.53125 C 90.628906 115.511719 88.148438 111.574219 86.125 108.003906 L 83.148438 102.894531 C 84.558594 100.015625 86.828125 97.503906 89.433594 95.179688 C 93.605469 91.402344 98.539062 88.117188 102.464844 84.828125 L 107.984375 79.75 C 109.179688 80.597656 114.238281 84.128906 115.527344 84.875 C 117.089844 85.800781 119.820312 88.238281 122.027344 89.4375 C 123.132812 90.019531 124.175781 90.359375 125.03125 90.445312 C 126.320312 90.574219 127.886719 90.335938 129.507812 89.847656 C 131.964844 89.101562 134.722656 87.714844 136.683594 87.21875 C 137.664062 86.96875 140.363281 86.855469 142.019531 86.429688 C 143.214844 86.128906 144.105469 85.625 144.625 85.148438 C 145.117188 84.664062 145.667969 83.835938 145.972656 82.714844 C 146.464844 81.152344 146.648438 78.628906 146.832031 77.667969 L 150.695312 60.320312 C 150.882812 59.664062 151.308594 57.65625 151.554688 56.5625 C 152.382812 56.546875 153.640625 56.515625 154.070312 56.464844 L 167.070312 54.859375 L 186.476562 53.527344 C 187.277344 53.554688 190.433594 53.75 191.292969 53.804688 C 192.210938 54.921875 192.917969 56.242188 193.5625 57.632812 C 194.789062 60.347656 195.707031 63.304688 196.6875 65.828125 L 206.441406 86.960938 C 206.960938 87.945312 207.941406 88.523438 208.984375 88.574219 C 209.167969 88.644531 209.320312 88.695312 209.503906 88.730469 C 212.632812 89.347656 217.050781 91.269531 220.972656 92.355469 C 223.210938 92.980469 225.359375 93.339844 227.105469 93.25 C 227.933594 93.207031 228.914062 92.917969 229.957031 92.371094 C 231.890625 91.355469 234.28125 89.21875 235.628906 88.417969 C 238.820312 86.5 242.46875 84.148438 246.207031 82.265625 C 248.167969 81.277344 250.164062 80.417969 252.09375 79.859375 L 253.628906 81.078125 L 262.980469 88.449219 C 266.566406 91.320312 270.0625 94.175781 273.375 97.269531 C 275.519531 99.277344 277.605469 101.390625 279.539062 103.667969 L 283.183594 107.832031 L 280.609375 113.25 L 275.980469 127.792969 C 275.675781 128.839844 274.539062 131.296875 274.203125 132.988281 C 273.925781 134.21875 274.019531 135.261719 274.265625 135.957031 C 275.121094 138.332031 276.195312 140.65625 277.363281 142.941406 C 279.9375 147.945312 283.0625 152.785156 285.515625 157.710938 C 286.46875 159.632812 287.171875 162.933594 288.246094 165.253906 C 288.675781 166.21875 289.164062 167.054688 289.71875 167.699219 C 290.820312 168.980469 292.261719 169.953125 293.949219 170.695312 C 298.027344 172.5 304.160156 172.253906 306.734375 175.5625 L 308.757812 185.3125 C 309.800781 189.910156 310.570312 194.601562 311.089844 199.320312 C 311.609375 204.054688 311.886719 208.8125 311.949219 213.535156 Z M 311.914062 221.78125 " fill-opacity="1" fill-rule="evenodd"/></g></svg>