<svg xmlns="http://www.w3.org/2000/svg" xmlns:xlink="http://www.w3.org/1999/xlink" width="500" zoomAndPan="magnify" viewBox="0 0 375 374.999991" height="500" preserveAspectRatio="xMidYMid meet" version="1.0"><defs><clipPath id="ee15d583c7"><path d="M 42.445312 127.957031 L 332.695312 127.957031 L 332.695312 246.96875 L 42.445312 246.96875 Z M 42.445312 127.957031 " clip-rule="nonzero"/></clipPath></defs><g clip-path="url(#ee15d583c7)"><path fill="#000000" d="M 332.613281 188.066406 C 331.855469 177.941406 326.550781 169.066406 319.417969 162.066406 C 312.0625 154.835938 303.007812 149.339844 293.601562 145.199219 C 282.292969 140.21875 270.457031 136.355469 258.429688 133.539062 C 233.96875 127.808594 208.222656 126.078125 183.386719 130.289062 C 180.382812 130.796875 177.414062 131.433594 174.449219 132.160156 C 171.496094 132.882812 168.558594 133.832031 165.59375 134.472656 C 163.832031 134.851562 164.578125 137.546875 166.335938 137.167969 C 172.171875 135.902344 178.386719 135.707031 184.328125 135.234375 C 190.324219 134.757812 196.339844 134.449219 202.359375 134.335938 C 214.3125 134.117188 226.289062 134.609375 238.140625 136.265625 C 250.089844 137.929688 261.894531 140.617188 273.375 144.320312 C 283.601562 147.621094 293.746094 151.535156 302.90625 157.210938 C 310.785156 162.097656 318.257812 168.363281 322.792969 176.578125 C 327.234375 184.621094 327.800781 194.113281 324.136719 202.609375 C 319.929688 212.371094 310.992188 219.328125 301.597656 223.710938 C 290.675781 228.804688 278.503906 231.128906 266.75 233.441406 C 241.589844 238.398438 216.019531 241.148438 190.386719 241.746094 C 164.765625 242.34375 139.066406 240.804688 113.710938 237.042969 C 101.421875 235.222656 89.03125 233.125 77.003906 229.976562 C 66.523438 227.234375 55.855469 222.628906 50.105469 212.914062 C 47.613281 208.707031 46.328125 203.742188 47.273438 198.875 C 48.164062 194.289062 50.632812 190.296875 53.832031 186.945312 C 61.0625 179.375 71.082031 174.789062 80.421875 170.410156 C 102.011719 160.285156 124.90625 152.9375 148.324219 148.460938 C 171.746094 143.984375 195.789062 142.429688 219.597656 143.75 C 225.363281 144.070312 231.121094 144.398438 236.871094 144.964844 C 237.976562 145.074219 238.25 143.175781 237.132812 143.003906 C 212.71875 139.25 187.882812 139.304688 163.394531 142.460938 C 138.878906 145.621094 114.746094 151.792969 91.816406 161.046875 C 86.042969 163.378906 80.34375 165.882812 74.730469 168.582031 C 69.777344 170.960938 64.828125 173.414062 60.210938 176.410156 C 51.757812 181.886719 43.855469 189.488281 42.601562 199.96875 C 41.289062 210.988281 48.359375 221.285156 57.210938 227.132812 C 67.59375 233.988281 80.53125 236.222656 92.53125 238.5625 C 118.703125 243.652344 145.335938 246.445312 171.996094 246.902344 C 198.566406 247.359375 225.164062 245.472656 251.417969 241.332031 C 264.214844 239.3125 277.121094 236.992188 289.59375 233.453125 C 300.953125 230.230469 312.1875 225.332031 320.628906 216.851562 C 328.160156 209.285156 333.421875 198.933594 332.613281 188.066406 " fill-opacity="1" fill-rule="nonzero"/></g></svg>