<svg xmlns="http://www.w3.org/2000/svg" xmlns:xlink="http://www.w3.org/1999/xlink" width="500" zoomAndPan="magnify" viewBox="0 0 375 374.999991" height="500" preserveAspectRatio="xMidYMid meet" version="1.0"><defs><clipPath id="004c9eb238"><path d="M 125.90625 59.070312 L 248.90625 59.070312 L 248.90625 313 L 125.90625 313 Z M 125.90625 59.070312 " clip-rule="nonzero"/></clipPath></defs><g clip-path="url(#004c9eb238)"><path fill="#000000" d="M 144.746094 262.847656 C 144.871094 262.917969 145 262.988281 145.125 263.058594 C 144.1875 235.65625 142.246094 208.316406 142.003906 180.871094 C 140.964844 153.433594 141.398438 125.621094 135.511719 98.683594 C 136.601562 118.890625 135.847656 139.164062 136.671875 159.386719 C 137.566406 187.792969 139.265625 216.207031 138.800781 244.636719 C 138.4375 249.117188 139.292969 254.023438 137.667969 258.238281 C 137.457031 258.488281 137.199219 258.667969 136.890625 258.777344 C 136.582031 258.882812 136.269531 258.902344 135.949219 258.832031 C 135.632812 258.765625 135.355469 258.617188 135.117188 258.394531 C 134.878906 258.167969 134.71875 257.898438 134.632812 257.585938 C 133.625 248.117188 133.5625 238.527344 132.722656 229.097656 C 132.46875 225.761719 132.214844 222.425781 131.964844 219.085938 C 128.382812 190.078125 126.097656 160.910156 125.96875 131.691406 C 125.941406 123.175781 125.957031 114.664062 126.378906 106.15625 C 126.574219 103.027344 126.613281 99.789062 127.269531 96.726562 C 127.414062 96.210938 127.746094 95.875 128.257812 95.71875 C 128.613281 95.664062 128.949219 95.71875 129.265625 95.886719 C 129.753906 93.191406 130.484375 91.769531 131.597656 93.082031 C 131.710938 93.324219 131.832031 93.652344 131.671875 93.921875 C 132.539062 108.550781 133.253906 123.191406 134.117188 137.820312 C 133.832031 124.21875 134.46875 110.378906 132.816406 96.878906 C 131.886719 94.558594 131.730469 92.078125 131.667969 89.597656 C 131.648438 88.792969 131.691406 87.878906 132.382812 87.34375 C 138.734375 83.597656 142.46875 119.464844 143.160156 124.039062 C 143.691406 128.792969 143.941406 133.667969 144.363281 138.363281 C 146.898438 176.316406 143.148438 214.476562 146.199219 252.402344 C 146.691406 257.46875 147.164062 262.632812 147.890625 267.636719 C 147.976562 269.230469 145.839844 270 144.808594 268.816406 C 144.742188 268.75 144.679688 268.683594 144.625 268.609375 C 141.941406 267.882812 137.40625 267.898438 137.09375 264.316406 C 137 261.933594 140.574219 259.914062 142.277344 261.859375 C 143.140625 262.09375 143.960938 262.425781 144.746094 262.847656 Z M 147.734375 286.429688 C 138.179688 286.980469 133.433594 308.851562 143.734375 312.175781 C 154.390625 315.582031 158.753906 301.015625 154.824219 293.222656 C 153.683594 290.027344 151.542969 286.449219 147.734375 286.429688 Z M 179.023438 206.082031 C 179.023438 206.085938 179.023438 206.085938 179.023438 206.089844 C 179.023438 206.085938 179.023438 206.082031 179.023438 206.082031 Z M 184.671875 186.945312 C 181.753906 149.335938 181.304688 111.640625 183.691406 73.984375 C 186.1875 93.28125 186.246094 112.921875 186.480469 132.390625 C 186.800781 165.855469 186.808594 199.308594 187.246094 232.777344 C 187.378906 243.390625 187.5 254 187.734375 264.609375 C 187.738281 265.558594 187.636719 267.363281 189.070312 266.980469 C 190.363281 266.011719 189.921875 263.902344 190.316406 262.441406 C 190.335938 262.3125 190.328125 262.183594 190.289062 262.058594 C 190.246094 261.9375 190.183594 261.828125 190.09375 261.730469 C 190.003906 261.636719 189.898438 261.566406 189.773438 261.523438 C 189.652344 261.476562 189.527344 261.460938 189.398438 261.472656 C 189.34375 214.164062 191.3125 166.84375 189.765625 119.542969 C 189.105469 102.953125 188.324219 86.265625 185.175781 69.910156 C 184.953125 68.847656 184.664062 67.800781 184.363281 66.757812 C 184.101562 65.832031 182.664062 65.800781 182.441406 66.777344 C 181.027344 79.449219 180.652344 92.273438 180.121094 105.042969 C 179.730469 97.46875 179.574219 89.886719 179.230469 82.308594 C 179.242188 82.070312 179.179688 81.851562 179.054688 81.648438 C 178.925781 81.445312 178.753906 81.296875 178.535156 81.203125 C 174.636719 80.621094 174.863281 97.214844 174.355469 100.476562 C 173.433594 126.09375 174.648438 151.730469 176.707031 177.269531 C 176.703125 177.21875 176.699219 177.171875 176.699219 177.121094 C 177.101562 182.125 177.5 187.09375 177.910156 192.230469 C 177.90625 192.160156 177.898438 192.089844 177.894531 192.019531 C 177.90625 192.1875 177.921875 192.355469 177.933594 192.527344 C 177.929688 192.457031 177.921875 192.382812 177.917969 192.3125 C 178.289062 196.917969 178.640625 201.390625 179.027344 206.097656 C 179.023438 206.070312 179.023438 206.082031 179.023438 206.089844 C 180.046875 221.308594 179.273438 236.617188 180.210938 251.863281 C 180.585938 257.285156 180.679688 262.820312 182.101562 268.09375 C 182.191406 268.457031 182.371094 268.765625 182.636719 269.019531 C 182.90625 269.277344 183.222656 269.441406 183.585938 269.511719 C 184.996094 269.78125 185.230469 268.09375 185.316406 267.023438 C 185.5 262.621094 185.660156 258.230469 185.816406 253.820312 C 186.765625 231.523438 186.128906 209.210938 184.671875 186.945312 Z M 195.847656 292.644531 C 193.542969 291.847656 190.917969 293.824219 189.355469 295.441406 C 184.515625 299.539062 183.523438 308.851562 191.117188 310.308594 C 199.699219 311.996094 206.609375 293.378906 195.847656 292.644531 Z M 227.101562 211.683594 C 224.035156 191.894531 222.109375 171.886719 221.96875 151.855469 C 221.167969 129.648438 225.683594 107.707031 226.539062 85.660156 C 227.164062 77.136719 227.207031 68.503906 229.914062 60.367188 C 230.242188 59.605469 231.074219 59.078125 231.890625 59.441406 C 233.054688 59.933594 232.539062 61.625 232.683594 62.636719 C 232.613281 63.578125 233.171875 66.414062 231.359375 65.566406 C 231.132812 68.800781 231.058594 72.074219 231.03125 75.300781 C 231.445312 73.960938 232.953125 73.949219 233.878906 74.929688 C 236.179688 81.074219 235.269531 88.300781 235.9375 94.839844 C 236.601562 112.371094 236.753906 129.925781 237.074219 147.464844 C 237.511719 175.753906 238.898438 204.046875 238.117188 232.332031 C 237.96875 237.707031 237.707031 243.082031 237.464844 248.457031 C 237.484375 250.140625 236.980469 253.191406 234.671875 252.253906 C 232.644531 251.382812 231.355469 244.59375 234.414062 244.597656 C 234.394531 244.019531 234.371094 243.445312 234.347656 242.871094 C 229.839844 233.273438 229.296875 222.019531 227.101562 211.683594 Z M 231.207031 101.179688 C 231.277344 107.164062 231.410156 113.140625 231.519531 119.117188 C 231.589844 122.835938 231.710938 126.546875 231.832031 130.257812 C 231.988281 113.410156 233.109375 96.332031 232.339844 79.53125 C 230.324219 86.597656 231.277344 93.921875 231.207031 101.179688 Z M 232.867188 232.121094 C 232.929688 232.390625 232.992188 232.664062 233.054688 232.933594 C 229.015625 197.746094 225.804688 162.496094 225.296875 127.117188 C 222.519531 162.316406 225.308594 197.679688 232.867188 232.121094 Z M 248.265625 285.375 C 247.976562 284.753906 247.722656 284.101562 247.484375 283.457031 C 246.449219 277.457031 242.421875 273.289062 236.101562 275.753906 C 233.171875 277.121094 229.214844 279.164062 229.320312 282.867188 C 226.804688 286.152344 225.894531 291.097656 228.800781 294.4375 C 235.074219 301.46875 244.367188 293.378906 246.238281 286.367188 C 246.925781 287.539062 248.882812 286.667969 248.265625 285.375 Z M 248.265625 285.375 " fill-opacity="1" fill-rule="nonzero"/></g></svg>