<svg xmlns="http://www.w3.org/2000/svg" xmlns:xlink="http://www.w3.org/1999/xlink" width="500" zoomAndPan="magnify" viewBox="0 0 375 374.999991" height="500" preserveAspectRatio="xMidYMid meet" version="1.0"><defs><clipPath id="b317b981c9"><path d="M 49.125 89 L 325 89 L 325 292 L 49.125 292 Z M 49.125 89 " clip-rule="nonzero"/></clipPath></defs><g clip-path="url(#b317b981c9)"><path fill="#000000" d="M 311.734375 266.390625 C 312.429688 256.554688 312.089844 246.722656 312.5 236.867188 C 310.925781 246.136719 310.050781 255.570312 308 264.742188 C 309.199219 265.386719 310.390625 266.101562 311.734375 266.390625 Z M 321.050781 291.019531 C 301.242188 272.097656 280.191406 254.695312 259.714844 236.535156 C 255.679688 233.34375 251.195312 230.472656 248.011719 226.382812 C 247.398438 225.5625 247.480469 224.390625 248.214844 223.675781 C 250.3125 221.882812 252.394531 224.878906 254.042969 225.996094 C 258.636719 230.179688 263.242188 234.324219 268.378906 237.835938 C 279.183594 245.722656 290.003906 253.628906 301.316406 260.785156 C 293.207031 230.578125 283.707031 200.753906 276.078125 170.421875 C 272.210938 155.332031 269.207031 140.035156 266.492188 124.703125 C 265.421875 118.902344 264.636719 113.03125 263.082031 107.332031 C 262.097656 103.519531 261.058594 99.558594 258.402344 96.53125 C 249.398438 86.902344 230.082031 105.746094 222.585938 111.234375 C 210.023438 121.753906 198.019531 133.03125 187.863281 145.929688 C 174.789062 161.949219 163.820312 179.546875 152.511719 196.824219 C 133.480469 226.019531 114.179688 258.054688 81.710938 273.796875 C 72.335938 278.367188 61.796875 281.019531 51.34375 279.785156 C 49.125 279.09375 49.425781 275.773438 51.867188 275.742188 C 65.640625 277.242188 78.945312 271.648438 90.25 264.21875 C 120.734375 244.039062 137.933594 210.566406 157.875 181.015625 C 167.730469 165.933594 177.933594 151.089844 189.558594 137.3125 C 200.929688 124.464844 213.667969 112.828125 227.183594 102.296875 C 236.453125 95.167969 253.1875 82.140625 262.683594 95.34375 C 265.90625 100 266.894531 105.714844 268.214844 111.113281 C 269.5 117.671875 270.53125 124.28125 271.792969 130.84375 C 273.964844 143.078125 276.488281 155.25 279.53125 167.296875 C 287.160156 198.023438 296.800781 228.199219 305.03125 258.765625 C 307.957031 239.46875 310.859375 220.160156 313.585938 200.832031 C 313.917969 192.644531 314.351562 184.464844 315.058594 176.300781 C 315.5 172.433594 315.273438 168.25 317.300781 164.792969 C 318.128906 163.246094 320.664062 163.585938 321.058594 165.308594 C 321.707031 167.203125 321.652344 169.210938 321.5 171.179688 C 321.226562 175.621094 320.59375 180.027344 320.03125 184.441406 C 319.289062 190.019531 318.476562 195.59375 317.695312 201.171875 C 317.097656 216.929688 316.667969 232.691406 316.355469 248.457031 C 316.101562 254.660156 316.476562 260.933594 315.789062 267.097656 C 314.6875 273.25 308.136719 269.683594 304.773438 267.648438 C 300.972656 265.546875 297.332031 263.132812 293.707031 260.734375 C 303.90625 269.753906 314.191406 278.683594 323.988281 288.144531 C 325.839844 290.066406 322.960938 292.914062 321.050781 291.019531 Z M 321.050781 291.019531 " fill-opacity="1" fill-rule="nonzero"/></g></svg>