<svg xmlns="http://www.w3.org/2000/svg" xmlns:xlink="http://www.w3.org/1999/xlink" width="500" zoomAndPan="magnify" viewBox="0 0 375 374.999991" height="500" preserveAspectRatio="xMidYMid meet" version="1.0"><defs><clipPath id="14678cf414"><path d="M 18 122 L 357.328125 122 L 357.328125 252 L 18 252 Z M 18 122 " clip-rule="nonzero"/></clipPath></defs><g clip-path="url(#14678cf414)"><path fill="#000000" d="M 57.5625 159.484375 C 53.050781 165.785156 49.5625 173.292969 46.238281 180.878906 C 42.078125 190.628906 38.488281 200.835938 34.9375 211.050781 C 32.042969 219.332031 29.320312 227.726562 26.691406 236.183594 C 25.40625 240.246094 24.234375 244.371094 23.234375 248.59375 C 23.335938 252.125 19.027344 248.847656 20.558594 246.375 C 22.550781 243.011719 24.339844 239.421875 26.113281 235.828125 C 29.53125 228.957031 32.613281 221.777344 35.605469 214.527344 C 39.257812 205.445312 42.90625 196.363281 46.585938 187.300781 C 49.878906 179.140625 53.503906 171.265625 57.328125 163.589844 C 59.425781 159.503906 61.605469 155.472656 64.144531 151.914062 C 70.070312 146.148438 68.265625 155.640625 67.195312 159.125 C 65.011719 165.773438 62.589844 172.265625 60.246094 178.800781 C 56.835938 188.378906 53.496094 198.007812 50.171875 207.644531 C 47.394531 215.671875 44.667969 223.730469 42.011719 231.835938 C 40.816406 235.640625 39.515625 239.398438 38.484375 243.304688 C 38.347656 243.992188 38.375 243.898438 38.492188 243.007812 C 34.898438 239.550781 34.933594 240.839844 36.785156 237.808594 C 39.765625 232.847656 42.285156 227.386719 44.769531 221.917969 C 48.457031 213.625 51.765625 205.007812 55.027344 196.363281 C 57.6875 189.171875 60.285156 181.929688 62.757812 174.601562 C 63.867188 171.707031 64.492188 168.335938 66.015625 165.796875 C 67.308594 167.160156 68.824219 168.175781 69.894531 169.890625 C 70.027344 170.101562 67.390625 180.226562 67.179688 181.007812 C 65.101562 188.453125 62.929688 195.84375 60.726562 203.21875 C 58.617188 210.195312 56.492188 217.164062 54.40625 224.15625 C 53.40625 227.667969 52.25 231.109375 51.4375 234.722656 C 50.847656 227.546875 46 234.992188 49.773438 228.585938 C 52.773438 223.328125 55.429688 217.714844 58 212.03125 C 61.585938 203.992188 64.8125 195.648438 67.878906 187.195312 C 70.269531 180.519531 72.460938 173.710938 74.417969 166.757812 C 74.539062 166.363281 76.28125 159.480469 76.394531 159.515625 C 78.0625 160.066406 79.609375 161.171875 81.21875 161.996094 C 81.175781 166.976562 80.121094 171.8125 79.144531 176.554688 C 77.714844 183.082031 76.089844 189.523438 74.523438 195.988281 C 73.386719 200.585938 72.226562 205.171875 71.378906 209.898438 C 70.96875 214.167969 71.660156 209.308594 68.722656 208.898438 C 70.566406 206.835938 72.160156 204.359375 73.722656 201.875 C 77.132812 196.15625 80.328125 190.191406 83.5 184.203125 C 86.550781 178.375 89.617188 172.554688 92.707031 166.765625 C 94.460938 163.351562 95.90625 160.191406 98.804688 158.929688 C 99.738281 160.042969 100.910156 160.847656 101.605469 162.269531 C 102.375 163.855469 99.824219 171.890625 99.359375 173.476562 C 97.175781 180.554688 94.617188 187.382812 92.121094 194.242188 C 89.882812 200.433594 87.652344 206.625 85.664062 212.984375 C 85.21875 214.894531 84.367188 216.808594 84.300781 218.878906 C 84.28125 219.441406 84.148438 217.769531 84.027344 217.234375 C 84.230469 214.425781 82.636719 216.515625 82.136719 215.785156 C 81.816406 215.3125 82.890625 215.019531 83.253906 214.617188 C 84.320312 213.449219 84.753906 212.847656 85.804688 211.527344 C 89.9375 206.054688 93.539062 199.847656 97.109375 193.644531 C 101.113281 186.605469 104.980469 179.414062 108.933594 172.316406 C 111.289062 168.351562 113.378906 163.964844 116.199219 160.613281 C 120.40625 157.082031 122.089844 162.191406 121.910156 167.359375 C 121.457031 172.113281 120.363281 176.6875 119.285156 181.21875 C 118.113281 185.914062 116.746094 190.503906 115.414062 195.109375 C 114.136719 198.136719 114.820312 201.839844 113.933594 197.609375 C 114.433594 192.800781 112.179688 196.941406 111.585938 196.054688 C 111.550781 196.003906 111.875 195.84375 112.761719 194.929688 C 113.679688 193.984375 114.253906 193.273438 115.148438 192.226562 C 119.113281 187.5 122.726562 182.238281 126.292969 176.921875 C 130.460938 170.621094 134.433594 164.070312 138.386719 157.5 C 140.910156 153.390625 143.253906 149.039062 146.046875 145.277344 C 150.628906 140.511719 152.433594 146.015625 151.605469 152.023438 C 150.519531 157.957031 148.71875 163.5625 146.933594 169.121094 C 144.667969 175.949219 142.371094 182.757812 140.074219 189.5625 C 138.414062 194.527344 136.753906 199.503906 135.367188 204.640625 C 134.773438 206.949219 135.464844 205.445312 135.160156 205.035156 C 133.082031 202.246094 130.949219 202.886719 132.171875 201.039062 C 134.625 197.089844 136.714844 192.703125 138.8125 188.367188 C 141.941406 181.828125 144.871094 175.105469 147.765625 168.351562 C 149.957031 163.296875 152.015625 158.132812 154.078125 152.972656 C 155.230469 147.058594 161.792969 145.117188 160.882812 154.890625 C 159.917969 160.59375 157.988281 165.851562 156.125 171.046875 C 153.339844 178.480469 150.277344 185.691406 147.332031 193 C 145.332031 198.011719 143.34375 203.050781 141.644531 208.285156 C 141.773438 212.199219 135.804688 207.644531 138.070312 204.457031 C 140.675781 200.273438 142.855469 195.605469 145.054688 190.988281 C 148.125 184.476562 150.964844 177.757812 153.8125 171.046875 C 155.917969 166.15625 157.945312 161.199219 160.117188 156.367188 C 162.042969 152.402344 162.296875 151.421875 166.042969 157.429688 C 166.191406 157.664062 165.253906 161.015625 165.21875 161.140625 C 163.484375 167.0625 161.296875 172.683594 159.144531 178.3125 C 156.449219 185.285156 153.90625 192.371094 151.300781 199.40625 C 150 203.210938 148.4375 206.878906 147.441406 210.878906 C 147.019531 204.414062 142.484375 210.125 146.734375 205.214844 C 150.5625 200.453125 153.890625 194.957031 157.1875 189.46875 C 161.320312 182.511719 165.171875 175.230469 169.023438 167.957031 C 171.984375 162.4375 174.921875 156.886719 178.058594 151.5625 C 179.359375 149.890625 181.035156 145.828125 183.132812 145.910156 C 183.851562 145.941406 184.53125 146.394531 185.230469 146.632812 C 187.671875 150.980469 186.050781 155.710938 184.765625 160.308594 C 182.8125 166.910156 180.238281 173.082031 177.617188 179.183594 C 174.960938 185.277344 172.164062 191.242188 169.359375 197.199219 C 168.207031 199.714844 166.984375 202.179688 165.832031 204.6875 C 164.769531 202.925781 163.511719 201.371094 162.648438 199.40625 C 162.519531 199.113281 163.046875 199.003906 163.234375 198.785156 C 163.535156 198.4375 163.824219 198.074219 164.109375 197.703125 C 165.480469 195.929688 166.769531 194.03125 168.058594 192.144531 C 171.902344 186.5625 175.402344 180.550781 178.84375 174.476562 C 182.15625 168.609375 185.289062 162.542969 188.308594 156.367188 C 189.949219 153.167969 191.375 149.730469 193.167969 146.695312 C 200.003906 139.886719 197.148438 154.300781 196.628906 156.621094 C 195.121094 162.902344 192.964844 168.808594 190.855469 174.714844 C 188.601562 180.972656 186.148438 187.085938 183.753906 193.242188 C 182.726562 196.390625 181.203125 199.253906 180.320312 202.5 C 181.929688 191.988281 174.824219 201.265625 178.761719 196.289062 C 179.15625 195.789062 179.539062 195.277344 179.929688 194.773438 C 183.527344 189.996094 186.785156 184.738281 189.996094 179.441406 C 193.792969 173.089844 197.289062 166.390625 200.714844 159.628906 C 202.984375 155.148438 205.125 150.542969 207.359375 146.027344 C 209.246094 141.753906 212.773438 140.304688 213.597656 147.03125 C 213.40625 151.789062 212.234375 156.332031 211.121094 160.78125 C 209.484375 167.027344 207.527344 173.09375 205.589844 179.15625 C 204.316406 183.058594 203.089844 186.992188 201.898438 190.945312 C 201.382812 192.8125 202.050781 190.734375 201.535156 190.066406 C 198.945312 186.710938 197.679688 188.980469 199.601562 186.78125 C 202.691406 182.886719 205.449219 178.5 208.191406 174.128906 C 212.214844 167.640625 215.996094 160.871094 219.722656 154.039062 C 222.640625 148.640625 225.433594 143.117188 228.242188 137.605469 C 229.390625 135.582031 231.09375 130.957031 233.542969 132.339844 C 234.316406 132.777344 234.75 133.960938 235.355469 134.773438 C 236.164062 139.152344 235.355469 143.746094 234.660156 148.0625 C 233.566406 154.191406 231.875 160.054688 230.164062 165.875 C 228.875 170.265625 227.363281 174.511719 226.011719 178.855469 C 225.148438 182.507812 226.503906 175.875 222.949219 176.113281 C 225.636719 174.074219 227.96875 171.191406 230.296875 168.4375 C 234.324219 163.636719 238.152344 158.515625 241.933594 153.328125 C 244.972656 149.144531 247.964844 144.890625 250.90625 140.566406 C 252.25 138.703125 254.554688 134.660156 256.835938 136.828125 C 257.636719 137.589844 257.910156 139.101562 258.445312 140.238281 C 258.375 144.996094 256.796875 149.410156 255.4375 153.667969 C 253.371094 159.984375 251.113281 166.160156 248.871094 172.355469 C 247.171875 177.058594 245.519531 181.796875 244.054688 186.65625 C 242.742188 190.71875 243.925781 191.464844 242.445312 187.4375 C 239.054688 185.683594 240.074219 186.988281 242.914062 183.390625 C 246.011719 179.390625 248.78125 174.914062 251.488281 170.390625 C 254.75 164.867188 257.808594 159.113281 260.835938 153.328125 C 262.886719 149.453125 264.753906 145.386719 266.765625 141.472656 C 268.851562 136.847656 272.929688 136.757812 273.152344 143.578125 C 272.777344 147.925781 271.609375 152.050781 270.457031 156.082031 C 268.765625 161.714844 266.816406 167.179688 264.867188 172.636719 C 263.460938 176.476562 262.074219 180.332031 260.734375 184.21875 C 259.726562 187.875 261.488281 180.472656 257.320312 181.191406 C 259.550781 179.28125 261.492188 176.757812 263.425781 174.308594 C 267.164062 169.472656 270.523438 164.105469 273.8125 158.664062 C 276.96875 153.304688 279.972656 147.765625 282.929688 142.179688 C 284.644531 139.074219 286.101562 135.558594 288.488281 133.410156 C 293.609375 131.980469 293.144531 139.207031 292.472656 143.894531 C 291.488281 149.648438 290.015625 155.207031 288.492188 160.710938 C 287.109375 165.683594 285.59375 170.582031 284.117188 175.5 C 282.675781 180.65625 284.015625 177.277344 282.589844 175.445312 C 282.074219 174.78125 281.289062 174.734375 280.640625 174.378906 C 280.539062 174.398438 280.265625 174.554688 280.332031 174.4375 C 280.6875 173.828125 281.289062 173.617188 281.742188 173.152344 C 283.136719 171.707031 284.433594 170.101562 285.738281 168.5 C 289.777344 163.390625 293.582031 157.929688 297.375 152.460938 C 301.324219 146.710938 305.300781 140.988281 309.40625 135.460938 C 311.925781 132.21875 314.402344 128.695312 317.824219 127.710938 C 322.808594 128.8125 321.597656 135.402344 320.472656 140.300781 C 319.066406 145.710938 317.152344 150.816406 315.339844 155.960938 C 313.929688 160 312.5625 164.070312 311.3125 168.210938 C 310.207031 172.347656 312.050781 168.46875 308.621094 166.535156 C 309.992188 165.574219 312.632812 163.199219 314.292969 161.601562 C 318.648438 157.292969 322.640625 152.320312 326.5625 147.25 C 330.4375 142.148438 334.125 136.761719 337.664062 131.1875 C 339.535156 128.476562 341.042969 125.230469 343.136719 122.84375 C 349.71875 120.660156 347.011719 129.480469 345.851562 133.527344 C 344.125 139.144531 342.0625 144.539062 340.011719 149.929688 C 337.957031 155.3125 335.777344 160.601562 333.648438 165.929688 C 332.730469 168.539062 331.523438 170.976562 330.769531 173.695312 C 331.296875 169.066406 325.890625 171.097656 328.640625 168.375 C 331.085938 165.640625 333.28125 162.496094 335.410156 159.289062 C 338.394531 154.683594 341.160156 149.808594 343.914062 144.929688 C 346.136719 141 348.242188 136.941406 350.484375 133.03125 C 351.816406 130.800781 353.59375 127.335938 356.078125 129.742188 C 356.75 130.398438 356.851562 131.785156 357.238281 132.808594 C 357.207031 137.003906 355.832031 140.878906 354.617188 144.613281 C 352.820312 150.019531 350.695312 155.183594 348.535156 160.3125 C 346.832031 164.394531 344.996094 168.367188 343.117188 172.289062 C 342.347656 173.792969 341.648438 175.433594 340.648438 176.625 C 340.691406 176.34375 340.730469 176.066406 340.773438 175.785156 C 339.785156 180.308594 335.269531 178.328125 336.257812 173.800781 C 336.3125 173.464844 336.367188 173.128906 336.417969 172.792969 C 336.699219 170.945312 337.625 169.398438 338.226562 167.761719 C 339.96875 163.828125 341.757812 159.941406 343.441406 155.957031 C 345.535156 151.070312 347.570312 146.128906 349.402344 141.03125 C 350.195312 138.824219 351.214844 135.246094 351.972656 133.695312 C 352.332031 134.367188 352.511719 135.355469 353.050781 135.71875 C 355.304688 137.238281 356.664062 133.566406 354.15625 137.367188 C 351.875 141.152344 349.832031 145.210938 347.65625 149.113281 C 344.871094 154.179688 342.074219 159.242188 339.039062 164.015625 C 336.777344 167.597656 334.488281 171.167969 331.941406 174.359375 C 328.980469 177.902344 324.246094 179.292969 325.179688 170.917969 C 325.9375 167.648438 327.1875 164.683594 328.347656 161.671875 C 330.457031 156.375 332.601562 151.105469 334.707031 145.804688 C 336.734375 140.660156 338.78125 135.519531 340.636719 130.246094 C 343.933594 120.582031 339.722656 131.96875 345.972656 128.832031 C 344.136719 130.480469 342.835938 133.570312 341.253906 135.757812 C 337.621094 141.507812 333.839844 147.066406 329.886719 152.375 C 325.839844 157.703125 321.710938 162.917969 317.285156 167.613281 C 314.625 170.382812 311.925781 173.550781 308.667969 174.714844 C 307.917969 174.464844 307.058594 174.5625 306.410156 173.96875 C 304.054688 171.8125 304.769531 167.800781 305.523438 164.828125 C 306.765625 160.402344 308.257812 156.148438 309.875 151.980469 C 311.644531 147.234375 313.441406 142.488281 314.914062 137.542969 C 316.636719 131.140625 314.816406 135.234375 318.351562 135.445312 C 317 135.3125 314.339844 139.308594 312.957031 140.84375 C 308.847656 146.226562 304.902344 151.855469 300.980469 157.515625 C 297.097656 163.070312 293.191406 168.59375 289.167969 173.941406 C 286.761719 177.082031 284.375 180.671875 281.300781 182.414062 C 280.398438 182.101562 279.347656 182.238281 278.59375 181.472656 C 276.363281 179.226562 277.621094 174.777344 278.296875 172.042969 C 279.726562 167.132812 281.28125 162.296875 282.726562 157.398438 C 284.21875 152.359375 285.75 147.316406 286.792969 142.042969 C 288.136719 134.839844 286.628906 141.988281 290.875 140.039062 C 289.636719 140.734375 288.03125 144.648438 286.882812 146.429688 C 283.832031 152.078125 280.808594 157.769531 277.578125 163.21875 C 274.183594 168.90625 270.738281 174.554688 266.933594 179.707031 C 264.613281 182.824219 262.300781 186.058594 259.597656 188.511719 C 255.515625 190.429688 253.617188 185.347656 255.238281 180.609375 C 256.496094 176.554688 257.917969 172.601562 259.355469 168.667969 C 261.242188 163.402344 263.171875 158.160156 264.867188 152.765625 C 265.847656 149.554688 266.808594 146.316406 267.519531 142.960938 C 269.542969 148.765625 272.945312 142.902344 270.875 145.894531 C 268.765625 149.664062 266.953125 153.753906 264.910156 157.59375 C 261.835938 163.515625 258.753906 169.429688 255.476562 175.125 C 252.664062 179.945312 249.800781 184.714844 246.644531 189.097656 C 245.355469 190.847656 243.054688 194.769531 241.019531 194.628906 C 240.203125 194.570312 239.4375 194.007812 238.648438 193.699219 C 236.707031 189.40625 237.289062 187.839844 238.492188 183.347656 C 239.976562 178.25 241.679688 173.296875 243.464844 168.402344 C 245.683594 162.320312 247.945312 156.269531 250.050781 150.105469 C 250.460938 148.894531 252.339844 141.773438 252.820312 141.125 C 252.886719 141.027344 252.917969 141.359375 252.964844 141.476562 C 253.460938 142.246094 253.789062 143.332031 254.449219 143.789062 C 256.121094 144.945312 257.550781 141.675781 254.449219 145.625 C 251.371094 149.785156 248.398438 154.101562 245.34375 158.296875 C 241.507812 163.628906 237.625 168.902344 233.582031 173.917969 C 230.882812 177.238281 228.195312 180.664062 225.164062 183.367188 C 220.617188 185.78125 218.933594 180.625 220.546875 175.5 C 221.855469 171.152344 223.371094 166.941406 224.667969 162.585938 C 226.304688 157.160156 227.863281 151.679688 229.074219 146.027344 C 229.328125 144.785156 230.375 137.792969 230.808594 137.636719 C 231.300781 138.085938 231.710938 138.820312 232.285156 138.992188 C 233.722656 139.425781 234.175781 137.582031 233.328125 138.738281 C 232.742188 139.539062 232.285156 140.398438 231.769531 141.296875 C 228.867188 146.761719 226.097656 152.367188 223.152344 157.785156 C 219.386719 164.746094 215.578125 171.675781 211.5 178.277344 C 208.660156 182.863281 205.792969 187.425781 202.800781 191.816406 C 202.625 192.054688 201.042969 194.339844 200.730469 194.320312 C 196.578125 194.074219 195.898438 192.613281 196.695312 188.171875 C 197.699219 183.9375 199.058594 179.894531 200.308594 175.804688 C 202.15625 169.875 204.027344 163.957031 205.765625 157.957031 C 206.761719 154.359375 207.691406 150.730469 208.503906 147.042969 C 210.800781 151.757812 213.226562 146.242188 211.007812 149.792969 C 208.671875 154.1875 206.566406 158.8125 204.285156 163.261719 C 200.796875 170.164062 197.230469 176.992188 193.429688 183.558594 C 190.191406 189.101562 186.917969 194.605469 183.390625 199.792969 C 181.921875 201.960938 174.4375 212.910156 175.035156 199.964844 C 175.894531 196.191406 177.421875 192.804688 178.6875 189.289062 C 181.046875 183.195312 183.476562 177.152344 185.765625 171.003906 C 187.816406 165.433594 189.902344 159.871094 191.597656 154.0625 C 192.472656 151.011719 191.808594 153.382812 192.503906 150.761719 C 193.117188 148.449219 195.40625 153.410156 196.527344 151.128906 C 194.59375 153.507812 193.632812 157.261719 191.972656 159.972656 C 188.890625 166.265625 185.722656 172.472656 182.363281 178.476562 C 178.863281 184.695312 175.300781 190.847656 171.550781 196.765625 C 171.011719 197.617188 165.609375 205.878906 165.382812 205.769531 C 163.660156 204.953125 162.285156 203.089844 160.734375 201.75 C 161.652344 198.464844 163.300781 195.710938 164.558594 192.691406 C 167.292969 186.789062 170.046875 180.898438 172.679688 174.902344 C 175.167969 169.164062 177.617188 163.371094 179.613281 157.246094 C 180.195312 155.410156 180.320312 155.074219 180.804688 153.292969 C 181.355469 151.277344 181.085938 150.332031 182.460938 152.597656 C 185.667969 153.023438 184.0625 151.496094 181.617188 155.824219 C 178.496094 161.007812 175.636719 166.488281 172.742188 171.925781 C 168.828125 179.292969 164.875 186.632812 160.6875 193.691406 C 157.242188 199.441406 153.742188 205.152344 149.867188 210.339844 C 147.160156 213.851562 142.414062 218.734375 141.851562 209.257812 C 142.382812 204.257812 144.191406 199.78125 145.726562 195.289062 C 148.328125 188.160156 151.128906 181.1875 153.957031 174.242188 C 156.074219 168.929688 158.238281 163.644531 160.15625 158.179688 C 161.945312 152.789062 166.910156 158.128906 164.320312 160.296875 C 162.078125 164.945312 160.15625 169.882812 158.0625 174.667969 C 155.195312 181.46875 152.308594 188.253906 149.324219 194.957031 C 147.0625 200 144.757812 205.015625 142.199219 209.765625 C 142 210.09375 140.46875 212.828125 140.046875 212.679688 C 134.757812 210.867188 134.898438 209.589844 136.167969 204.820312 C 137.859375 199.277344 139.945312 194.007812 142.011719 188.734375 C 144.875 181.484375 147.800781 174.289062 150.59375 166.984375 C 152.238281 162.578125 153.886719 158.121094 154.945312 153.347656 C 155.636719 150.523438 154.636719 153.976562 159.296875 155.75 C 159.800781 155.941406 160.636719 153.378906 159.5625 155.726562 C 159.359375 156.160156 159.175781 156.605469 158.980469 157.046875 C 156.800781 162.164062 154.78125 167.414062 152.558594 172.5 C 149.601562 179.359375 146.632812 186.210938 143.492188 192.910156 C 141.199219 197.679688 138.925781 202.511719 136.226562 206.84375 C 131.9375 212.699219 128.019531 208.808594 129.832031 201.816406 C 131.148438 196.339844 132.886719 191.097656 134.617188 185.863281 C 136.894531 179.089844 139.308594 172.40625 141.582031 165.632812 C 143.234375 160.597656 144.929688 155.558594 146.078125 150.238281 C 146.59375 147.675781 146.113281 149.714844 147.351562 150.582031 C 148.21875 151.195312 150.257812 150.707031 149.578125 150.839844 C 146.800781 154.144531 144.660156 158.378906 142.246094 162.183594 C 138.226562 168.835938 134.21875 175.5 130.023438 181.929688 C 126.34375 187.476562 122.625 192.988281 118.605469 198.050781 C 117.164062 199.808594 114.144531 204.484375 111.921875 203.957031 C 111.019531 203.742188 110.257812 202.898438 109.421875 202.371094 C 108.222656 198.277344 108.839844 195.980469 110.019531 192.007812 C 111.292969 187.511719 112.609375 183.035156 113.851562 178.515625 C 114.84375 174.65625 115.78125 170.753906 116.277344 166.691406 C 116.59375 163.765625 117.636719 168.738281 119.398438 166.597656 C 116.640625 169 114.976562 173.398438 112.8125 176.667969 C 108.847656 183.78125 104.953125 190.980469 100.996094 198.105469 C 97.300781 204.636719 93.542969 211.109375 89.320312 216.976562 C 87.613281 219.253906 84.59375 224.316406 81.839844 223.578125 C 81.039062 223.363281 80.375 222.554688 79.640625 222.042969 C 78.015625 217.421875 79.058594 214.292969 80.394531 209.730469 C 82.375 203.164062 84.636719 196.785156 86.992188 190.472656 C 89.445312 183.800781 91.980469 177.1875 94.207031 170.359375 C 94.824219 168.375 95.433594 166.394531 95.96875 164.363281 C 96.042969 164.089844 95.992188 163.664062 96.175781 163.539062 C 96.308594 163.449219 96.28125 163.921875 96.332031 164.113281 C 97.214844 164.9375 98.097656 165.757812 98.980469 166.578125 C 100.96875 165.402344 100.214844 165.632812 99.617188 166.523438 C 98.617188 168.007812 97.777344 169.6875 96.855469 171.265625 C 93.738281 177 90.6875 182.8125 87.617188 188.597656 C 84.355469 194.734375 81.089844 200.878906 77.558594 206.703125 C 75.402344 210.171875 73.269531 213.988281 70.296875 216.082031 C 65.773438 216.792969 65.339844 212.921875 66.109375 207.964844 C 67.011719 203.070312 68.128906 198.261719 69.230469 193.453125 C 70.730469 187.035156 72.308594 180.65625 73.75 174.210938 C 74.613281 170.382812 75.488281 166.542969 76.03125 162.585938 C 82.777344 163.121094 80.746094 161.75 78.796875 169.308594 C 76.695312 176.378906 74.480469 183.378906 72 190.203125 C 68.867188 198.839844 65.597656 207.382812 61.945312 215.609375 C 59.289062 221.527344 56.550781 227.371094 53.519531 232.921875 C 51.648438 236.238281 46.003906 244.148438 46.589844 232.625 C 47.398438 228.75 48.546875 225.035156 49.621094 221.300781 C 51.691406 214.28125 53.820312 207.292969 55.976562 200.324219 C 58.207031 193.054688 60.421875 185.769531 62.558594 178.441406 C 63.242188 176.03125 63.929688 173.625 64.546875 171.179688 C 64.917969 169.730469 65.167969 168.539062 65.171875 168.542969 C 66.621094 168.917969 67.941406 169.984375 69.328125 170.703125 C 70.214844 168.941406 66.757812 177.164062 66.945312 177.488281 C 64.386719 184.855469 61.703125 192.136719 58.996094 199.394531 C 55.652344 208.160156 52.25 216.886719 48.507812 225.324219 C 45.929688 231.039062 43.296875 236.71875 40.289062 242.007812 C 38.359375 245.3125 32.964844 251.324219 34.027344 240.933594 C 35.109375 236.867188 36.417969 232.925781 37.671875 228.964844 C 40.363281 220.828125 43.097656 212.722656 45.898438 204.664062 C 49.269531 195.007812 52.675781 185.375 56.175781 175.808594 C 58.5625 169.414062 61.023438 163.074219 63.351562 156.632812 C 63.640625 155.789062 63.828125 154.859375 64.207031 154.089844 C 64.828125 152.828125 68.226562 154.925781 67.269531 155.652344 C 67.136719 155.753906 67.027344 155.902344 66.90625 156.027344 C 64.449219 159.195312 62.535156 163.117188 60.5 166.804688 C 56.6875 174.285156 53.171875 182.050781 49.90625 190.03125 C 46.179688 199.066406 42.574219 208.195312 38.886719 217.261719 C 35.832031 224.617188 32.753906 231.960938 29.363281 239.015625 C 27.519531 242.847656 25.648438 246.664062 23.566406 250.25 C 21.070312 254.074219 17.644531 250.6875 19.445312 246.742188 C 20.527344 242.402344 21.738281 238.128906 23.019531 233.894531 C 25.652344 225.351562 28.414062 216.878906 31.273438 208.480469 C 34.902344 198.105469 38.640625 187.785156 42.9375 177.925781 C 46.507812 170 50.304688 162.210938 55.195312 155.777344 C 57.042969 153.40625 59.410156 157.113281 57.5625 159.484375 " fill-opacity="1" fill-rule="nonzero"/></g></svg>