<svg xmlns="http://www.w3.org/2000/svg" xmlns:xlink="http://www.w3.org/1999/xlink" width="500" zoomAndPan="magnify" viewBox="0 0 375 374.999991" height="500" preserveAspectRatio="xMidYMid meet" version="1.0"><defs><clipPath id="09e589cda3"><path d="M 75 247 L 304.707031 247 L 304.707031 268.132812 L 75 268.132812 Z M 75 247 " clip-rule="nonzero"/></clipPath><clipPath id="483d85ee0a"><path d="M 73 105.753906 L 307.746094 105.753906 L 307.746094 123 L 73 123 Z M 73 105.753906 " clip-rule="nonzero"/></clipPath></defs><path fill="#1d1d1b" d="M 78.671875 255.316406 C 75.1875 243.5 76.089844 230.359375 76.5625 218.210938 C 77.082031 204.515625 77.171875 190.921875 76.589844 177.207031 C 76 163.503906 75.234375 149.773438 75.832031 136.0625 C 76.039062 131.515625 78.71875 122.777344 76.644531 118.691406 C 75.199219 115.84375 70.300781 114.851562 68.753906 118.171875 C 66.324219 123.3125 67.148438 132.027344 66.976562 137.644531 C 66.726562 144.691406 66.816406 151.742188 67.023438 158.816406 C 67.460938 172.914062 68.40625 187.011719 68.316406 201.152344 C 68.246094 214.777344 66.871094 228.445312 67.773438 242.066406 C 68.140625 247.863281 68.925781 253.679688 70.542969 259.261719 C 71.597656 262.890625 78.441406 269.332031 79.996094 262.265625 C 79.996094 262.265625 80.050781 262.265625 80.066406 262.285156 C 80.378906 259.769531 79.386719 257.667969 78.671875 255.316406 C 78.054688 253.238281 79.386719 257.667969 78.671875 255.316406 " fill-opacity="1" fill-rule="nonzero"/><g clip-path="url(#09e589cda3)"><path fill="#1d1d1b" d="M 304.164062 254.929688 C 303.839844 254.160156 303.414062 253.554688 302.867188 253.078125 C 302.902344 253.078125 302.921875 253.078125 302.957031 253.078125 C 298.320312 248.894531 286.625 249.402344 280.734375 248.804688 C 270.765625 247.828125 260.722656 247.445312 250.695312 247.355469 C 230.253906 247.183594 209.730469 247.9375 189.285156 248.320312 C 168.71875 248.703125 148.480469 252.265625 128.191406 255.332031 C 117.789062 256.90625 107.34375 258.304688 96.828125 258.875 C 92.585938 259.117188 75.285156 256.121094 75.636719 263 C 76.179688 273.152344 119.371094 265.28125 126.484375 264.324219 C 147.972656 261.371094 169.289062 257.660156 191.046875 257.425781 C 210.839844 257.203125 230.621094 256.46875 250.402344 256.65625 C 261.015625 256.765625 271.648438 257.148438 282.183594 258.390625 C 285.363281 258.769531 308.128906 264.582031 304.164062 254.929688 C 303.839844 254.160156 305.296875 257.667969 304.164062 254.929688 " fill-opacity="1" fill-rule="nonzero"/></g><path fill="#1d1d1b" d="M 304.226562 181.132812 C 304.628906 171.484375 305.78125 161.886719 305.816406 152.234375 C 305.851562 142.914062 303.707031 133.679688 304.179688 124.378906 C 304.332031 121.105469 306.933594 115.78125 304.921875 112.867188 C 303.117188 110.226562 299.347656 110.101562 297.496094 112.757812 C 293.128906 119.011719 294.96875 130.523438 295.628906 137.574219 C 297.433594 156.707031 294.558594 175.5625 294.800781 194.695312 C 295.039062 214.722656 296.105469 234.757812 296.503906 254.796875 C 296.542969 254.796875 296.558594 254.777344 296.59375 254.777344 C 296.960938 258.820312 302.589844 260.671875 304.957031 257.132812 C 308.253906 252.210938 305.691406 239.589844 305.484375 233.847656 C 304.84375 216.296875 303.511719 198.71875 304.226562 181.132812 C 304.699219 169.59375 303.234375 205.5625 304.226562 181.132812 " fill-opacity="1" fill-rule="nonzero"/><g clip-path="url(#483d85ee0a)"><path fill="#1d1d1b" d="M 302.609375 110.226562 C 292.066406 110.175781 281.761719 112.519531 271.167969 111.675781 C 260.667969 110.835938 250.679688 110.191406 240.117188 110.792969 C 229.617188 111.382812 219.953125 109.566406 209.632812 108.097656 C 198.703125 106.535156 187.4375 106.230469 176.402344 105.898438 C 155.28125 105.273438 134.148438 106.773438 113.117188 108.324219 C 102.269531 109.128906 91.449219 109.933594 80.621094 110.523438 C 77.414062 110.703125 73.6875 110.808594 73.402344 114.871094 C 73.214844 117.660156 75.234375 120.058594 78.09375 119.933594 C 121.8125 118.0625 166.558594 111.605469 210.167969 118.277344 C 231.71875 121.570312 253.332031 120.738281 275.089844 121.972656 C 279.753906 122.25 284.425781 121.902344 289.082031 121.472656 C 293.859375 120.996094 299.9375 121.535156 304.492188 120.175781 C 309.738281 118.609375 308.308594 109.511719 302.609375 110.226562 C 294.816406 110.191406 309.058594 109.421875 302.609375 110.226562 " fill-opacity="1" fill-rule="nonzero"/></g><path fill="#1d1d1b" d="M 183.863281 202.058594 C 183.605469 201.582031 183.308594 201.136719 183.015625 200.695312 C 183.292969 201.046875 183.570312 201.378906 183.84375 201.707031 C 182.980469 199.855469 181.058594 199.121094 179.457031 198.039062 C 172.75 194.097656 166.941406 188.898438 161.015625 183.871094 C 153.609375 177.574219 145.65625 172.214844 137.6875 166.699219 C 121.570312 155.515625 105.71875 143.664062 92.128906 129.441406 C 89.441406 126.652344 86.632812 121.863281 83.222656 120.058594 C 79.558594 118.097656 74.785156 122.886719 77.628906 126.285156 C 83.8125 133.71875 90.644531 140.597656 97.847656 147.054688 C 105.253906 153.683594 113.082031 159.863281 120.972656 165.867188 C 124.707031 168.710938 128.484375 171.484375 132.328125 174.183594 C 135.910156 176.699219 140.984375 178.917969 144.050781 182.003906 C 151.851562 185.894531 158.660156 194.148438 165.457031 199.527344 C 168.789062 202.183594 172.550781 205.5625 176.734375 206.734375 C 179.71875 207.566406 185.257812 206.519531 183.863281 202.058594 C 183.78125 201.742188 184.042969 202.59375 183.863281 202.058594 " fill-opacity="1" fill-rule="nonzero"/><path fill="#1d1d1b" d="M 288.527344 121.953125 C 288.019531 123.351562 287.214844 124.59375 286.4375 125.84375 C 280.054688 134.34375 271.167969 140.667969 262.703125 146.929688 C 251.9375 154.90625 240.992188 162.671875 229.832031 170.125 C 218.746094 177.503906 207.488281 184.660156 195.90625 191.269531 C 192.566406 193.175781 182.792969 196.226562 182.058594 200.402344 C 180.59375 208.515625 190.554688 203.621094 193.40625 202.164062 C 218.046875 189.488281 241.054688 173.925781 263.546875 157.796875 C 273.097656 150.964844 283.453125 143.90625 291.367188 135.113281 C 294.085938 132.082031 297.953125 126.890625 296.78125 122.445312 C 295.753906 118.464844 289.972656 118.046875 288.527344 121.953125 " fill-opacity="1" fill-rule="nonzero"/><path fill="#1d1d1b" d="M 140.171875 175.703125 C 140.046875 175.882812 139.902344 176.054688 139.769531 176.207031 C 135.667969 182.332031 129.566406 187.78125 124.445312 193.011719 C 116.65625 200.972656 109.972656 210.082031 103.789062 219.292969 C 98.105469 227.800781 92.773438 236.523438 86.910156 244.894531 C 84.964844 247.675781 78.894531 253.0625 79.484375 256.691406 C 79.960938 259.664062 83.738281 261.28125 85.785156 258.730469 C 98.714844 242.523438 108.371094 224.007812 121.550781 207.933594 C 127.511719 200.660156 134.417969 194.347656 140.601562 187.28125 C 142.761719 184.792969 147 181.777344 146.917969 178.09375 C 146.828125 174.675781 142.433594 173.378906 140.171875 175.703125 " fill-opacity="1" fill-rule="nonzero"/><path fill="#1d1d1b" d="M 303.464844 256.121094 C 301.402344 247.425781 294.28125 240.339844 288.992188 233.472656 C 282.441406 224.921875 275.882812 216.40625 268.773438 208.28125 C 261.660156 200.1875 254.289062 192.296875 247.390625 184.015625 C 244.648438 180.730469 241.53125 174.417969 237.847656 172.289062 C 235.335938 170.839844 231.386719 173.003906 231.996094 176.070312 C 232.835938 180.167969 238.5 185.160156 241.128906 188.328125 C 244.613281 192.53125 248.238281 196.628906 251.886719 200.714844 C 259.238281 208.972656 266.769531 217.121094 273.550781 225.859375 C 280.28125 234.535156 287.882812 243.078125 293.628906 252.433594 C 295.621094 255.664062 297.855469 259.097656 299.625 262.417969 C 301.859375 266.585938 303.824219 257.640625 303.464844 256.121094 C 302.972656 254.027344 303.949219 258.140625 303.464844 256.121094 " fill-opacity="1" fill-rule="nonzero"/><path fill="#1d1d1b" d="M 188.222656 207.34375 C 186.277344 203.980469 183.03125 202.550781 179.171875 202.550781 C 174.714844 199.300781 171.613281 194.625 167.671875 190.804688 C 163.644531 186.894531 158.507812 184.730469 153.503906 182.386719 C 141.40625 176.734375 132.441406 168.898438 122.839844 159.863281 C 112.464844 150.050781 102.339844 139.96875 92.496094 129.621094 C 89.199219 126.140625 83.9375 117.660156 79.371094 116.175781 C 77.082031 115.433594 74.367188 116.757812 73.617188 119.054688 C 72.6875 121.9375 75.160156 124.101562 76.878906 125.972656 C 86.6875 136.757812 96.800781 147.261719 107.15625 157.5 C 116.582031 166.824219 125.875 177.261719 137.207031 184.292969 C 147.925781 190.972656 158.632812 194.410156 167.46875 203.800781 C 170.882812 207.414062 174.472656 211.082031 179.109375 213.085938 C 183.148438 214.832031 192.144531 214.078125 188.222656 207.34375 C 187.195312 205.582031 190.261719 210.832031 188.222656 207.34375 " fill-opacity="1" fill-rule="nonzero"/><path fill="#1d1d1b" d="M 281.636719 134.082031 C 272.710938 139.148438 265.617188 148.082031 257.640625 154.488281 C 248.480469 161.832031 238.671875 168.273438 229.503906 175.5625 C 220.210938 182.96875 210.777344 190.867188 199.867188 195.742188 C 196.675781 197.171875 189.082031 197.691406 187.492188 201.046875 C 184.882812 206.539062 191.28125 207.359375 194.878906 206.503906 C 215.957031 201.484375 231.976562 184.292969 249.175781 172.214844 C 258.628906 165.578125 267.46875 158.53125 276.0625 150.875 C 279.84375 147.5 283.988281 144.488281 287.132812 140.46875 C 290.054688 136.757812 285.765625 131.75 281.636719 134.082031 C 277.457031 136.453125 285.875 131.695312 281.636719 134.082031 " fill-opacity="1" fill-rule="nonzero"/><path fill="#1d1d1b" d="M 199.054688 197.136719 C 195.496094 198.648438 173.140625 207.800781 182.523438 213.507812 C 186.375 215.859375 192.734375 208.863281 195.460938 206.699219 C 197.625 204.992188 199.714844 203.175781 201.699219 201.234375 C 203.421875 199.527344 201.332031 196.171875 199.054688 197.136719 C 193.066406 199.6875 201.332031 196.171875 199.054688 197.136719 " fill-opacity="1" fill-rule="nonzero"/><path fill="#1d1d1b" d="M 210.148438 191.179688 C 205.503906 195.339844 200.304688 198.808594 195.175781 202.351562 C 193.226562 203.710938 189.144531 210.429688 195.003906 209.5625 C 199.035156 208.972656 205.066406 202.109375 208.078125 199.453125 C 209.667969 198.039062 213.957031 195.160156 214.125 192.84375 C 214.269531 190.75 211.535156 189.964844 210.148438 191.179688 C 204.851562 195.929688 212.25 189.320312 210.148438 191.179688 " fill-opacity="1" fill-rule="nonzero"/><path fill="#1d1d1b" d="M 74.4375 118.707031 C 74.402344 118.707031 74.421875 118.761719 74.4375 118.761719 C 74.464844 118.761719 74.464844 118.707031 74.4375 118.707031 " fill-opacity="1" fill-rule="nonzero"/><path fill="#1d1d1b" d="M 299.214844 109.046875 C 257.273438 107.785156 215.082031 109.457031 173.140625 109.949219 C 151.832031 110.191406 130.511719 110.441406 109.175781 110.613281 C 98.105469 110.703125 87.019531 110.773438 75.949219 110.792969 C 70.113281 110.808594 70.792969 119.808594 76.367188 119.824219 C 119.523438 119.914062 162.6875 119.359375 205.859375 118.867188 C 226.9375 118.644531 248.015625 118.414062 269.085938 118.289062 C 279.269531 118.222656 289.464844 118.429688 299.625 118.117188 C 305.503906 117.945312 304.753906 109.21875 299.214844 109.046875 C 282.210938 108.535156 304.957031 109.21875 299.214844 109.046875 " fill-opacity="1" fill-rule="nonzero"/><path fill="#1d1d1b" d="M 104.324219 113.894531 C 97.910156 110.828125 88.554688 111.085938 81.566406 110.300781 C 77.628906 109.859375 67.164062 106.882812 68.414062 114.699219 C 69.308594 120.335938 82.015625 119.144531 86.007812 119.199219 C 90.519531 119.269531 94.953125 118.484375 99.429688 117.945312 C 100.179688 117.859375 108.445312 115.863281 104.324219 113.894531 C 102.109375 112.832031 105.308594 114.371094 104.324219 113.894531 " fill-opacity="1" fill-rule="nonzero"/><path fill="#1d1d1b" d="M 70.320312 121.292969 C 69.03125 129.183594 67.789062 137.171875 67.863281 145.167969 C 67.878906 147.132812 67.824219 154.175781 70.480469 154.800781 C 73.757812 155.605469 74.035156 148.621094 74.347656 146.804688 C 75.742188 138.886719 77.207031 130.980469 78.546875 123.054688 C 79.421875 117.910156 71.210938 115.933594 70.320312 121.292969 C 69.398438 126.964844 71.210938 115.933594 70.320312 121.292969 " fill-opacity="1" fill-rule="nonzero"/><path fill="#1d1d1b" d="M 306.859375 121.992188 C 306.84375 119.21875 304.191406 117.714844 301.671875 118.519531 C 297.105469 119.988281 298.792969 127.582031 298.703125 131.097656 C 298.390625 144.675781 297.640625 158.253906 297.21875 171.832031 C 296.835938 184.132812 296.855469 196.4375 296.015625 208.738281 C 295.183594 220.832031 293.09375 233.238281 293.53125 245.386719 C 293.628906 248.453125 294.46875 251.703125 298.246094 251.640625 C 303.046875 251.53125 301.984375 244.027344 302.089844 240.921875 C 302.464844 228.535156 303.929688 216.226562 304.734375 203.871094 C 306.496094 176.789062 307.003906 149.128906 306.859375 121.992188 C 306.824219 116.792969 306.96875 143.683594 306.859375 121.992188 " fill-opacity="1" fill-rule="nonzero"/><path fill="#1d1d1b" d="M 291.699219 252.175781 C 273.320312 250.011719 254.179688 250.816406 235.660156 249.839844 C 215.136719 248.777344 194.53125 247.773438 174.015625 249.4375 C 154.636719 251.003906 135.464844 254.339844 116.164062 256.675781 C 106.488281 257.847656 96.785156 258.769531 87.035156 259.070312 C 84.4375 259.136719 79.539062 258.050781 77.941406 260.898438 C 76.734375 263.042969 77.707031 266.140625 80.09375 266.953125 C 83.738281 268.214844 89.359375 267.078125 93.15625 266.898438 C 98 266.65625 102.851562 266.289062 107.675781 265.863281 C 117.351562 264.949219 126.984375 263.695312 136.617188 262.417969 C 156.898438 259.714844 177.171875 257.148438 197.660156 257.042969 C 217.28125 256.960938 236.855469 258.4375 256.414062 259.554688 C 266.089844 260.101562 275.777344 260.636719 285.472656 260.726562 C 288.417969 260.761719 292.582031 261.28125 294.308594 258.25 C 295.691406 255.789062 294.761719 252.523438 291.699219 252.175781 C 283.398438 251.199219 296.703125 252.765625 291.699219 252.175781 " fill-opacity="1" fill-rule="nonzero"/></svg>