<svg xmlns="http://www.w3.org/2000/svg" xmlns:xlink="http://www.w3.org/1999/xlink" width="500" zoomAndPan="magnify" viewBox="0 0 375 374.999991" height="500" preserveAspectRatio="xMidYMid meet" version="1.0"><defs><clipPath id="e1b83da1f2"><path d="M 112 48 L 263.851562 48 L 263.851562 326.824219 L 112 326.824219 Z M 112 48 " clip-rule="nonzero"/></clipPath></defs><g clip-path="url(#e1b83da1f2)"><path fill="#000000" d="M 206.855469 287.792969 C 204.246094 287.25 201.628906 286.808594 199.007812 286.375 C 196.917969 286.035156 194.074219 285.84375 192.527344 284.210938 C 191.96875 283.558594 191.667969 282.804688 191.628906 281.945312 C 191.328125 280.375 191.125 278.789062 190.910156 277.207031 C 190.464844 273.914062 190.0625 270.625 189.730469 267.316406 C 188.960938 259.53125 188.464844 251.691406 188.378906 243.867188 C 188.378906 242.195312 187.441406 239.472656 185.378906 239.523438 C 183.316406 239.574219 182.554688 242.371094 182.582031 244.003906 C 182.707031 251.222656 183.097656 258.429688 183.746094 265.621094 C 184.082031 269.292969 184.503906 272.964844 185.011719 276.636719 C 185.300781 280.003906 185.875 283.324219 186.734375 286.589844 C 186.941406 287.390625 187.238281 288.152344 187.625 288.882812 C 188.007812 289.609375 188.472656 290.285156 189.011719 290.90625 C 189.554688 291.527344 190.160156 292.078125 190.828125 292.5625 C 191.496094 293.042969 192.210938 293.441406 192.972656 293.757812 C 195.601562 294.585938 198.289062 295.128906 201.03125 295.378906 C 206.140625 296.089844 211.117188 297.328125 215.964844 299.089844 C 218.734375 300.121094 221.265625 301.570312 223.558594 303.433594 C 210.777344 307.550781 197.300781 308.890625 183.921875 309.917969 C 168.34375 311.09375 152.703125 311.980469 137.515625 315.945312 C 132.59375 317.210938 126.417969 318.910156 121.519531 316.703125 C 120.664062 316.300781 119.921875 315.746094 119.292969 315.035156 C 118.972656 314.65625 118.734375 314.234375 118.570312 313.765625 C 118.546875 313.625 118.515625 313.488281 118.472656 313.347656 L 118.472656 313.160156 C 118.457031 312.941406 118.457031 312.71875 118.472656 312.5 L 118.472656 312.347656 C 118.472656 312.273438 118.472656 312.195312 118.472656 312.070312 C 118.527344 311.878906 118.566406 311.6875 118.585938 311.488281 C 118.746094 310.921875 118.957031 310.378906 119.21875 309.855469 C 119.9375 308.492188 120.894531 307.328125 122.089844 306.359375 C 124.933594 304.210938 128.074219 302.664062 131.503906 301.710938 C 135.226562 300.445312 138.996094 299.355469 142.742188 298.191406 L 155.15625 294.390625 C 158.625 293.289062 163.042969 292.621094 165.28125 289.480469 C 168.054688 285.679688 167.15625 280.234375 166.992188 275.828125 C 166.8125 270.890625 166.230469 266.011719 165.925781 261.085938 C 165.421875 252.667969 164.878906 244.269531 163.929688 235.886719 C 172.039062 236.015625 180.164062 236.230469 188.277344 236.152344 C 196.046875 236.078125 203.878906 234.746094 209.6875 229.175781 C 215.078125 223.984375 217.964844 216.753906 219.722656 209.609375 C 223.949219 192.476562 221.8125 174.519531 220.496094 157.160156 C 219.117188 139.011719 217.660156 120.902344 215.445312 102.898438 C 214.445312 94.742188 213.523438 86.433594 211.789062 78.457031 C 210.285156 71.492188 207.839844 64.527344 202.929688 59.195312 C 198.019531 53.863281 191.210938 51.636719 184.238281 50.789062 C 177 49.902344 169.699219 50.101562 162.449219 49.265625 C 155.195312 48.433594 147.132812 47.863281 141.238281 53.28125 C 136.175781 57.953125 134.050781 65.019531 132.378906 71.515625 C 128.28125 87.691406 125.007812 104.03125 122.558594 120.535156 C 117.8125 153.296875 117.089844 187.386719 126.078125 219.515625 C 127.164062 223.402344 128.355469 227.265625 129.683594 231.089844 C 129.707031 231.199219 129.742188 231.304688 129.792969 231.40625 C 129.839844 231.507812 129.902344 231.601562 129.976562 231.6875 C 130.050781 231.773438 130.132812 231.847656 130.226562 231.910156 C 130.316406 231.976562 130.417969 232.027344 130.523438 232.066406 C 130.628906 232.105469 130.738281 232.132812 130.847656 232.144531 C 130.960938 232.15625 131.074219 232.152344 131.183594 232.136719 C 131.296875 232.117188 131.402344 232.085938 131.507812 232.042969 C 131.609375 232 131.707031 231.941406 131.796875 231.875 L 131.910156 231.746094 C 132.1875 233.710938 133.238281 235.445312 135.023438 235.46875 L 161.410156 235.796875 C 161.308594 243.726562 161.523438 251.640625 161.6875 259.566406 C 161.777344 263.976562 161.511719 268.433594 161.6875 272.761719 L 161.878906 279.09375 C 161.878906 280.359375 162.347656 282.488281 161.699219 283.414062 C 160.929688 284.539062 158.867188 284.84375 157.675781 285.199219 L 151.160156 287.160156 C 146.941406 288.4375 142.722656 289.730469 138.503906 291.050781 C 131.453125 293.203125 122.988281 294.847656 117.761719 300.507812 C 112.535156 306.167969 110.800781 315.351562 115.761719 321.542969 C 119.886719 326.683594 126.710938 326.808594 132.695312 325.746094 C 135.960938 325.164062 139.136719 324.214844 142.351562 323.46875 C 146.148438 322.582031 150.097656 321.910156 153.992188 321.351562 C 161.941406 320.210938 169.953125 319.605469 177.960938 319.023438 C 195.832031 317.757812 214.015625 316.488281 230.835938 309.777344 C 233.53125 308.714844 233.011719 304.472656 231.910156 302.546875 C 226.648438 293.480469 216.523438 289.78125 206.855469 287.792969 Z M 134.796875 226.175781 C 134.488281 226.191406 134.191406 226.253906 133.902344 226.367188 C 133.613281 226.480469 133.351562 226.636719 133.117188 226.835938 C 132.878906 227.035156 132.679688 227.265625 132.519531 227.53125 C 132.359375 227.792969 132.246094 228.078125 132.175781 228.378906 C 122.152344 198.492188 121.292969 166.226562 124.875 135.152344 C 126.40625 121.917969 128.671875 108.785156 131.46875 95.753906 C 135.121094 97.511719 138.96875 98.53125 143.007812 98.820312 C 145.160156 98.96875 147.304688 98.941406 149.449219 98.730469 C 151.5 98.527344 154.726562 98.414062 155.777344 96.386719 C 155.945312 96.089844 156.066406 95.773438 156.136719 95.4375 C 156.203125 95.101562 156.21875 94.761719 156.183594 94.421875 C 156.144531 94.078125 156.054688 93.753906 155.914062 93.441406 C 155.773438 93.128906 155.589844 92.84375 155.359375 92.589844 C 154.359375 91.703125 153.4375 92.007812 152.246094 92.257812 C 151.058594 92.511719 150.132812 92.664062 149.082031 92.828125 C 147.101562 93.121094 145.113281 93.261719 143.109375 93.246094 C 139.46875 93.222656 135.875 92.800781 132.328125 91.980469 C 132.605469 90.714844 132.898438 89.347656 133.203125 88.042969 C 134.769531 81.089844 136.097656 73.871094 138.628906 67.199219 C 140.894531 61.210938 144.957031 56.5 151.640625 55.800781 C 155.332031 55.550781 159.003906 55.746094 162.648438 56.382812 C 166.144531 56.867188 169.636719 57.195312 173.152344 57.410156 C 179.796875 57.800781 186.695312 57.953125 192.921875 60.574219 C 206.070312 66.136719 207.207031 81.851562 208.828125 94.171875 C 211.042969 111 212.625 127.933594 213.890625 144.824219 C 214.546875 153.308594 215.167969 161.800781 215.75 170.304688 C 216.472656 178.316406 216.59375 186.335938 216.117188 194.363281 C 215.078125 207.027344 211.5 223.488281 196.820312 226.277344 C 193.207031 226.871094 189.570312 227.101562 185.910156 226.972656 C 181.605469 226.972656 177.304688 226.847656 173 226.78125 L 147.363281 226.402344 Z M 128.898438 119.726562 C 132.730469 120.757812 136.628906 121.152344 140.59375 120.902344 C 142.511719 120.828125 144.410156 120.585938 146.285156 120.183594 C 147.199219 119.96875 148.097656 119.6875 148.996094 119.433594 C 149.894531 119.183594 151.195312 118.597656 152.210938 119.207031 C 152.496094 119.421875 152.734375 119.679688 152.925781 119.980469 C 153.121094 120.28125 153.25 120.609375 153.320312 120.960938 C 153.390625 121.3125 153.394531 121.664062 153.335938 122.015625 C 153.273438 122.367188 153.152344 122.699219 152.96875 123.007812 C 151.90625 125.03125 148.96875 125.414062 146.917969 125.765625 C 144.867188 126.132812 142.800781 126.265625 140.71875 126.171875 C 136.351562 125.914062 132.277344 124.683594 128.492188 122.488281 C 127.492188 121.980469 127.46875 119.320312 128.898438 119.726562 Z M 156.042969 151.296875 C 154.144531 152.855469 150.878906 152.421875 148.539062 152.4375 C 146.199219 152.449219 143.605469 152.4375 141.148438 152.183594 C 136.128906 151.785156 131.207031 150.863281 126.378906 149.421875 C 124.949219 148.992188 124.9375 145.207031 126.632812 145.371094 C 131.40625 145.824219 136.199219 146.105469 140.996094 146.15625 C 143.464844 146.15625 145.917969 146.15625 148.375 146.015625 C 149.476562 146.015625 150.5625 145.875 151.652344 145.773438 C 152.917969 145.660156 154.296875 145.304688 155.449219 145.964844 C 157.042969 146.824219 157.601562 150.03125 156.042969 151.296875 Z M 181.089844 87.21875 L 190.289062 86.460938 C 191.820312 86.347656 193.351562 86.269531 194.882812 86.167969 C 196.460938 85.902344 198.039062 85.902344 199.617188 86.167969 C 201.488281 86.738281 201.464844 90.714844 199.742188 91.4375 C 198.199219 91.867188 196.632812 92.027344 195.035156 91.917969 C 193.492188 91.992188 191.957031 92.082031 190.425781 92.121094 L 181.214844 92.347656 C 178.9375 92.410156 178.824219 87.398438 181.089844 87.21875 Z M 201.589844 109.265625 C 202.855469 108.796875 204.121094 108 205.511719 107.644531 C 207.625 107.0625 209.105469 108.695312 209.308594 110.734375 C 209.5 112.34375 208.878906 114.535156 207.054688 114.851562 C 206.429688 114.984375 205.882812 114.832031 205.410156 114.394531 L 204.359375 114.839844 C 203.40625 115.207031 202.4375 115.523438 201.449219 115.789062 C 199.421875 116.347656 197.359375 116.699219 195.261719 116.839844 C 190.992188 117.058594 186.859375 116.398438 182.871094 114.851562 C 180.785156 114.054688 181.175781 108.859375 183.683594 109.644531 C 186.609375 110.546875 189.605469 110.964844 192.667969 110.902344 C 195.730469 110.835938 198.703125 110.292969 201.589844 109.265625 Z M 208.144531 147.257812 C 206.078125 148.117188 203.925781 148.507812 201.691406 148.433594 C 199.53125 148.554688 197.375 148.492188 195.222656 148.246094 C 190.875 147.703125 186.710938 146.511719 182.734375 144.671875 C 180.621094 143.722656 181.203125 138.339844 183.554688 139.394531 C 187.300781 141.046875 191.214844 142.007812 195.300781 142.28125 C 197.378906 142.449219 199.460938 142.449219 201.539062 142.28125 C 203.476562 142.117188 205.5625 141.40625 207.5 141.546875 C 210.054688 141.710938 210.03125 146.230469 208.144531 147.28125 Z M 245.691406 73.0625 C 243.65625 74.847656 241.644531 76.683594 239.667969 78.546875 C 238.695312 79.46875 237.632812 78.546875 237.136719 77.621094 C 236.859375 76.988281 236.773438 76.328125 236.871094 75.644531 C 236.96875 74.960938 237.238281 74.351562 237.683594 73.820312 C 239.542969 71.695312 241.476562 69.695312 243.578125 67.757812 C 244.617188 66.792969 245.65625 65.820312 246.742188 64.90625 C 247.300781 64.449219 247.867188 63.996094 248.464844 63.640625 C 248.765625 63.410156 249.085938 63.210938 249.425781 63.046875 C 249.835938 62.910156 250.257812 62.824219 250.691406 62.792969 C 251.5 62.640625 252.082031 63.730469 252.261719 64.324219 C 252.570312 65.292969 252.480469 66.222656 251.980469 67.109375 C 251.550781 67.878906 251.007812 68.5625 250.363281 69.160156 C 249.84375 69.644531 249.300781 70.097656 248.753906 70.554688 C 247.71875 71.378906 246.703125 72.226562 245.691406 73.085938 Z M 251.742188 100.921875 C 248.980469 101.777344 246.152344 102.199219 243.261719 102.1875 C 240.882812 102.1875 240.730469 96.933594 243.136719 96.84375 C 245.742188 96.765625 248.273438 96.292969 250.730469 95.425781 C 253.261719 94.539062 255.410156 93.03125 257.890625 92.132812 C 258.890625 91.753906 259.585938 92.664062 259.855469 93.527344 C 260.035156 94.0625 260.070312 94.609375 259.964844 95.167969 C 259.859375 95.722656 259.625 96.21875 259.257812 96.652344 C 258.789062 97.222656 258.25 97.71875 257.652344 98.148438 C 257 98.621094 256.316406 99.042969 255.601562 99.414062 C 254.355469 100.023438 253.070312 100.53125 251.742188 100.933594 Z M 263.699219 123.90625 C 263.699219 124.816406 263.207031 126.007812 262.144531 126.097656 C 261.484375 126.097656 260.878906 126.210938 260.15625 126.222656 C 259.433594 126.199219 258.71875 126.097656 258.019531 125.917969 C 256.777344 125.671875 255.566406 125.320312 254.386719 124.867188 C 251.882812 123.890625 249.5625 122.585938 247.425781 120.953125 C 246.945312 120.449219 246.636719 119.851562 246.5 119.164062 C 246.367188 118.476562 246.425781 117.808594 246.679688 117.15625 C 247.035156 116.054688 248.121094 115.359375 249.132812 116.105469 C 251.050781 117.484375 253.125 118.554688 255.359375 119.308594 C 256.480469 119.691406 257.621094 120.015625 258.777344 120.269531 C 260.042969 120.5625 261.21875 120.890625 262.460938 121.171875 C 263.484375 121.4375 263.75 123.082031 263.699219 123.917969 Z M 263.699219 123.90625 " fill-opacity="1" fill-rule="nonzero"/></g></svg>