<svg xmlns="http://www.w3.org/2000/svg" xmlns:xlink="http://www.w3.org/1999/xlink" width="500" zoomAndPan="magnify" viewBox="0 0 375 374.999991" height="500" preserveAspectRatio="xMidYMid meet" version="1.0"><defs><clipPath id="31cb81a249"><path d="M 92 38.1875 L 283.441406 38.1875 L 283.441406 336 L 92 336 Z M 92 38.1875 " clip-rule="nonzero"/></clipPath></defs><g clip-path="url(#31cb81a249)"><path fill="#000000" d="M 160.117188 156.164062 C 126.398438 134.519531 124.070312 103.183594 130.855469 82.121094 C 131.382812 80.53125 131.972656 78.960938 132.625 77.417969 C 133.277344 75.871094 133.992188 74.355469 134.765625 72.867188 C 135.535156 71.382812 136.367188 69.925781 137.257812 68.503906 C 138.144531 67.082031 139.089844 65.699219 140.085938 64.351562 C 141.085938 63.003906 142.136719 61.699219 143.238281 60.4375 C 144.34375 59.175781 145.492188 57.957031 146.691406 56.785156 C 147.890625 55.613281 149.136719 54.492188 150.425781 53.417969 C 151.710938 52.347656 153.042969 51.328125 154.410156 50.359375 C 155.78125 49.394531 157.1875 48.484375 158.628906 47.628906 C 160.070312 46.773438 161.542969 45.976562 163.050781 45.238281 C 164.554688 44.5 166.085938 43.824219 167.644531 43.207031 C 169.207031 42.59375 170.785156 42.039062 172.390625 41.546875 C 173.992188 41.058594 175.613281 40.632812 177.25 40.269531 C 178.886719 39.910156 180.535156 39.613281 182.195312 39.382812 C 183.855469 39.152344 185.523438 38.988281 187.195312 38.894531 C 188.871094 38.796875 190.546875 38.765625 192.222656 38.800781 C 193.832031 38.863281 195.4375 38.988281 197.039062 39.171875 C 198.640625 39.359375 200.230469 39.609375 201.8125 39.917969 C 203.394531 40.230469 204.960938 40.597656 206.515625 41.03125 C 208.066406 41.460938 209.601562 41.953125 211.117188 42.5 C 212.632812 43.050781 214.125 43.660156 215.589844 44.324219 C 217.058594 44.988281 218.5 45.710938 219.914062 46.484375 C 221.324219 47.261719 222.703125 48.09375 224.054688 48.976562 C 225.402344 49.859375 226.714844 50.792969 227.988281 51.777344 C 229.265625 52.761719 230.5 53.792969 231.699219 54.875 C 232.894531 55.957031 234.046875 57.082031 235.15625 58.25 C 236.265625 59.417969 237.328125 60.628906 238.34375 61.882812 C 239.359375 63.132812 240.324219 64.421875 241.242188 65.75 C 242.15625 67.074219 243.019531 68.433594 243.832031 69.828125 C 244.644531 71.222656 245.398438 72.644531 246.101562 74.09375 C 246.800781 75.546875 247.445312 77.023438 248.03125 78.523438 C 248.617188 80.027344 249.144531 81.546875 249.613281 83.089844 C 258.335938 111.195312 247.839844 136.296875 218.609375 156.679688 C 224.777344 161.011719 231.042969 165.015625 236.859375 169.601562 C 262.242188 189.632812 272.773438 217.738281 278.84375 248.105469 C 281.535156 260.214844 283.042969 272.46875 283.367188 284.867188 C 283.367188 300.699219 277.261719 310.164062 262.695312 315.847656 C 241.636719 324.023438 220.320312 331.421875 197.808594 334.101562 C 175.007812 336.730469 152.28125 336.191406 129.628906 332.484375 C 123.53125 331.253906 117.785156 329.101562 112.378906 326.023438 C 100.753906 319.886719 92.484375 311.261719 92.289062 297.273438 C 91.386719 245.035156 107.179688 199.582031 147.777344 164.628906 C 151.730469 161.574219 155.84375 158.753906 160.117188 156.164062 Z M 169.804688 323.3125 C 201.683594 323.3125 231.820312 315.234375 261.242188 303.929688 C 261.984375 303.726562 262.707031 303.460938 263.402344 303.132812 C 264.097656 302.804688 264.761719 302.414062 265.386719 301.96875 C 266.015625 301.519531 266.597656 301.019531 267.132812 300.46875 C 267.671875 299.917969 268.15625 299.320312 268.585938 298.683594 C 269.019531 298.042969 269.390625 297.371094 269.699219 296.667969 C 270.011719 295.960938 270.257812 295.234375 270.4375 294.484375 C 270.617188 293.738281 270.730469 292.976562 270.777344 292.210938 C 270.820312 291.441406 270.796875 290.671875 270.707031 289.90625 C 270.058594 277.429688 268.359375 265.097656 265.605469 252.910156 C 262.847656 240.726562 259.082031 228.859375 254.296875 217.316406 C 252.664062 212.980469 250.730469 208.78125 248.507812 204.71875 C 246.28125 200.652344 243.78125 196.761719 241.007812 193.050781 C 238.234375 189.335938 235.214844 185.835938 231.953125 182.546875 C 228.6875 179.257812 225.207031 176.214844 221.515625 173.414062 C 212.828125 166.953125 203.882812 161.496094 192.15625 163.175781 C 188.117188 163.496094 184.125 163.203125 180.175781 162.300781 C 178.195312 161.910156 176.207031 161.871094 174.210938 162.1875 C 172.21875 162.503906 170.339844 163.15625 168.578125 164.144531 C 161.835938 167.597656 155.808594 172.023438 150.492188 177.421875 C 117.160156 212.957031 101.691406 254.953125 106.050781 303.929688 C 106.050781 304.679688 106.117188 305.425781 106.25 306.167969 C 106.382812 306.90625 106.578125 307.628906 106.835938 308.335938 C 107.09375 309.042969 107.410156 309.71875 107.785156 310.371094 C 108.160156 311.023438 108.59375 311.636719 109.074219 312.210938 C 109.558594 312.785156 110.089844 313.316406 110.664062 313.800781 C 111.238281 314.28125 111.851562 314.714844 112.503906 315.089844 C 113.15625 315.464844 113.832031 315.78125 114.539062 316.039062 C 115.246094 316.296875 115.96875 316.492188 116.707031 316.625 C 134.097656 321.582031 151.828125 323.8125 169.902344 323.3125 Z M 189.445312 151.253906 C 191.113281 151.265625 192.78125 151.195312 194.445312 151.046875 C 196.109375 150.894531 197.761719 150.664062 199.402344 150.351562 C 201.042969 150.035156 202.664062 149.644531 204.269531 149.171875 C 205.871094 148.699219 207.445312 148.148438 208.996094 147.523438 C 210.542969 146.894531 212.058594 146.195312 213.539062 145.417969 C 215.019531 144.644531 216.457031 143.796875 217.851562 142.878906 C 219.25 141.964844 220.597656 140.980469 221.898438 139.933594 C 223.199219 138.882812 224.445312 137.773438 225.636719 136.601562 C 226.828125 135.429688 227.960938 134.203125 229.03125 132.921875 C 230.105469 131.640625 231.109375 130.308594 232.050781 128.925781 C 232.992188 127.546875 233.863281 126.121094 234.664062 124.65625 C 235.464844 123.1875 236.191406 121.6875 236.847656 120.148438 C 237.5 118.613281 238.078125 117.046875 238.578125 115.453125 C 239.078125 113.855469 239.5 112.242188 239.839844 110.605469 C 240.183594 108.96875 240.441406 107.320312 240.621094 105.660156 C 240.804688 104 240.902344 102.332031 240.917969 100.664062 C 240.933594 98.992188 240.871094 97.324219 240.722656 95.660156 C 240.578125 93.996094 240.347656 92.339844 240.039062 90.699219 C 239.730469 89.054688 239.34375 87.433594 238.875 85.828125 C 238.40625 84.226562 237.859375 82.648438 237.238281 81.097656 C 236.613281 79.546875 235.917969 78.03125 235.144531 76.546875 C 234.375 75.066406 233.53125 73.625 232.621094 72.226562 C 231.707031 70.824219 230.726562 69.472656 229.683594 68.171875 C 228.636719 66.867188 227.53125 65.617188 226.363281 64.421875 C 225.195312 63.226562 223.972656 62.09375 222.691406 61.019531 C 221.414062 59.941406 220.085938 58.933594 218.707031 57.988281 C 217.328125 57.042969 215.90625 56.167969 214.441406 55.363281 C 212.980469 54.558594 211.480469 53.828125 209.941406 53.167969 C 208.40625 52.511719 206.84375 51.929688 205.25 51.425781 C 203.65625 50.921875 202.042969 50.496094 200.410156 50.148438 C 198.773438 49.804688 197.128906 49.539062 195.46875 49.355469 C 193.804688 49.167969 192.140625 49.066406 190.46875 49.046875 C 188.800781 49.023438 187.132812 49.085938 185.46875 49.226562 C 183.804688 49.371094 182.148438 49.59375 180.507812 49.898438 C 178.863281 50.203125 177.238281 50.589844 175.636719 51.050781 C 174.03125 51.515625 172.453125 52.058594 170.898438 52.675781 C 169.347656 53.296875 167.832031 53.988281 166.347656 54.757812 C 164.863281 55.523438 163.417969 56.363281 162.019531 57.273438 C 160.617188 58.183594 159.261719 59.160156 157.957031 60.199219 C 156.652344 61.242188 155.398438 62.347656 154.203125 63.511719 C 153.003906 64.675781 151.867188 65.898438 150.789062 67.175781 C 149.710938 68.449219 148.695312 69.777344 147.75 71.152344 C 146.800781 72.53125 145.921875 73.949219 145.113281 75.410156 C 144.304688 76.875 143.570312 78.371094 142.910156 79.90625 C 142.246094 81.441406 141.660156 83.003906 141.152344 84.59375 C 140.644531 86.1875 140.214844 87.800781 139.867188 89.433594 C 139.515625 91.066406 139.246094 92.714844 139.058594 94.375 C 138.867188 96.035156 138.761719 97.699219 138.734375 99.371094 C 138.730469 101.046875 138.804688 102.722656 138.960938 104.390625 C 139.117188 106.0625 139.351562 107.71875 139.671875 109.367188 C 139.988281 111.011719 140.386719 112.640625 140.859375 114.246094 C 141.335938 115.855469 141.890625 117.4375 142.519531 118.988281 C 143.148438 120.542969 143.851562 122.0625 144.628906 123.550781 C 145.40625 125.035156 146.257812 126.480469 147.175781 127.882812 C 148.09375 129.285156 149.078125 130.640625 150.125 131.949219 C 151.175781 133.253906 152.289062 134.507812 153.460938 135.707031 C 154.632812 136.90625 155.859375 138.046875 157.140625 139.125 C 158.425781 140.203125 159.757812 141.21875 161.136719 142.167969 C 162.519531 143.121094 163.945312 144 165.410156 144.8125 C 166.878906 145.621094 168.382812 146.359375 169.921875 147.027344 C 171.460938 147.691406 173.027344 148.28125 174.625 148.792969 C 176.21875 149.304688 177.835938 149.738281 179.476562 150.09375 C 181.113281 150.449219 182.765625 150.722656 184.429688 150.914062 C 186.097656 151.109375 187.765625 151.222656 189.445312 151.253906 Z M 189.445312 151.253906 " fill-opacity="1" fill-rule="nonzero"/></g><path fill="#000000" d="M 141.640625 212.730469 C 136.925781 230.917969 134.667969 247.328125 131.628906 263.578125 C 131.308594 265.324219 130.5625 267.421875 128.398438 267.746094 C 126.785156 267.972656 126.398438 266.195312 125.945312 265.097656 C 121.941406 255.535156 131.308594 221.550781 141.640625 212.730469 Z M 141.640625 212.730469 " fill-opacity="1" fill-rule="nonzero"/><path fill="#000000" d="M 143.710938 252.59375 C 143.324219 251.851562 142.996094 251.082031 142.726562 250.289062 C 142.453125 249.496094 142.242188 248.6875 142.085938 247.863281 C 141.933594 247.039062 141.84375 246.210938 141.8125 245.371094 C 141.78125 244.535156 141.808594 243.699219 141.902344 242.867188 C 141.992188 242.035156 142.144531 241.210938 142.355469 240.402344 C 142.570312 239.589844 142.839844 238.800781 143.167969 238.027344 C 143.496094 237.257812 143.878906 236.515625 144.316406 235.800781 C 144.753906 235.082031 145.238281 234.40625 145.777344 233.761719 C 146.488281 239.738281 147.519531 245.714844 143.710938 252.59375 Z M 143.710938 252.59375 " fill-opacity="1" fill-rule="nonzero"/><path fill="#000000" d="M 160.535156 78.890625 C 159.210938 89.292969 162.152344 98.953125 158.46875 108.707031 C 157.996094 108.195312 157.550781 107.660156 157.132812 107.101562 C 156.714844 106.542969 156.324219 105.964844 155.964844 105.367188 C 155.605469 104.769531 155.277344 104.152344 154.980469 103.523438 C 154.683594 102.890625 154.417969 102.246094 154.1875 101.589844 C 153.957031 100.929688 153.757812 100.261719 153.59375 99.582031 C 153.429688 98.902344 153.304688 98.21875 153.210938 97.527344 C 153.117188 96.835938 153.058594 96.140625 153.035156 95.445312 C 153.011719 94.746094 153.027344 94.050781 153.074219 93.351562 C 153.121094 92.65625 153.207031 91.964844 153.324219 91.277344 C 153.441406 90.589844 153.597656 89.910156 153.785156 89.238281 C 153.972656 88.566406 154.195312 87.90625 154.449219 87.253906 C 154.703125 86.605469 154.992188 85.972656 155.3125 85.351562 C 155.632812 84.730469 155.984375 84.128906 156.363281 83.542969 C 156.746094 82.960938 157.15625 82.398438 157.59375 81.855469 C 158.035156 81.3125 158.5 80.792969 158.992188 80.296875 C 159.480469 79.800781 159.996094 79.332031 160.535156 78.890625 Z M 160.535156 78.890625 " fill-opacity="1" fill-rule="nonzero"/></svg>