<svg xmlns="http://www.w3.org/2000/svg" xmlns:xlink="http://www.w3.org/1999/xlink" width="500" zoomAndPan="magnify" viewBox="0 0 375 374.999991" height="500" preserveAspectRatio="xMidYMid meet" version="1.0"><defs><clipPath id="d4e32e35c9"><path d="M 78 92 L 297.296875 92 L 297.296875 283.183594 L 78 283.183594 Z M 78 92 " clip-rule="nonzero"/></clipPath></defs><g clip-path="url(#d4e32e35c9)"><path fill="#000000" d="M 296.886719 126.128906 C 296.722656 122.515625 296.683594 118.679688 295.726562 115.179688 C 295.085938 112.710938 293.882812 110.355469 291.820312 108.765625 C 289.929688 107.429688 287.851562 106.53125 285.582031 106.074219 C 280.308594 104.792969 274.957031 103.734375 269.632812 102.679688 C 247.445312 98.304688 225.082031 95.253906 202.535156 93.535156 C 191.34375 92.691406 180.136719 92.199219 168.910156 92.0625 C 163.355469 91.984375 157.800781 91.984375 152.246094 92.0625 C 149.414062 92.105469 146.582031 92.171875 143.75 92.261719 C 141.269531 92.335938 138.371094 92.085938 136.058594 93.132812 C 133.746094 94.179688 132.65625 96.5 131.765625 98.671875 C 130.761719 101.140625 129.925781 103.664062 129.257812 106.242188 C 127.980469 111.382812 127.085938 116.589844 126.574219 121.863281 C 125.613281 130.722656 124.957031 139.617188 124.394531 148.515625 C 123.234375 166.804688 122.472656 185.183594 122.816406 203.511719 C 122.886719 207.25 123.011719 211 123.214844 214.734375 C 123.214844 215.285156 123.503906 216.144531 124.1875 216.140625 C 124.875 216.132812 125.113281 215.207031 125.09375 214.6875 C 124.355469 197.464844 124.964844 180.148438 125.847656 162.9375 C 126.296875 154.191406 126.886719 145.453125 127.613281 136.714844 C 128.394531 127.304688 128.996094 117.621094 131.398438 108.4375 C 132.0625 105.863281 132.902344 103.351562 133.917969 100.898438 C 134.726562 98.972656 135.648438 97.214844 137.859375 96.769531 C 139.058594 96.589844 140.261719 96.511719 141.472656 96.535156 L 145.550781 96.4375 C 148.390625 96.378906 151.226562 96.34375 154.054688 96.335938 C 165.050781 96.277344 176.046875 96.546875 187.039062 97.144531 C 209.140625 98.296875 231.109375 100.710938 252.9375 104.375 C 258.386719 105.300781 263.820312 106.304688 269.242188 107.390625 C 274.539062 108.449219 279.878906 109.484375 285.113281 110.816406 C 287.089844 111.324219 289.160156 111.953125 290.722656 113.328125 C 292.285156 114.699219 292.785156 116.535156 293.09375 118.460938 C 293.484375 121.535156 293.695312 124.621094 293.734375 127.71875 C 294.253906 142.28125 293.605469 156.898438 292.785156 171.4375 C 292.683594 173.210938 292.582031 174.988281 292.472656 176.757812 C 292.472656 177.136719 292.425781 177.515625 292.402344 177.894531 C 292.402344 178.007812 292.402344 178.195312 292.402344 178.242188 C 292.402344 178.453125 292.371094 178.671875 292.355469 178.882812 C 292.300781 179.789062 292.242188 180.691406 292.175781 181.597656 C 291.972656 184.660156 291.757812 187.722656 291.535156 190.785156 C 291.203125 195.105469 290.855469 199.429688 290.414062 203.742188 C 290.164062 206.238281 289.871094 208.722656 289.640625 211.21875 C 289.355469 215.289062 288.816406 219.328125 288.023438 223.332031 C 288.023438 223.378906 288.023438 223.417969 288.023438 223.449219 C 288.023438 223.480469 288.023438 223.511719 288.023438 223.558594 C 287.96875 223.757812 287.914062 223.960938 287.859375 224.160156 C 287.742188 224.546875 287.621094 224.925781 287.480469 225.296875 C 287.414062 225.46875 287.351562 225.648438 287.273438 225.824219 L 287.140625 226.128906 C 286.996094 226.410156 286.835938 226.683594 286.664062 226.945312 C 286.613281 227.023438 286.558594 227.09375 286.503906 227.164062 L 286.34375 227.347656 C 286.179688 227.507812 286.007812 227.65625 285.828125 227.796875 C 284.933594 228.394531 283.957031 228.773438 282.898438 228.941406 C 280.582031 229.222656 278.269531 229.183594 275.964844 228.824219 C 273.148438 228.515625 270.335938 228.214844 267.53125 227.914062 C 245.691406 225.597656 223.804688 223.710938 201.90625 222.140625 C 180.007812 220.566406 158.210938 219.238281 136.351562 217.988281 C 130.957031 217.679688 125.5625 217.421875 120.164062 217.128906 C 119.003906 217.0625 118.464844 218.628906 118.414062 219.648438 C 118.34375 219.691406 118.28125 219.746094 118.230469 219.808594 C 107.175781 232.917969 95.800781 245.773438 84.769531 258.875 C 81.859375 262.328125 77.542969 266.128906 78.835938 271.152344 C 80.117188 276.078125 85.636719 276.671875 89.851562 277.183594 C 95.542969 277.871094 101.292969 278 107.015625 278.199219 L 124.246094 278.792969 L 193.191406 281.175781 L 227.65625 282.363281 L 244.894531 282.957031 C 249.867188 283.132812 254.886719 283.183594 258.5625 279.292969 C 261.359375 276.34375 263.191406 272.503906 265.375 269.105469 C 267.652344 265.570312 270.011719 262.089844 272.375 258.621094 C 277.257812 251.453125 282.226562 244.328125 286.78125 236.949219 C 287.730469 235.421875 288.550781 233.851562 289.429688 232.289062 C 289.914062 231.40625 290.015625 230.480469 289.734375 229.511719 C 290.519531 227.890625 291.085938 226.195312 291.433594 224.429688 C 292.371094 220.265625 292.65625 215.960938 293.050781 211.71875 C 293.441406 207.476562 293.921875 203.375 294.273438 199.167969 C 294.761719 193.328125 295.1875 187.484375 295.554688 181.636719 C 296.527344 166.472656 297.292969 151.265625 297.207031 136.074219 C 297.105469 132.75 297.042969 129.441406 296.886719 126.128906 Z M 280.898438 238.234375 C 278.570312 241.789062 276.1875 245.292969 273.792969 248.800781 C 269.226562 255.488281 264.582031 262.15625 260.382812 269.085938 C 258.261719 272.589844 256.277344 276.511719 251.90625 277.425781 C 249.546875 277.921875 247.0625 277.730469 244.671875 277.644531 L 236.339844 277.375 L 202.699219 276.265625 L 135.867188 274.070312 C 124.730469 273.703125 113.601562 273.335938 102.46875 272.96875 C 97.09375 272.789062 91.613281 272.632812 86.308594 271.683594 C 84.710938 271.390625 82.90625 270.894531 81.867188 269.613281 C 81.929688 269.6875 81.757812 269.335938 81.765625 269.496094 C 81.792969 269.128906 81.90625 268.789062 82.105469 268.476562 C 82.6875 267.476562 83.34375 266.527344 84.070312 265.625 C 88.921875 258.945312 94.324219 252.644531 99.5625 246.265625 C 105.046875 239.597656 110.628906 232.972656 115.890625 226.125 C 116.933594 224.761719 117.964844 223.390625 119 222.011719 C 119.300781 222.417969 119.703125 222.628906 120.210938 222.652344 C 142.679688 223.882812 165.152344 225.121094 187.613281 226.578125 C 209.738281 228.015625 231.835938 229.699219 253.925781 231.804688 C 259.617188 232.34375 265.308594 232.914062 271.003906 233.515625 C 273.664062 233.792969 276.328125 234.15625 279 234.3125 C 280.566406 234.417969 282.121094 234.316406 283.660156 234.011719 C 282.742188 235.433594 281.816406 236.839844 280.898438 238.234375 Z M 137.28125 195.175781 C 137.921875 197.640625 138.980469 200.070312 140.84375 201.808594 C 141.316406 203.480469 142.195312 204.902344 143.480469 206.070312 C 144.625 207.03125 145.90625 207.746094 147.324219 208.214844 C 150.527344 209.351562 154.074219 209.496094 157.445312 209.84375 C 165.847656 210.699219 174.253906 211.582031 182.660156 212.488281 C 199.496094 214.253906 216.339844 215.984375 233.207031 217.460938 C 241.578125 218.203125 249.960938 218.863281 258.347656 219.445312 C 260.480469 219.589844 262.613281 219.738281 264.753906 219.867188 C 266.386719 220 268.011719 219.976562 269.636719 219.796875 C 271.425781 219.601562 273.0625 219 274.554688 217.992188 C 276.121094 216.800781 277.257812 215.28125 277.957031 213.4375 C 279.15625 210.613281 279.570312 207.386719 280.109375 204.382812 C 280.648438 201.378906 281.085938 198.519531 281.5 195.578125 C 282.441406 188.859375 283.1875 182.105469 283.820312 175.359375 C 284.519531 167.886719 285.085938 160.398438 285.519531 152.898438 C 285.941406 145.679688 286.359375 138.4375 286.433594 131.199219 C 286.484375 129.175781 286.167969 127.214844 285.484375 125.316406 C 284.796875 123.414062 283.789062 121.703125 282.460938 120.179688 C 280.246094 117.78125 277.039062 116.597656 273.914062 115.9375 C 270.125 115.109375 266.28125 114.730469 262.488281 114.21875 C 258.179688 113.636719 253.890625 113.078125 249.617188 112.542969 C 232.628906 110.40625 215.601562 108.617188 198.527344 107.328125 C 189.9375 106.664062 181.332031 106.140625 172.714844 105.761719 C 168.441406 105.582031 164.171875 105.4375 159.898438 105.324219 C 155.996094 105.222656 151.933594 104.863281 148.132812 105.964844 C 141.402344 107.890625 138.921875 115.015625 138.089844 121.277344 C 137.582031 125.128906 137.449219 129.027344 137.230469 132.898438 C 136.984375 137.175781 136.769531 141.472656 136.589844 145.789062 C 136.289062 154.375 136.15625 162.972656 136.1875 171.578125 C 136.1875 175.929688 136.257812 180.289062 136.386719 184.644531 C 136.46875 188.140625 136.417969 191.761719 137.28125 195.175781 Z M 144.890625 200.609375 C 144.964844 200.699219 145.113281 200.917969 144.890625 200.609375 Z M 139.261719 157.328125 C 139.453125 148.984375 139.804688 140.644531 140.308594 132.300781 C 140.519531 128.855469 140.660156 125.371094 141.160156 121.953125 C 141.570312 119.152344 142.152344 116.636719 143.691406 114.308594 C 144.367188 113.277344 145.222656 112.421875 146.253906 111.742188 C 147.730469 110.835938 149.332031 110.304688 151.054688 110.144531 C 154.839844 109.707031 158.746094 110.074219 162.589844 110.203125 C 170.933594 110.484375 179.265625 110.898438 187.582031 111.441406 C 204.117188 112.542969 220.652344 114.097656 237.128906 116.027344 C 245.367188 116.996094 253.601562 118.046875 261.828125 119.183594 C 265.503906 119.691406 269.242188 120.070312 272.882812 120.828125 C 275.734375 121.425781 278.648438 122.335938 280.679688 124.492188 C 281.078125 124.992188 281.441406 125.511719 281.769531 126.058594 C 281.878906 126.261719 282.082031 126.699219 282.207031 126.996094 C 282.328125 127.289062 282.371094 127.40625 282.449219 127.636719 L 282.5625 127.976562 C 282.5625 128.023438 282.5625 128.078125 282.617188 128.164062 C 282.71875 128.554688 282.800781 128.9375 282.871094 129.335938 C 282.902344 129.535156 282.9375 129.734375 282.960938 129.933594 L 282.960938 130.101562 C 283.007812 130.96875 282.960938 131.832031 282.960938 132.699219 C 282.859375 136.203125 282.726562 139.710938 282.558594 143.21875 C 282.476562 144.929688 282.386719 146.636719 282.289062 148.351562 C 282.230469 149.261719 282.179688 150.167969 282.121094 151.078125 C 282.089844 151.640625 282.039062 152.433594 281.976562 153.382812 C 281.734375 156.9375 281.46875 160.492188 281.171875 164.046875 C 280.101562 176.925781 278.75 189.828125 276.464844 202.546875 C 276.234375 203.832031 275.996094 205.113281 275.734375 206.398438 C 275.597656 207.070312 275.445312 207.738281 275.304688 208.414062 C 275.300781 208.429688 275.300781 208.449219 275.304688 208.464844 C 275.304688 208.496094 275.304688 208.527344 275.269531 208.574219 C 275.21875 208.734375 275.183594 208.894531 275.128906 209.0625 C 274.984375 209.542969 274.804688 210.003906 274.628906 210.480469 L 274.539062 210.679688 C 274.484375 210.789062 274.433594 210.898438 274.367188 211 C 274.246094 211.210938 274.113281 211.417969 273.984375 211.640625 L 273.847656 211.832031 C 273.429688 212.359375 272.921875 212.789062 272.335938 213.117188 C 270.980469 213.800781 269.542969 214.136719 268.023438 214.125 C 264.351562 214.277344 260.613281 213.796875 256.957031 213.539062 C 252.871094 213.257812 248.792969 212.949219 244.714844 212.617188 C 228.320312 211.300781 211.949219 209.695312 195.585938 208.003906 C 187.5 207.148438 179.410156 206.292969 171.324219 205.4375 L 159.148438 204.152344 L 153.15625 203.511719 C 151.832031 203.398438 150.53125 203.167969 149.246094 202.824219 C 148.628906 202.660156 148.027344 202.460938 147.433594 202.226562 C 147.113281 202.09375 146.792969 201.953125 146.496094 201.796875 L 146.253906 201.664062 C 146.316406 201.664062 145.960938 201.484375 145.933594 201.464844 C 145.710938 201.316406 145.496094 201.160156 145.292969 200.988281 C 145.152344 200.867188 145.023438 200.738281 144.890625 200.609375 C 144.753906 200.480469 144.523438 200.046875 144.492188 200.03125 C 144.363281 199.71875 144.195312 199.257812 144.351562 199.808594 C 144.0625 198.789062 143.28125 197.273438 141.964844 197.84375 C 141.785156 197.925781 141.628906 198.035156 141.492188 198.179688 C 140.40625 196.507812 139.765625 194.679688 139.570312 192.699219 C 139.089844 189.605469 139.210938 185.742188 139.179688 182.355469 C 139.082031 174.003906 139.078125 165.667969 139.261719 157.328125 Z M 254.289062 236.75 C 233.597656 235.371094 212.949219 233.464844 192.253906 232.128906 C 182 231.488281 171.703125 230.941406 161.417969 230.847656 C 156.328125 230.785156 151.238281 230.824219 146.152344 230.960938 C 143.554688 231.035156 140.957031 231.136719 138.363281 231.265625 C 135.996094 231.3125 133.648438 231.542969 131.316406 231.949219 C 128.832031 232.394531 126.539062 233.3125 124.4375 234.710938 C 122.667969 235.953125 121.105469 237.425781 119.753906 239.117188 C 116.929688 242.628906 114.992188 246.773438 113.347656 250.933594 C 113.160156 251.398438 113.226562 251.828125 113.542969 252.214844 C 113.710938 252.398438 113.910156 252.441406 114.140625 252.351562 C 113.757812 253.773438 114.28125 255.808594 115.683594 255.820312 C 135.890625 255.957031 156.089844 256.339844 176.292969 257.105469 C 186.285156 257.46875 196.269531 257.894531 206.25 258.386719 C 211.242188 258.632812 216.234375 258.894531 221.226562 259.171875 C 223.792969 259.3125 226.335938 259.460938 228.867188 259.613281 C 231.21875 259.753906 233.597656 260.019531 235.949219 259.933594 C 237.160156 259.929688 238.332031 259.71875 239.46875 259.300781 C 240.609375 258.886719 241.640625 258.289062 242.570312 257.507812 C 244.605469 255.75 246.363281 253.582031 248.195312 251.617188 C 250.027344 249.65625 251.957031 247.769531 253.597656 245.644531 C 255.238281 243.519531 256.335938 240.871094 255.609375 238.179688 C 255.386719 237.519531 255.050781 236.800781 254.289062 236.75 Z M 243.113281 239.777344 C 241.886719 241.433594 240.640625 243.070312 239.371094 244.683594 C 235.960938 244.628906 232.550781 244.425781 229.148438 244.128906 C 229.980469 242.398438 230.777344 240.644531 231.519531 238.875 Z M 220.683594 238.046875 L 229.257812 238.6875 C 228.375 240.441406 227.445312 242.167969 226.46875 243.859375 C 223.675781 243.578125 220.886719 243.25 218.101562 242.898438 C 218.882812 241.539062 219.664062 240.171875 220.453125 238.816406 C 220.582031 238.578125 220.65625 238.320312 220.675781 238.046875 Z M 203.886719 238.1875 C 204.113281 237.753906 204.210938 237.296875 204.175781 236.808594 C 208.964844 237.15625 213.75 237.515625 218.53125 237.886719 C 217.492188 239.445312 216.457031 241.003906 215.429688 242.570312 C 211.089844 242.011719 206.75 241.441406 202.414062 240.972656 C 202.886719 240.042969 203.375 239.113281 203.878906 238.1875 Z M 179.039062 235.289062 C 186.632812 235.640625 194.214844 236.109375 201.796875 236.640625 C 201.054688 237.984375 200.328125 239.335938 199.613281 240.691406 C 198.972656 240.632812 198.332031 240.570312 197.726562 240.515625 C 195.496094 240.332031 193.242188 240.183594 191.03125 240.09375 C 191.292969 239.617188 191.542969 239.136719 191.8125 238.667969 C 191.976562 238.375 192.054688 238.058594 192.046875 237.722656 C 192.039062 237.382812 191.941406 237.074219 191.761719 236.789062 C 191.628906 236.542969 191.425781 236.421875 191.144531 236.421875 C 190.867188 236.421875 190.664062 236.542969 190.53125 236.789062 C 189.890625 237.847656 189.25 238.90625 188.609375 239.996094 C 187.589844 239.996094 186.5625 239.957031 185.546875 239.996094 C 182.820312 239.996094 180.109375 240.171875 177.398438 240.375 C 177.964844 239.316406 178.511719 238.246094 179.046875 237.167969 C 179.203125 236.871094 179.277344 236.558594 179.277344 236.226562 C 179.273438 235.890625 179.195312 235.578125 179.035156 235.289062 Z M 159.257812 234.691406 C 165.394531 234.761719 171.53125 234.953125 177.664062 235.222656 C 176.714844 237.03125 175.71875 238.8125 174.675781 240.5625 L 172.925781 240.710938 C 169.253906 241.011719 165.582031 241.125 161.902344 241.152344 C 162.417969 240.152344 162.929688 239.148438 163.449219 238.148438 C 163.632812 237.816406 163.71875 237.460938 163.710938 237.082031 C 163.703125 236.699219 163.597656 236.347656 163.398438 236.023438 C 163.246094 235.746094 163.015625 235.609375 162.699219 235.609375 C 162.382812 235.609375 162.148438 235.746094 162 236.023438 C 161.109375 237.738281 160.191406 239.433594 159.269531 241.121094 C 155.425781 241.121094 151.578125 240.992188 147.734375 240.871094 L 145.851562 240.804688 C 146.59375 239.433594 147.335938 238.054688 148.09375 236.6875 C 148.269531 236.375 148.355469 236.042969 148.347656 235.683594 C 148.339844 235.328125 148.238281 235 148.046875 234.695312 C 151.792969 234.652344 155.527344 234.652344 159.257812 234.691406 Z M 135.546875 235.191406 L 136.507812 235.128906 C 139.007812 234.984375 141.503906 234.894531 144.011719 234.824219 L 146.726562 234.761719 C 145.566406 236.769531 144.410156 238.773438 143.230469 240.761719 C 139.902344 240.664062 136.578125 240.574219 133.257812 240.535156 L 135.390625 236.308594 C 135.570312 235.953125 135.625 235.582031 135.546875 235.191406 Z M 124.183594 238.398438 C 125.898438 237.246094 127.761719 236.4375 129.777344 235.980469 C 131.179688 235.660156 132.597656 235.445312 134.03125 235.339844 C 133.011719 237.070312 131.996094 238.804688 130.980469 240.542969 C 127.894531 240.542969 124.796875 240.542969 121.710938 240.640625 C 122.464844 239.804688 123.292969 239.050781 124.195312 238.378906 Z M 125.933594 251.148438 C 122.460938 251.085938 118.988281 251.03125 115.519531 250.988281 C 115.289062 250.992188 115.074219 251.054688 114.878906 251.175781 C 116.363281 248.203125 118.070312 245.363281 120.003906 242.660156 C 123.144531 242.914062 126.285156 243.101562 129.425781 243.226562 L 127.734375 246.171875 C 126.96875 247.492188 125.863281 248.867188 125.8125 250.429688 C 125.804688 250.679688 125.847656 250.917969 125.933594 251.148438 Z M 182.238281 252.78125 C 170.960938 252.316406 159.671875 251.945312 148.382812 251.65625 C 141.53125 251.460938 134.671875 251.292969 127.804688 251.148438 C 128.039062 250.761719 128.25 250.367188 128.445312 249.957031 L 129.40625 248.09375 L 131.40625 244.246094 C 131.570312 243.929688 131.726562 243.605469 131.890625 243.300781 C 135.140625 243.417969 138.390625 243.480469 141.640625 243.53125 L 141.128906 244.40625 C 140.449219 245.546875 139.609375 246.683594 139.3125 247.992188 C 139.113281 248.851562 139.832031 250.59375 140.890625 249.75 C 141.355469 249.25 141.710938 248.679688 141.953125 248.039062 L 142.785156 246.480469 L 144.351562 243.550781 L 144.742188 243.550781 C 149.097656 243.605469 153.464844 243.75 157.828125 243.800781 C 157.527344 244.339844 157.230469 244.878906 156.9375 245.417969 C 156.25 246.515625 155.636719 247.648438 155.105469 248.828125 C 154.957031 249.214844 154.917969 249.617188 154.980469 250.027344 C 155.046875 250.4375 155.207031 250.804688 155.464844 251.128906 C 155.5625 251.25 155.6875 251.339844 155.832031 251.398438 C 155.976562 251.457031 156.125 251.480469 156.28125 251.460938 C 156.4375 251.445312 156.578125 251.390625 156.707031 251.300781 C 156.835938 251.210938 156.9375 251.097656 157.007812 250.957031 C 157.339844 250.414062 157.625 249.84375 157.859375 249.25 L 158.585938 247.800781 C 159.125 246.710938 159.667969 245.617188 160.210938 244.527344 L 160.570312 243.820312 C 163.722656 243.820312 166.875 243.746094 170.015625 243.507812 C 171.011719 243.4375 172.003906 243.351562 172.996094 243.269531 C 171.941406 244.90625 170.824219 246.511719 169.632812 248.0625 C 169.390625 248.476562 169.277344 248.917969 169.289062 249.394531 C 169.304688 249.871094 169.441406 250.308594 169.703125 250.707031 C 169.894531 251.050781 170.1875 251.214844 170.582031 251.203125 C 170.972656 251.195312 171.257812 251.015625 171.433594 250.664062 C 172.957031 248.136719 174.453125 245.59375 175.917969 243.027344 C 178.125 242.839844 180.328125 242.679688 182.539062 242.609375 C 184.050781 242.5625 185.5625 242.5625 187.082031 242.609375 C 186.78125 243.121094 186.472656 243.636719 186.179688 244.15625 C 185.488281 245.371094 184.804688 246.585938 184.136719 247.808594 C 183.4375 249.089844 182.417969 250.535156 182.210938 251.992188 C 182.183594 252.246094 182.195312 252.496094 182.25 252.746094 Z M 209.371094 254.0625 C 208.597656 254.023438 207.828125 253.972656 207.050781 253.929688 C 199.523438 253.511719 191.992188 253.164062 184.457031 252.84375 C 184.628906 252.511719 184.777344 252.144531 184.9375 251.824219 L 185.820312 250.035156 C 186.449219 248.75 187.089844 247.464844 187.742188 246.183594 C 188.359375 244.988281 188.984375 243.800781 189.621094 242.617188 C 191.371094 242.679688 193.125 242.761719 194.875 242.890625 C 196.015625 242.96875 197.152344 243.066406 198.285156 243.167969 C 197.867188 243.988281 197.445312 244.808594 197.035156 245.636719 C 196.394531 246.804688 195.832031 248.007812 195.34375 249.246094 C 195.1875 249.664062 195.144531 250.09375 195.210938 250.535156 C 195.28125 250.976562 195.453125 251.375 195.726562 251.726562 C 195.835938 251.859375 195.964844 251.957031 196.121094 252.023438 C 196.28125 252.085938 196.441406 252.109375 196.609375 252.089844 C 196.78125 252.070312 196.933594 252.011719 197.070312 251.914062 C 197.210938 251.8125 197.316406 251.6875 197.386719 251.535156 C 198.027344 250.386719 198.496094 249.089844 199.042969 247.882812 C 199.515625 246.835938 199.988281 245.804688 200.484375 244.773438 C 200.695312 244.328125 200.917969 243.886719 201.125 243.441406 C 205.355469 243.886719 209.570312 244.4375 213.789062 244.988281 C 213.046875 246.132812 212.308594 247.273438 211.570312 248.410156 L 210.339844 250.335938 C 209.753906 251.058594 209.375 251.875 209.207031 252.792969 C 209.175781 253.230469 209.238281 253.652344 209.386719 254.0625 Z M 220.222656 254.320312 C 220.207031 254.445312 220.207031 254.574219 220.222656 254.699219 L 211.488281 254.191406 C 211.746094 253.800781 211.980469 253.398438 212.199219 252.984375 L 213.292969 251.125 L 215.722656 247.003906 C 216.035156 246.472656 216.363281 245.925781 216.660156 245.386719 L 219.253906 245.722656 C 221.175781 245.964844 223.066406 246.191406 224.96875 246.394531 C 224.328125 247.492188 223.636719 248.578125 222.933594 249.648438 C 221.992188 251.066406 220.503906 252.613281 220.234375 254.320312 Z M 231.359375 255.429688 L 229.039062 255.257812 L 223.085938 254.878906 L 223.3125 254.519531 C 223.765625 253.8125 224.207031 253.105469 224.644531 252.386719 C 225.539062 250.917969 226.417969 249.425781 227.207031 247.898438 L 227.847656 246.683594 C 230.953125 246.992188 234.070312 247.21875 237.199219 247.363281 C 236.449219 248.28125 235.691406 249.199219 234.929688 250.105469 C 233.832031 251.386719 232.597656 252.605469 231.628906 253.988281 C 231.359375 254.433594 231.277344 254.917969 231.371094 255.429688 Z M 252.820312 241.011719 C 252.320312 241.921875 251.703125 242.75 250.976562 243.496094 C 249.355469 245.253906 247.675781 246.960938 246.035156 248.691406 C 244.394531 250.425781 242.953125 252.15625 241.242188 253.679688 C 240.484375 254.320312 239.640625 254.808594 238.703125 255.140625 C 237.769531 255.472656 236.804688 255.625 235.8125 255.601562 C 235.21875 255.601562 234.617188 255.601562 234.011719 255.601562 C 234.832031 254.667969 235.570312 253.628906 236.320312 252.671875 C 237.378906 251.34375 238.410156 249.996094 239.433594 248.640625 L 240.273438 247.484375 C 242.414062 247.53125 244.554688 247.53125 246.683594 247.484375 C 247.964844 247.449219 247.894531 244.507812 246.613281 244.578125 C 245.171875 244.664062 243.734375 244.699219 242.304688 244.71875 C 243.332031 243.28125 244.339844 241.832031 245.332031 240.363281 C 245.402344 240.253906 245.449219 240.136719 245.476562 240.011719 C 247.984375 240.210938 250.488281 240.425781 252.996094 240.652344 C 252.941406 240.773438 252.886719 240.894531 252.820312 241.011719 Z M 200.234375 181.570312 C 200.464844 182.078125 200.976562 182.445312 201.46875 182.027344 C 201.613281 181.902344 201.714844 181.753906 201.777344 181.578125 C 201.929688 181.835938 202.148438 182.015625 202.433594 182.113281 C 202.71875 182.210938 203 182.203125 203.277344 182.089844 C 206.042969 180.882812 208.742188 179.535156 211.371094 178.046875 C 212.113281 179.757812 212.929688 181.449219 213.8125 183.117188 C 215.003906 185.351562 216.144531 187.671875 218.175781 189.253906 C 219.582031 190.34375 221.195312 189.894531 222.722656 189.253906 C 224.464844 188.535156 226.132812 187.679688 227.734375 186.683594 C 228.785156 186.042969 229.078125 184.644531 228.828125 183.476562 C 228.144531 180.359375 226.207031 177.515625 224.828125 174.671875 C 224.46875 173.921875 224.117188 173.164062 223.804688 172.394531 C 223.65625 172.035156 223.523438 171.664062 223.394531 171.296875 C 223.394531 171.257812 223.394531 171.238281 223.394531 171.214844 C 223.34375 171.0625 223.304688 170.90625 223.277344 170.746094 L 223.277344 170.65625 L 223.324219 170.609375 C 223.457031 170.472656 223.597656 170.347656 223.746094 170.226562 L 224.046875 169.996094 L 224.097656 169.957031 L 224.148438 169.957031 C 226.074219 168.722656 228.257812 168.03125 229.425781 165.914062 C 230.117188 164.683594 230.035156 162.628906 228.628906 161.910156 C 221.625 158.339844 214.664062 154.675781 207.480469 151.507812 C 205.167969 150.492188 202.835938 149.511719 200.433594 148.679688 C 199.554688 148.375 198.925781 149.371094 198.847656 150.121094 C 198.417969 154.226562 198.15625 158.21875 198.007812 162.3125 C 197.789062 166.710938 197.992188 171.089844 198.613281 175.449219 C 198.886719 177.558594 199.425781 179.601562 200.226562 181.570312 Z M 223.796875 180.882812 C 224.132812 181.527344 224.4375 182.207031 224.773438 182.878906 C 223.964844 183.316406 223.136719 183.734375 222.292969 184.097656 L 222.074219 184.1875 C 222.222656 183.648438 222.269531 183.101562 222.214844 182.546875 C 222.011719 180.621094 221.835938 178.695312 221.675781 176.769531 C 222.347656 178.1875 223.117188 179.5625 223.792969 180.882812 Z M 223.453125 164.144531 C 223.707031 164.277344 223.957031 164.417969 224.207031 164.558594 C 223.746094 164.78125 223.292969 165.027344 222.855469 165.296875 C 222.195312 165.710938 221.617188 166.214844 221.117188 166.8125 C 221.082031 165.574219 221.042969 164.335938 221.027344 163.097656 C 221.027344 163.011719 221.027344 162.921875 221.027344 162.839844 Z M 215.5 176.976562 C 215.722656 177.054688 215.953125 177.085938 216.191406 177.074219 C 216.253906 178.0625 216.324219 179.050781 216.394531 180.03125 C 216.363281 179.972656 216.332031 179.902344 216.300781 179.839844 C 215.875 179.035156 215.472656 178.222656 215.082031 177.398438 C 215.234375 177.265625 215.371094 177.121094 215.492188 176.957031 Z M 214.492188 159.457031 C 214.0625 159.769531 213.714844 160.15625 213.453125 160.621094 C 213.191406 161.082031 213.039062 161.578125 212.992188 162.109375 C 212.992188 162.417969 212.929688 162.75 212.902344 163.027344 L 211.203125 158.105469 C 211.160156 157.964844 211.097656 157.828125 211.027344 157.699219 C 212.1875 158.277344 213.339844 158.855469 214.484375 159.4375 Z M 209.628906 170.875 C 209.667969 170.65625 209.710938 170.4375 209.75 170.230469 C 210.039062 171.167969 210.332031 172.105469 210.621094 173.042969 C 209.339844 173.683594 208.058594 174.328125 206.777344 174.96875 C 206.820312 174.441406 206.867188 173.921875 206.917969 173.394531 C 207.101562 173.46875 207.296875 173.503906 207.496094 173.503906 C 208.78125 173.429688 209.429688 171.925781 209.621094 170.855469 Z M 204.316406 157.460938 C 204.285156 158.066406 204.316406 157.269531 204.316406 157.210938 C 204.355469 156.742188 204.40625 156.277344 204.457031 155.808594 C 204.457031 155.703125 204.5 155.289062 204.515625 155.070312 C 204.515625 155.160156 204.515625 155.109375 204.515625 154.882812 C 204.515625 154.820312 204.515625 154.757812 204.515625 154.695312 C 205.859375 155.304688 207.195312 155.921875 208.519531 156.550781 C 207.511719 156.929688 206.996094 158.117188 206.828125 159.117188 L 206.828125 159.253906 C 206.386719 158.316406 205.65625 157.496094 204.535156 157.75 C 204.441406 157.773438 204.347656 157.800781 204.257812 157.835938 C 204.296875 157.6875 204.308594 157.566406 204.316406 157.460938 Z M 200.554688 157.101562 C 200.734375 155.789062 200.894531 154.472656 201.066406 153.15625 L 201.835938 153.492188 C 201.753906 153.691406 201.585938 154.074219 201.566406 154.132812 C 201.433594 154.59375 201.296875 155.050781 201.175781 155.519531 C 200.898438 156.574219 200.683594 157.644531 200.535156 158.726562 C 200.226562 160.980469 200.070312 163.246094 200.066406 165.523438 C 200.066406 169.617188 200.46875 173.832031 201.988281 177.667969 C 201.636719 178.007812 201.40625 178.417969 201.296875 178.894531 C 200.335938 175.886719 200.144531 172.605469 200.054688 169.480469 C 199.878906 165.332031 200.046875 161.199219 200.554688 157.078125 Z M 176.148438 152.414062 C 176.113281 151.695312 176.464844 150.558594 177.328125 150.488281 C 178.523438 150.425781 179.71875 150.445312 180.910156 150.539062 C 181.589844 150.59375 182.261719 150.683594 182.929688 150.816406 L 183.726562 150.980469 C 184.046875 151.058594 184.351562 151.191406 184.628906 151.371094 C 184.925781 151.570312 185.148438 151.828125 185.296875 152.152344 C 185.445312 152.476562 185.496094 152.816406 185.449219 153.167969 C 185.472656 153.503906 185.386719 153.808594 185.191406 154.085938 C 185 154.359375 184.742188 154.542969 184.417969 154.632812 C 184.109375 154.683594 183.800781 154.683594 183.496094 154.632812 L 182.6875 154.53125 C 182.109375 154.464844 181.527344 154.394531 180.945312 154.335938 C 179.773438 154.214844 178.597656 154.167969 177.417969 154.195312 C 176.523438 154.253906 176.1875 153.085938 176.148438 152.386719 Z M 175.804688 169.566406 C 175.648438 168.921875 175.804688 167.921875 176.488281 167.59375 L 179.308594 166.207031 L 180.695312 165.566406 C 180.929688 165.449219 181.171875 165.34375 181.417969 165.253906 C 181.710938 165.105469 182.019531 165.042969 182.347656 165.054688 C 182.671875 165.082031 182.925781 165.230469 183.101562 165.503906 C 183.242188 165.722656 183.339844 165.957031 183.390625 166.207031 C 183.546875 166.890625 183.398438 167.496094 182.949219 168.03125 C 182.5 168.457031 181.980469 168.761719 181.390625 168.949219 C 180.925781 169.148438 180.449219 169.328125 179.980469 169.519531 L 177.117188 170.679688 C 176.398438 170.9375 175.917969 170.125 175.804688 169.539062 Z M 184.511719 179.09375 L 185.699219 177.21875 L 186.292969 176.277344 C 186.390625 176.125 186.492188 175.976562 186.601562 175.828125 C 186.765625 175.5625 186.980469 175.347656 187.242188 175.1875 L 187.421875 175.078125 C 187.699219 174.949219 187.960938 174.972656 188.210938 175.148438 C 188.433594 175.28125 188.601562 175.46875 188.710938 175.707031 C 189.042969 176.367188 189.09375 177.046875 188.859375 177.746094 C 188.769531 178.050781 188.636719 178.335938 188.460938 178.601562 C 188.359375 178.746094 188.253906 178.894531 188.140625 179.035156 L 187.5 179.851562 L 186.21875 181.511719 C 186.101562 181.71875 185.9375 181.875 185.722656 181.976562 L 185.417969 182.046875 C 185.054688 182.027344 184.777344 181.863281 184.589844 181.550781 C 184.347656 181.175781 184.226562 180.765625 184.226562 180.320312 C 184.203125 179.875 184.296875 179.457031 184.511719 179.070312 Z M 193.3125 139.75 C 193.285156 139.503906 193.285156 139.496094 193.3125 139.726562 Z M 190.242188 136.160156 C 190.144531 134.539062 190.160156 132.917969 190.289062 131.300781 C 190.332031 130.660156 190.851562 129.851562 191.570312 129.953125 C 192.285156 130.054688 192.683594 131.074219 192.660156 131.722656 C 192.589844 133.128906 192.617188 134.53125 192.742188 135.933594 C 192.742188 136.121094 192.742188 136.3125 192.792969 136.5 C 192.796875 136.550781 192.796875 136.601562 192.792969 136.652344 C 192.832031 136.972656 192.882812 137.292969 192.933594 137.628906 C 192.984375 137.960938 193.054688 138.328125 193.121094 138.679688 C 193.152344 138.839844 193.191406 139 193.214844 139.167969 C 193.242188 139.335938 193.265625 139.566406 193.285156 139.769531 C 193.375 140.546875 193.335938 141.53125 192.644531 142.015625 C 192.496094 142.097656 192.332031 142.140625 192.160156 142.144531 C 191.988281 142.148438 191.828125 142.113281 191.671875 142.042969 C 191.515625 141.96875 191.382812 141.867188 191.277344 141.730469 C 191.171875 141.597656 191.097656 141.445312 191.0625 141.277344 C 190.578125 139.597656 190.304688 137.882812 190.242188 136.132812 Z M 210.269531 136.105469 C 210.4375 135.113281 210.78125 134.136719 211.039062 133.160156 C 211.292969 132.1875 211.507812 131.371094 211.742188 130.472656 C 211.761719 130.363281 211.800781 130.261719 211.867188 130.171875 C 211.933594 130.082031 212.011719 130.011719 212.109375 129.957031 C 212.210938 129.90625 212.3125 129.878906 212.425781 129.875 C 212.535156 129.871094 212.640625 129.894531 212.742188 129.941406 C 212.960938 130.113281 213.117188 130.328125 213.207031 130.589844 C 213.300781 130.851562 213.316406 131.121094 213.253906 131.390625 C 213.070312 132.320312 212.890625 133.25 212.703125 134.175781 C 212.519531 135.097656 212.382812 136.230469 212.0625 137.21875 C 211.902344 137.730469 211.371094 138.167969 210.851562 137.859375 C 210.59375 137.644531 210.410156 137.375 210.304688 137.054688 C 210.199219 136.734375 210.1875 136.410156 210.269531 136.082031 Z M 226.207031 145.089844 C 225.917969 144.636719 225.769531 144.140625 225.765625 143.601562 C 225.75 143.066406 225.875 142.5625 226.136719 142.09375 C 226.914062 140.8125 227.804688 139.566406 228.65625 138.316406 C 228.863281 137.941406 229.179688 137.730469 229.605469 137.671875 C 230.039062 137.691406 230.363281 137.886719 230.585938 138.261719 C 230.875 138.707031 231.019531 139.191406 231.019531 139.71875 C 231.042969 140.25 230.921875 140.742188 230.65625 141.203125 C 229.847656 142.484375 229.066406 143.769531 228.175781 145.050781 C 227.957031 145.421875 227.632812 145.636719 227.207031 145.695312 C 226.765625 145.671875 226.433594 145.464844 226.207031 145.085938 Z M 235.519531 152.027344 C 235.484375 151.839844 235.484375 151.65625 235.519531 151.46875 C 235.515625 151.195312 235.5625 150.929688 235.660156 150.671875 L 235.871094 150.242188 L 236.03125 150.039062 C 236.15625 149.851562 236.300781 149.683594 236.46875 149.539062 L 236.84375 149.261719 L 237.609375 148.691406 C 237.804688 148.492188 238.046875 148.386719 238.324219 148.375 L 238.703125 148.445312 C 238.972656 148.5625 239.1875 148.742188 239.34375 148.984375 L 239.574219 149.421875 C 239.691406 149.679688 239.753906 149.949219 239.769531 150.230469 C 239.820312 150.523438 239.820312 150.8125 239.769531 151.101562 C 239.738281 151.367188 239.660156 151.613281 239.53125 151.847656 C 239.449219 152.070312 239.320312 152.257812 239.144531 152.417969 L 238.398438 153.0625 L 238.019531 153.367188 L 237.972656 153.40625 L 237.632812 153.636719 L 237.53125 153.683594 L 237.332031 153.761719 C 237.15625 153.855469 236.972656 153.871094 236.78125 153.8125 C 236.578125 153.796875 236.402344 153.71875 236.257812 153.574219 L 235.96875 153.246094 L 235.742188 152.824219 C 235.617188 152.570312 235.542969 152.308594 235.519531 152.027344 Z M 204.570312 155.003906 C 204.574219 155.019531 204.574219 155.03125 204.570312 155.042969 C 204.554688 154.894531 204.558594 154.851562 204.546875 155.003906 Z M 204.570312 155.003906 " fill-opacity="1" fill-rule="nonzero"/></g></svg>