<svg xmlns="http://www.w3.org/2000/svg" xmlns:xlink="http://www.w3.org/1999/xlink" width="500" zoomAndPan="magnify" viewBox="0 0 375 374.999991" height="500" preserveAspectRatio="xMidYMid meet" version="1.0"><defs><clipPath id="d8f664a50d"><path d="M 274.035156 267 L 305.082031 267 L 305.082031 270.820312 L 274.035156 270.820312 Z M 274.035156 267 " clip-rule="nonzero"/></clipPath><clipPath id="e95b14806f"><path d="M 274.035156 267 L 305.082031 267 L 305.082031 270.820312 L 274.035156 270.820312 Z M 274.035156 267 " clip-rule="nonzero"/></clipPath><clipPath id="7072d3fc90"><path d="M 69.859375 77.394531 L 269 77.394531 L 269 286.644531 L 69.859375 286.644531 Z M 69.859375 77.394531 " clip-rule="nonzero"/></clipPath></defs><path fill="#000000" d="M 273.273438 227.734375 C 273.273438 227.160156 273.273438 226.566406 273.273438 225.964844 C 278.324219 223.628906 285.734375 225.46875 291.25 224.988281 C 295.132812 224.652344 303.488281 223.417969 304.480469 228.917969 C 294.609375 227.582031 283.949219 230.140625 273.273438 227.734375 C 273.273438 227.160156 283.949219 230.140625 273.273438 227.734375 " fill-opacity="1" fill-rule="evenodd"/><path fill="#000000" d="M 273.273438 156.988281 C 273.179688 156.300781 273.402344 155.9375 273.847656 155.820312 C 280.914062 152.160156 294.808594 154.101562 302.132812 156.410156 C 297.988281 160.335938 282.398438 158.136719 273.273438 156.988281 C 273.179688 156.300781 282.398438 158.136719 273.273438 156.988281 " fill-opacity="1" fill-rule="evenodd"/><path fill="#000000" d="M 273.273438 120.425781 C 278.777344 117.902344 296.316406 117.492188 299.773438 120.425781 C 292.199219 122.1875 281.574219 123.726562 273.273438 120.425781 " fill-opacity="1" fill-rule="evenodd"/><g clip-path="url(#d8f664a50d)"><path fill="#000000" d="M 274.441406 269.015625 C 274.277344 268.054688 275.003906 268.003906 275.03125 267.246094 C 284.859375 267.617188 296.214844 266.476562 305.082031 267.832031 C 299.292969 273.222656 285.707031 267.695312 276.796875 270.199219 C 276.652344 269.152344 275.785156 268.851562 274.441406 269.015625 C 274.277344 268.054688 275.785156 268.851562 274.441406 269.015625 " fill-opacity="1" fill-rule="evenodd"/></g><path fill="#000000" d="M 304.480469 228.917969 C 303.574219 223.90625 296.4375 224.59375 292.757812 224.867188 C 286.902344 225.304688 278.546875 223.519531 273.273438 225.964844 C 273.273438 226.566406 273.273438 227.160156 273.273438 227.734375 C 283.949219 230.140625 294.609375 227.582031 304.480469 228.917969 C 303.339844 222.582031 294.609375 227.582031 304.480469 228.917969 " fill-opacity="1" fill-rule="evenodd"/><path fill="#000000" d="M 302.132812 156.410156 C 294.808594 154.101562 280.914062 152.160156 273.847656 155.820312 C 273.402344 155.9375 273.179688 156.300781 273.273438 156.988281 C 282.398438 158.136719 297.988281 160.335938 302.132812 156.410156 C 294.808594 154.101562 297.988281 160.335938 302.132812 156.410156 " fill-opacity="1" fill-rule="evenodd"/><path fill="#000000" d="M 299.773438 120.425781 C 296.316406 117.492188 278.777344 117.902344 273.273438 120.425781 C 281.574219 123.726562 292.199219 122.1875 299.773438 120.425781 " fill-opacity="1" fill-rule="evenodd"/><g clip-path="url(#e95b14806f)"><path fill="#000000" d="M 276.796875 270.199219 C 285.707031 267.695312 299.292969 273.222656 305.082031 267.832031 C 296.214844 266.476562 284.859375 267.617188 275.03125 267.246094 C 275.003906 268.003906 274.277344 268.054688 274.441406 269.015625 C 275.785156 268.851562 276.652344 269.152344 276.796875 270.199219 C 285.707031 267.695312 276.652344 269.152344 276.796875 270.199219 " fill-opacity="1" fill-rule="evenodd"/></g><g clip-path="url(#7072d3fc90)"><path fill="#000000" d="M 233.222656 283.757812 C 235.332031 279.773438 237.792969 276.160156 242.648438 274.90625 C 241.78125 279.15625 236.414062 278.890625 236.171875 283.757812 C 240.394531 282.296875 242.785156 275.84375 247.355469 276.683594 C 246.378906 279.757812 239.382812 279.542969 241.464844 283.757812 C 245.066406 281.464844 246.832031 277.34375 251.472656 276.089844 C 250.660156 279.980469 245.890625 279.921875 245 283.757812 C 251 283.484375 251.910156 278.082031 256.78125 276.683594 C 256.25 280.46875 251.800781 280.347656 250.882812 283.757812 C 256.179688 283.535156 256.464844 275.179688 262.066406 277.277344 C 259.867188 279.371094 256.601562 280.433594 255.597656 283.757812 C 258.238281 283.046875 262.109375 283.578125 264.441406 282.574219 C 263.144531 278.90625 264.078125 273.480469 264.441406 269.609375 C 253.027344 269.609375 240.085938 270.457031 228.53125 270.777344 C 231.140625 275.0625 223.4375 284.796875 233.222656 283.757812 C 235.332031 279.773438 223.4375 284.796875 233.222656 283.757812 Z M 224.972656 157.578125 C 225.300781 168.578125 224.476562 180.023438 224.398438 188.832031 C 237.640625 188.773438 251.585938 190.351562 264.441406 188.832031 C 264.601562 179.421875 264.328125 168.5 264.441406 157.578125 C 251.34375 156.214844 237.003906 157.167969 224.972656 157.578125 C 225.300781 168.578125 237.003906 157.167969 224.972656 157.578125 Z M 224.398438 191.175781 C 227.058594 204.21875 225.453125 211.84375 226.15625 224.207031 C 238.667969 225.28125 253.402344 222.96875 263.832031 227.160156 C 253.324219 226.386719 237.777344 225.46875 226.15625 225.382812 C 227.253906 240.441406 227.527344 258.800781 227.921875 269.609375 C 240.042969 268.964844 252.117188 268.285156 264.441406 267.832031 C 263.96875 245.757812 264.355469 217.519531 264.441406 190.601562 C 251.953125 192.402344 235.117188 189.011719 224.398438 191.175781 C 227.058594 204.21875 235.117188 189.011719 224.398438 191.175781 Z M 223.207031 120.425781 C 236.859375 119.972656 247.941406 119.390625 262.664062 119.261719 C 263.007812 111.035156 262.585938 99.753906 261.488281 93.3125 C 247.726562 98.214844 233.199219 102.335938 222.632812 110.425781 C 222.914062 113.652344 221.980469 118.136719 223.207031 120.425781 C 236.859375 119.972656 221.980469 118.136719 223.207031 120.425781 Z M 222.632812 122.203125 C 224.621094 132.097656 223.644531 147.800781 224.972656 156.410156 C 237.941406 155.320312 249.390625 155.75 264.441406 154.632812 C 264.078125 143.480469 263.933594 132.964844 263.25 121.039062 C 251.234375 120.910156 235.117188 120.925781 222.632812 122.203125 C 224.621094 132.097656 235.117188 120.925781 222.632812 122.203125 Z M 222.023438 95.097656 C 233.753906 91.707031 245.230469 88.050781 256.207031 83.886719 C 243.566406 84.726562 231.792969 83.929688 221.449219 84.476562 C 223.273438 86.351562 221.398438 90.933594 222.023438 95.097656 C 233.753906 91.707031 221.398438 90.933594 222.023438 95.097656 Z M 220.855469 119.851562 C 220.496094 118.066406 221.59375 114.769531 220.265625 113.960938 C 219.160156 115.78125 218.25 117.816406 217.316406 119.851562 C 219.363281 119.371094 219.800781 120.953125 220.855469 119.851562 C 220.496094 118.066406 219.800781 120.953125 220.855469 119.851562 Z M 213.789062 128.703125 C 209.628906 138.21875 204.777344 147.148438 200.839844 155.820312 C 200.128906 155.9375 200.464844 156.480469 200.839844 156.988281 C 207.574219 156.035156 215.53125 157.921875 222.632812 156.410156 C 221.15625 144.253906 223.1875 132.902344 219.671875 121.621094 C 215.085938 120.796875 214.90625 126.164062 213.789062 128.703125 C 209.628906 138.21875 214.90625 126.164062 213.789062 128.703125 Z M 189.066406 284.332031 C 193.15625 282.976562 195.796875 274.398438 199.65625 276.683594 C 198.535156 279.472656 191.519531 282.4375 194.941406 284.332031 C 197.480469 281.957031 199.132812 275.585938 203.773438 277.277344 C 202.167969 279.578125 198.464844 279.800781 198.480469 283.757812 C 204.785156 283.390625 205.027344 276.941406 210.265625 275.5 C 210.207031 279.59375 203.40625 280.03125 204.957031 283.757812 C 207.023438 280.117188 210.8125 278.203125 214.972656 276.683594 C 213.472656 280.09375 208.714844 280.238281 207.316406 283.757812 C 209.097656 282.941406 209.417969 284.03125 212.023438 283.757812 C 214.160156 279.988281 217.144531 277.078125 220.855469 274.90625 C 220.1875 279.34375 215.410156 279.679688 214.363281 283.757812 C 219.476562 283.277344 219.167969 283.5625 224.398438 283.757812 C 223.945312 278.992188 225.101562 275.800781 224.972656 271.378906 C 213.902344 270.390625 201.21875 272.589844 187.882812 271.953125 C 187.8125 276.847656 186.527344 281.019531 189.066406 284.332031 C 193.15625 282.976562 186.527344 281.019531 189.066406 284.332031 Z M 222.632812 188.238281 C 223.601562 179.867188 222.476562 169.875 222.632812 158.179688 C 217.152344 158.058594 207.039062 158.265625 199.65625 158.179688 C 195.265625 168.132812 187.417969 174.613281 186.691406 188.238281 C 198.285156 186.683594 210.566406 188.417969 222.632812 188.238281 C 223.601562 179.867188 210.566406 188.417969 222.632812 188.238281 Z M 186.691406 224.207031 C 200.1875 225.792969 214.363281 222.773438 223.789062 224.207031 C 223.316406 212.992188 222.476562 200.011719 222.632812 190.023438 C 209.425781 189.699219 201.277344 187.992188 186.691406 189.40625 C 187.375 201.617188 186.84375 211.730469 186.691406 224.207031 C 200.1875 225.792969 186.84375 211.730469 186.691406 224.207031 Z M 187.882812 270.199219 C 197.832031 271.816406 212.023438 269.015625 224.398438 270.199219 C 225.300781 254.617188 225.453125 240.972656 224.398438 225.382812 C 209.90625 224.960938 200.496094 226.222656 186.691406 225.964844 C 186.089844 241.722656 187.445312 255.484375 187.882812 270.199219 C 197.832031 271.816406 187.445312 255.484375 187.882812 270.199219 Z M 190.230469 157.578125 C 188.457031 157.578125 186.691406 157.578125 184.933594 157.578125 C 185.316406 160.925781 184.152344 165.820312 185.523438 168.199219 C 187.074219 164.636719 189.289062 161.75 190.230469 157.578125 C 188.457031 157.578125 189.289062 161.75 190.230469 157.578125 Z M 184.933594 156.410156 C 187.460938 156.34375 189.253906 155.210938 191.40625 156.410156 C 196.433594 144.535156 202.222656 133.410156 207.316406 121.621094 C 198 121.65625 191.808594 121.449219 183.183594 121.621094 C 184.519531 132.449219 183.722656 145.402344 184.933594 156.410156 C 187.460938 156.34375 183.722656 145.402344 184.933594 156.410156 Z M 183.183594 119.851562 C 191.425781 119.464844 199.71875 121.132812 208.5 119.851562 C 212.753906 108.65625 223.136719 98.40625 219.671875 83.292969 C 206.808594 84.09375 193.59375 83.292969 181.980469 83.292969 C 181.9375 93.84375 182.1875 108.449219 183.183594 119.851562 C 191.425781 119.464844 182.1875 108.449219 183.183594 119.851562 Z M 173.15625 197.082031 C 165.035156 206.527344 156.011719 214.683594 149.007812 224.796875 C 163.199219 224.328125 171.820312 225.46875 184.933594 224.207031 C 183.859375 211.703125 184.625 200.964844 182.574219 189.40625 C 177.976562 189.527344 175.6875 194.148438 173.15625 197.082031 C 165.035156 206.527344 175.6875 194.148438 173.15625 197.082031 Z M 160.191406 276.089844 C 159.660156 280.265625 154.882812 280.195312 154.308594 284.332031 C 159.195312 284.042969 159.539062 276.3125 164.324219 277.851562 C 163.664062 279.921875 157.824219 282.523438 160.78125 284.332031 C 162.675781 281.132812 165.644531 275.84375 169.625 276.683594 C 167.703125 278.992188 163.003906 281.3125 163.730469 284.332031 C 170.5 284.632812 170.5 278.132812 175.523438 276.683594 C 174.519531 279.988281 171.023438 280.8125 170.214844 284.332031 C 173.628906 282.050781 177.035156 276.625 181.980469 277.851562 C 180.1875 280.46875 173.285156 280.789062 174.332031 284.332031 C 177.660156 284.332031 181.011719 284.332031 184.347656 284.332031 C 183.960938 280.402344 185.128906 274.90625 183.757812 271.953125 C 173.996094 271.816406 161.757812 272.707031 150.171875 272.546875 C 149.179688 276.804688 149.160156 278.855469 149.007812 284.332031 C 153.15625 282.324219 156.28125 276.367188 160.191406 276.089844 C 159.660156 280.265625 156.28125 276.367188 160.191406 276.089844 Z M 150.171875 271.378906 C 160.601562 271.257812 172.171875 270.691406 184.347656 270.777344 C 184.382812 258.824219 185.070312 241.5 184.933594 225.964844 C 172.375 225.964844 159.8125 225.964844 147.238281 225.964844 C 147.761719 242.933594 147.632812 258.574219 150.171875 271.378906 C 160.601562 271.257812 147.632812 258.574219 150.171875 271.378906 Z M 147.238281 213.601562 C 149.914062 208.683594 154.125 204.75 158.125 200.921875 C 160.09375 199.007812 167.660156 193.324219 166.671875 190.023438 C 161.992188 188.953125 155.378906 189.886719 146.648438 190.023438 C 145.363281 198.0625 145.652344 206.183594 147.238281 213.601562 C 150.832031 207.007812 145.652344 206.183594 147.238281 213.601562 Z M 144.898438 155.820312 C 159.863281 155.597656 169.796875 155.835938 182.574219 156.410156 C 182.230469 144.742188 179.691406 132.191406 180.214844 121.621094 C 167.429688 121.15625 156.898438 120.675781 144.308594 121.039062 C 144.90625 131.230469 144.957031 147.207031 144.898438 155.820312 C 159.863281 155.597656 144.957031 147.207031 144.898438 155.820312 Z M 146.066406 188.832031 C 153.113281 188.015625 161.195312 188.25 169.03125 188.238281 C 173.78125 183.164062 178.25 177.816406 183.183594 172.90625 C 183.183594 167.796875 183.183594 162.695312 183.183594 157.578125 C 170.59375 157.398438 158.558594 156.660156 145.472656 156.988281 C 143.425781 166.714844 146.886719 176.949219 146.066406 188.832031 C 153.113281 188.015625 146.886719 176.949219 146.066406 188.832031 Z M 144.898438 119.851562 C 157.34375 119.183594 165.746094 120.101562 179.625 119.851562 C 178.953125 109.617188 180.0625 97.023438 180.214844 83.292969 C 167.617188 83.507812 152.960938 81.320312 143.125 81.523438 C 144.632812 91.183594 143.699219 104.894531 144.898438 119.851562 C 157.34375 119.183594 143.699219 104.894531 144.898438 119.851562 Z M 115.449219 283.757812 C 119.386719 282.230469 122.609375 274.238281 126.632812 276.683594 C 125.011719 279.773438 120.757812 280.230469 119.546875 283.757812 C 124.847656 283.140625 126.082031 275.351562 131.339844 276.683594 C 130.335938 279.542969 124.351562 280.117188 125.449219 283.148438 C 127.808594 283.140625 132.078125 276.847656 134.875 277.277344 C 134.453125 280.574219 130.40625 280.253906 129.582031 283.148438 C 134.042969 284.179688 137.59375 273.808594 142.53125 277.277344 C 139.53125 278.785156 135.910156 279.6875 134.875 283.148438 C 138.414062 284.582031 144.101562 283.046875 146.648438 283.148438 C 146.183594 280.375 145.929688 277.234375 146.066406 272.546875 C 134.683594 272.203125 125.472656 273.113281 115.449219 271.953125 C 114.050781 275.359375 116.691406 279.113281 115.449219 283.757812 C 119.386719 282.230469 116.691406 279.113281 115.449219 283.757812 Z M 115.449219 270.777344 C 126.820312 270.554688 133.886719 271.472656 146.066406 271.378906 C 146.554688 260.617188 146.460938 241.558594 144.898438 227.734375 C 136.519531 223.628906 123.871094 227.582031 114.265625 226.566406 C 114.195312 242.046875 115.335938 258.9375 115.449219 270.777344 C 126.820312 270.554688 115.335938 258.9375 115.449219 270.777344 Z M 114.265625 225.382812 C 120.953125 224.867188 130.070312 224.34375 137.816406 224.796875 C 131.625 218.230469 121.210938 215.859375 113.691406 210.632812 C 112.953125 214.691406 114.1875 220.359375 114.265625 225.382812 C 120.953125 224.867188 114.1875 220.359375 114.265625 225.382812 Z M 111.90625 197.082031 C 123.65625 202.433594 133.613281 212.691406 144.898438 216.539062 C 144.359375 208.691406 142.867188 198.242188 143.714844 190.023438 C 130.277344 190.550781 124.308594 190.488281 112.507812 190.023438 C 112.730469 192.796875 111.445312 194.0625 111.90625 197.082031 C 123.65625 202.433594 111.445312 194.0625 111.90625 197.082031 Z M 112.507812 188.238281 C 121.992188 189.339844 133.3125 188.632812 143.714844 188.832031 C 144.109375 183.0625 142.847656 177.179688 142.453125 171.429688 C 142.136719 166.921875 144.339844 161.75 143.125 157.578125 C 135.054688 156.546875 121.511719 157.148438 110.722656 156.988281 C 109.917969 167.769531 112.59375 176.46875 112.507812 188.238281 C 121.992188 189.339844 112.59375 176.46875 112.507812 188.238281 Z M 110.722656 155.820312 C 123.175781 155.089844 128.835938 155.792969 143.125 155.820312 C 143.535156 143.601562 142.53125 132.835938 142.53125 121.039062 C 131.554688 120.144531 118.148438 120.171875 107.789062 120.425781 C 108.023438 135.332031 108.726562 143.753906 110.722656 155.820312 C 123.175781 155.089844 108.726562 143.753906 110.722656 155.820312 Z M 108.382812 147.558594 C 107.035156 146.933594 108.152344 143.851562 107.789062 142.246094 C 105.140625 142.148438 107.054688 149.773438 108.382812 147.558594 Z M 107.789062 118.675781 C 120.6875 119.441406 131.914062 118.976562 143.125 119.261719 C 141.769531 105.703125 142.085938 96 141.355469 80.949219 C 128.972656 81.4375 117.917969 79.832031 106.605469 80.949219 C 105.40625 92.652344 107.910156 107.996094 107.789062 118.675781 C 120.6875 119.441406 107.910156 107.996094 107.789062 118.675781 Z M 106.023438 110.425781 C 104.566406 101.96875 106.308594 94.144531 103.664062 86.832031 C 105.0625 94.078125 103.054688 104.722656 106.023438 110.425781 Z M 111.90625 225.382812 C 112.277344 223.449219 111.660156 217.914062 111.90625 214.175781 C 107.257812 216.015625 106.777344 222.015625 103.664062 225.382812 C 106.417969 225.382812 109.164062 225.382812 111.90625 225.382812 C 112.277344 223.449219 109.164062 225.382812 111.90625 225.382812 Z M 111.90625 270.777344 C 112.816406 258.730469 112.363281 241.058594 112.507812 227.160156 C 110.355469 226.0625 105.292969 226.402344 103.074219 227.160156 C 94.824219 241.085938 88.117188 256.566406 80.707031 271.378906 C 91.753906 271.816406 100.957031 270.414062 111.90625 270.777344 C 112.816406 258.730469 100.957031 270.414062 111.90625 270.777344 Z M 88.355469 275.5 C 88.496094 279.851562 79.5 281.054688 81.882812 283.757812 C 86.976562 282.179688 89.273438 277.808594 93.65625 275.5 C 93.785156 280.734375 88.144531 280.195312 86.589844 283.757812 C 94.050781 283.964844 95.691406 275.171875 101.90625 276.089844 C 99.902344 278.496094 92.578125 281.570312 94.25 283.757812 C 99.859375 283.535156 102.875 274.90625 107.191406 277.277344 C 105.132812 280.296875 100.269531 280.539062 98.957031 284.332031 C 103.140625 283.988281 107.128906 283.484375 111.90625 283.757812 C 111.90625 280.023438 111.90625 276.28125 111.90625 272.546875 C 100.261719 271.121094 85.339844 274.054688 76.574219 273.15625 C 75.5625 275.652344 76.136719 279.773438 76 283.148438 C 80.457031 281.285156 83.589844 275.113281 88.355469 275.5 C 88.496094 279.851562 83.589844 275.113281 88.355469 275.5 Z M 93.65625 227.160156 C 90.347656 228.328125 80.621094 226.59375 75.40625 228.917969 C 76.136719 241.085938 75.382812 251.957031 75.40625 263.125 C 82.695312 252.34375 87.917969 239.480469 93.65625 227.160156 C 90.347656 228.328125 87.917969 239.480469 93.65625 227.160156 Z M 75.40625 226.566406 C 80.808594 225.304688 88.46875 226.292969 94.839844 225.964844 C 100.570312 216.582031 104.25 205.136719 110.722656 196.5 C 109.394531 195.683594 110.507812 192.386719 110.140625 190.601562 C 99.582031 189.527344 86.382812 188.761719 75.40625 190.023438 C 74.335938 202.691406 75.570312 214.769531 75.40625 226.566406 C 80.808594 225.304688 75.570312 214.769531 75.40625 226.566406 Z M 75.40625 188.238281 C 86.230469 187.191406 94.507812 188.773438 109.558594 188.238281 C 108.476562 177.917969 107.585938 167.410156 106.605469 156.988281 C 98.570312 157.011719 82.421875 156.300781 74.222656 158.179688 C 74.875 168.132812 74.308594 177.773438 75.40625 188.238281 C 86.230469 187.191406 74.308594 177.773438 75.40625 188.238281 Z M 74.222656 117.492188 C 83.710938 118.410156 94.015625 118.503906 104.25 118.675781 C 103.195312 106.296875 102.164062 92.324219 101.90625 80.949219 C 95.03125 80.785156 83.589844 81.042969 74.808594 80.949219 C 73.597656 91.785156 72.945312 106.070312 74.222656 117.492188 C 83.710938 118.410156 72.945312 106.070312 74.222656 117.492188 Z M 106.605469 155.226562 C 105.226562 144.03125 105.003906 131.683594 104.25 119.851562 C 94.050781 120.238281 85.648438 118.839844 75.40625 119.261719 C 73.417969 131.417969 73.914062 144.390625 73.625 155.820312 C 81.90625 155.75 94.6875 154.976562 106.605469 155.226562 C 105.226562 144.03125 94.6875 154.976562 106.605469 155.226562 Z M 73.050781 126.335938 C 72.945312 118.410156 72.800781 112.527344 71.273438 108.640625 C 71.152344 115.644531 70.097656 121.585938 73.050781 126.335938 Z M 70.671875 77.402344 C 102.457031 79.53125 134.34375 78.777344 166.160156 79.585938 C 181.878906 79.988281 197.351562 81.886719 213.105469 81.636719 C 229.820312 81.386719 246.585938 80.3125 263.25 82.117188 C 264.21875 94.292969 264.585938 106.484375 265.613281 118.675781 C 265.015625 120.652344 267.441406 119.59375 268.554688 119.851562 C 268.652344 123.039062 266.15625 120.179688 265.03125 121.621094 C 265.304688 124.617188 266.980469 132.0625 264.441406 134.003906 C 267.414062 152.769531 266.839844 171.917969 266.234375 190.832031 C 265.933594 200.507812 265.316406 210.226562 265.726562 219.90625 C 266.136719 229.574219 267.511719 239.257812 266.78125 248.960938 C 269.355469 258.6875 268.746094 274.527344 267.375 284.925781 C 207.699219 286.902344 137.660156 283.714844 73.625 286.710938 C 71.890625 269.480469 74.402344 252.074219 73.625 234.808594 C 72.78125 216.289062 72.347656 197.746094 72.199219 179.199219 C 72.121094 170.5 72.121094 161.8125 72.199219 153.113281 C 72.25 145.15625 73.640625 136.148438 71.480469 128.421875 C 66.695312 111.292969 74.394531 94.386719 70.671875 77.402344 C 101.796875 79.488281 73.445312 90.042969 70.671875 77.402344 " fill-opacity="1" fill-rule="evenodd"/></g><path fill="#000000" d="M 272.671875 192.359375 C 273.34375 187.628906 299.84375 187.527344 302.132812 192.953125 C 295.011719 195.015625 283.007812 192.242188 274.441406 194.128906 C 274.121094 193.28125 273.539062 192.703125 272.671875 192.359375 C 273.34375 187.628906 273.539062 192.703125 272.671875 192.359375 " fill-opacity="1" fill-rule="evenodd"/></svg>